<svg width="34" height="34" viewBox="0 0 34 34" fill="none" xmlns="http://www.w3.org/2000/svg">
<path d="M24.1407 24.1426C23.8789 24.4044 23.4544 24.4044 23.1926 24.1426L21.5833 22.5333C21.3611 22.6889 21.1139 22.8056 20.8417 22.8833C20.5694 22.9611 20.2889 23 20 23C19.1667 23 18.4583 22.7083 17.875 22.125C17.2917 21.5417 17 20.8333 17 20C17 19.1667 17.2917 18.4583 17.875 17.875C18.4583 17.2917 19.1667 17 20 17C20.8333 17 21.5417 17.2917 22.125 17.875C22.7083 18.4583 23 19.1667 23 20C23 20.2889 22.9611 20.5694 22.8833 20.8417C22.8056 21.1139 22.6889 21.3667 22.5333 21.6L24.1388 23.1926C24.4024 23.4541 24.4033 23.8801 24.1407 24.1426V24.1426Z" fill="#EC615B"/>
<mask id="mask0_619_36644" style="mask-type:alpha" maskUnits="userSpaceOnUse" x="9" y="9" width="16" height="16">
<rect x="9" y="9" width="16" height="16" fill="#D9D9D9"/>
</mask>
<g mask="url(#mask0_619_36644)">
<path d="M11.1273 20.5105C10.9233 20.8384 10.4842 20.9246 10.1713 20.6984V20.6984C9.88722 20.493 9.8109 20.1027 9.99668 19.8054L13 15.0002L15 17.3335L17.6666 13.0002L19.4833 15.7168C19.2277 15.7279 18.9861 15.7585 18.7583 15.8085C18.5305 15.8585 18.3055 15.9279 18.0833 16.0168L17.7166 15.4668L15.1833 19.5835L13.1666 17.2335L11.1273 20.5105ZM21.2 16.0502C20.9888 15.9613 20.7694 15.8891 20.5416 15.8335C20.3138 15.7779 20.0777 15.7446 19.8333 15.7335L22.8708 10.9328C23.0763 10.608 23.5132 10.5238 23.8247 10.7491V10.7491C24.1104 10.9557 24.1858 11.349 23.9968 11.6466L21.2 16.0502Z" fill="#EC615B"/>
</g>
</svg>
