<svg width="30" height="30" viewBox="0 0 30 30" fill="none" xmlns="http://www.w3.org/2000/svg">
<path d="M14.4 15.0619V16C14.4 16.7732 13.7732 17.4 13 17.4H9C8.2268 17.4 7.6 16.7732 7.6 16V15.0619C7.6 14.3053 8.20111 13.6856 8.95735 13.6625L11 13.6003L13.0427 13.6625C13.7989 13.6856 14.4 14.3053 14.4 15.0619Z" fill="#EC615B" stroke="#EC615B" stroke-width="1.2"/>
<circle cx="11.0016" cy="9.4" r="1.8" stroke="#EC615B" stroke-width="1.2"/>
<path d="M22.4 19V20C22.4 20.7732 21.7732 21.4 21 21.4H17C16.2268 21.4 15.6 20.7732 15.6 20V19C15.6 18.2268 16.2268 17.6 17 17.6H19H21C21.7732 17.6 22.4 18.2268 22.4 19Z" fill="#EC615B" stroke="#EC615B" stroke-width="1.2"/>
<circle cx="19.0016" cy="13.2643" r="1.8" stroke="#EC615B" stroke-width="1.2"/>
</svg>
