<svg width="30" height="30" viewBox="0 0 30 30" fill="none" xmlns="http://www.w3.org/2000/svg">
<path fill-rule="evenodd" clip-rule="evenodd" d="M22.3683 8.58246C23.191 8.35344 23.9037 9.19447 23.5428 9.96844L18.0702 21.7048C17.6869 22.5269 16.4951 22.455 16.2134 21.5929L14.7302 17.0543C14.787 17.0306 14.8412 16.9978 14.8905 16.9556L18.3905 13.9556C18.6421 13.7399 18.6712 13.3611 18.4556 13.1095C18.2399 12.8579 17.8611 12.8288 17.6095 13.0444L14.1095 16.0444C14.0776 16.0718 14.0493 16.1018 14.0246 16.1338L9.45441 14.0043C8.61239 13.6119 8.71367 12.3836 9.60858 12.1345L22.3683 8.58246Z" fill="#EC615B"/>
<path d="M11.8484 17.0946C11.0623 18.1428 9.75175 17.8807 9.75175 17.8807" stroke="#EC615B" stroke-width="1.2" stroke-linecap="round"/>
<path d="M13.2522 18.9193C11.393 19.7765 11.3636 21.8645 11.3636 21.8645" stroke="#EC615B" stroke-width="1.2" stroke-linecap="round"/>
</svg>
