<svg width="24" height="24" viewBox="0 0 24 24" fill="none" xmlns="http://www.w3.org/2000/svg">
<path fill-rule="evenodd" clip-rule="evenodd" d="M18.8681 5.08321C19.6908 4.85419 20.4035 5.69522 20.0426 6.46919L14.57 18.2056C14.1867 19.0276 12.9949 18.9558 12.7132 18.0936L11.23 13.555C11.2869 13.5314 11.341 13.4985 11.3903 13.4563L14.8903 10.4563C15.1419 10.2406 15.171 9.86187 14.9554 9.61027C14.7397 9.35868 14.361 9.32954 14.1094 9.54519L10.6094 12.5452C10.5775 12.5725 10.5491 12.6025 10.5244 12.6345L5.95425 10.505C5.11222 10.1127 5.2135 8.88436 6.10842 8.63524L18.8681 5.08321Z" fill="#EC615B"/>
<path d="M8.34845 13.5951C7.56227 14.6433 6.25177 14.3813 6.25177 14.3813" stroke="#EC615B" stroke-width="1.2" stroke-linecap="round"/>
<path d="M9.75233 15.4187C7.89315 16.276 7.86368 18.3639 7.86368 18.3639" stroke="#EC615B" stroke-width="1.2" stroke-linecap="round"/>
</svg>
