<svg width="30" height="30" viewBox="0 0 30 30" fill="none" xmlns="http://www.w3.org/2000/svg">
<path d="M8 9.5C8 8.39543 8.89543 7.5 10 7.5H18.5C19.6046 7.5 20.5 8.39543 20.5 9.5V18C20.5 19.1046 19.6046 20 18.5 20H10C8.89543 20 8 19.1046 8 18V9.5Z" fill="#EC615B"/>
<path d="M20 15.7946V9.5C20 8.39543 19.1046 7.5 18 7.5H9.5C8.39543 7.5 7.5 8.39543 7.5 9.5V17.5C7.5 18.6046 8.39543 19.5 9.5 19.5H16.7372" stroke="#EC615B" stroke-width="1.2" stroke-linecap="round"/>
<path d="M15.2159 16.2756C14.8255 15.4545 15.5893 14.5588 16.4739 14.8004L23.2117 16.64C24.1761 16.9033 24.2846 18.2124 23.3765 18.6274L21.3844 19.5378C21.1142 19.6613 20.908 19.89 20.8149 20.1695L20.1149 22.2703C19.811 23.1824 18.5359 23.2589 18.1227 22.3897L15.2159 16.2756Z" fill="#F8F8FA"/>
<path d="M16.3704 11V12.0619M12.0741 15.2475H11M12.9971 12.4378L12.2376 11.6869M20.8149 20.1695L20.1149 22.2703C19.811 23.1824 18.5359 23.2589 18.1227 22.3897L15.2159 16.2756C14.8255 15.4545 15.5893 14.5588 16.4739 14.8004L23.2117 16.64C24.1761 16.9033 24.2846 18.2124 23.3765 18.6274L21.3844 19.5378C21.1142 19.6613 20.908 19.89 20.8149 20.1695Z" stroke="#F8F8FA" stroke-width="1.2" stroke-linecap="round"/>
<path d="M15.2159 16.2756C14.8255 15.4545 15.5893 14.5588 16.4739 14.8004L23.2117 16.64C24.1761 16.9033 24.2846 18.2124 23.3764 18.6274L21.3843 19.5378C21.1142 19.6613 20.908 19.89 20.8149 20.1695L20.1149 22.2703C19.811 23.1824 18.5359 23.2589 18.1227 22.3897L15.2159 16.2756Z" fill="#F8F8FA" stroke="#EC615B" stroke-width="1.2" stroke-linecap="round"/>
</svg>
