<svg width="30" height="30" viewBox="0 0 30 30" fill="none" xmlns="http://www.w3.org/2000/svg">
<path d="M7 14.8902C7 14.3627 7.20844 13.8565 7.57993 13.4819L13.5799 7.4319C14.3623 6.64301 15.6377 6.64301 16.4201 7.4319L22.4201 13.4819C22.7916 13.8565 23 14.3627 23 14.8902V21C23 22.1046 22.1046 23 21 23H18.7143C17.6097 23 16.7143 22.1046 16.7143 21V19.0476C16.7143 18.1008 15.9468 17.3333 15 17.3333V17.3333C14.0532 17.3333 13.2857 18.1008 13.2857 19.0476V21C13.2857 22.1046 12.3903 23 11.2857 23H9C7.89543 23 7 22.1046 7 21V14.8902Z" fill="#EC615B"/>
</svg>
