<svg width="30" height="30" viewBox="0 0 30 30" fill="none" xmlns="http://www.w3.org/2000/svg">
<path d="M13.2222 20.3333V20.2382C13.2222 19.5316 12.7813 18.9156 12.2293 18.4747C11.5089 17.9001 10.9848 17.1158 10.7297 16.2302C10.4746 15.3447 10.501 14.4018 10.8054 13.532C11.1098 12.6621 11.677 11.9084 12.4286 11.3752C13.1802 10.8419 14.0789 10.5555 15.0004 10.5555C15.922 10.5555 16.8207 10.8419 17.5723 11.3752C18.3239 11.9084 18.8911 12.6621 19.1955 13.532C19.4998 14.4018 19.5263 15.3447 19.2712 16.2302C19.0161 17.1158 18.492 17.9001 17.7716 18.4747C17.2187 18.9164 16.7778 19.5316 16.7778 20.2382V20.3333M13.2222 20.3333V22.1111C13.2222 22.3469 13.3159 22.573 13.4826 22.7397C13.6493 22.9064 13.8754 23 14.1111 23H15.8889C16.1246 23 16.3507 22.9064 16.5174 22.7397C16.6841 22.573 16.7778 22.3469 16.7778 22.1111V20.3333M13.2222 20.3333H16.7778ZM22.1111 15H23ZM7.88889 15H7ZM15 7.88889V7ZM20.0284 9.97156L20.6569 9.34311ZM9.97244 9.97156L9.34311 9.34311ZM15 17.6667V15.8889Z" fill="#EC615B"/>
<path d="M13.2222 20.3333V20.2382C13.2222 19.5316 12.7813 18.9156 12.2293 18.4747C11.5089 17.9001 10.9848 17.1158 10.7297 16.2302C10.4746 15.3447 10.501 14.4018 10.8054 13.532C11.1098 12.6621 11.677 11.9084 12.4286 11.3752C13.1802 10.8419 14.0789 10.5555 15.0004 10.5555C15.922 10.5555 16.8207 10.8419 17.5723 11.3752C18.3239 11.9084 18.8911 12.6621 19.1955 13.532C19.4998 14.4018 19.5263 15.3447 19.2712 16.2302C19.0161 17.1158 18.492 17.9001 17.7716 18.4747C17.2187 18.9164 16.7778 19.5316 16.7778 20.2382V20.3333M13.2222 20.3333V22.1111C13.2222 22.3469 13.3159 22.573 13.4826 22.7397C13.6493 22.9064 13.8754 23 14.1111 23H15.8889C16.1246 23 16.3507 22.9064 16.5174 22.7397C16.6841 22.573 16.7778 22.3469 16.7778 22.1111V20.3333M13.2222 20.3333H16.7778ZM22.1111 15H23ZM7.88889 15H7ZM15 7.88889V7ZM20.0284 9.97156L20.6569 9.34311ZM9.97244 9.97156L9.34311 9.34311Z" fill="#EC615B"/>
<path d="M13.2222 20.3333V20.2382C13.2222 19.5316 12.7813 18.9156 12.2293 18.4747C11.5089 17.9001 10.9848 17.1158 10.7297 16.2302C10.4746 15.3447 10.501 14.4018 10.8054 13.532C11.1098 12.6621 11.677 11.9084 12.4286 11.3752C13.1802 10.8419 14.0789 10.5555 15.0004 10.5555C15.922 10.5555 16.8207 10.8419 17.5723 11.3752C18.3239 11.9084 18.8911 12.6621 19.1955 13.532C19.4998 14.4018 19.5263 15.3447 19.2712 16.2302C19.0161 17.1158 18.492 17.9001 17.7716 18.4747C17.2187 18.9164 16.7778 19.5316 16.7778 20.2382V20.3333M13.2222 20.3333V22.1111C13.2222 22.3469 13.3159 22.573 13.4826 22.7397C13.6493 22.9064 13.8754 23 14.1111 23H15.8889C16.1246 23 16.3507 22.9064 16.5174 22.7397C16.6841 22.573 16.7778 22.3469 16.7778 22.1111V20.3333M13.2222 20.3333H16.7778M22.1111 15H23M7.88889 15H7M15 7.88889V7M20.0284 9.97156L20.6569 9.34311M9.97244 9.97156L9.34311 9.34311" stroke="#EC615B" stroke-width="1.2" stroke-linecap="round" stroke-linejoin="round"/>
<path d="M12 20H18Z" fill="#EBEBEB"/>
<path d="M12 20H18" stroke="#F4F4F4" stroke-width="1.2" stroke-linecap="round" stroke-linejoin="round"/>
</svg>
