<svg width="32" height="32" viewBox="0 0 32 32" fill="none" xmlns="http://www.w3.org/2000/svg">
  <g clip-path="url(#clip0_27_3060)">
    <path d="M22 12C21.1771 12 20.401 12.1562 19.6719 12.4688C18.9427 12.7812 18.3073 13.2083 17.7656 13.75C17.224 14.2917 16.7969 14.9271 16.4844 15.6562C16.1719 16.3854 16.0104 17.1615 16 17.9844C16 18.9531 15.7865 19.8594 15.3594 20.7031C14.9323 21.5469 14.3229 22.2604 13.5312 22.8438C14 23.0833 14.4427 23.3646 14.8594 23.6875C14.9923 23.7905 15.1215 23.8972 15.247 24.0077C15.6828 24.3912 15.6137 25.0648 15.1547 25.4203C14.7336 25.7464 14.1375 25.6812 13.7266 25.3425C13.33 25.0156 12.8951 24.7452 12.4219 24.5312C11.6615 24.1875 10.8542 24.0104 10 24C9.16667 24 8.39062 24.1562 7.67188 24.4688C6.95312 24.7812 6.31771 25.2083 5.76562 25.75C5.21354 26.2917 4.78125 26.9323 4.46875 27.6719C4.28632 28.1036 4.15713 28.5478 4.0812 29.0044C3.99061 29.5492 3.55228 30 3 30C2.44772 30 1.99285 29.5505 2.0616 29.0025C2.11303 28.5926 2.19667 28.1907 2.3125 27.7969C2.52083 27.0885 2.81771 26.4167 3.20312 25.7812C3.58854 25.1458 4.05729 24.5833 4.60938 24.0938C5.16146 23.6042 5.77604 23.1823 6.45312 22.8281C5.68229 22.2656 5.08333 21.5625 4.65625 20.7188C4.22917 19.875 4.01042 18.9688 4 18C4 17.1771 4.15625 16.401 4.46875 15.6719C4.78125 14.9427 5.20833 14.3073 5.75 13.7656C6.29167 13.224 6.92708 12.7917 7.65625 12.4688C8.38542 12.1458 9.16667 11.9896 10 12C10.9583 12 11.8594 12.2135 12.7031 12.6406C13.5469 13.0677 14.2552 13.6719 14.8281 14.4531C15.224 13.6719 15.7292 12.974 16.3438 12.3594C16.9583 11.7448 17.6615 11.2344 18.4531 10.8281C17.6823 10.2656 17.0833 9.5625 16.6562 8.71875C16.2292 7.875 16.0104 6.96875 16 6C16 5.17708 16.1562 4.40104 16.4688 3.67188C16.7812 2.94271 17.2083 2.30729 17.75 1.76562C18.2917 1.22396 18.9271 0.791667 19.6562 0.46875C20.3854 0.145833 21.1667 -0.0104167 22 0C22.8229 0 23.599 0.15625 24.3281 0.46875C25.0573 0.78125 25.6927 1.20833 26.2344 1.75C26.776 2.29167 27.2083 2.93229 27.5312 3.67188C27.8542 4.41146 28.0104 5.1875 28 6C28 6.95833 27.7865 7.85938 27.3594 8.70312C26.9323 9.54688 26.3281 10.2552 25.5469 10.8281C26.5885 11.349 27.4688 12.0573 28.1875 12.9531C28.6252 13.4987 28.9857 14.0887 29.2689 14.7231C29.5478 15.348 29.0478 16 28.3635 16C27.9211 16 27.5353 15.716 27.3386 15.3198C27.1728 14.9858 26.9766 14.6709 26.75 14.375C26.375 13.8854 25.9427 13.4635 25.4531 13.1094C24.9635 12.7552 24.4271 12.4844 23.8438 12.2969C23.2604 12.1094 22.6458 12.0104 22 12ZM22 2C21.4479 2 20.9323 2.10417 20.4531 2.3125C19.974 2.52083 19.5469 2.80729 19.1719 3.17188C18.7969 3.53646 18.5104 3.95833 18.3125 4.4375C18.1146 4.91667 18.0104 5.4375 18 6C18 6.55208 18.1042 7.06771 18.3125 7.54688C18.5208 8.02604 18.8073 8.45312 19.1719 8.82812C19.5365 9.20312 19.9583 9.48958 20.4375 9.6875C20.9167 9.88542 21.4375 9.98958 22 10C22.5521 10 23.0677 9.89583 23.5469 9.6875C24.026 9.47917 24.4531 9.19271 24.8281 8.82812C25.2031 8.46354 25.4896 8.04167 25.6875 7.5625C25.8854 7.08333 25.9896 6.5625 26 6C26 5.44792 25.8958 4.93229 25.6875 4.45312C25.4792 3.97396 25.1927 3.54688 24.8281 3.17188C24.4635 2.79688 24.0417 2.51042 23.5625 2.3125C23.0833 2.11458 22.5625 2.01042 22 2ZM10 22C10.5521 22 11.0677 21.8958 11.5469 21.6875C12.026 21.4792 12.4531 21.1927 12.8281 20.8281C13.2031 20.4635 13.4896 20.0417 13.6875 19.5625C13.8854 19.0833 13.9896 18.5625 14 18C14 17.4479 13.8958 16.9271 13.6875 16.4375C13.4792 15.9479 13.1979 15.526 12.8438 15.1719C12.4896 14.8177 12.0625 14.5312 11.5625 14.3125C11.0625 14.0938 10.5417 13.9896 10 14C9.44792 14 8.93229 14.1042 8.45312 14.3125C7.97396 14.5208 7.54688 14.8073 7.17188 15.1719C6.79688 15.5365 6.51042 15.9583 6.3125 16.4375C6.11458 16.9167 6.01042 17.4375 6 18C6 18.5521 6.10417 19.0677 6.3125 19.5469C6.52083 20.026 6.80729 20.4531 7.17188 20.8281C7.53646 21.2031 7.95833 21.4896 8.4375 21.6875C8.91667 21.8854 9.4375 21.9896 10 22Z" fill="#EC615B"/>
    <mask id="mask0_27_3060" style="mask-type:alpha" maskUnits="userSpaceOnUse" x="16" y="16" width="16" height="16">
      <rect x="16" y="16" width="16" height="16" fill="#D9D9D9"/>
    </mask>
    <g mask="url(#mask0_27_3060)">
      <path d="M19.452 28.5481C19.1355 28.8645 18.618 28.8662 18.3395 28.5158C17.9319 28.0031 17.5941 27.4365 17.3262 26.8163C16.9479 25.9406 16.7588 25.0016 16.7588 23.9992C16.7588 22.9847 16.9479 22.0417 17.3262 21.1702C17.5937 20.554 17.9307 19.9914 18.3373 19.4826C18.6172 19.1325 19.1353 19.1351 19.4523 19.4521C19.7692 19.7691 19.7635 20.2798 19.4947 20.6386C19.2242 20.9995 18.9973 21.3926 18.814 21.8178C18.5211 22.4971 18.3747 23.2232 18.3747 23.9961C18.3747 24.7808 18.5215 25.5126 18.815 26.1916C18.998 26.615 19.2238 27.0053 19.4926 27.3627C19.7617 27.7206 19.7687 28.2314 19.452 28.5481ZM21.4374 26.5626C21.122 26.878 20.603 26.8797 20.3505 26.512C20.183 26.268 20.0383 26.0064 19.9164 25.7269C19.6833 25.1927 19.5668 24.6186 19.5668 24.0046C19.5668 23.3783 19.6843 22.7971 19.9192 22.2609C20.0412 21.9827 20.1848 21.7235 20.3501 21.4834C20.6026 21.1166 21.1203 21.1201 21.4352 21.435C21.7532 21.7531 21.7369 22.2676 21.5241 22.6639C21.4828 22.7408 21.4448 22.8203 21.4099 22.9024C21.2647 23.2447 21.1921 23.6105 21.1921 23.9999C21.1921 24.3894 21.2647 24.7552 21.4099 25.0975C21.4452 25.1806 21.4837 25.261 21.5256 25.3388C21.738 25.7332 21.7542 26.2458 21.4374 26.5626ZM23.9987 25.6253C23.5513 25.6253 23.1688 25.466 22.8512 25.1474C22.5336 24.8289 22.3747 24.4459 22.3747 23.9985C22.3747 23.5512 22.534 23.1687 22.8526 22.851C23.1712 22.5334 23.5542 22.3746 24.0015 22.3746C24.4489 22.3746 24.8314 22.5339 25.149 22.8524C25.4667 23.171 25.6255 23.554 25.6255 24.0014C25.6255 24.4487 25.4662 24.8312 25.1476 25.1489C24.829 25.4665 24.4461 25.6253 23.9987 25.6253ZM27.6533 26.5069C27.3993 26.8777 26.8763 26.8761 26.5584 26.5583C26.2426 26.2424 26.2548 25.7335 26.4684 25.3413C26.5124 25.2604 26.5528 25.1769 26.5897 25.0908C26.7353 24.7511 26.8081 24.388 26.8081 24.0015C26.8081 23.6149 26.7353 23.2515 26.5897 22.911C26.5534 22.826 26.5136 22.7435 26.4703 22.6636C26.2562 22.2682 26.2442 21.7559 26.5621 21.4379C26.8792 21.1209 27.4004 21.1154 27.6553 21.4844C27.8204 21.7233 27.9633 21.9814 28.0838 22.2585C28.3169 22.7941 28.4335 23.3759 28.4335 24.004C28.4335 24.6196 28.3169 25.1943 28.0838 25.7278C27.9628 26.005 27.8193 26.2647 27.6533 26.5069ZM29.6621 28.5142C29.3829 28.8655 28.8641 28.8639 28.5468 28.5466C28.2304 28.2302 28.236 27.7205 28.5043 27.3624C28.7754 27.0007 29.0027 26.6066 29.1863 26.1803C29.4791 25.5004 29.6255 24.7736 29.6255 23.9999C29.6255 23.2164 29.4788 22.4855 29.1853 21.8072C29.0025 21.3848 28.777 20.9952 28.5087 20.6383C28.239 20.2797 28.232 19.768 28.5493 19.4507C28.8655 19.1345 29.3824 19.1319 29.6616 19.4813C30.0688 19.9911 30.4063 20.5554 30.6741 21.1742C31.0523 22.0483 31.2415 22.9918 31.2415 24.0046C31.2415 25.0054 31.0523 25.9431 30.6741 26.8177C30.4064 27.4366 30.0691 28.0021 29.6621 28.5142Z" fill="#EC615B"/>
    </g>
  </g>
  <defs>
    <clipPath id="clip0_27_3060">
      <rect width="32" height="32" fill="white"/>
    </clipPath>
  </defs>
</svg>
