<svg width="30" height="30" viewBox="0 0 30 30" fill="none" xmlns="http://www.w3.org/2000/svg">
<path d="M21.4 9V19C21.4 19.7732 20.7732 20.4 20 20.4C19.2268 20.4 18.6 19.7732 18.6 19V9C18.6 8.2268 19.2268 7.6 20 7.6C20.7732 7.6 21.4 8.2268 21.4 9Z" fill="#EC615B" stroke="#EC615B" stroke-width="1.2"/>
<path d="M16.4 13V19C16.4 19.7732 15.7732 20.4 15 20.4C14.2268 20.4 13.6 19.7732 13.6 19V13C13.6 12.2268 14.2268 11.6 15 11.6C15.7732 11.6 16.4 12.2268 16.4 13Z" stroke="#EC615B" stroke-width="1.2"/>
<path d="M11.4 18V19C11.4 19.7732 10.7732 20.4 10 20.4C9.2268 20.4 8.6 19.7732 8.6 19V18C8.6 17.2268 9.2268 16.6 10 16.6C10.7732 16.6 11.4 17.2268 11.4 18Z" fill="#EC615B" stroke="#EC615B" stroke-width="1.2"/>
</svg>
