<svg width="32" height="32" viewBox="0 0 32 32" fill="none" xmlns="http://www.w3.org/2000/svg">
  <g clip-path="url(#clip0_27_3066)">
    <path d="M22 12C21.1771 12 20.401 12.1562 19.6719 12.4688C18.9427 12.7812 18.3073 13.2083 17.7656 13.75C17.224 14.2917 16.7969 14.9271 16.4844 15.6562C16.1719 16.3854 16.0104 17.1615 16 17.9844C16 18.9531 15.7865 19.8594 15.3594 20.7031C14.9323 21.5469 14.3229 22.2604 13.5312 22.8438C14 23.0833 14.4427 23.3646 14.8594 23.6875C14.9923 23.7905 15.1215 23.8972 15.247 24.0077C15.6828 24.3912 15.6137 25.0648 15.1547 25.4203C14.7336 25.7464 14.1375 25.6812 13.7266 25.3425C13.33 25.0156 12.8951 24.7452 12.4219 24.5312C11.6615 24.1875 10.8542 24.0104 10 24C9.16667 24 8.39062 24.1562 7.67188 24.4688C6.95312 24.7812 6.31771 25.2083 5.76562 25.75C5.21354 26.2917 4.78125 26.9323 4.46875 27.6719C4.28632 28.1036 4.15713 28.5478 4.0812 29.0044C3.99061 29.5492 3.55228 30 3 30C2.44772 30 1.99285 29.5505 2.0616 29.0025C2.11303 28.5926 2.19667 28.1907 2.3125 27.7969C2.52083 27.0885 2.81771 26.4167 3.20312 25.7812C3.58854 25.1458 4.05729 24.5833 4.60938 24.0938C5.16146 23.6042 5.77604 23.1823 6.45312 22.8281C5.68229 22.2656 5.08333 21.5625 4.65625 20.7188C4.22917 19.875 4.01042 18.9688 4 18C4 17.1771 4.15625 16.401 4.46875 15.6719C4.78125 14.9427 5.20833 14.3073 5.75 13.7656C6.29167 13.224 6.92708 12.7917 7.65625 12.4688C8.38542 12.1458 9.16667 11.9896 10 12C10.9583 12 11.8594 12.2135 12.7031 12.6406C13.5469 13.0677 14.2552 13.6719 14.8281 14.4531C15.224 13.6719 15.7292 12.974 16.3438 12.3594C16.9583 11.7448 17.6615 11.2344 18.4531 10.8281C17.6823 10.2656 17.0833 9.5625 16.6562 8.71875C16.2292 7.875 16.0104 6.96875 16 6C16 5.17708 16.1562 4.40104 16.4688 3.67188C16.7812 2.94271 17.2083 2.30729 17.75 1.76562C18.2917 1.22396 18.9271 0.791667 19.6562 0.46875C20.3854 0.145833 21.1667 -0.0104167 22 0C22.8229 0 23.599 0.15625 24.3281 0.46875C25.0573 0.78125 25.6927 1.20833 26.2344 1.75C26.776 2.29167 27.2083 2.93229 27.5312 3.67188C27.8542 4.41146 28.0104 5.1875 28 6C28 6.95833 27.7865 7.85938 27.3594 8.70312C26.9323 9.54688 26.3281 10.2552 25.5469 10.8281C26.5885 11.349 27.4688 12.0573 28.1875 12.9531C28.6252 13.4987 28.9857 14.0887 29.2689 14.7231C29.5478 15.348 29.0478 16 28.3635 16C27.9211 16 27.5353 15.716 27.3386 15.3198C27.1728 14.9858 26.9766 14.6709 26.75 14.375C26.375 13.8854 25.9427 13.4635 25.4531 13.1094C24.9635 12.7552 24.4271 12.4844 23.8438 12.2969C23.2604 12.1094 22.6458 12.0104 22 12ZM22 2C21.4479 2 20.9323 2.10417 20.4531 2.3125C19.974 2.52083 19.5469 2.80729 19.1719 3.17188C18.7969 3.53646 18.5104 3.95833 18.3125 4.4375C18.1146 4.91667 18.0104 5.4375 18 6C18 6.55208 18.1042 7.06771 18.3125 7.54688C18.5208 8.02604 18.8073 8.45312 19.1719 8.82812C19.5365 9.20312 19.9583 9.48958 20.4375 9.6875C20.9167 9.88542 21.4375 9.98958 22 10C22.5521 10 23.0677 9.89583 23.5469 9.6875C24.026 9.47917 24.4531 9.19271 24.8281 8.82812C25.2031 8.46354 25.4896 8.04167 25.6875 7.5625C25.8854 7.08333 25.9896 6.5625 26 6C26 5.44792 25.8958 4.93229 25.6875 4.45312C25.4792 3.97396 25.1927 3.54688 24.8281 3.17188C24.4635 2.79688 24.0417 2.51042 23.5625 2.3125C23.0833 2.11458 22.5625 2.01042 22 2ZM10 22C10.5521 22 11.0677 21.8958 11.5469 21.6875C12.026 21.4792 12.4531 21.1927 12.8281 20.8281C13.2031 20.4635 13.4896 20.0417 13.6875 19.5625C13.8854 19.0833 13.9896 18.5625 14 18C14 17.4479 13.8958 16.9271 13.6875 16.4375C13.4792 15.9479 13.1979 15.526 12.8438 15.1719C12.4896 14.8177 12.0625 14.5312 11.5625 14.3125C11.0625 14.0938 10.5417 13.9896 10 14C9.44792 14 8.93229 14.1042 8.45312 14.3125C7.97396 14.5208 7.54688 14.8073 7.17188 15.1719C6.79688 15.5365 6.51042 15.9583 6.3125 16.4375C6.11458 16.9167 6.01042 17.4375 6 18C6 18.5521 6.10417 19.0677 6.3125 19.5469C6.52083 20.026 6.80729 20.4531 7.17188 20.8281C7.53646 21.2031 7.95833 21.4896 8.4375 21.6875C8.91667 21.8854 9.4375 21.9896 10 22Z" fill="#EC615B"/>
    <mask id="mask0_27_3066" style="mask-type:alpha" maskUnits="userSpaceOnUse" x="16" y="16" width="16" height="16">
      <rect x="16" y="16" width="16" height="16" fill="#D9D9D9"/>
    </mask>
    <g mask="url(#mask0_27_3066)">
      <path d="M23.0386 27.2551L27.286 23.0077C27.6144 22.6793 27.6154 22.1472 27.2884 21.8176C26.9595 21.4861 26.4238 21.485 26.0936 21.8152L23.0386 24.8703L21.8502 23.6819C21.52 23.3517 20.9843 23.3528 20.6554 23.6843C20.3284 24.0139 20.3294 24.546 20.6578 24.8743L23.0386 27.2551ZM24.0002 30.987C23.0277 30.987 22.1171 30.8039 21.2684 30.4377C20.4197 30.0714 19.6814 29.5744 19.0536 28.9466C18.4258 28.3188 17.9287 27.5805 17.5625 26.7318C17.1963 25.8831 17.0132 24.9725 17.0132 24C17.0132 23.0276 17.1963 22.117 17.5625 21.2683C17.9287 20.4195 18.4258 19.6813 19.0536 19.0535C19.6814 18.4256 20.4197 17.9286 21.2684 17.5624C22.1171 17.1962 23.0277 17.0131 24.0002 17.0131C24.9726 17.0131 25.8832 17.1962 26.7319 17.5624C27.5806 17.9286 28.3189 18.4256 28.9467 19.0535C29.5745 19.6813 30.0716 20.4195 30.4378 21.2683C30.804 22.117 30.9871 23.0276 30.9871 24C30.9871 24.9725 30.804 25.8831 30.4378 26.7318C30.0716 27.5805 29.5745 28.3188 28.9467 28.9466C28.3189 29.5744 27.5806 30.0714 26.7319 30.4377C25.8832 30.8039 24.9726 30.987 24.0002 30.987ZM24.0002 29.2203C25.4639 29.2203 26.6999 28.7162 27.7081 27.708C28.7163 26.6998 29.2204 25.4638 29.2204 24C29.2204 22.5363 28.7163 21.3003 27.7081 20.2921C26.6999 19.2839 25.4639 18.7797 24.0002 18.7797C22.5364 18.7797 21.3004 19.2839 20.2922 20.2921C19.284 21.3003 18.7799 22.5363 18.7799 24C18.7799 25.4638 19.284 26.6998 20.2922 27.708C21.3004 28.7162 22.5364 29.2203 24.0002 29.2203Z" fill="#EC615B"/>
    </g>
  </g>
  <defs>
    <clipPath id="clip0_27_3066">
      <rect width="32" height="32" fill="white"/>
    </clipPath>
  </defs>
</svg>
