<svg width="50" height="50" viewBox="0 0 50 50" fill="none" xmlns="http://www.w3.org/2000/svg">
    <circle cx="25" cy="25" r="25" fill="#EDF4FF"/>
    <path
        d="M32.3333 35.0013V32.5569C32.3333 31.2602 31.8183 30.0167 30.9014 29.0999C29.9846 28.183 28.7411 27.668 27.4444 27.668H18.8889C17.5923 27.668 16.3488 28.183 15.4319 29.0999C14.5151 30.0167 14 31.2602 14 32.5569V35.0013"
        stroke="#3D86FD" stroke-width="2.5" stroke-linecap="round" stroke-linejoin="round"/>
    <path
        d="M23.1662 22.7778C25.8663 22.7778 28.0551 20.5889 28.0551 17.8889C28.0551 15.1888 25.8663 13 23.1662 13C20.4662 13 18.2773 15.1888 18.2773 17.8889C18.2773 20.5889 20.4662 22.7778 23.1662 22.7778Z"
        stroke="#3D86FD" stroke-width="2.5" stroke-linecap="round" stroke-linejoin="round"/>
    <path d="M37.2227 19.1094V26.4427" stroke="#3D86FD" stroke-width="2.5" stroke-linecap="round"
          stroke-linejoin="round"/>
    <path d="M40.889 22.7773H33.5557" stroke="#3D86FD" stroke-width="2.5" stroke-linecap="round"
          stroke-linejoin="round"/>
</svg>
