<svg width="20" height="20" viewBox="0 0 20 20" fill="none" xmlns="http://www.w3.org/2000/svg">
    <path d="M13.9854 8.24101L11.8402 6.10987L14.3677 3.56109C14.3678 3.56091 14.368 3.56074 14.3682 3.56057C14.691 3.23735 15.2088 3.23916 15.5269 3.55995L15.5275 3.56057L16.5501 4.58881C16.5504 4.58905 16.5506 4.5893 16.5509 4.58954C16.8739 4.91786 16.8721 5.44861 16.5513 5.77214L16.5512 5.77219L5.2639 17.1577C5.26372 17.1579 5.26353 17.158 5.26335 17.1582C4.94057 17.4814 4.42276 17.4796 4.10466 17.1588L3.08144 16.127C3.08131 16.1268 3.08118 16.1267 3.08104 16.1266C2.75765 15.7983 2.75939 15.2673 3.08032 14.9436L10.9952 6.96196L13.1396 9.09232L13.9854 8.24101ZM8.16009 3.8362L8.41586 3.73974L8.51091 3.48344L8.57895 3.3L8.64698 3.48344L8.74204 3.73974L8.9978 3.8362L9.19536 3.91072L8.9978 3.98523L8.74204 4.08169L8.64698 4.33799L8.57895 4.52143L8.51091 4.33799L8.41586 4.08169L8.16009 3.98523L7.96253 3.91072L8.16009 3.8362ZM3.45707 6.56755L3.36202 6.31208L3.10708 6.21562L2.06531 5.82143L3.10708 5.42724L3.36202 5.33078L3.45707 5.07531L3.8421 4.0405L4.22714 5.07531L4.32219 5.33078L4.57713 5.42724L5.6189 5.82143L4.57713 6.21562L4.32219 6.31208L4.22714 6.56755L3.84211 7.60236L3.45707 6.56755ZM15.7729 12.7774L15.6778 12.5219L15.4229 12.4254L14.3811 12.0313L15.4229 11.6371L15.6778 11.5406L15.7729 11.2851L16.1579 10.2503L16.5429 11.2851L16.638 11.5406L16.8929 11.6371L17.9347 12.0313L16.8929 12.4254L16.638 12.5219L16.5429 12.7774L16.1579 13.8122L15.7729 12.7774Z" stroke="#AAAAAA" stroke-width="1.2"/>
</svg>
