<svg width="20" height="20" viewBox="0 0 20 20" fill="none" xmlns="http://www.w3.org/2000/svg">
    <path d="M7.94836 3.27481L6.83224 3.69576C6.74342 3.7286 6.68421 3.81518 6.68421 3.91072C6.68421 4.00625 6.74342 4.09283 6.83224 4.12567L7.94836 4.54662L8.36579 5.67216C8.39835 5.76172 8.48421 5.82143 8.57895 5.82143C8.67368 5.82143 8.75954 5.76172 8.7921 5.67216L9.20954 4.54662L10.3257 4.12567C10.4145 4.09283 10.4737 4.00625 10.4737 3.91072C10.4737 3.81518 10.4145 3.7286 10.3257 3.69576L9.20954 3.27481L8.7921 2.14927C8.75954 2.05971 8.67368 2 8.57895 2C8.48421 2 8.39835 2.05971 8.36579 2.14927L7.94836 3.27481ZM1.22204 5.499C1.08882 5.54975 1 5.67813 1 5.82143C1 5.96473 1.08882 6.09311 1.22204 6.14386L2.89474 6.77679L3.52237 8.46359C3.5727 8.59794 3.7 8.6875 3.84211 8.6875C3.98421 8.6875 4.11151 8.59794 4.16184 8.46359L4.78947 6.77679L6.46217 6.14386C6.59539 6.09311 6.68421 5.96473 6.68421 5.82143C6.68421 5.67813 6.59539 5.54975 6.46217 5.499L4.78947 4.86607L4.16184 3.17927C4.11151 3.04492 3.98421 2.95536 3.84211 2.95536C3.7 2.95536 3.5727 3.04492 3.52237 3.17927L2.89474 4.86607L1.22204 5.499ZM13.5378 11.7088C13.4046 11.7596 13.3158 11.888 13.3158 12.0313C13.3158 12.1746 13.4046 12.3029 13.5378 12.3537L15.2105 12.9866L15.8382 14.6734C15.8885 14.8078 16.0158 14.8973 16.1579 14.8973C16.3 14.8973 16.4273 14.8078 16.4776 14.6734L17.1053 12.9866L18.778 12.3537C18.9112 12.3029 19 12.1746 19 12.0313C19 11.888 18.9112 11.7596 18.778 11.7088L17.1053 11.0759L16.4776 9.38909C16.4273 9.25475 16.3 9.16518 16.1579 9.16518C16.0158 9.16518 15.8885 9.25475 15.8382 9.38909L15.2105 11.0759L13.5378 11.7088Z" fill="white"/>
    <path d="M13.569 8.53449L16.3021 5.71903C16.6874 5.32217 16.6773 4.68795 16.2796 4.30352L15.6452 3.69021C15.2501 3.30824 14.6208 3.3167 14.2361 3.70913L11.5001 6.50001M13.569 8.53449L5.27616 16.8592C4.88586 17.251 4.25165 17.2516 3.8606 16.8605L3.2072 16.2071C2.81668 15.8166 2.81668 15.1834 3.2072 14.7929L11.5001 6.50001M13.569 8.53449L11.5001 6.50001" stroke="white" stroke-width="1.2"/>
</svg>
