<svg width="24" height="24" viewBox="0 0 24 24" fill="none" xmlns="http://www.w3.org/2000/svg">
    <path d="M16.7732 6.3683C15.091 4.68615 12.3517 4.68615 10.6714 6.3683L6.01068 11.0254C5.98032 11.0558 5.96425 11.0969 5.96425 11.1397C5.96425 11.1826 5.98032 11.2237 6.01068 11.254L6.66961 11.9129C6.69973 11.9429 6.7405 11.9598 6.783 11.9598C6.8255 11.9598 6.86627 11.9429 6.89639 11.9129L11.5571 7.2558C12.1357 6.67722 12.9053 6.35937 13.7232 6.35937C14.541 6.35937 15.3107 6.67722 15.8875 7.2558C16.466 7.83437 16.7839 8.60401 16.7839 9.42008C16.7839 10.2379 16.466 11.0058 15.8875 11.5844L11.1375 16.3326L10.3678 17.1022C9.64818 17.8219 8.47854 17.8219 7.75889 17.1022C7.41068 16.754 7.21961 16.2915 7.21961 15.7987C7.21961 15.3058 7.41068 14.8433 7.75889 14.4951L12.4714 9.78437C12.591 9.66651 12.7482 9.60044 12.916 9.60044H12.9178C13.0857 9.60044 13.241 9.66651 13.3589 9.78437C13.4785 9.90401 13.5428 10.0612 13.5428 10.229C13.5428 10.3951 13.4767 10.5522 13.3589 10.6701L9.50711 14.5183C9.47675 14.5487 9.46068 14.5897 9.46068 14.6326C9.46068 14.6754 9.47675 14.7165 9.50711 14.7469L10.166 15.4058C10.1962 15.4358 10.2369 15.4526 10.2794 15.4526C10.3219 15.4526 10.3627 15.4358 10.3928 15.4058L14.2428 11.5558C14.5982 11.2004 14.7928 10.729 14.7928 10.2272C14.7928 9.72544 14.5964 9.25222 14.2428 8.89865C13.5089 8.16472 12.316 8.16651 11.5821 8.89865L11.125 9.35758L6.87139 13.6094C6.5827 13.8964 6.35385 14.2378 6.19813 14.6139C6.04241 14.9901 5.96292 15.3934 5.96425 15.8004C5.96425 16.6272 6.28746 17.404 6.87139 17.9879C7.47675 18.5915 8.26961 18.8933 9.06246 18.8933C9.85532 18.8933 10.6482 18.5915 11.2517 17.9879L16.7732 12.4701C17.5857 11.6558 18.0357 10.5719 18.0357 9.42008C18.0375 8.26651 17.5875 7.18258 16.7732 6.3683Z" fill="#8A8B8C"/>
</svg>
