<svg width="70" height="70" viewBox="0 0 70 70" fill="none" xmlns="http://www.w3.org/2000/svg">
<g filter="url(#filter0_d_2460_4861)">
<g clip-path="url(#clip0_2460_4861)">
<rect x="24" y="16" width="30" height="30" rx="15" fill="#3C83D9"/>
<g clip-path="url(#clip1_2460_4861)">
<path d="M44.4031 29.3393L44.1725 29.7304C44.0881 29.8753 43.9081 29.9354 43.7478 29.878C43.4159 29.7577 43.1121 29.5854 42.845 29.3694C42.7156 29.2655 42.6818 29.0823 42.7662 28.9401L42.9968 28.5491C42.8028 28.3304 42.6509 28.0761 42.5496 27.7999H42.0856C41.9168 27.7999 41.7706 27.6823 41.7425 27.5183C41.6862 27.1901 41.6834 26.8456 41.7425 26.5038C41.7706 26.3397 41.9168 26.2194 42.0856 26.2194H42.5496C42.6509 25.9433 42.8028 25.689 42.9968 25.4702L42.7662 25.0792C42.6818 24.937 42.7128 24.7538 42.845 24.6499C43.1121 24.4339 43.4187 24.2616 43.7478 24.1413C43.9081 24.0839 44.0881 24.144 44.1725 24.289L44.4031 24.68C44.6984 24.628 44.9993 24.628 45.2946 24.68L45.5253 24.289C45.6096 24.144 45.7896 24.0839 45.9499 24.1413C46.2818 24.2616 46.5856 24.4339 46.8528 24.6499C46.9821 24.7538 47.0159 24.937 46.9315 25.0792L46.7009 25.4702C46.8949 25.689 47.0468 25.9433 47.1481 26.2194H47.6121C47.7809 26.2194 47.9271 26.337 47.9553 26.5011C48.0115 26.8292 48.0143 27.1737 47.9553 27.5155C47.9271 27.6796 47.7809 27.7999 47.6121 27.7999H47.1481C47.0468 28.0761 46.8949 28.3304 46.7009 28.5491L46.9315 28.9401C47.0159 29.0823 46.985 29.2655 46.8528 29.3694C46.5856 29.5854 46.279 29.7577 45.9499 29.878C45.7896 29.9354 45.6096 29.8753 45.5253 29.7304L45.2946 29.3393C45.0021 29.3913 44.6984 29.3913 44.4031 29.3393V29.3393ZM44.1078 27.7315C45.1906 28.5409 46.4253 27.3405 45.5928 26.2878C44.51 25.4757 43.2753 26.6788 44.1078 27.7315V27.7315ZM40.865 31.9397L41.8128 32.3991C42.0968 32.5577 42.2206 32.894 42.1081 33.1948C41.8578 33.8565 41.3656 34.4636 40.91 34.994C40.7018 35.2374 40.3418 35.2976 40.0578 35.139L39.2393 34.6796C38.7893 35.0542 38.2662 35.3522 37.6953 35.5464V36.4651C37.6953 36.7823 37.4618 37.0558 37.1412 37.1104C36.4493 37.2253 35.7237 37.2308 35.0065 37.1104C34.6831 37.0558 34.444 36.7851 34.444 36.4651V35.5464C33.8731 35.3495 33.35 35.0542 32.9 34.6796L32.0815 35.1362C31.8003 35.2948 31.4375 35.2347 31.2293 34.9913C30.7737 34.4608 30.2928 33.8538 30.0425 33.1948C29.93 32.8968 30.0537 32.5604 30.3378 32.3991L31.2743 31.9397C31.1646 31.3683 31.1646 30.7804 31.2743 30.2061L30.3378 29.744C30.0537 29.5854 29.9271 29.2491 30.0425 28.9511C30.2928 28.2893 30.7737 27.6823 31.2293 27.1518C31.4375 26.9085 31.7975 26.8483 32.0815 27.0069L32.9 27.4663C33.35 27.0917 33.8731 26.7936 34.444 26.5995V25.678C34.444 25.3636 34.6746 25.0901 34.9953 25.0354C35.6871 24.9206 36.4156 24.9151 37.1328 25.0327C37.4562 25.0874 37.6953 25.3581 37.6953 25.678V26.5968C38.2662 26.7936 38.7893 27.089 39.2393 27.4636L40.0578 27.0042C40.339 26.8456 40.7018 26.9058 40.91 27.1491C41.3656 27.6796 41.8437 28.2866 42.094 28.9483C42.2065 29.2464 42.0968 29.5827 41.8128 29.744L40.865 30.2034C40.9746 30.7776 40.9746 31.3655 40.865 31.9397V31.9397ZM37.5575 32.5167C39.2225 30.4112 36.7503 28.0077 34.5846 29.6265C32.9196 31.7319 35.3918 34.1354 37.5575 32.5167ZM44.4031 37.5124L44.1725 37.9034C44.0881 38.0483 43.9081 38.1085 43.7478 38.0511C43.4159 37.9308 43.1121 37.7585 42.845 37.5425C42.7156 37.4386 42.6818 37.2554 42.7662 37.1132L42.9968 36.7222C42.8028 36.5034 42.6509 36.2491 42.5496 35.9729H42.0856C41.9168 35.9729 41.7706 35.8554 41.7425 35.6913C41.6862 35.3632 41.6834 35.0186 41.7425 34.6768C41.7706 34.5128 41.9168 34.3925 42.0856 34.3925H42.5496C42.6509 34.1163 42.8028 33.862 42.9968 33.6433L42.7662 33.2522C42.6818 33.1101 42.7128 32.9268 42.845 32.8229C43.1121 32.6069 43.4187 32.4347 43.7478 32.3143C43.9081 32.2569 44.0881 32.3171 44.1725 32.462L44.4031 32.853C44.6984 32.8011 44.9993 32.8011 45.2946 32.853L45.5253 32.462C45.6096 32.3171 45.7896 32.2569 45.9499 32.3143C46.2818 32.4347 46.5856 32.6069 46.8528 32.8229C46.9821 32.9268 47.0159 33.1101 46.9315 33.2522L46.7009 33.6433C46.8949 33.862 47.0468 34.1163 47.1481 34.3925H47.6121C47.7809 34.3925 47.9271 34.5101 47.9553 34.6741C48.0115 35.0022 48.0143 35.3468 47.9553 35.6886C47.9271 35.8526 47.7809 35.9729 47.6121 35.9729H47.1481C47.0468 36.2491 46.8949 36.5034 46.7009 36.7222L46.9315 37.1132C47.0159 37.2554 46.985 37.4386 46.8528 37.5425C46.5856 37.7585 46.279 37.9308 45.9499 38.0511C45.7896 38.1085 45.6096 38.0483 45.5253 37.9034L45.2946 37.5124C45.0021 37.5643 44.6984 37.5643 44.4031 37.5124ZM44.1078 35.9018C45.1906 36.7112 46.4253 35.5108 45.5928 34.4581C44.51 33.6487 43.2753 34.8491 44.1078 35.9018V35.9018Z" fill="white"/>
</g>
</g>
</g>
<defs>
<filter id="filter0_d_2460_4861" x="0" y="0" width="70" height="70" filterUnits="userSpaceOnUse" color-interpolation-filters="sRGB">
<feFlood flood-opacity="0" result="BackgroundImageFix"/>
<feColorMatrix in="SourceAlpha" type="matrix" values="0 0 0 0 0 0 0 0 0 0 0 0 0 0 0 0 0 0 127 0" result="hardAlpha"/>
<feOffset dx="-4" dy="4"/>
<feGaussianBlur stdDeviation="10"/>
<feComposite in2="hardAlpha" operator="out"/>
<feColorMatrix type="matrix" values="0 0 0 0 0 0 0 0 0 0 0 0 0 0 0 0 0 0 0.1 0"/>
<feBlend mode="normal" in2="BackgroundImageFix" result="effect1_dropShadow_2460_4861"/>
<feBlend mode="normal" in="SourceGraphic" in2="effect1_dropShadow_2460_4861" result="shape"/>
</filter>
<clipPath id="clip0_2460_4861">
<rect x="24" y="16" width="30" height="30" rx="15" fill="white"/>
</clipPath>
<clipPath id="clip1_2460_4861">
<rect width="18" height="14" fill="white" transform="translate(30 24.1167)"/>
</clipPath>
</defs>
</svg>
