<svg width="16" height="17" viewBox="0 0 16 17" fill="none" xmlns="http://www.w3.org/2000/svg">
<g id="autorenew">
<mask id="mask0_7_5074" style="mask-type:alpha" maskUnits="userSpaceOnUse" x="0" y="0" width="16" height="17">
<rect id="Bounding box" y="0.650146" width="16" height="16" fill="#D9D9D9"/>
</mask>
<g mask="url(#mask0_7_5074)">
<path id="autorenew_2" d="M3.39984 11.3501C3.15539 10.9279 2.97206 10.4946 2.84984 10.0501C2.72762 9.60569 2.6665 9.15014 2.6665 8.68347C2.6665 7.19458 3.18317 5.92791 4.2165 4.88347C5.24984 3.83903 6.51095 3.3168 7.99984 3.3168H8.1165L7.04984 2.25014L7.98317 1.3168L10.6498 3.98347L7.98317 6.65014L7.04984 5.7168L8.1165 4.65014H7.99984C6.88873 4.65014 5.94428 5.0418 5.1665 5.82514C4.38873 6.60847 3.99984 7.56125 3.99984 8.68347C3.99984 8.97236 4.03317 9.25569 4.09984 9.53347C4.1665 9.81125 4.2665 10.0835 4.39984 10.3501L3.39984 11.3501ZM8.0165 15.9835L5.34984 13.3168L8.0165 10.6501L8.94984 11.5835L7.88317 12.6501H7.99984C9.11095 12.6501 10.0554 12.2585 10.8332 11.4751C11.6109 10.6918 11.9998 9.73903 11.9998 8.6168C11.9998 8.32791 11.9665 8.04458 11.8998 7.7668C11.8332 7.48903 11.7332 7.2168 11.5998 6.95014L12.5998 5.95014C12.8443 6.37236 13.0276 6.80569 13.1498 7.25014C13.2721 7.69458 13.3332 8.15014 13.3332 8.6168C13.3332 10.1057 12.8165 11.3724 11.7832 12.4168C10.7498 13.4612 9.48873 13.9835 7.99984 13.9835H7.88317L8.94984 15.0501L8.0165 15.9835Z" fill="#EC615B"/>
</g>
</g>
</svg>
