<svg width="24" height="24" viewBox="0 0 24 24" fill="none" xmlns="http://www.w3.org/2000/svg">
<path d="M9.16667 5.06641C9.16667 4.51412 8.71895 4.06641 8.16667 4.06641H7.9C7.34771 4.06641 6.9 4.51412 6.9 5.06641V5.19974H4.5C3.94771 5.19974 3.5 5.64745 3.5 6.19974V6.46641C3.5 7.01869 3.94772 7.46641 4.5 7.46641H6.9V7.59974C6.9 8.15202 7.34772 8.59974 7.9 8.59974H8.16667C8.71895 8.59974 9.16667 8.15202 9.16667 7.59974V5.06641Z" fill="#757575"/>
<path d="M20.5 6.19974C20.5 5.64745 20.0523 5.19974 19.5 5.19974H11.3C10.7477 5.19974 10.3 5.64745 10.3 6.19974V6.46641C10.3 7.01869 10.7477 7.46641 11.3 7.46641H19.5C20.0523 7.46641 20.5 7.01869 20.5 6.46641V6.19974Z" fill="#757575"/>
<path d="M14.8333 10.7334C14.8333 10.1811 15.281 9.7334 15.8333 9.7334H16.1C16.6523 9.7334 17.1 10.1811 17.1 10.7334V10.8667H19.5C20.0523 10.8667 20.5 11.3144 20.5 11.8667V12.1334C20.5 12.6857 20.0523 13.1334 19.5 13.1334H17.1V13.2667C17.1 13.819 16.6523 14.2667 16.1 14.2667H15.8333C15.281 14.2667 14.8333 13.819 14.8333 13.2667V10.7334Z" fill="#757575"/>
<path d="M3.5 11.8667C3.5 11.3144 3.94772 10.8667 4.5 10.8667H12.7C13.2523 10.8667 13.7 11.3144 13.7 11.8667V12.1334C13.7 12.6857 13.2523 13.1334 12.7 13.1334H4.5C3.94771 13.1334 3.5 12.6857 3.5 12.1334V11.8667Z" fill="#757575"/>
<path d="M9.16667 16.3994C9.16667 15.8471 8.71895 15.3994 8.16667 15.3994H7.9C7.34771 15.3994 6.9 15.8471 6.9 16.3994V16.5327H4.5C3.94771 16.5327 3.5 16.9805 3.5 17.5327V17.7994C3.5 18.3517 3.94772 18.7994 4.5 18.7994H6.9V18.9327C6.9 19.485 7.34772 19.9327 7.9 19.9327H8.16667C8.71895 19.9327 9.16667 19.485 9.16667 18.9327V16.3994Z" fill="#757575"/>
<path d="M20.5 17.5327C20.5 16.9805 20.0523 16.5327 19.5 16.5327H11.3C10.7477 16.5327 10.3 16.9805 10.3 17.5327V17.7994C10.3 18.3517 10.7477 18.7994 11.3 18.7994H19.5C20.0523 18.7994 20.5 18.3517 20.5 17.7994V17.5327Z" fill="#757575"/>
</svg>
