<svg width="29" height="14" viewBox="0 0 29 14" fill="none" xmlns="http://www.w3.org/2000/svg">
    <rect y="0.5" width="29" height="13" rx="5" fill="#EC615B"/>
    <path d="M4.65625 9.5H7.03516C7.72786 9.5 8.28516 9.35677 8.70703 9.07031C9.12891 8.78385 9.33984 8.38021 9.33984 7.85938C9.33984 7.49479 9.25521 7.19922 9.08594 6.97266C8.91667 6.74609 8.69531 6.59375 8.42188 6.51562V6.5C8.64062 6.42448 8.82292 6.28776 8.96875 6.08984C9.11458 5.88932 9.1875 5.63281 9.1875 5.32031C9.1875 4.79948 8.98438 4.41797 8.57812 4.17578C8.17448 3.93359 7.61979 3.8125 6.91406 3.8125H4.65625V9.5ZM5.94531 8.66406V6.94531H7.03516C7.38411 6.94531 7.64062 7.02214 7.80469 7.17578C7.96875 7.32682 8.05078 7.53646 8.05078 7.80469C8.05078 8.06771 7.96875 8.27734 7.80469 8.43359C7.64323 8.58724 7.38542 8.66406 7.03125 8.66406H5.94531ZM5.94531 6.13281V4.64844H6.91016C7.25911 4.64844 7.51042 4.71224 7.66406 4.83984C7.82031 4.96745 7.89844 5.14974 7.89844 5.38672C7.89844 5.6237 7.82161 5.80729 7.66797 5.9375C7.51432 6.06771 7.26302 6.13281 6.91406 6.13281H5.94531ZM10.1828 9.5H14.4055V8.61719H11.4719V7.00781H13.9914V6.125H11.4719V4.69531H14.3625V3.8125H10.1828V9.5ZM14.6391 4.69531H16.4477V9.5H17.7406V4.69531H19.5492V3.8125H14.6391V4.69531ZM19.1383 9.5H20.2633L21.4898 5.5C21.5211 5.40365 21.5497 5.3112 21.5758 5.22266C21.6018 5.13411 21.6253 5.04297 21.6461 4.94922H21.6773C21.6982 5.04297 21.7216 5.13411 21.7477 5.22266C21.7737 5.3112 21.8023 5.40365 21.8336 5.5L23.0641 9.5H24.4508L22.5211 3.79297H21.0484L19.1383 9.5ZM20.0953 8.23047H23.3609L23.0406 7.34766H20.4195L20.0953 8.23047Z" fill="white"/>
</svg>
