<svg width="50" height="50" viewBox="0 0 50 50" fill="none" xmlns="http://www.w3.org/2000/svg">
<g clip-path="url(#clip0_173_6423)">
<path d="M50 24.9999V24.9874C50 17.5895 46.7792 10.9458 41.6646 6.377L41.6396 6.35617C41.5764 6.28807 41.5059 6.22727 41.4292 6.17492L41.425 6.17283C36.8825 2.18435 31.0409 -0.00977958 24.9958 0.00200031C18.6792 0.00200031 12.9125 2.34783 8.51667 6.21867L8.54376 6.19575C8.49077 6.23594 8.44192 6.2813 8.39792 6.33117V6.33325C5.75527 8.67323 3.63999 11.548 2.19221 14.7672C0.744428 17.9864 -0.00280602 21.4764 7.91805e-06 25.0062C7.91805e-06 32.402 3.21667 39.0458 8.32709 43.6166L8.35209 43.6374C8.41827 43.7125 8.4923 43.7802 8.57292 43.8395L8.57709 43.8416C13.1184 47.8242 18.9556 50.0151 24.9958 50.0041C31.0643 50.0134 36.9265 47.8022 41.4771 43.7874L41.45 43.8103C44.1385 41.473 46.2935 38.5854 47.7693 35.343C49.2451 32.1006 50.0073 28.579 50.0042 25.0166V25.002L50 24.9999ZM40.7042 41.2603C39.4658 40.2586 38.1339 39.3781 36.7271 38.6312L36.5917 38.5645C37.8688 34.8833 38.6375 30.6395 38.7104 26.2249V26.1916H47.5875C47.2881 31.9028 44.8299 37.287 40.7104 41.2541L40.7042 41.2603ZM26.1917 38.1249C28.8646 38.2687 31.3625 38.8562 33.6667 39.8124L33.5167 39.7583C31.6708 43.9666 29.0729 46.8583 26.1917 47.4937V38.1249ZM26.1917 35.7416V26.1916H36.3333C36.2529 30.1463 35.5672 34.0653 34.3 37.8124L34.3813 37.5395C31.7947 36.4764 29.0437 35.8688 26.25 35.7437L26.1938 35.7416H26.1917ZM26.1917 23.8083V14.2582C29.0608 14.1273 31.8854 13.4992 34.5396 12.402L34.375 12.4624C35.5313 15.8353 36.2417 19.7228 36.3333 23.7645V23.8083H26.1917ZM26.1917 11.8749V2.51033C29.0729 3.14575 31.6708 6.02492 33.5167 10.2458C31.3625 11.1416 28.8646 11.727 26.2521 11.8728L26.1917 11.8749ZM32.1375 3.54158C34.5924 4.36041 36.8883 5.59504 38.925 7.19158L38.8771 7.15408C37.9542 7.87908 36.9188 8.56242 35.8271 9.15617L35.7104 9.2145C34.8283 7.13268 33.6154 5.20715 32.1188 3.51242L32.1375 3.53533V3.54158ZM23.8042 2.51658V11.8749C21.2344 11.7438 18.7061 11.1731 16.3292 10.1874L16.4792 10.2416C18.3333 6.03325 20.9271 3.14367 23.8083 2.50825L23.8042 2.51658ZM14.2875 9.20825C13.1582 8.60066 12.0822 7.89886 11.0708 7.11033L11.1208 7.14783C13.0982 5.59815 15.3223 4.39242 17.7 3.58117L17.8583 3.53325C16.4009 5.18207 15.2133 7.05098 14.3396 9.07075L14.2875 9.20617V9.20825ZM23.8083 14.2562V23.8062H13.6667C13.7583 19.7207 14.4688 15.8332 15.7063 12.1874L15.625 12.4603C18.2105 13.5217 20.96 14.1286 23.7521 14.2541L23.8083 14.2562ZM23.8083 26.1895V35.7395C20.9392 35.8704 18.1147 36.4985 15.4604 37.5957L15.625 37.5353C14.4688 34.1645 13.7583 30.2749 13.6667 26.2332V26.1895H23.8083ZM23.8083 38.1228V47.4874C20.9271 46.852 18.3292 43.9728 16.4833 39.752C18.6375 38.8562 21.1354 38.2728 23.7479 38.127L23.8083 38.1249V38.1228ZM17.8708 46.4562C15.4166 45.6397 13.1207 44.408 11.0833 42.8145L11.1333 42.852C12.0563 42.127 13.0917 41.4437 14.1833 40.8499L14.3 40.7916C15.1748 42.8743 16.3876 44.7981 17.8896 46.4853L17.8708 46.4645V46.4562ZM35.7125 40.7895C36.9208 41.4458 37.9563 42.127 38.9292 42.8874L38.8792 42.8499C36.9018 44.3996 34.6777 45.6053 32.3 46.4166L32.1417 46.4645C33.5991 44.8164 34.7867 42.9482 35.6604 40.9291L35.7125 40.7937V40.7895ZM47.5875 23.8083H38.7104C38.6466 19.4977 37.9027 15.2243 36.5063 11.1457L36.5917 11.4332C38.0633 10.6584 39.4566 9.74301 40.7521 8.69992L40.7021 8.73742C44.8131 12.6896 47.2722 18.0537 47.5833 23.7478L47.5854 23.8062L47.5875 23.8083ZM9.29584 8.7395C10.4958 9.7145 11.8438 10.6082 13.2729 11.3687L13.4083 11.4353C12.1313 15.1166 11.3625 19.3603 11.2896 23.7749V23.8083H2.41042C2.70978 18.097 5.16803 12.7128 9.28751 8.74575L9.29376 8.7395H9.29584ZM2.41251 26.1916H11.2896C11.3535 30.5021 12.0973 34.7755 13.4938 38.8541L13.4083 38.5666C11.8438 39.3978 10.4979 40.2916 9.24792 41.2999L9.29792 41.2624C5.18696 37.3103 2.72785 31.9461 2.41667 26.252L2.41459 26.1937L2.41251 26.1916Z" fill="black" fill-opacity="0.6"/>
</g>
<defs>
<clipPath id="clip0_173_6423">
<rect width="50" height="50" fill="white"/>
</clipPath>
</defs>
</svg>
