<svg width="48" height="19" viewBox="0 0 48 19" fill="none" xmlns="http://www.w3.org/2000/svg">
    <path d="M0.360718 18H7.18103C8.98572 18 10.431 17.5742 11.517 16.7227C12.6107 15.8633 13.1576 14.6641 13.1576 13.125C13.1576 11.9922 12.8959 11.0859 12.3724 10.4062C11.8568 9.72656 11.2045 9.27344 10.4154 9.04688V9C11.056 8.77344 11.5873 8.35547 12.0092 7.74609C12.4388 7.12891 12.6537 6.34766 12.6537 5.40234C12.6537 3.90234 12.1459 2.78516 11.1302 2.05078C10.1224 1.30859 8.69666 0.9375 6.85291 0.9375H0.360718V18ZM4.02869 15.4102V10.3594H6.87634C7.75916 10.3594 8.40759 10.5898 8.82166 11.0508C9.23572 11.5039 9.44275 12.1172 9.44275 12.8906C9.44275 13.6641 9.23572 14.2773 8.82166 14.7305C8.40759 15.1836 7.75916 15.4102 6.87634 15.4102H4.02869ZM4.02869 8.01562V3.5625H6.57166C7.43884 3.57031 8.06384 3.76562 8.44666 4.14844C8.82947 4.52344 9.02087 5.06641 9.02087 5.77734C9.02087 6.48828 8.82947 7.03906 8.44666 7.42969C8.06384 7.82031 7.43884 8.01562 6.57166 8.01562H4.02869ZM14.7982 12.1758C14.7982 14.0586 15.3802 15.5586 16.5443 16.6758C17.7084 17.7852 19.2318 18.3398 21.1146 18.3398C22.9974 18.3398 24.5209 17.7852 25.6849 16.6758C26.849 15.5586 27.431 14.0586 27.431 12.1758V11.8008C27.431 9.92578 26.849 8.43359 25.6849 7.32422C24.5209 6.20703 22.9974 5.64844 21.1146 5.64844C19.2318 5.64844 17.7084 6.20703 16.5443 7.32422C15.3802 8.43359 14.7982 9.92578 14.7982 11.8008V12.1758ZM18.4779 11.625C18.4779 10.5625 18.7084 9.75 19.1693 9.1875C19.6302 8.61719 20.2787 8.33203 21.1146 8.33203C21.9506 8.33203 22.599 8.61719 23.0599 9.1875C23.5209 9.75 23.7513 10.5625 23.7513 11.625V12.3516C23.7513 13.4141 23.5248 14.2305 23.0717 14.8008C22.6185 15.3711 21.9662 15.6562 21.1146 15.6562C20.2709 15.6562 19.6185 15.3711 19.1576 14.8008C18.7045 14.2305 18.4779 13.4141 18.4779 12.3516V11.625ZM29.6107 18H33.2318V0.257812H29.6107V18ZM35.4232 12.1875C35.4232 13.9688 35.8842 15.4219 36.806 16.5469C37.7357 17.6719 39.0092 18.2344 40.6263 18.2344C41.4076 18.2344 42.0951 18.0742 42.6888 17.7539C43.2904 17.4258 43.7279 17.0234 44.0013 16.5469H44.0482L44.1068 18H47.5287V0.257812H43.9662V7.25391C43.6537 6.80859 43.2123 6.45312 42.642 6.1875C42.0717 5.91406 41.3959 5.77734 40.6146 5.77734C39.0756 5.77734 37.8256 6.33984 36.8646 7.46484C35.9037 8.58203 35.4232 10.0312 35.4232 11.8125V12.1875ZM39.0912 12.3047V11.6953C39.0912 10.7266 39.3021 9.9375 39.724 9.32812C40.1459 8.71875 40.7709 8.41406 41.599 8.41406C42.2006 8.41406 42.6927 8.57031 43.0756 8.88281C43.4662 9.1875 43.7513 9.55469 43.931 9.98438V13.9922C43.7435 14.4297 43.4506 14.8047 43.0521 15.1172C42.6537 15.4297 42.1693 15.5859 41.599 15.5859C40.7631 15.5859 40.1342 15.2852 39.7123 14.6836C39.2982 14.0742 39.0912 13.2812 39.0912 12.3047Z" fill="#1A2037"/>
</svg>
