<svg width="60" height="63" viewBox="0 0 60 63" fill="none" xmlns="http://www.w3.org/2000/svg">
    <rect width="60" height="62.7508" rx="30" fill="#FF0000"/>
    <path d="M32.0631 13.4952V17.6214C32.0631 18.1686 31.8458 18.6933 31.4589 19.0803C31.072 19.4672 30.5472 19.6845 30 19.6845C29.4529 19.6845 28.9281 19.4672 28.5412 19.0803C28.1543 18.6933 27.9369 18.1686 27.9369 17.6214V13.4952C27.9369 12.948 28.1543 12.4232 28.5412 12.0363C28.9281 11.6494 29.4529 11.4321 30 11.4321C30.5472 11.4321 31.072 11.6494 31.4589 12.0363C31.8458 12.4232 32.0631 12.948 32.0631 13.4952ZM38.2525 18.9968C37.7053 18.9968 37.1806 19.2142 36.7936 19.6011C36.4067 19.988 36.1894 20.5128 36.1894 21.0599V25.1862C36.1894 25.7333 36.4067 26.2581 36.7936 26.645C37.1806 27.0319 37.7053 27.2493 38.2525 27.2493C38.7997 27.2493 39.3244 27.0319 39.7113 26.645C40.0982 26.2581 40.3156 25.7333 40.3156 25.1862V21.0599C40.3156 20.5128 40.0982 19.988 39.7113 19.6011C39.3244 19.2142 38.7997 18.9968 38.2525 18.9968ZM30 43.0665C29.4529 43.0665 28.9281 43.2838 28.5412 43.6708C28.1543 44.0577 27.9369 44.5824 27.9369 45.1296V49.2558C27.9369 49.803 28.1543 50.3278 28.5412 50.7147C28.9281 51.1016 29.4529 51.3189 30 51.3189C30.5472 51.3189 31.072 51.1016 31.4589 50.7147C31.8458 50.3278 32.0631 49.803 32.0631 49.2558V45.1296C32.0631 44.5824 31.8458 44.0577 31.4589 43.6708C31.072 43.2838 30.5472 43.0665 30 43.0665ZM30 22.4353C29.4529 22.4353 28.9281 22.6527 28.5412 23.0396C28.1543 23.4265 27.9369 23.9513 27.9369 24.4985V38.2526C27.9369 38.7997 28.1543 39.3245 28.5412 39.7114C28.9281 40.0983 29.4529 40.3157 30 40.3157C30.5472 40.3157 31.072 40.0983 31.4589 39.7114C31.8458 39.3245 32.0631 38.7997 32.0631 38.2526V24.4985C32.0631 23.9513 31.8458 23.4265 31.4589 23.0396C31.072 22.6527 30.5472 22.4353 30 22.4353ZM21.7476 18.9968C21.2004 18.9968 20.6756 19.2142 20.2887 19.6011C19.9018 19.988 19.6845 20.5128 19.6845 21.0599V30.6878C19.6845 31.235 19.9018 31.7597 20.2887 32.1466C20.6756 32.5335 21.2004 32.7509 21.7476 32.7509C22.2947 32.7509 22.8195 32.5335 23.2064 32.1466C23.5933 31.7597 23.8107 31.235 23.8107 30.6878V21.0599C23.8107 20.5128 23.5933 19.988 23.2064 19.6011C22.8195 19.2142 22.2947 18.9968 21.7476 18.9968ZM38.2525 30.0001C37.7053 30.0001 37.1806 30.2175 36.7936 30.6044C36.4067 30.9913 36.1894 31.516 36.1894 32.0632V41.6911C36.1894 42.2382 36.4067 42.763 36.7936 43.1499C37.1806 43.5368 37.7053 43.7542 38.2525 43.7542C38.7997 43.7542 39.3244 43.5368 39.7113 43.1499C40.0982 42.763 40.3156 42.2382 40.3156 41.6911V32.0632C40.3156 31.516 40.0982 30.9913 39.7113 30.6044C39.3244 30.2175 38.7997 30.0001 38.2525 30.0001ZM13.4951 27.2493C12.9479 27.2493 12.4232 27.4666 12.0363 27.8535C11.6494 28.2405 11.432 28.7652 11.432 29.3124V33.4386C11.432 33.9858 11.6494 34.5105 12.0363 34.8975C12.4232 35.2844 12.9479 35.5017 13.4951 35.5017C14.0423 35.5017 14.5671 35.2844 14.954 34.8975C15.3409 34.5105 15.5582 33.9858 15.5582 33.4386V29.3124C15.5582 28.7652 15.3409 28.2405 14.954 27.8535C14.5671 27.4666 14.0423 27.2493 13.4951 27.2493ZM21.7476 35.5017C21.2004 35.5017 20.6756 35.7191 20.2887 36.106C19.9018 36.4929 19.6845 37.0177 19.6845 37.5648V41.6911C19.6845 42.2382 19.9018 42.763 20.2887 43.1499C20.6756 43.5368 21.2004 43.7542 21.7476 43.7542C22.2947 43.7542 22.8195 43.5368 23.2064 43.1499C23.5933 42.763 23.8107 42.2382 23.8107 41.6911V37.5648C23.8107 37.0177 23.5933 36.4929 23.2064 36.106C22.8195 35.7191 22.2947 35.5017 21.7476 35.5017ZM46.5049 27.2493C45.9578 27.2493 45.433 27.4666 45.0461 27.8535C44.6592 28.2405 44.4418 28.7652 44.4418 29.3124V33.4386C44.4418 33.9858 44.6592 34.5105 45.0461 34.8975C45.433 35.2844 45.9578 35.5017 46.5049 35.5017C47.0521 35.5017 47.5769 35.2844 47.9638 34.8975C48.3507 34.5105 48.5681 33.9858 48.5681 33.4386V29.3124C48.5681 28.7652 48.3507 28.2405 47.9638 27.8535C47.5769 27.4666 47.0521 27.2493 46.5049 27.2493Z" fill="white"/>
</svg>
