<svg width="24" height="24" viewBox="0 0 24 24" fill="none" xmlns="http://www.w3.org/2000/svg">
<path d="M20.5 9C20.5 6.79086 18.7091 5 16.5 5H6.5C4.29086 5 2.5 6.79086 2.5 9V14C2.5 16.2091 4.29086 18 6.5 18H12.1391L10.4702 11.7584C10.2664 10.9964 10.9839 10.3095 11.7363 10.5462L20.5 13.3031V9Z" fill="#1A2037"/>
<path d="M18.5209 16.4629L21.2712 15.5428C21.6413 15.4189 21.6332 14.8926 21.2593 14.7803L12.7119 12.2136C12.4068 12.122 12.1222 12.4064 12.2137 12.7116L14.7777 21.2664C14.8898 21.6405 15.4166 21.6487 15.5403 21.2783L16.459 18.5267L20.2206 22.2919C20.6112 22.6829 21.2449 22.6829 21.6355 22.2919L22.2926 21.6341C22.6834 21.243 22.6826 20.6091 22.291 20.2189L18.5209 16.4629Z" fill="#1A2037"/>
</svg>
