<svg width="24" height="24" viewBox="0 0 24 24" fill="none" xmlns="http://www.w3.org/2000/svg">
<path d="M20.5 9C20.5 6.79086 18.7091 5 16.5 5H6.5C4.29086 5 2.5 6.79086 2.5 9V14C2.5 16.2091 4.29086 18 6.5 18H12.1391L10.4702 11.7584C10.2664 10.9964 10.9839 10.3095 11.7363 10.5462L20.5 13.3031V9Z" fill="#757575"/>
<path d="M18.5205 16.4629L21.2708 15.5428C21.6409 15.4189 21.6328 14.8926 21.2589 14.7803L12.7115 12.2136C12.4064 12.122 12.1218 12.4064 12.2133 12.7116L14.7773 21.2664C14.8894 21.6405 15.4162 21.6487 15.5399 21.2783L16.4586 18.5267L20.2202 22.2919C20.6108 22.6829 21.2445 22.6829 21.6351 22.2919L22.2922 21.6341C22.683 21.243 22.6822 20.6091 22.2906 20.2189L18.5205 16.4629Z" fill="#757575"/>
</svg>
