<svg width="13" height="14" viewBox="0 0 13 14" fill="none" xmlns="http://www.w3.org/2000/svg">
<path d="M6.50065 1.58325C3.5139 1.58325 1.08398 4.01317 1.08398 6.99992C1.08398 9.98667 3.5139 12.4166 6.50065 12.4166C9.4874 12.4166 11.9173 9.98667 11.9173 6.99992C11.9173 4.01317 9.4874 1.58325 6.50065 1.58325ZM6.50065 11.3333C4.11136 11.3333 2.16732 9.38921 2.16732 6.99992C2.16732 4.61063 4.11136 2.66659 6.50065 2.66659C8.88994 2.66659 10.834 4.61063 10.834 6.99992C10.834 9.38921 8.88994 11.3333 6.50065 11.3333Z" fill="black" fill-opacity="0.5"/>
<path d="M7.04232 4.29175H5.95898V7.54175H9.20898V6.45841H7.04232V4.29175Z" fill="black" fill-opacity="0.5"/>
</svg>
