<svg width="70" height="70" viewBox="0 0 70 70" fill="none" xmlns="http://www.w3.org/2000/svg">
<g filter="url(#filter0_d_2460_4856)">
<g clip-path="url(#clip0_2460_4856)">
<rect x="24" y="16" width="30" height="30" rx="15" fill="#3C83D9"/>
<g clip-path="url(#clip1_2460_4856)">
<path d="M44.0154 24.0867L31.3415 31.3984C30.8466 31.6828 30.9095 32.3718 31.4017 32.5797L34.3083 33.7992L42.1642 26.8758C42.3146 26.7418 42.5279 26.9468 42.3993 27.1027L35.8122 35.1281V37.3293C35.8122 37.9746 36.5915 38.2289 36.9743 37.7613L38.7107 35.6476L42.1177 37.075C42.506 37.239 42.9489 36.9957 43.02 36.5773L44.9888 24.7648C45.0818 24.2125 44.4884 23.8133 44.0154 24.0867Z" fill="white"/>
</g>
</g>
</g>
<defs>
<filter id="filter0_d_2460_4856" x="0" y="0" width="70" height="70" filterUnits="userSpaceOnUse" color-interpolation-filters="sRGB">
<feFlood flood-opacity="0" result="BackgroundImageFix"/>
<feColorMatrix in="SourceAlpha" type="matrix" values="0 0 0 0 0 0 0 0 0 0 0 0 0 0 0 0 0 0 127 0" result="hardAlpha"/>
<feOffset dx="-4" dy="4"/>
<feGaussianBlur stdDeviation="10"/>
<feComposite in2="hardAlpha" operator="out"/>
<feColorMatrix type="matrix" values="0 0 0 0 0 0 0 0 0 0 0 0 0 0 0 0 0 0 0.1 0"/>
<feBlend mode="normal" in2="BackgroundImageFix" result="effect1_dropShadow_2460_4856"/>
<feBlend mode="normal" in="SourceGraphic" in2="effect1_dropShadow_2460_4856" result="shape"/>
</filter>
<clipPath id="clip0_2460_4856">
<rect x="24" y="16" width="30" height="30" rx="15" fill="white"/>
</clipPath>
<clipPath id="clip1_2460_4856">
<rect width="14" height="14" fill="white" transform="translate(31 24)"/>
</clipPath>
</defs>
</svg>
