<svg width="94" height="76" viewBox="0 0 94 76" fill="none" xmlns="http://www.w3.org/2000/svg">
<path d="M47.7226 0V5.78461C47.7226 8.97936 45.1328 11.5692 41.938 11.5692H23.138C19.9433 11.5692 17.3534 14.1591 17.3534 17.3538V23.1385" stroke="#9B9B9B" stroke-width="2.89231" stroke-dasharray="4.34 2.89"/>
<path d="M47.7226 0V5.78461C47.7226 8.97936 50.3125 11.5692 53.5072 11.5692H70.8611C74.0558 11.5692 76.6457 14.1591 76.6457 17.3538V23.1385" stroke="#666666" stroke-width="2.89231"/>
<circle cx="17.6461" cy="37.6" r="15.9077" stroke="#9B9B9B" stroke-width="2.89231" stroke-dasharray="4.34 2.89"/>
<path d="M92.5535 37.6C92.5535 46.3856 85.4314 53.5077 76.6458 53.5077C67.8602 53.5077 60.7381 46.3856 60.7381 37.6C60.7381 28.8144 67.8602 21.6923 76.6458 21.6923C85.4314 21.6923 92.5535 28.8144 92.5535 37.6Z" stroke="#666666" stroke-width="2.89231"/>
<path d="M72.4975 45.0308H77.9347C79.4242 45.0308 80.6204 44.6716 81.5233 43.9532C82.4328 43.2282 82.8875 42.2133 82.8875 40.9084C82.8875 39.9659 82.6634 39.208 82.2153 38.6346C81.7737 38.0613 81.2135 37.6757 80.5347 37.478V37.4385C81.0883 37.2473 81.5496 36.898 81.9187 36.3906C82.2944 35.8765 82.4822 35.2207 82.4822 34.4233C82.4822 33.1315 82.0538 32.1792 81.197 31.5663C80.3468 30.9468 79.1638 30.637 77.648 30.637H72.4975V45.0308ZM75.1172 43.0931V38.4765H77.8062C78.6432 38.4765 79.2561 38.6841 79.645 39.0993C80.0338 39.5145 80.2282 40.0747 80.2282 40.7799C80.2282 41.4916 80.0338 42.0551 79.645 42.4703C79.2561 42.8855 78.6432 43.0931 77.8062 43.0931H75.1172ZM75.1172 36.6575V32.5944H77.5294C78.3598 32.5944 78.9562 32.7691 79.3187 33.1184C79.6812 33.4611 79.8624 33.9586 79.8624 34.6111C79.8624 35.257 79.6812 35.7612 79.3187 36.1236C78.9562 36.4795 78.3598 36.6575 77.5294 36.6575H75.1172Z" fill="#666666"/>
<path d="M10.9442 45.0308H13.475L17.1525 34.6112C17.2316 34.3871 17.2975 34.1729 17.3502 33.9686C17.4029 33.7643 17.4491 33.5567 17.4886 33.3458H17.5677C17.6138 33.5567 17.66 33.7643 17.7061 33.9686C17.7588 34.1729 17.8247 34.3871 17.9038 34.6112L21.5912 45.0308H24.3988L19.0308 30.5679H16.2727L10.9442 45.0308ZM13.7221 41.6795H21.4627L20.8399 39.6826H14.3449L13.7221 41.6795Z" fill="#9B9B9B"/>
<path d="M69.0768 68.523L73.8389 73.285C74.4036 73.8498 75.3193 73.8498 75.884 73.285L80.6461 68.523L86.4307 62.7384" stroke="#666666" stroke-width="2.89231" stroke-linecap="round"/>
<path d="M10.6765 62.7384L22.2457 74.3076M22.2457 62.7384L10.6765 74.3076" stroke="#9B9B9B" stroke-width="2.89231" stroke-linecap="round"/>
</svg>
