<svg width="94" height="76" viewBox="0 0 94 76" fill="none" xmlns="http://www.w3.org/2000/svg">
<path d="M47.7231 0V5.78462C47.7231 8.97937 50.3129 11.5692 53.5077 11.5692H70.8615C74.0563 11.5692 76.6462 14.1591 76.6462 17.3538V23.1385" stroke="#9B9B9B" stroke-width="2.89231" stroke-dasharray="4.34 2.89"/>
<path d="M47.7231 0V5.78462C47.7231 8.97937 45.1332 11.5692 41.9385 11.5692H23.1385C19.9437 11.5692 17.3539 14.1591 17.3539 17.3538V23.1385" stroke="#666666" stroke-width="2.89231"/>
<circle cx="17.3538" cy="37.6" r="15.9077" stroke="#666666" stroke-width="2.89231"/>
<circle cx="76.6461" cy="37.6" r="15.9077" stroke="#9B9B9B" stroke-width="2.89231" stroke-dasharray="4.34 2.89"/>
<path d="M10.3908 45.0308H12.9216L16.5991 34.6111C16.6782 34.387 16.7441 34.1728 16.7968 33.9685C16.8495 33.7642 16.8957 33.5566 16.9352 33.3457H17.0143C17.0604 33.5566 17.1066 33.7642 17.1527 33.9685C17.2054 34.1728 17.2713 34.387 17.3504 34.6111L21.0378 45.0308H23.8454L18.4774 30.5678H15.7193L10.3908 45.0308ZM13.1687 41.6795H20.9093L20.2865 39.6825H13.7915L13.1687 41.6795Z" fill="#666666"/>
<path d="M72.4978 45.0308H77.9349C79.4244 45.0308 80.6206 44.6716 81.5235 43.9532C82.433 43.2282 82.8877 42.2133 82.8877 40.9084C82.8877 39.9659 82.6637 39.208 82.2155 38.6346C81.7739 38.0613 81.2137 37.6757 80.5349 37.478V37.4385C81.0885 37.2473 81.5499 36.898 81.9189 36.3906C82.2946 35.8765 82.4824 35.2207 82.4824 34.4233C82.4824 33.1315 82.054 32.1792 81.1973 31.5663C80.3471 30.9468 79.1641 30.637 77.6483 30.637H72.4978V45.0308ZM75.1175 43.0931V38.4765H77.8064C78.6434 38.4765 79.2564 38.6841 79.6452 39.0993C80.034 39.5145 80.2285 40.0747 80.2285 40.7799C80.2285 41.4916 80.034 42.0551 79.6452 42.4703C79.2564 42.8855 78.6434 43.0931 77.8064 43.0931H75.1175ZM75.1175 36.6575V32.5944H77.5296C78.36 32.5944 78.9565 32.7691 79.319 33.1184C79.6814 33.4611 79.8627 33.9586 79.8627 34.6111C79.8627 35.257 79.6814 35.7612 79.319 36.1236C78.9565 36.4795 78.36 36.6575 77.5296 36.6575H75.1175Z" fill="#9B9B9B"/>
<path d="M8.677 68.5231L13.439 73.2851C14.0038 73.8499 14.9194 73.8499 15.4842 73.2851L20.2462 68.5231L26.0308 62.7385" stroke="#666666" stroke-width="2.89231" stroke-linecap="round"/>
<path d="M70.8616 62.7385L82.4308 74.3077M82.4308 62.7385L70.8616 74.3077" stroke="#9B9B9B" stroke-width="2.89231" stroke-linecap="round"/>
</svg>
