<svg width="20" height="20" viewBox="0 0 20 20" fill="none" xmlns="http://www.w3.org/2000/svg">
<path d="M8 3C7.73478 3 7.48043 3.10536 7.29289 3.29289C7.10536 3.48043 7 3.73478 7 4V4.5C7 4.63261 6.94732 4.75979 6.85355 4.85355C6.75979 4.94732 6.63261 5 6.5 5C6.36739 5 6.24021 4.94732 6.14645 4.85355C6.05268 4.75979 6 4.63261 6 4.5V4C6 3.46957 6.21071 2.96086 6.58579 2.58579C6.96086 2.21071 7.46957 2 8 2H8.5C8.63261 2 8.75979 2.05268 8.85355 2.14645C8.94732 2.24021 9 2.36739 9 2.5C9 2.63261 8.94732 2.75979 8.85355 2.85355C8.75979 2.94732 8.63261 3 8.5 3H8ZM7 12C7 12.2652 7.10536 12.5196 7.29289 12.7071C7.48043 12.8946 7.73478 13 8 13H8.5C8.63261 13 8.75979 13.0527 8.85355 13.1464C8.94732 13.2402 9 13.3674 9 13.5C9 13.6326 8.94732 13.7598 8.85355 13.8536C8.75979 13.9473 8.63261 14 8.5 14H8C7.46957 14 6.96086 13.7893 6.58579 13.4142C6.21071 13.0391 6 12.5304 6 12V11.5C6 11.3674 6.05268 11.2402 6.14645 11.1464C6.24021 11.0527 6.36739 11 6.5 11C6.63261 11 6.75979 11.0527 6.85355 11.1464C6.94732 11.2402 7 11.3674 7 11.5V12ZM7 6.5C7 6.36739 6.94732 6.24021 6.85355 6.14645C6.75979 6.05268 6.63261 6 6.5 6C6.36739 6 6.24021 6.05268 6.14645 6.14645C6.05268 6.24021 6 6.36739 6 6.5V9.5C6 9.63261 6.05268 9.75979 6.14645 9.85355C6.24021 9.94732 6.36739 10 6.5 10C6.63261 10 6.75979 9.94732 6.85355 9.85355C6.94732 9.75979 7 9.63261 7 9.5V6.5ZM16 3C16.2652 3 16.5196 3.10536 16.7071 3.29289C16.8946 3.48043 17 3.73478 17 4V4.5C17 4.63261 17.0527 4.75979 17.1464 4.85355C17.2402 4.94732 17.3674 5 17.5 5C17.6326 5 17.7598 4.94732 17.8536 4.85355C17.9473 4.75979 18 4.63261 18 4.5V4C18 3.46957 17.7893 2.96086 17.4142 2.58579C17.0391 2.21071 16.5304 2 16 2H15.5C15.3674 2 15.2402 2.05268 15.1464 2.14645C15.0527 2.24021 15 2.36739 15 2.5C15 2.63261 15.0527 2.75979 15.1464 2.85355C15.2402 2.94732 15.3674 3 15.5 3H16ZM16 13C16.2652 13 16.5196 12.8946 16.7071 12.7071C16.8946 12.5196 17 12.2652 17 12V11.5C17 11.3674 17.0527 11.2402 17.1464 11.1464C17.2402 11.0527 17.3674 11 17.5 11C17.6326 11 17.7598 11.0527 17.8536 11.1464C17.9473 11.2402 18 11.3674 18 11.5V12C18 12.5304 17.7893 13.0391 17.4142 13.4142C17.0391 13.7893 16.5304 14 16 14H15.5C15.3674 14 15.2402 13.9473 15.1464 13.8536C15.0527 13.7598 15 13.6326 15 13.5C15 13.3674 15.0527 13.2402 15.1464 13.1464C15.2402 13.0527 15.3674 13 15.5 13H16ZM17.5 6C17.3674 6 17.2402 6.05268 17.1464 6.14645C17.0527 6.24021 17 6.36739 17 6.5V9.5C17 9.63261 17.0527 9.75979 17.1464 9.85355C17.2402 9.94732 17.3674 10 17.5 10C17.6326 10 17.7598 9.94732 17.8536 9.85355C17.9473 9.75979 18 9.63261 18 9.5V6.5C18 6.36739 17.9473 6.24021 17.8536 6.14645C17.7598 6.05268 17.6326 6 17.5 6ZM10.5 2C10.3674 2 10.2402 2.05268 10.1464 2.14645C10.0527 2.24021 10 2.36739 10 2.5C10 2.63261 10.0527 2.75979 10.1464 2.85355C10.2402 2.94732 10.3674 3 10.5 3H13.5C13.6326 3 13.7598 2.94732 13.8536 2.85355C13.9473 2.75979 14 2.63261 14 2.5C14 2.36739 13.9473 2.24021 13.8536 2.14645C13.7598 2.05268 13.6326 2 13.5 2H10.5ZM10 13.5C10 13.3674 10.0527 13.2402 10.1464 13.1464C10.2402 13.0527 10.3674 13 10.5 13H13.5C13.6326 13 13.7598 13.0527 13.8536 13.1464C13.9473 13.2402 14 13.3674 14 13.5C14 13.6326 13.9473 13.7598 13.8536 13.8536C13.7598 13.9473 13.6326 14 13.5 14H10.5C10.3674 14 10.2402 13.9473 10.1464 13.8536C10.0527 13.7598 10 13.6326 10 13.5ZM4 6H5V12.5C5 13.163 5.26339 13.7989 5.73223 14.2678C6.20107 14.7366 6.83696 15 7.5 15H14V16C14 16.5304 13.7893 17.0391 13.4142 17.4142C13.0391 17.7893 12.5304 18 12 18H5.5C4.57174 18 3.6815 17.6313 3.02513 16.9749C2.36875 16.3185 2 15.4283 2 14.5V8C2 7.46957 2.21071 6.96086 2.58579 6.58579C2.96086 6.21071 3.46957 6 4 6Z" fill="#656565"/>
</svg>
