<svg width="120" height="33" viewBox="0 0 120 33" fill="none" xmlns="http://www.w3.org/2000/svg">
    <g filter="url(#filter0_d_6_769)">
        <rect x="6" y="4.99805" width="108" height="20" rx="6" fill="#FAD514" shape-rendering="crispEdges"/>
        <g clip-path="url(#clip0_6_769)">
            <path d="M20.7856 13.9024C20.8544 13.6962 21.1456 13.6962 21.2144 13.9024L21.6175 15.113C21.7062 15.3792 21.8557 15.621 22.0542 15.8193C22.2526 16.0176 22.4945 16.1669 22.7606 16.2555L23.9706 16.6587C24.1769 16.7274 24.1769 17.0187 23.9706 17.0874L22.76 17.4905C22.4939 17.5793 22.2521 17.7288 22.0538 17.9272C21.8555 18.1256 21.7061 18.3675 21.6175 18.6337L21.2144 19.8437C21.1996 19.8888 21.1708 19.9281 21.1324 19.956C21.0939 19.9839 21.0475 19.9989 21 19.9989C20.9525 19.9989 20.9062 19.9839 20.8677 19.956C20.8292 19.9281 20.8005 19.8888 20.7856 19.8437L20.3825 18.633C20.2938 18.367 20.1444 18.1252 19.9461 17.9269C19.7478 17.7286 19.5061 17.5792 19.24 17.4905L18.0294 17.0874C17.9842 17.0726 17.9449 17.0439 17.917 17.0054C17.8891 16.9669 17.8741 16.9206 17.8741 16.873C17.8741 16.8255 17.8891 16.7792 17.917 16.7407C17.9449 16.7022 17.9842 16.6735 18.0294 16.6587L19.24 16.2555C19.5061 16.1669 19.7478 16.0175 19.9461 15.8191C20.1444 15.6208 20.2938 15.3791 20.3825 15.113L20.7856 13.9024ZM18.3713 10.7155C18.3802 10.6885 18.3975 10.6649 18.4206 10.6482C18.4437 10.6315 18.4715 10.6225 18.5 10.6225C18.5285 10.6225 18.5563 10.6315 18.5794 10.6482C18.6025 10.6649 18.6198 10.6885 18.6288 10.7155L18.8706 11.4418C18.9788 11.7655 19.2325 12.0193 19.5563 12.1274L20.2825 12.3693C20.3096 12.3782 20.3331 12.3955 20.3498 12.4186C20.3665 12.4417 20.3755 12.4695 20.3755 12.498C20.3755 12.5265 20.3665 12.5543 20.3498 12.5774C20.3331 12.6005 20.3096 12.6178 20.2825 12.6268L19.5563 12.8687C19.3966 12.9218 19.2515 13.0115 19.1325 13.1305C19.0135 13.2495 18.9238 13.3946 18.8706 13.5543L18.6288 14.2805C18.6198 14.3076 18.6025 14.3311 18.5794 14.3478C18.5563 14.3645 18.5285 14.3735 18.5 14.3735C18.4715 14.3735 18.4437 14.3645 18.4206 14.3478C18.3975 14.3311 18.3802 14.3076 18.3713 14.2805L18.1294 13.5543C18.0762 13.3946 17.9865 13.2495 17.8675 13.1305C17.7485 13.0115 17.6034 12.9218 17.4438 12.8687L16.7175 12.6268C16.6904 12.6178 16.6669 12.6005 16.6502 12.5774C16.6335 12.5543 16.6245 12.5265 16.6245 12.498C16.6245 12.4695 16.6335 12.4417 16.6502 12.4186C16.6669 12.3955 16.6904 12.3782 16.7175 12.3693L17.4438 12.1274C17.6034 12.0742 17.7485 11.9845 17.8675 11.8655C17.9865 11.7465 18.0762 11.6014 18.1294 11.4418L18.3713 10.7155ZM22.7894 10.0599C22.7955 10.0421 22.8071 10.0267 22.8225 10.0158C22.8378 10.0048 22.8562 9.99896 22.875 9.99896C22.8938 9.99896 22.9122 10.0048 22.9276 10.0158C22.9429 10.0267 22.9545 10.0421 22.9606 10.0599L23.1219 10.5437C23.1938 10.7599 23.3631 10.9293 23.5794 11.0012L24.0631 11.1624C24.0809 11.1686 24.0964 11.1801 24.1073 11.1955C24.1182 11.2108 24.1241 11.2292 24.1241 11.248C24.1241 11.2669 24.1182 11.2852 24.1073 11.3006C24.0964 11.3159 24.0809 11.3275 24.0631 11.3337L23.5794 11.4949C23.4728 11.5304 23.376 11.5902 23.2966 11.6696C23.2171 11.749 23.1573 11.8458 23.1219 11.9524L22.9606 12.4362C22.9545 12.4539 22.9429 12.4694 22.9276 12.4803C22.9122 12.4912 22.8938 12.4971 22.875 12.4971C22.8562 12.4971 22.8378 12.4912 22.8225 12.4803C22.8071 12.4694 22.7955 12.4539 22.7894 12.4362L22.6281 11.9524C22.5927 11.8458 22.5329 11.749 22.4535 11.6696C22.374 11.5902 22.2772 11.5304 22.1706 11.4949L21.6875 11.3337C21.6697 11.3275 21.6543 11.3159 21.6434 11.3006C21.6324 11.2852 21.6266 11.2669 21.6266 11.248C21.6266 11.2292 21.6324 11.2108 21.6434 11.1955C21.6543 11.1801 21.6697 11.1686 21.6875 11.1624L22.1713 11.0012C22.3875 10.9293 22.5569 10.7599 22.6288 10.5437L22.7894 10.0605V10.0599Z" fill="#886520"/>
        </g>
        <path d="M30.6738 14.9902C30.6738 16.3066 31.0176 17.334 31.7051 18.0723C32.3926 18.8066 33.2539 19.1738 34.2891 19.1738C35.3281 19.1738 36.1211 18.8945 36.668 18.3359C37.2148 17.7734 37.5273 17.0996 37.6055 16.3145L37.6113 16.2559H36.4629L36.457 16.3145C36.4062 16.8223 36.207 17.2617 35.8594 17.6328C35.5117 18 34.9883 18.1836 34.2891 18.1836C33.5742 18.1836 32.9863 17.9004 32.5254 17.334C32.0645 16.7676 31.834 15.9863 31.834 14.9902V14.4746C31.834 13.4199 32.0645 12.625 32.5254 12.0898C32.9902 11.5508 33.5781 11.2812 34.2891 11.2812C35.0156 11.2812 35.5547 11.4648 35.9062 11.832C36.2617 12.1953 36.4473 12.6348 36.4629 13.1504V13.209H37.6113V13.1504C37.584 12.3613 37.2832 11.6875 36.709 11.1289C36.1348 10.5703 35.3281 10.291 34.2891 10.291C33.2539 10.291 32.3926 10.6602 31.7051 11.3984C31.0176 12.1328 30.6738 13.1582 30.6738 14.4746V14.9902ZM38.6191 15.9746C38.6191 16.916 38.8906 17.6855 39.4336 18.2832C39.9766 18.877 40.7012 19.1738 41.6074 19.1738C42.5137 19.1738 43.2383 18.877 43.7812 18.2832C44.3242 17.6855 44.5957 16.916 44.5957 15.9746V15.7871C44.5957 14.8457 44.3242 14.0781 43.7812 13.4844C43.2383 12.8867 42.5137 12.5879 41.6074 12.5879C40.7012 12.5879 39.9766 12.8867 39.4336 13.4844C38.8906 14.0781 38.6191 14.8457 38.6191 15.7871V15.9746ZM39.7559 15.7871C39.7559 15.1465 39.9102 14.6055 40.2188 14.1641C40.5312 13.7227 40.9941 13.502 41.6074 13.502C42.2207 13.502 42.6816 13.7227 42.9902 14.1641C43.2988 14.6055 43.4531 15.1465 43.4531 15.7871V15.9746C43.4531 16.6113 43.2988 17.1504 42.9902 17.5918C42.6816 18.0332 42.2207 18.2539 41.6074 18.2539C40.9941 18.2539 40.5312 18.0332 40.2188 17.5918C39.9102 17.1504 39.7559 16.6113 39.7559 15.9746V15.7871ZM45.9609 18.998H47.0742V14.6094C47.2305 14.3086 47.4375 14.0625 47.6953 13.8711C47.957 13.6797 48.2617 13.584 48.6094 13.584C49.0078 13.584 49.3164 13.6934 49.5352 13.9121C49.7539 14.1309 49.8633 14.4922 49.8633 14.9961V18.998H50.9824V14.6094C51.1348 14.3086 51.3398 14.0625 51.5977 13.8711C51.8594 13.6797 52.1641 13.584 52.5117 13.584C52.9141 13.584 53.2246 13.6934 53.4434 13.9121C53.6621 14.1309 53.7715 14.4922 53.7715 14.9961V18.998H54.8848V15.0078C54.8848 14.1562 54.6992 13.5508 54.3281 13.1914C53.957 12.8281 53.4434 12.6465 52.7871 12.6465C52.3691 12.6465 51.9961 12.7305 51.668 12.8984C51.3438 13.0625 51.0488 13.3301 50.7832 13.7012H50.748C50.5879 13.3301 50.3535 13.0625 50.0449 12.8984C49.7363 12.7305 49.3691 12.6465 48.9434 12.6465C48.5488 12.6465 48.1914 12.7285 47.8711 12.8926C47.5508 13.0566 47.2773 13.2832 47.0508 13.5723H47.0156L46.9688 12.7637H45.9609V18.998ZM56.6191 18.998H57.7324V12.7637H56.6191V18.998ZM56.4902 10.9121C56.4902 11.0996 56.5488 11.2578 56.666 11.3867C56.7871 11.5117 56.957 11.5742 57.1758 11.5742C57.3945 11.5742 57.5625 11.5117 57.6797 11.3867C57.8008 11.2578 57.8613 11.0996 57.8613 10.9121C57.8613 10.7285 57.8008 10.5742 57.6797 10.4492C57.5625 10.3203 57.3945 10.2559 57.1758 10.2559C56.957 10.2559 56.7871 10.3203 56.666 10.4492C56.5488 10.5742 56.4902 10.7285 56.4902 10.9121ZM59.5195 18.998H60.6328V14.6094C60.7891 14.3086 61.0039 14.0625 61.2773 13.8711C61.5508 13.6797 61.8672 13.584 62.2266 13.584C62.6445 13.584 62.9668 13.6934 63.1934 13.9121C63.4238 14.1309 63.5391 14.4922 63.5391 14.9961V18.998H64.6582V15.0078C64.6582 14.1562 64.4668 13.5508 64.084 13.1914C63.7051 12.8281 63.1973 12.6465 62.5605 12.6465C62.1543 12.6465 61.7852 12.7285 61.4531 12.8926C61.1211 13.0527 60.8398 13.2793 60.6094 13.5723H60.5742L60.5273 12.7637H59.5195V18.998ZM66.2109 20.6621C66.5156 20.9199 66.8887 21.1328 67.3301 21.3008C67.7715 21.4688 68.252 21.5527 68.7715 21.5527C69.6152 21.5527 70.2988 21.3203 70.8223 20.8555C71.3496 20.3906 71.6133 19.7266 71.6133 18.8633V12.7637H70.6055L70.5586 13.5723H70.5234C70.3633 13.3184 70.1152 13.1016 69.7793 12.9219C69.4473 12.7383 69.0605 12.6465 68.6191 12.6465C67.8145 12.6465 67.1719 12.9434 66.6914 13.5371C66.2109 14.127 65.9707 14.877 65.9707 15.7871V15.9746C65.9707 16.8809 66.2109 17.6309 66.6914 18.2246C67.1719 18.8184 67.8145 19.1152 68.6191 19.1152C69.0605 19.1152 69.4375 19.0371 69.75 18.8809C70.0664 18.7246 70.3164 18.5176 70.5 18.2598V18.8633C70.5 19.4062 70.3418 19.8281 70.0254 20.1289C69.7129 20.4297 69.2852 20.5801 68.7422 20.5801C68.3359 20.5801 67.9707 20.502 67.6465 20.3457C67.3223 20.1934 67.0703 20.0176 66.8906 19.8184L66.2109 20.6621ZM67.1074 15.9746V15.7871C67.1074 15.1582 67.248 14.6309 67.5293 14.2051C67.8145 13.7754 68.2578 13.5605 68.8594 13.5605C69.2656 13.5605 69.6094 13.6699 69.8906 13.8887C70.1719 14.1035 70.375 14.3496 70.5 14.627V17.1348C70.375 17.4082 70.1719 17.6543 69.8906 17.873C69.6094 18.0879 69.2656 18.1953 68.8594 18.1953C68.2578 18.1953 67.8145 17.9824 67.5293 17.5566C67.248 17.127 67.1074 16.5996 67.1074 15.9746ZM75.9375 16.6543C75.9375 17.4316 76.2266 18.0469 76.8047 18.5C77.3828 18.9492 78.1504 19.1738 79.1074 19.1738C80.0645 19.1738 80.8223 18.9492 81.3809 18.5C81.9434 18.0469 82.2246 17.4668 82.2246 16.7598C82.2246 16.0527 82.0059 15.5039 81.5684 15.1133C81.1348 14.7227 80.4453 14.4004 79.5 14.1465C78.5977 13.9004 77.998 13.6699 77.7012 13.4551C77.4043 13.2402 77.2559 12.9453 77.2559 12.5703C77.2559 12.1797 77.4004 11.8672 77.6895 11.6328C77.9824 11.3945 78.4355 11.2754 79.0488 11.2754C79.666 11.2754 80.1289 11.4141 80.4375 11.6914C80.75 11.9648 80.9062 12.3262 80.9062 12.7754V12.8457H82.0547V12.7754C82.0547 12.0645 81.7832 11.4727 81.2402 11C80.6973 10.5273 79.9668 10.291 79.0488 10.291C78.1309 10.291 77.4121 10.5137 76.8926 10.959C76.373 11.4004 76.1133 11.9551 76.1133 12.623C76.1133 13.291 76.3086 13.8066 76.6992 14.1699C77.0938 14.5293 77.7676 14.8418 78.7207 15.1074C79.6543 15.3613 80.2812 15.6055 80.6016 15.8398C80.9219 16.0703 81.082 16.3789 81.082 16.7656C81.082 17.1875 80.9121 17.5312 80.5723 17.7969C80.2363 18.0586 79.748 18.1895 79.1074 18.1895C78.4707 18.1895 77.9746 18.0625 77.6191 17.8086C77.2637 17.5508 77.0859 17.166 77.0859 16.6543V16.584H75.9375V16.6543ZM83.1973 15.9746C83.1973 16.916 83.4688 17.6855 84.0117 18.2832C84.5547 18.877 85.2793 19.1738 86.1855 19.1738C87.0918 19.1738 87.8164 18.877 88.3594 18.2832C88.9023 17.6855 89.1738 16.916 89.1738 15.9746V15.7871C89.1738 14.8457 88.9023 14.0781 88.3594 13.4844C87.8164 12.8867 87.0918 12.5879 86.1855 12.5879C85.2793 12.5879 84.5547 12.8867 84.0117 13.4844C83.4688 14.0781 83.1973 14.8457 83.1973 15.7871V15.9746ZM84.334 15.7871C84.334 15.1465 84.4883 14.6055 84.7969 14.1641C85.1094 13.7227 85.5723 13.502 86.1855 13.502C86.7988 13.502 87.2598 13.7227 87.5684 14.1641C87.877 14.6055 88.0312 15.1465 88.0312 15.7871V15.9746C88.0312 16.6113 87.877 17.1504 87.5684 17.5918C87.2598 18.0332 86.7988 18.2539 86.1855 18.2539C85.5723 18.2539 85.1094 18.0332 84.7969 17.5918C84.4883 17.1504 84.334 16.6113 84.334 15.9746V15.7871ZM90.1699 15.9746C90.1699 16.916 90.4414 17.6855 90.9844 18.2832C91.5273 18.877 92.252 19.1738 93.1582 19.1738C94.0645 19.1738 94.7891 18.877 95.332 18.2832C95.875 17.6855 96.1465 16.916 96.1465 15.9746V15.7871C96.1465 14.8457 95.875 14.0781 95.332 13.4844C94.7891 12.8867 94.0645 12.5879 93.1582 12.5879C92.252 12.5879 91.5273 12.8867 90.9844 13.4844C90.4414 14.0781 90.1699 14.8457 90.1699 15.7871V15.9746ZM91.3066 15.7871C91.3066 15.1465 91.4609 14.6055 91.7695 14.1641C92.082 13.7227 92.5449 13.502 93.1582 13.502C93.7715 13.502 94.2324 13.7227 94.541 14.1641C94.8496 14.6055 95.0039 15.1465 95.0039 15.7871V15.9746C95.0039 16.6113 94.8496 17.1504 94.541 17.5918C94.2324 18.0332 93.7715 18.2539 93.1582 18.2539C92.5449 18.2539 92.082 18.0332 91.7695 17.5918C91.4609 17.1504 91.3066 16.6113 91.3066 15.9746V15.7871ZM97.5117 18.998H98.625V14.6094C98.7812 14.3086 98.9961 14.0625 99.2695 13.8711C99.543 13.6797 99.8594 13.584 100.219 13.584C100.637 13.584 100.959 13.6934 101.186 13.9121C101.416 14.1309 101.531 14.4922 101.531 14.9961V18.998H102.65V15.0078C102.65 14.1562 102.459 13.5508 102.076 13.1914C101.697 12.8281 101.189 12.6465 100.553 12.6465C100.146 12.6465 99.7773 12.7285 99.4453 12.8926C99.1133 13.0527 98.832 13.2793 98.6016 13.5723H98.5664L98.5195 12.7637H97.5117V18.998Z" fill="#886520"/>
    </g>
    <defs>
        <filter id="filter0_d_6_769" x="0" y="0.998047" width="120" height="32" filterUnits="userSpaceOnUse" color-interpolation-filters="sRGB">
            <feFlood flood-opacity="0" result="BackgroundImageFix"/>
            <feColorMatrix in="SourceAlpha" type="matrix" values="0 0 0 0 0 0 0 0 0 0 0 0 0 0 0 0 0 0 127 0" result="hardAlpha"/>
            <feOffset dy="2"/>
            <feGaussianBlur stdDeviation="3"/>
            <feComposite in2="hardAlpha" operator="out"/>
            <feColorMatrix type="matrix" values="0 0 0 0 0 0 0 0 0 0 0 0 0 0 0 0 0 0 0.1 0"/>
            <feBlend mode="normal" in2="BackgroundImageFix" result="effect1_dropShadow_6_769"/>
            <feBlend mode="normal" in="SourceGraphic" in2="effect1_dropShadow_6_769" result="shape"/>
        </filter>
        <clipPath id="clip0_6_769">
            <rect width="10" height="10" fill="white" transform="translate(16 9.99805)"/>
        </clipPath>
    </defs>
</svg>
