<svg width="20" height="22" viewBox="0 0 20 22" fill="none" xmlns="http://www.w3.org/2000/svg">
<path d="M6.6505 2.28907C6.89392 1.90364 7.44219 1.90364 7.68561 2.28907L9.84293 5.70489H9.53429C9.07974 5.70489 8.71125 6.08413 8.71125 6.55194V9.50689C8.37913 9.44441 8.03687 9.41177 7.68721 9.41177C5.70124 9.41177 3.95423 10.4647 2.94452 12.0578H1.6183C1.12853 12.0578 0.833823 11.4989 1.10074 11.0763L6.6505 2.28907Z" fill="white"/>
<path d="M13.2525 16.2931H18.3827C18.7236 16.2931 19 16.0087 19 15.6578V7.39897C19 7.0481 18.7236 6.76367 18.3827 6.76367H10.3581C10.0172 6.76367 9.74079 7.0481 9.74079 7.39897V9.80715C11.8506 10.6532 13.3456 12.7646 13.3456 15.2353C13.3456 15.5965 13.3137 15.9501 13.2525 16.2931Z" fill="white"/>
<path d="M12.3168 15.2353C12.3168 17.8668 10.2441 20 7.68721 20C5.13035 20 3.0576 17.8668 3.0576 15.2353C3.0576 12.6038 5.13035 10.4706 7.68721 10.4706C10.2441 10.4706 12.3168 12.6038 12.3168 15.2353Z" fill="white"/>
</svg>
