<svg width="98" height="84" viewBox="0 0 98 84" fill="none" xmlns="http://www.w3.org/2000/svg">
    <g filter="url(#filter0_d_423_27795)">
        <rect x="30" y="21" width="38" height="38" rx="6" fill="#EC615B"/>
        <path d="M49.5092 48.994C47.7932 48.994 46.3199 48.6907 45.0892 48.084C43.8586 47.4773 42.8532 46.6887 42.0732 45.718C41.3106 44.7473 40.7472 43.69 40.3832 42.546C40.0192 41.402 39.8372 40.3013 39.8372 39.244V38.672C39.8372 37.4933 40.0192 36.332 40.3832 35.188C40.7646 34.044 41.3452 33.004 42.1252 32.068C42.9052 31.132 43.8932 30.3867 45.0892 29.832C46.3026 29.26 47.7326 28.974 49.3792 28.974C51.0952 28.974 52.5859 29.286 53.8512 29.91C55.1339 30.5167 56.1566 31.3833 56.9192 32.51C57.6819 33.6193 58.1412 34.9193 58.2972 36.41H54.5792C54.4406 35.5433 54.1286 34.8153 53.6432 34.226C53.1752 33.6193 52.5772 33.1687 51.8492 32.874C51.1212 32.562 50.2979 32.406 49.3792 32.406C48.4432 32.406 47.6112 32.5707 46.8832 32.9C46.1552 33.212 45.5486 33.6627 45.0632 34.252C44.5779 34.8413 44.2052 35.5347 43.9452 36.332C43.7026 37.1293 43.5812 38.0133 43.5812 38.984C43.5812 39.92 43.7026 40.7867 43.9452 41.584C44.2052 42.3813 44.5866 43.0833 45.0892 43.69C45.5919 44.2793 46.2072 44.7387 46.9352 45.068C47.6806 45.3973 48.5386 45.562 49.5092 45.562C50.9306 45.562 52.1266 45.2153 53.0972 44.522C54.0852 43.8113 54.6832 42.8233 54.8912 41.558H58.6092C58.4359 42.91 57.9766 44.1493 57.2312 45.276C56.4859 46.4027 55.4632 47.304 54.1632 47.98C52.8632 48.656 51.3119 48.994 49.5092 48.994Z" fill="white"/>
    </g>
    <defs>
        <filter id="filter0_d_423_27795" x="0" y="-9" width="98" height="98" filterUnits="userSpaceOnUse" color-interpolation-filters="sRGB">
            <feFlood flood-opacity="0" result="BackgroundImageFix"/>
            <feColorMatrix in="SourceAlpha" type="matrix" values="0 0 0 0 0 0 0 0 0 0 0 0 0 0 0 0 0 0 127 0" result="hardAlpha"/>
            <feOffset/>
            <feGaussianBlur stdDeviation="15"/>
            <feComposite in2="hardAlpha" operator="out"/>
            <feColorMatrix type="matrix" values="0 0 0 0 0 0 0 0 0 0 0 0 0 0 0 0 0 0 0.1 0"/>
            <feBlend mode="normal" in2="BackgroundImageFix" result="effect1_dropShadow_423_27795"/>
            <feBlend mode="normal" in="SourceGraphic" in2="effect1_dropShadow_423_27795" result="shape"/>
        </filter>
    </defs>
</svg>
