<svg width="42" height="42" viewBox="0 0 42 42" fill="none" xmlns="http://www.w3.org/2000/svg">
  <g clip-path="url(#clip0_472_250)">
    <path d="M18.7512 30.75C18.7512 31.3467 18.9882 31.919 19.4102 32.341C19.8322 32.7629 20.4045 33 21.0012 33C21.5979 33 22.1702 32.7629 22.5922 32.341C23.0141 31.919 23.2512 31.3467 23.2512 30.75C23.2512 30.1533 23.0141 29.581 22.5922 29.159C22.1702 28.7371 21.5979 28.5 21.0012 28.5C20.4045 28.5 19.8322 28.7371 19.4102 29.159C18.9882 29.581 18.7512 30.1533 18.7512 30.75V30.75ZM19.5012 16.5V25.125C19.5012 25.3313 19.6699 25.5 19.8762 25.5H22.1262C22.3324 25.5 22.5012 25.3313 22.5012 25.125V16.5C22.5012 16.2938 22.3324 16.125 22.1262 16.125H19.8762C19.6699 16.125 19.5012 16.2938 19.5012 16.5ZM41.7996 37.125L22.2996 3.375C22.009 2.87344 21.5074 2.625 21.0012 2.625C20.4949 2.625 19.9887 2.87344 19.7028 3.375L0.20275 37.125C-0.373812 38.1281 0.348063 39.375 1.50119 39.375H40.5012C41.6543 39.375 42.3762 38.1281 41.7996 37.125ZM5.07306 35.8172L21.0012 8.24531L36.9293 35.8172H5.07306V35.8172Z" fill="#FF4D4F"/>
  </g>
  <defs>
    <clipPath id="clip0_472_250">
      <rect width="42" height="42" fill="white"/>
    </clipPath>
  </defs>
</svg>