<svg width="24" height="25" viewBox="0 0 24 25" fill="none" xmlns="http://www.w3.org/2000/svg">
<path d="M9 12.4648C9 11.9126 8.55228 11.4648 8 11.4648V11.4648C7.44772 11.4648 7 11.9126 7 12.4648V12.4648C7 13.0171 7.44772 13.4648 8 13.4648V13.4648C8.55228 13.4648 9 13.0171 9 12.4648V12.4648ZM13 12.4648C13 11.9126 12.5523 11.4648 12 11.4648V11.4648C11.4477 11.4648 11 11.9126 11 12.4648V12.4648C11 13.0171 11.4477 13.4648 12 13.4648V13.4648C12.5523 13.4648 13 13.0171 13 12.4648V12.4648ZM17 12.4648C17 11.9126 16.5523 11.4648 16 11.4648V11.4648C15.4477 11.4648 15 11.9126 15 12.4648V12.4648C15 13.0171 15.4477 13.4648 16 13.4648V13.4648C16.5523 13.4648 17 13.0171 17 12.4648V12.4648ZM21 7.46484C21 5.80799 19.6569 4.46484 18 4.46484V4.46484V3.46484C18 2.91256 17.5523 2.46484 17 2.46484V2.46484C16.4477 2.46484 16 2.91256 16 3.46484V4.46484H8V3.46484C8 2.91256 7.55228 2.46484 7 2.46484V2.46484C6.44772 2.46484 6 2.91256 6 3.46484V4.46484V4.46484C4.34315 4.46484 3 5.80799 3 7.46484V18.4648C3 20.674 4.79086 22.4648 7 22.4648H17C19.2091 22.4648 21 20.674 21 18.4648V7.46484ZM19 17.4648C19 19.1217 17.6569 20.4648 16 20.4648H8C6.34315 20.4648 5 19.1217 5 17.4648V12.4648C5 10.808 6.34315 9.46484 8 9.46484H16C17.6569 9.46484 19 10.808 19 12.4648V17.4648Z" fill="#757575"/>
</svg>
