<svg width="94" height="76" viewBox="0 0 94 76" fill="none" xmlns="http://www.w3.org/2000/svg">
<path d="M47.7231 0V5.78462C47.7231 8.97937 50.3129 11.5692 53.5077 11.5692H70.8615C74.0563 11.5692 76.6462 14.1591 76.6462 17.3538V23.1385" stroke="#9B9B9B" stroke-width="2.89231" stroke-dasharray="4.34 2.89"/>
<path d="M47.7231 0V5.78462C47.7231 8.97937 45.1332 11.5692 41.9385 11.5692H23.1385C19.9437 11.5692 17.3539 14.1591 17.3539 17.3538V23.1385" stroke="#666666" stroke-width="2.89231"/>
<circle cx="17.3538" cy="37.6" r="15.9077" stroke="#666666" stroke-width="2.89231"/>
<circle cx="76.6461" cy="37.6" r="15.9077" stroke="#9B9B9B" stroke-width="2.89231" stroke-dasharray="4.34 2.89"/>
<path d="M8.677 68.5231L13.439 73.2851C14.0038 73.8499 14.9194 73.8499 15.4842 73.2851L20.2462 68.5231L26.0308 62.7385" stroke="#666666" stroke-width="2.89231" stroke-linecap="round"/>
<path d="M70.8616 62.7385L82.4308 74.3077M82.4308 62.7385L70.8616 74.3077" stroke="#9B9B9B" stroke-width="2.89231" stroke-linecap="round"/>
<path d="M8.42676 42H10.1152V38.6104L13.2827 32.7578H11.5942L9.6709 36.376C9.60742 36.4987 9.55029 36.6172 9.49951 36.7314C9.44873 36.8457 9.40007 36.96 9.35352 37.0742H9.30908C9.26676 36.96 9.2181 36.8457 9.16309 36.7314C9.1123 36.6172 9.05518 36.4987 8.9917 36.376L7.1001 32.7578H5.21484L8.42676 38.6675V42ZM14.2983 42H20.5V40.6987H15.9805V37.8867H19.8525V36.5918H15.9805V34.0591H20.4365V32.7578H14.2983V42ZM21.4395 39.4038C21.4395 40.2882 21.7695 40.9738 22.4297 41.4604C23.0941 41.9471 23.9595 42.1904 25.0259 42.1904C26.1007 42.1904 26.9577 41.945 27.5967 41.4541C28.2357 40.9632 28.5552 40.3031 28.5552 39.4736C28.5552 38.6611 28.3013 38.0369 27.7935 37.6011C27.2856 37.1652 26.5387 36.814 25.5527 36.5474C24.6175 36.3019 24.0103 36.084 23.731 35.8936C23.4517 35.7031 23.312 35.4302 23.312 35.0747C23.312 34.715 23.4453 34.4294 23.7119 34.2178C23.9827 34.002 24.4017 33.894 24.9688 33.894C25.5358 33.894 25.9632 34.0252 26.251 34.2876C26.5387 34.55 26.6826 34.8949 26.6826 35.3223V35.4365H28.3774V35.3096C28.3774 34.5013 28.0664 33.8433 27.4443 33.3354C26.8265 32.8234 26.0013 32.5674 24.9688 32.5674C23.9277 32.5674 23.1068 32.8107 22.5059 33.2974C21.9049 33.784 21.6045 34.4167 21.6045 35.1953C21.6045 35.9401 21.8415 36.522 22.3154 36.9409C22.7936 37.3599 23.5342 37.7005 24.5371 37.9629C25.4893 38.2126 26.1134 38.4453 26.4097 38.6611C26.7059 38.877 26.854 39.1774 26.854 39.5625C26.854 39.9561 26.6953 40.2734 26.3779 40.5146C26.0648 40.7516 25.6141 40.8701 25.0259 40.8701C24.4334 40.8701 23.9722 40.7474 23.6421 40.502C23.3162 40.2565 23.1533 39.8862 23.1533 39.3911V39.2769H21.4395V39.4038Z" fill="#666666"/>
<path d="M68.8936 42H70.3979V36.1284C70.3979 35.9888 70.3958 35.8449 70.3916 35.6968C70.3874 35.5444 70.3831 35.4006 70.3789 35.2651H70.4233C70.4741 35.3836 70.5291 35.5063 70.5884 35.6333C70.6476 35.756 70.7174 35.8809 70.7979 36.0078L74.4414 42H76.2632V32.7578H74.7588V38.6611C74.7588 38.7965 74.7588 38.9404 74.7588 39.0928C74.763 39.2451 74.7694 39.389 74.7778 39.5244H74.7271C74.6763 39.4017 74.6191 39.279 74.5557 39.1562C74.4964 39.0293 74.4266 38.9023 74.3462 38.7754L70.6899 32.7578H68.8936V42ZM77.9707 37.6646C77.9707 39.116 78.3516 40.2332 79.1133 41.0161C79.8792 41.799 80.8652 42.1904 82.0713 42.1904C83.2731 42.1904 84.257 41.799 85.0229 41.0161C85.7931 40.2332 86.1782 39.116 86.1782 37.6646V37.0933C86.1782 35.6418 85.7931 34.5246 85.0229 33.7417C84.257 32.9588 83.2731 32.5674 82.0713 32.5674C80.8652 32.5674 79.8792 32.9588 79.1133 33.7417C78.3516 34.5246 77.9707 35.6418 77.9707 37.0933V37.6646ZM79.6973 37.7598V36.998C79.6973 35.9909 79.9131 35.2228 80.3447 34.6938C80.7764 34.1649 81.3519 33.9004 82.0713 33.9004C82.7907 33.9004 83.3662 34.1649 83.7979 34.6938C84.2337 35.2228 84.4517 35.9909 84.4517 36.998V37.7598C84.4517 38.7669 84.2337 39.535 83.7979 40.064C83.3662 40.5929 82.7907 40.8574 82.0713 40.8574C81.3519 40.8574 80.7764 40.5929 80.3447 40.064C79.9131 39.535 79.6973 38.7669 79.6973 37.7598Z" fill="#9B9B9B"/>
</svg>
