<svg width="20" height="20" viewBox="0 0 20 20" fill="none" xmlns="http://www.w3.org/2000/svg">
<path d="M6.60826 2.67868H6.42969C6.5279 2.67868 6.60826 2.59832 6.60826 2.5001V2.67868H13.394V2.5001C13.394 2.59832 13.4743 2.67868 13.5725 2.67868H13.394V4.28582H15.0011V2.5001C15.0011 1.71216 14.3605 1.07153 13.5725 1.07153H6.42969C5.64174 1.07153 5.00112 1.71216 5.00112 2.5001V4.28582H6.60826V2.67868ZM17.8583 4.28582H2.14397C1.74888 4.28582 1.42969 4.60502 1.42969 5.0001V5.71439C1.42969 5.8126 1.51004 5.89296 1.60826 5.89296H2.95647L3.50781 17.5671C3.54353 18.3282 4.17299 18.9287 4.93415 18.9287H15.0681C15.8315 18.9287 16.4587 18.3305 16.4944 17.5671L17.0458 5.89296H18.394C18.4922 5.89296 18.5725 5.8126 18.5725 5.71439V5.0001C18.5725 4.60502 18.2533 4.28582 17.8583 4.28582ZM14.8962 17.3215H5.10603L4.56585 5.89296H15.4364L14.8962 17.3215Z" fill="white"/>
</svg>
