<svg width="94" height="76" viewBox="0 0 94 76" fill="none" xmlns="http://www.w3.org/2000/svg">
<path d="M47.7231 0V5.78462C47.7231 8.97937 45.1332 11.5692 41.9385 11.5692H23.1385C19.9437 11.5692 17.3539 14.1591 17.3539 17.3538V23.1385" stroke="#9B9B9B" stroke-width="2.89231" stroke-dasharray="4.34 2.89"/>
<path d="M47.7231 0V5.78462C47.7231 8.97937 50.3129 11.5692 53.5077 11.5692H70.8615C74.0563 11.5692 76.6462 14.1591 76.6462 17.3538V23.1385" stroke="#9B9B9B" stroke-width="2.89231" stroke-dasharray="4.34 2.89"/>
<circle cx="17.3538" cy="37.6" r="15.9077" stroke="#9B9B9B" stroke-width="2.89231" stroke-dasharray="4.34 2.89"/>
<circle cx="76.6461" cy="37.6" r="15.9077" stroke="#9B9B9B" stroke-width="2.89231" stroke-dasharray="4.34 2.89"/>
<path d="M72.4978 45.0308H77.9349C79.4244 45.0308 80.6206 44.6716 81.5235 43.9532C82.433 43.2282 82.8877 42.2133 82.8877 40.9084C82.8877 39.9659 82.6637 39.208 82.2155 38.6346C81.7739 38.0613 81.2137 37.6757 80.5349 37.478V37.4385C81.0885 37.2473 81.5499 36.898 81.9189 36.3906C82.2946 35.8765 82.4824 35.2207 82.4824 34.4233C82.4824 33.1315 82.054 32.1792 81.1973 31.5663C80.3471 30.9468 79.1641 30.637 77.6483 30.637H72.4978V45.0308ZM75.1175 43.0931V38.4765H77.8064C78.6434 38.4765 79.2564 38.6841 79.6452 39.0993C80.034 39.5145 80.2285 40.0747 80.2285 40.7799C80.2285 41.4916 80.034 42.0551 79.6452 42.4703C79.2564 42.8855 78.6434 43.0931 77.8064 43.0931H75.1175ZM75.1175 36.6575V32.5944H77.5296C78.36 32.5944 78.9565 32.7691 79.319 33.1184C79.6814 33.4611 79.8627 33.9586 79.8627 34.6111C79.8627 35.257 79.6814 35.7612 79.319 36.1236C78.9565 36.4795 78.36 36.6575 77.5296 36.6575H75.1175Z" fill="#9B9B9B"/>
<path d="M10.9445 45.0308H13.4753L17.1528 34.6111C17.2319 34.387 17.2978 34.1728 17.3505 33.9685C17.4033 33.7642 17.4494 33.5566 17.4889 33.3457H17.568C17.6141 33.5566 17.6603 33.7642 17.7064 33.9685C17.7591 34.1728 17.825 34.387 17.9041 34.6111L21.5915 45.0308H24.3991L19.0311 30.5678H16.273L10.9445 45.0308ZM13.7224 41.6795H21.463L20.8402 39.6825H14.3452L13.7224 41.6795Z" fill="#9B9B9B"/>
<path d="M70.8613 62.7385L82.4306 74.3077M82.4306 62.7385L70.8613 74.3077" stroke="#9B9B9B" stroke-width="2.89231" stroke-linecap="round"/>
<path d="M10.6768 62.7385L22.246 74.3077M22.246 62.7385L10.6768 74.3077" stroke="#9B9B9B" stroke-width="2.89231" stroke-linecap="round"/>
</svg>
