<svg width="16" height="16" viewBox="0 0 16 16" fill="none" xmlns="http://www.w3.org/2000/svg">
<g id="delete">
<mask id="mask0_234_53097" style="mask-type:alpha" maskUnits="userSpaceOnUse" x="0" y="0" width="16" height="16">
<rect id="Bounding box" width="16" height="16" fill="#D9D9D9"/>
</mask>
<g mask="url(#mask0_234_53097)">
<path id="delete_2" d="M4.6665 14C4.29984 14 3.98595 13.8694 3.72484 13.6083C3.46373 13.3472 3.33317 13.0333 3.33317 12.6667V4H2.6665V2.66667H5.99984V2H9.99984V2.66667H13.3332V4H12.6665V12.6667C12.6665 13.0333 12.5359 13.3472 12.2748 13.6083C12.0137 13.8694 11.6998 14 11.3332 14H4.6665ZM11.3332 4H4.6665V12.6667H11.3332V4ZM5.99984 11.3333H7.33317V5.33333H5.99984V11.3333ZM8.6665 11.3333H9.99984V5.33333H8.6665V11.3333Z" fill="black" fill-opacity="0.6"/>
</g>
</g>
</svg>
