<svg style="float:right; margin-top: -8px" width="34" height="35" viewBox="0 0 34 35" fill="none"
                     xmlns="http://www.w3.org/2000/svg">
                  <path
                      d="M23.1875 13H20.9375V11.5938C20.9375 10.9732 20.433 10.4688 19.8125 10.4688H14.1875C13.567 10.4688 13.0625 10.9732 13.0625 11.5938V13H10.8125C10.5014 13 10.25 13.2514 10.25 13.5625V14.125C10.25 14.2023 10.3133 14.2656 10.3906 14.2656H11.4523L11.8865 23.459C11.9146 24.0584 12.4104 24.5312 13.0098 24.5312H20.9902C21.5914 24.5312 22.0854 24.0602 22.1135 23.459L22.5477 14.2656H23.6094C23.6867 14.2656 23.75 14.2023 23.75 14.125V13.5625C23.75 13.2514 23.4986 13 23.1875 13ZM19.6719 13H14.3281V11.7344H19.6719V13Z"
                      fill="#2A2A2A" fill-opacity="0.5"/>
                </svg>
