<svg width="94" height="76" viewBox="0 0 94 76" fill="none" xmlns="http://www.w3.org/2000/svg">
<path d="M47.7231 0V5.78462C47.7231 8.97937 45.1332 11.5692 41.9385 11.5692H23.1385C19.9437 11.5692 17.3538 14.1591 17.3538 17.3538V23.1385" stroke="#9B9B9B" stroke-width="2.89231" stroke-dasharray="4.34 2.89"/>
<path d="M47.7231 0V5.78462C47.7231 8.97937 50.3129 11.5692 53.5077 11.5692H70.8615C74.0563 11.5692 76.6462 14.1591 76.6462 17.3538V23.1385" stroke="#9B9B9B" stroke-width="2.89231" stroke-dasharray="4.34 2.89"/>
<circle cx="17.3538" cy="37.6" r="15.9077" stroke="#9B9B9B" stroke-width="2.89231" stroke-dasharray="4.34 2.89"/>
<circle cx="76.6462" cy="37.6" r="15.9077" stroke="#9B9B9B" stroke-width="2.89231" stroke-dasharray="4.34 2.89"/>
<path d="M70.8613 62.7385L82.4306 74.3077M82.4306 62.7385L70.8613 74.3077" stroke="#9B9B9B" stroke-width="2.89231" stroke-linecap="round"/>
<path d="M10.6768 62.7385L22.246 74.3077M22.246 62.7385L10.6768 74.3077" stroke="#9B9B9B" stroke-width="2.89231" stroke-linecap="round"/>
<path d="M8.97949 42H10.668V38.6104L13.8354 32.7578H12.147L10.2236 36.376C10.1602 36.4987 10.103 36.6172 10.0522 36.7314C10.0015 36.8457 9.9528 36.96 9.90625 37.0742H9.86182C9.8195 36.96 9.77083 36.8457 9.71582 36.7314C9.66504 36.6172 9.60791 36.4987 9.54443 36.376L7.65283 32.7578H5.76758L8.97949 38.6675V42ZM14.8511 42H21.0527V40.6987H16.5332V37.8867H20.4053V36.5918H16.5332V34.0591H20.9893V32.7578H14.8511V42ZM21.9922 39.4038C21.9922 40.2882 22.3223 40.9738 22.9824 41.4604C23.6468 41.9471 24.5122 42.1904 25.5786 42.1904C26.6535 42.1904 27.5104 41.945 28.1494 41.4541C28.7884 40.9632 29.1079 40.3031 29.1079 39.4736C29.1079 38.6611 28.854 38.0369 28.3462 37.6011C27.8384 37.1652 27.0915 36.814 26.1055 36.5474C25.1702 36.3019 24.563 36.084 24.2837 35.8936C24.0044 35.7031 23.8647 35.4302 23.8647 35.0747C23.8647 34.715 23.998 34.4294 24.2646 34.2178C24.5355 34.002 24.9544 33.894 25.5215 33.894C26.0885 33.894 26.516 34.0252 26.8037 34.2876C27.0915 34.55 27.2354 34.8949 27.2354 35.3223V35.4365H28.9302V35.3096C28.9302 34.5013 28.6191 33.8433 27.9971 33.3354C27.3792 32.8234 26.554 32.5674 25.5215 32.5674C24.4805 32.5674 23.6595 32.8107 23.0586 33.2974C22.4577 33.784 22.1572 34.4167 22.1572 35.1953C22.1572 35.9401 22.3942 36.522 22.8682 36.9409C23.3464 37.3599 24.0869 37.7005 25.0898 37.9629C26.042 38.2126 26.6662 38.4453 26.9624 38.6611C27.2586 38.877 27.4067 39.1774 27.4067 39.5625C27.4067 39.9561 27.248 40.2734 26.9307 40.5146C26.6175 40.7516 26.1668 40.8701 25.5786 40.8701C24.9862 40.8701 24.5249 40.7474 24.1948 40.502C23.869 40.2565 23.7061 39.8862 23.7061 39.3911V39.2769H21.9922V39.4038Z" fill="#9B9B9B"/>
<path d="M68.8936 42H70.3979V36.1284C70.3979 35.9888 70.3958 35.8449 70.3916 35.6968C70.3874 35.5444 70.3831 35.4006 70.3789 35.2651H70.4233C70.4741 35.3836 70.5291 35.5063 70.5884 35.6333C70.6476 35.756 70.7174 35.8809 70.7979 36.0078L74.4414 42H76.2632V32.7578H74.7588V38.6611C74.7588 38.7965 74.7588 38.9404 74.7588 39.0928C74.763 39.2451 74.7694 39.389 74.7778 39.5244H74.7271C74.6763 39.4017 74.6191 39.279 74.5557 39.1562C74.4964 39.0293 74.4266 38.9023 74.3462 38.7754L70.6899 32.7578H68.8936V42ZM77.9707 37.6646C77.9707 39.116 78.3516 40.2332 79.1133 41.0161C79.8792 41.799 80.8652 42.1904 82.0713 42.1904C83.2731 42.1904 84.257 41.799 85.0229 41.0161C85.7931 40.2332 86.1782 39.116 86.1782 37.6646V37.0933C86.1782 35.6418 85.7931 34.5246 85.0229 33.7417C84.257 32.9588 83.2731 32.5674 82.0713 32.5674C80.8652 32.5674 79.8792 32.9588 79.1133 33.7417C78.3516 34.5246 77.9707 35.6418 77.9707 37.0933V37.6646ZM79.6973 37.7598V36.998C79.6973 35.9909 79.9131 35.2228 80.3447 34.6938C80.7764 34.1649 81.3519 33.9004 82.0713 33.9004C82.7907 33.9004 83.3662 34.1649 83.7979 34.6938C84.2337 35.2228 84.4517 35.9909 84.4517 36.998V37.7598C84.4517 38.7669 84.2337 39.535 83.7979 40.064C83.3662 40.5929 82.7907 40.8574 82.0713 40.8574C81.3519 40.8574 80.7764 40.5929 80.3447 40.064C79.9131 39.535 79.6973 38.7669 79.6973 37.7598Z" fill="#9B9B9B"/>
</svg>
