<svg version="1.2" xmlns="http://www.w3.org/2000/svg" viewBox="0 0 24 24" width="24" height="24">
	<title>desktop_mobile_icon_selected-svg</title>
	<style>
		.s0 { fill: #eb615a } 
	</style>
	<path id="Layer" fill-rule="evenodd" class="s0" d="m4 17h8.5c0.8 0 1.5 0.7 1.5 1.5c0 0.8-0.7 1.5-1.5 1.5h-11c-0.8 0-1.5-0.7-1.5-1.5c0-0.8 0.7-1.5 1.5-1.5h0.5v-11c0-1.1 0.9-2 2-2h17c0.6 0 1 0.5 1 1c0 0.5-0.4 1-1 1h-16c-0.5 0-1 0.5-1 1zm20-8v10c0 0.6-0.4 1-1 1h-6c-0.6 0-1-0.4-1-1v-10c0-0.6 0.4-1 1-1h6c0.6 0 1 0.4 1 1zm-2 1h-4v7h4z" />
</svg>