<svg width="24" height="24" viewBox="0 0 24 24" fill="none" xmlns="http://www.w3.org/2000/svg">
    <path d="M24 12.1664L20.5732 9.38129L21.709 5.11165L17.2965 4.8743L15.7102 0.75L12 3.15486L8.28982 0.75L6.70355 4.87433L2.29105 5.11169L3.42688 9.38133L0 12.1664L3.42684 14.9514L2.29105 19.221L6.70355 19.4584L8.28982 23.5827L12 21.1779L15.7102 23.5827L17.2965 19.4584L21.709 19.221L20.5732 14.9514L24 12.1664ZM16.1437 17.8697L14.9013 21.0955L12 19.2162L9.09871 21.098L7.85632 17.8721L4.40284 17.6881L5.29404 14.346L2.61309 12.1664L5.29404 9.98678L4.40526 6.64711L7.85873 6.46307L9.10113 3.23721L12 5.11651L14.9013 3.23479L16.1437 6.46065L19.5972 6.6447L18.706 9.98678L21.3869 12.1664L18.706 14.346L19.5947 17.6857L16.1437 17.8697Z" fill="black" fill-opacity="0.5"/>
    <path d="M11.655 16.683C10.975 16.683 10.38 16.5752 9.87 16.3595C9.36 16.1336 8.96 15.8256 8.67 15.4353C8.39 15.0451 8.25 14.5882 8.25 14.0644H10.5C10.5 14.3109 10.605 14.5111 10.815 14.6652C11.035 14.8089 11.315 14.8808 11.655 14.8808H12.315C12.725 14.8808 13.035 14.8038 13.245 14.6498C13.465 14.4957 13.575 14.2801 13.575 14.0028C13.575 13.7461 13.48 13.551 13.29 13.4175C13.1 13.2737 12.805 13.1762 12.405 13.1248L11.445 13.0016C10.415 12.8681 9.665 12.6114 9.195 12.2314C8.725 11.8515 8.49 11.2713 8.49 10.4909C8.49 9.66935 8.765 9.03268 9.315 8.58085C9.865 8.12902 10.67 7.9031 11.73 7.9031H12.3C13.31 7.9031 14.115 8.12902 14.715 8.58085C15.315 9.03268 15.615 9.63855 15.615 10.3984H13.365C13.365 10.1931 13.265 10.0288 13.065 9.90554C12.875 9.77204 12.62 9.70529 12.3 9.70529H11.73C11.36 9.70529 11.09 9.77204 10.92 9.90554C10.75 10.0288 10.665 10.2187 10.665 10.4755C10.665 10.7116 10.74 10.8914 10.89 11.0146C11.05 11.1378 11.3 11.2251 11.64 11.2764L12.675 11.4151C13.715 11.5486 14.485 11.8156 14.985 12.216C15.495 12.6165 15.75 13.2121 15.75 14.0028C15.75 14.8654 15.46 15.5278 14.88 15.9899C14.3 16.452 13.445 16.683 12.315 16.683H11.655Z" fill="#808080"/>
    <path d="M11.4643 6.75H12.675V18H11.4643V6.75Z" fill="#808080"/>
</svg>
