<svg width="22" height="22" viewBox="0 0 22 22" fill="none" xmlns="http://www.w3.org/2000/svg">
<rect y="-0.000244141" width="22" height="22" rx="6" fill="black" fill-opacity="0.5"/>
<path d="M10.9014 13.325C10.9131 13.34 10.9281 13.3521 10.9451 13.3604C10.9622 13.3687 10.9809 13.373 10.9999 13.373C11.0188 13.373 11.0376 13.3687 11.0546 13.3604C11.0717 13.3521 11.0866 13.34 11.0983 13.325L12.8483 11.111C12.9124 11.0297 12.8546 10.9094 12.7499 10.9094H11.5921V5.62191C11.5921 5.55316 11.5358 5.49691 11.4671 5.49691H10.5296C10.4608 5.49691 10.4046 5.55316 10.4046 5.62191V10.9078H9.24988C9.14519 10.9078 9.08738 11.0282 9.15144 11.1094L10.9014 13.325ZM16.7186 12.7782H15.7811C15.7124 12.7782 15.6561 12.8344 15.6561 12.9032V15.3094H6.34363V12.9032C6.34363 12.8344 6.28738 12.7782 6.21863 12.7782H5.28113C5.21238 12.7782 5.15613 12.8344 5.15613 12.9032V15.9969C5.15613 16.2735 5.37957 16.4969 5.65613 16.4969H16.3436C16.6202 16.4969 16.8436 16.2735 16.8436 15.9969V12.9032C16.8436 12.8344 16.7874 12.7782 16.7186 12.7782Z" fill="white" fill-opacity="0.85"/>
</svg>
