<svg width="24" height="24" viewBox="0 0 24 24" fill="none" xmlns="http://www.w3.org/2000/svg">
<path fill-rule="evenodd" clip-rule="evenodd" d="M24 9C24 7.34315 22.6569 6 21 6H3C1.34315 6 0 7.34315 0 9V14C0 15.6569 1.34315 17 3 17H21C22.6569 17 24 15.6569 24 14V9ZM22 9.4C22 8.6268 21.3732 8 20.6 8H3.4C2.6268 8 2 8.6268 2 9.4V13.6C2 14.3732 2.6268 15 3.4 15H20.6C21.3732 15 22 14.3732 22 13.6V9.4Z" fill="#7F7F7F"/>
<path d="M17.2397 12.7769L14.821 10.7037C14.539 10.462 14.7099 10 15.0813 10H19.9187C20.2901 10 20.461 10.462 20.179 10.7037L17.7603 12.7769C17.6105 12.9053 17.3895 12.9053 17.2397 12.7769Z" fill="#7F7F7F"/>
</svg>
