<svg width="16" height="16" viewBox="0 0 16 16" fill="none" xmlns="http://www.w3.org/2000/svg">
<g id="edit">
<mask id="mask0_234_53092" style="mask-type:alpha" maskUnits="userSpaceOnUse" x="0" y="0" width="16" height="16">
<rect id="Bounding box" width="16" height="16" fill="#D9D9D9"/>
</mask>
<g mask="url(#mask0_234_53092)">
<path id="edit_2" d="M3.33333 12.6666H4.26667L10.0167 6.91659L9.08333 5.98325L3.33333 11.7333V12.6666ZM12.8667 5.94992L10.0333 3.14992L10.9667 2.21659C11.2222 1.96103 11.5361 1.83325 11.9083 1.83325C12.2806 1.83325 12.5944 1.96103 12.85 2.21659L13.7833 3.14992C14.0389 3.40547 14.1722 3.71381 14.1833 4.07492C14.1944 4.43603 14.0722 4.74436 13.8167 4.99992L12.8667 5.94992ZM11.9 6.93325L4.83333 13.9999H2V11.1666L9.06667 4.09992L11.9 6.93325Z" fill="black" fill-opacity="0.6"/>
</g>
</g>
</svg>
