<svg width="95" height="32" viewBox="0 0 95 32" fill="none" xmlns="http://www.w3.org/2000/svg">
    <path d="M4.05625 6.5625C5.03542 6.46875 5.95729 6.34375 6.82188 6.1875C6.94688 5.47917 7.18646 4.76562 7.54063 4.04688C7.90521 3.31771 8.35313 2.66146 8.88438 2.07812C9.41563 1.48438 10.0198 1.00521 10.6969 0.640625C11.374 0.265625 12.0927 0.078125 12.8531 0.078125C13.3948 0.078125 13.8375 0.260417 14.1813 0.625C14.5354 0.979167 14.7125 1.4375 14.7125 2C14.7125 2.46875 14.5667 2.92188 14.275 3.35938C13.9833 3.78646 13.5615 4.19271 13.0094 4.57812C12.4677 4.95312 11.8063 5.30729 11.025 5.64062C10.2542 5.96354 9.38438 6.25 8.41563 6.5C8.45729 6.75 8.51979 6.98958 8.60313 7.21875C8.68646 7.4375 8.76458 7.65104 8.8375 7.85938C8.92083 8.06771 8.98854 8.27604 9.04063 8.48438C9.10313 8.68229 9.13438 8.89583 9.13438 9.125C9.13438 9.77083 8.97813 10.3125 8.66563 10.75C8.35313 11.1875 7.9625 11.5833 7.49375 11.9375C7.025 12.2812 6.51458 12.6146 5.9625 12.9375C5.42083 13.2604 4.91563 13.6354 4.44688 14.0625C3.97813 14.4792 3.5875 14.9844 3.275 15.5781C2.9625 16.1615 2.80625 16.8906 2.80625 17.7656C2.80625 18.4531 2.93125 19.0521 3.18125 19.5625C3.44167 20.0729 3.775 20.5 4.18125 20.8438C4.5875 21.1875 5.03542 21.4427 5.525 21.6094C6.025 21.776 6.50938 21.8594 6.97813 21.8594C7.29063 21.8594 7.62917 21.8438 7.99375 21.8125C8.36875 21.7708 8.78542 21.6719 9.24375 21.5156C9.70208 21.349 10.2073 21.1042 10.7594 20.7812C11.3115 20.4583 11.9156 20.0104 12.5719 19.4375L12.9781 19.9375C12.2698 20.5312 11.6135 21.0156 11.0094 21.3906C10.4052 21.7552 9.82708 22.0417 9.275 22.25C8.73333 22.4583 8.20208 22.599 7.68125 22.6719C7.17083 22.7448 6.65 22.7812 6.11875 22.7812C5.36875 22.7812 4.66042 22.6823 3.99375 22.4844C3.3375 22.2865 2.76458 21.9948 2.275 21.6094C1.78542 21.224 1.4 20.7448 1.11875 20.1719C0.827085 19.599 0.681252 18.9375 0.681252 18.1875C0.681252 17.3333 0.847918 16.5938 1.18125 15.9688C1.50417 15.3438 1.91042 14.8021 2.4 14.3438C2.88958 13.875 3.41563 13.4635 3.97813 13.1094C4.55104 12.7552 5.08229 12.4219 5.57188 12.1094C6.06146 11.7865 6.46771 11.4688 6.79063 11.1562C7.12396 10.8438 7.29063 10.4896 7.29063 10.0938C7.29063 9.94792 7.25938 9.79167 7.19688 9.625C7.14479 9.44792 7.08229 9.24479 7.00938 9.01562C6.93646 8.78646 6.86875 8.52604 6.80625 8.23438C6.75417 7.94271 6.72813 7.60417 6.72813 7.21875C6.72813 7.16667 6.72813 7.11458 6.72813 7.0625C6.72813 7 6.73333 6.9375 6.74375 6.875C6.37917 6.94792 6.00417 7.01562 5.61875 7.07812C5.23333 7.13021 4.84271 7.18229 4.44688 7.23438L4.05625 6.5625ZM8.35313 5.84375C9.89479 5.4375 11.0875 4.90625 11.9313 4.25C12.775 3.59375 13.1969 2.81771 13.1969 1.92188C13.1969 1.52604 13.1031 1.23958 12.9156 1.0625C12.7281 0.875 12.4625 0.78125 12.1188 0.78125C11.8063 0.78125 11.4365 0.901042 11.0094 1.14062C10.5823 1.36979 10.1708 1.69792 9.775 2.125C9.37917 2.55208 9.04063 3.07292 8.75938 3.6875C8.48854 4.30208 8.35313 4.98958 8.35313 5.75V5.84375ZM19.7719 19.8438C19.7302 19.9479 19.6938 20.0521 19.6625 20.1562C19.6313 20.25 19.6156 20.3333 19.6156 20.4062C19.6156 20.5312 19.6417 20.6146 19.6938 20.6562C19.7563 20.6979 19.8344 20.7188 19.9281 20.7188C20.074 20.7188 20.251 20.6458 20.4594 20.5C20.6677 20.3542 20.8865 20.1406 21.1156 19.8594L23.975 16.3281L24.3656 16.6406L20.9125 20.9062C20.6625 21.2188 20.4333 21.4792 20.225 21.6875C20.0271 21.8958 19.8344 22.0625 19.6469 22.1875C19.4698 22.3021 19.2875 22.3854 19.1 22.4375C18.9229 22.4896 18.7354 22.5156 18.5375 22.5156C18.225 22.5156 17.9646 22.4271 17.7563 22.25C17.5479 22.0625 17.4438 21.8281 17.4438 21.5469C17.4438 21.2865 17.5115 20.9792 17.6469 20.625C17.7719 20.2708 17.9385 19.8385 18.1469 19.3281L21.1 12.2812C20.9333 12.5417 20.7406 12.8333 20.5219 13.1562C20.3031 13.4792 20.0375 13.8438 19.725 14.25C19.4229 14.6562 19.0792 15.1146 18.6938 15.625C18.2979 16.125 17.8448 16.6875 17.3344 17.3125L16.9438 17C17.6625 16.1146 18.2875 15.3229 18.8188 14.625C19.35 13.9167 19.8083 13.2812 20.1938 12.7188C20.5792 12.1562 20.9073 11.651 21.1781 11.2031C21.449 10.7552 21.6885 10.3333 21.8969 9.9375C22.1052 9.54167 22.2927 9.16667 22.4594 8.8125C22.6365 8.44792 22.824 8.07292 23.0219 7.6875L24.8031 3.45312H26.6781L19.7719 19.8438ZM29.1438 21.875C29.5188 21.875 29.925 21.7917 30.3625 21.625C30.8104 21.4583 31.3104 21.1719 31.8625 20.7656C32.425 20.3594 33.0448 19.8125 33.7219 19.125C34.399 18.4271 35.1594 17.5521 36.0031 16.5L36.3938 16.8125C35.675 17.7292 35.0135 18.5104 34.4094 19.1562C33.8052 19.7917 33.2531 20.3229 32.7531 20.75C32.2531 21.1667 31.8 21.4948 31.3938 21.7344C30.9979 21.9635 30.6438 22.1354 30.3313 22.25C30.0188 22.3646 29.7427 22.4375 29.5031 22.4688C29.2635 22.4896 29.0604 22.5 28.8938 22.5C28.6438 22.5 28.3625 22.4635 28.05 22.3906C27.7375 22.3177 27.4458 22.1875 27.175 22C26.9042 21.8021 26.6802 21.5365 26.5031 21.2031C26.3156 20.8698 26.2219 20.4375 26.2219 19.9062C26.2219 19.125 26.3521 18.3698 26.6125 17.6406C26.8625 16.9115 27.1958 16.2292 27.6125 15.5938C28.0292 14.9479 28.4979 14.3594 29.0188 13.8281C29.55 13.2969 30.0865 12.8438 30.6281 12.4688C31.1802 12.0833 31.7115 11.7865 32.2219 11.5781C32.7323 11.3698 33.1802 11.2656 33.5656 11.2656C34.1177 11.2656 34.5135 11.4323 34.7531 11.7656C35.0031 12.0885 35.1281 12.5052 35.1281 13.0156C35.1281 13.4844 35.024 13.9375 34.8156 14.375C34.6073 14.8125 34.3313 15.2292 33.9875 15.625C33.6438 16.0104 33.2427 16.3698 32.7844 16.7031C32.3365 17.026 31.8625 17.3073 31.3625 17.5469C30.8729 17.776 30.3729 17.9583 29.8625 18.0938C29.3625 18.2292 28.8938 18.2969 28.4563 18.2969C28.3208 18.6927 28.2167 19.0677 28.1438 19.4219C28.0604 19.776 28.0188 20.1042 28.0188 20.4062C28.0188 20.9688 28.1281 21.3542 28.3469 21.5625C28.5656 21.7708 28.8313 21.875 29.1438 21.875ZM33.05 11.9062C32.7688 11.9062 32.4302 12.0885 32.0344 12.4531C31.6385 12.8073 31.2271 13.2708 30.8 13.8438C30.3833 14.4167 29.9771 15.0573 29.5813 15.7656C29.1958 16.4635 28.8729 17.1615 28.6125 17.8594C29.3521 17.7344 30.024 17.4844 30.6281 17.1094C31.2427 16.724 31.7635 16.2812 32.1906 15.7812C32.6281 15.2708 32.9615 14.7344 33.1906 14.1719C33.4302 13.6094 33.55 13.0938 33.55 12.625C33.55 12.3438 33.5031 12.1562 33.4094 12.0625C33.3156 11.9583 33.1958 11.9062 33.05 11.9062ZM50.5781 16.7969C50.0781 17.4219 49.599 17.9948 49.1406 18.5156C48.6823 19.0365 48.224 19.526 47.7656 19.9844C47.3177 20.4323 46.8646 20.8594 46.4062 21.2656C45.9479 21.6719 45.4688 22.0833 44.9688 22.5L43.4688 26.1094C43.1354 26.9115 42.7917 27.6354 42.4375 28.2812C42.0938 28.9271 41.724 29.474 41.3281 29.9219C40.9323 30.3698 40.5052 30.7135 40.0469 30.9531C39.5885 31.1927 39.0833 31.3125 38.5312 31.3125C38.1667 31.3125 37.8594 31.25 37.6094 31.125C37.3594 31.0104 37.1562 30.8594 37 30.6719C36.8438 30.4844 36.7344 30.276 36.6719 30.0469C36.599 29.8177 36.5625 29.599 36.5625 29.3906C36.5625 28.7031 36.7552 28.0677 37.1406 27.4844C37.526 26.9115 38.0312 26.3594 38.6562 25.8281C39.2708 25.2969 39.9635 24.7656 40.7344 24.2344C41.4948 23.7135 42.2604 23.1562 43.0312 22.5625L46.0938 15.1875C46.1562 15.0312 46.1875 14.9375 46.1875 14.9062C46.1875 14.8021 46.151 14.75 46.0781 14.75C45.9844 14.75 45.8854 14.8281 45.7812 14.9844C45.7188 15.0677 45.5938 15.2448 45.4062 15.5156C45.2188 15.7865 44.9896 16.1094 44.7188 16.4844C44.4479 16.8594 44.1562 17.2656 43.8438 17.7031C43.5312 18.1406 43.2188 18.5677 42.9062 18.9844C42.5938 19.401 42.2969 19.7812 42.0156 20.125C41.7344 20.4688 41.4948 20.7396 41.2969 20.9375C40.7969 21.4375 40.3542 21.8333 39.9688 22.125C39.5833 22.4062 39.2031 22.5469 38.8281 22.5469C38.7031 22.5469 38.5677 22.5208 38.4219 22.4688C38.2656 22.4167 38.125 22.3281 38 22.2031C37.8646 22.0677 37.7552 21.8854 37.6719 21.6562C37.5885 21.4167 37.5469 21.1146 37.5469 20.75C37.5469 20.2083 37.6719 19.6094 37.9219 18.9531C38.1615 18.2969 38.4948 17.6302 38.9219 16.9531C39.349 16.2656 39.8542 15.5938 40.4375 14.9375C41.0208 14.2812 41.651 13.6927 42.3281 13.1719C43.0156 12.6406 43.7344 12.1979 44.4844 11.8438C45.2344 11.4896 45.9948 11.276 46.7656 11.2031V11.4844C46.1302 11.6719 45.5208 11.9635 44.9375 12.3594C44.3542 12.7448 43.8073 13.1927 43.2969 13.7031C42.7865 14.2135 42.3229 14.7604 41.9062 15.3438C41.4896 15.9167 41.1302 16.4844 40.8281 17.0469C40.526 17.6094 40.2969 18.1458 40.1406 18.6562C39.974 19.1562 39.8906 19.5781 39.8906 19.9219C39.8906 20.1094 39.9219 20.2656 39.9844 20.3906C40.0365 20.5156 40.1146 20.5781 40.2188 20.5781C40.3333 20.5781 40.5052 20.4844 40.7344 20.2969C40.9531 20.1094 41.2083 19.8594 41.5 19.5469C41.7917 19.224 42.1094 18.8594 42.4531 18.4531C42.7969 18.0365 43.1458 17.6042 43.5 17.1562C43.8542 16.7083 44.2031 16.2552 44.5469 15.7969C44.901 15.3385 45.2292 14.9062 45.5312 14.5C45.9896 13.875 46.3698 13.3594 46.6719 12.9531C46.9844 12.5469 47.25 12.224 47.4688 11.9844C47.6979 11.7344 47.901 11.5625 48.0781 11.4688C48.2552 11.375 48.4479 11.3281 48.6562 11.3281C48.875 11.3281 49.026 11.3854 49.1094 11.5C49.1927 11.6146 49.2344 11.7552 49.2344 11.9219C49.2344 12.0573 49.2135 12.1979 49.1719 12.3438C49.1406 12.4896 49.099 12.6198 49.0469 12.7344L45.4219 21.4219C46.1094 20.8281 46.8438 20.1354 47.625 19.3438C48.4167 18.5417 49.2708 17.5885 50.1875 16.4844L50.5781 16.7969ZM42.6406 23.5156C41.8073 24.1198 41.0521 24.6615 40.375 25.1406C39.6979 25.6302 39.125 26.0938 38.6562 26.5312C38.1771 26.9792 37.8125 27.4323 37.5625 27.8906C37.3021 28.349 37.1719 28.8542 37.1719 29.4062C37.1719 29.5521 37.1927 29.7031 37.2344 29.8594C37.276 30.0156 37.3438 30.1562 37.4375 30.2812C37.5208 30.4062 37.6354 30.5052 37.7812 30.5781C37.9271 30.6615 38.1042 30.7031 38.3125 30.7031C38.8333 30.7031 39.3125 30.4115 39.75 29.8281C40.1771 29.2448 40.5938 28.4635 41 27.4844L42.6406 23.5156ZM60.2469 19.8438C60.2052 19.9375 60.1688 20.0365 60.1375 20.1406C60.1063 20.2448 60.0906 20.3333 60.0906 20.4062C60.0906 20.5312 60.1167 20.6146 60.1688 20.6562C60.2313 20.6979 60.3094 20.7188 60.4031 20.7188C60.549 20.7188 60.726 20.6458 60.9344 20.5C61.1427 20.3542 61.3615 20.1406 61.5906 19.8594L64.45 16.3281L64.8406 16.6406L61.3875 20.9062C61.1375 21.2188 60.9031 21.4792 60.6844 21.6875C60.4656 21.8958 60.2573 22.0625 60.0594 22.1875C59.8719 22.3021 59.6792 22.3854 59.4813 22.4375C59.2938 22.4896 59.101 22.5156 58.9031 22.5156C58.5906 22.5156 58.3302 22.4271 58.1219 22.25C57.9135 22.0625 57.8094 21.8281 57.8094 21.5469C57.8094 21.2344 57.8667 20.9115 57.9813 20.5781C58.1063 20.2448 58.2833 19.8281 58.5125 19.3281C58.5958 19.151 58.6948 18.9219 58.8094 18.6406C58.9344 18.349 59.0646 18.0469 59.2 17.7344C59.3354 17.4115 59.4708 17.0885 59.6063 16.7656C59.7417 16.4427 59.8615 16.151 59.9656 15.8906C60.0698 15.6198 60.1531 15.3958 60.2156 15.2188C60.2885 15.0417 60.325 14.9375 60.325 14.9062C60.325 14.8021 60.2885 14.75 60.2156 14.75C60.1219 14.75 60.0229 14.8281 59.9188 14.9844C59.8563 15.0677 59.7313 15.2448 59.5438 15.5156C59.3563 15.7865 59.1271 16.1094 58.8563 16.4844C58.5854 16.8594 58.2938 17.2656 57.9813 17.7031C57.6688 18.1406 57.3563 18.5677 57.0438 18.9844C56.7313 19.401 56.4344 19.7812 56.1531 20.125C55.8719 20.4688 55.6323 20.7396 55.4344 20.9375C54.9344 21.4375 54.4917 21.8333 54.1063 22.125C53.7208 22.4062 53.3406 22.5469 52.9656 22.5469C52.8406 22.5469 52.7052 22.5208 52.5594 22.4688C52.4031 22.4167 52.2625 22.3281 52.1375 22.2031C52.0021 22.0677 51.8927 21.8854 51.8094 21.6562C51.726 21.4167 51.6844 21.1146 51.6844 20.75C51.6844 20.2083 51.8094 19.6094 52.0594 18.9531C52.299 18.2969 52.6323 17.6302 53.0594 16.9531C53.4865 16.2656 53.9917 15.5938 54.575 14.9375C55.1583 14.2812 55.7885 13.6927 56.4656 13.1719C57.1531 12.6406 57.8719 12.1979 58.6219 11.8438C59.3719 11.4896 60.1323 11.276 60.9031 11.2031V11.4844C60.2677 11.6719 59.6583 11.9635 59.075 12.3594C58.4917 12.7448 57.9448 13.1927 57.4344 13.7031C56.924 14.2135 56.4604 14.7604 56.0438 15.3438C55.6271 15.9167 55.2677 16.4844 54.9656 17.0469C54.6635 17.6094 54.4344 18.1458 54.2781 18.6562C54.1115 19.1562 54.0281 19.5781 54.0281 19.9219C54.0281 20.1094 54.0594 20.2656 54.1219 20.3906C54.174 20.5156 54.2521 20.5781 54.3563 20.5781C54.4708 20.5781 54.6427 20.4844 54.8719 20.2969C55.0906 20.1094 55.3458 19.8594 55.6375 19.5469C55.9292 19.224 56.2469 18.8594 56.5906 18.4531C56.9344 18.0365 57.2833 17.6042 57.6375 17.1562C57.9917 16.7083 58.3406 16.2552 58.6844 15.7969C59.0385 15.3385 59.3667 14.9062 59.6688 14.5C60.1271 13.875 60.5073 13.3594 60.8094 12.9531C61.1115 12.5469 61.3719 12.224 61.5906 11.9844C61.8094 11.7344 62.0073 11.5625 62.1844 11.4688C62.3615 11.375 62.5542 11.3281 62.7625 11.3281C62.9813 11.3281 63.1323 11.3854 63.2156 11.5C63.299 11.6146 63.3406 11.7552 63.3406 11.9219C63.3406 12.0573 63.3198 12.1979 63.2781 12.3438C63.2469 12.4896 63.2052 12.6198 63.1531 12.7344C63.1115 12.8281 63.0177 13.0521 62.8719 13.4062C62.7365 13.75 62.5698 14.1667 62.3719 14.6562C62.174 15.1354 61.9604 15.651 61.7313 16.2031C61.5125 16.7552 61.299 17.2812 61.0906 17.7812C60.8927 18.2708 60.7156 18.7083 60.5594 19.0938C60.4031 19.4688 60.299 19.7188 60.2469 19.8438ZM71.1188 13.5469C71.15 13.474 71.1656 13.4167 71.1656 13.375C71.1656 13.3125 71.1448 13.2708 71.1031 13.25C71.0719 13.2188 71.0302 13.2031 70.9781 13.2031C70.874 13.2031 70.7802 13.2604 70.6969 13.375L67.6031 17.2031L67.2125 16.8906L70.7281 12.5469C70.999 12.2135 71.2802 11.9219 71.5719 11.6719C71.874 11.4115 72.1865 11.2812 72.5094 11.2812C72.8115 11.2812 73.0302 11.3646 73.1656 11.5312C73.301 11.6875 73.3688 11.8646 73.3688 12.0625C73.3688 12.2604 73.3323 12.4844 73.2594 12.7344C73.1865 12.9844 73.0927 13.2448 72.9781 13.5156L70.8063 18.625C70.7438 18.7708 70.7125 18.8854 70.7125 18.9688C70.7125 19.0729 70.7542 19.125 70.8375 19.125C70.9521 19.125 71.0771 19.0208 71.2125 18.8125L74.4781 13.9531C74.8115 13.4531 75.1083 13.0312 75.3688 12.6875C75.6396 12.3333 75.8896 12.0469 76.1188 11.8281C76.3583 11.6094 76.5823 11.4531 76.7906 11.3594C77.0094 11.2552 77.2333 11.2031 77.4625 11.2031C77.8583 11.2031 78.1604 11.2812 78.3688 11.4375C78.5771 11.5938 78.6813 11.8229 78.6813 12.125C78.6813 12.3021 78.6552 12.4896 78.6031 12.6875C78.551 12.875 78.499 13.0417 78.4469 13.1875L75.7281 19.8438C75.6865 19.9479 75.65 20.0521 75.6188 20.1562C75.5875 20.25 75.5719 20.3333 75.5719 20.4062C75.5719 20.5312 75.5979 20.6146 75.65 20.6562C75.7125 20.6979 75.7906 20.7188 75.8844 20.7188C76.0302 20.7188 76.2073 20.6458 76.4156 20.5C76.624 20.3542 76.8427 20.1406 77.0719 19.8594L79.9313 16.3281L80.3219 16.6406L76.8688 20.9062C76.6188 21.2188 76.3844 21.4792 76.1656 21.6875C75.9469 21.8958 75.7385 22.0625 75.5406 22.1875C75.3531 22.3021 75.1604 22.3854 74.9625 22.4375C74.775 22.4896 74.5823 22.5156 74.3844 22.5156C74.0719 22.5156 73.8115 22.4271 73.6031 22.25C73.3948 22.0625 73.2906 21.8281 73.2906 21.5469C73.2906 21.2865 73.3531 20.9792 73.4781 20.625C73.6031 20.2708 73.775 19.8385 73.9938 19.3281L76.525 13.3438C76.5563 13.2708 76.5719 13.1927 76.5719 13.1094C76.5719 12.901 76.4729 12.7969 76.275 12.7969C76.1917 12.7969 76.0979 12.8229 75.9938 12.875C75.9 12.9271 75.801 13.0312 75.6969 13.1875L70.5406 20.8438C70.1344 21.4479 69.775 21.8802 69.4625 22.1406C69.1604 22.3906 68.8635 22.5156 68.5719 22.5156C68.0927 22.5156 67.8531 22.2865 67.8531 21.8281C67.8531 21.5885 67.9156 21.2917 68.0406 20.9375C68.1552 20.5833 68.3167 20.1562 68.525 19.6562L71.1188 13.5469ZM90.5531 7.76562H94.975L94.6781 8.40625H90.2875L85.4594 19.8438C85.4177 19.9479 85.376 20.0677 85.3344 20.2031C85.2927 20.3281 85.2719 20.4479 85.2719 20.5625C85.2719 20.6875 85.3083 20.7917 85.3812 20.875C85.4542 20.9479 85.5583 20.9844 85.6937 20.9844C85.9333 20.9844 86.199 20.8698 86.4906 20.6406C86.7823 20.401 87.0427 20.1406 87.2719 19.8594L90.1312 16.3281L90.5219 16.6406L87.225 20.7188C86.7146 21.3438 86.2302 21.8021 85.7719 22.0938C85.3135 22.375 84.8812 22.5156 84.475 22.5156C84.3187 22.5156 84.1625 22.4948 84.0062 22.4531C83.85 22.401 83.7094 22.3333 83.5844 22.25C83.4594 22.1562 83.3604 22.0417 83.2875 21.9062C83.2042 21.7604 83.1625 21.5938 83.1625 21.4062C83.1625 21.1458 83.225 20.8646 83.35 20.5625C83.4646 20.25 83.626 19.8385 83.8344 19.3281L86.7875 12.2812C86.6208 12.5417 86.4281 12.8333 86.2094 13.1562C85.9906 13.4792 85.7302 13.8438 85.4281 14.25C85.126 14.6562 84.7771 15.1146 84.3812 15.625C83.9854 16.125 83.5323 16.6875 83.0219 17.3125L82.6312 17C83.6 15.8125 84.3969 14.7917 85.0219 13.9375C85.6469 13.0729 86.1625 12.3177 86.5687 11.6719C86.9854 11.0156 87.324 10.4323 87.5844 9.92188C87.8552 9.41146 88.1104 8.90625 88.35 8.40625H84.5531L84.85 7.76562H88.6781L89.9125 4.84375H91.7875L90.5531 7.76562Z" fill="#1A2037"/>
</svg>
