<svg width="37" height="37" viewBox="0 0 37 37" fill="none" xmlns="http://www.w3.org/2000/svg">
  <path d="M19.7008 36.0181C19.3406 36.0181 19.1005 35.778 19.1005 35.4178V31.5759C18.0199 30.9756 14.8984 28.8145 14.8984 24.0121C14.8984 21.7309 13.8779 17.7689 12.6172 15.968C11.2365 14.047 12.257 12.9665 12.5572 12.6664C13.6378 11.7659 15.5587 11.826 16.5192 12.7865C17.2396 13.5068 17.9599 14.5874 18.5002 15.7279V10.2051C18.5002 9.84496 18.7403 9.60486 19.1005 9.60486C19.4607 9.60486 19.7008 9.84496 19.7008 10.2051V19.8099C19.7008 20.1701 19.4607 20.4102 19.1005 20.4102C18.7403 20.4102 18.5002 20.1701 18.5002 19.8099C18.5002 18.3092 17.1796 15.1276 15.6788 13.6269C15.1385 13.0866 13.9379 13.0866 13.3376 13.5669C12.7973 13.987 13.1575 14.7074 13.5777 15.2477C15.1385 17.4088 16.0989 21.7909 16.0989 24.0121C16.0989 28.8745 19.7608 30.6154 19.9409 30.6754C20.181 30.7955 20.301 30.9756 20.301 31.2157V35.4178C20.301 35.778 20.0609 36.0181 19.7008 36.0181Z"
        fill="#2A2A2A"/>
  <path d="M34.1077 36.0181C33.7475 36.0181 33.5074 35.778 33.5074 35.4178V31.2757C33.5074 31.1557 33.5074 30.9756 33.6275 30.8556C35.3083 28.5744 35.3083 28.5744 35.3083 24.0121V15.6079C35.3083 14.7674 34.648 13.807 33.8076 13.807C33.0272 13.807 32.3669 14.7074 32.3069 15.4878V18.009C32.3069 18.3692 32.0668 18.6093 31.7066 18.6093C31.3464 18.6093 31.1063 18.3692 31.1063 18.009V15.6079C31.1063 15.5479 31.1063 15.5479 31.1063 15.4878V12.6063C31.1063 11.7659 30.4459 10.8054 29.6056 10.8054C28.7651 10.8054 28.1048 11.7659 28.1048 12.6063V16.8084C28.1048 17.1686 27.8647 17.4087 27.5046 17.4087C27.1444 17.4087 26.9043 17.1686 26.9043 16.8084V10.2051C26.9043 9.36463 26.2439 8.40418 25.4035 8.40418C24.5632 8.40418 23.9028 9.36463 23.9028 10.2051V16.2081C23.9028 16.5683 23.6627 16.8084 23.3025 16.8084C22.9424 16.8084 22.7023 16.5683 22.7023 16.2081V3.00153C22.7023 2.16109 22.0419 1.20063 21.2015 1.20063C20.3612 1.20063 19.7008 2.16109 19.7008 3.00153V5.40271C19.7008 5.7629 19.4607 6.00299 19.1005 6.00299C18.7403 6.00299 18.5002 5.7629 18.5002 5.40271V3.00153C18.4998 1.56081 19.6404 0 21.2012 0C22.762 0 23.9025 1.56081 23.9025 3.00153V7.74389C24.3227 7.38371 24.863 7.20362 25.4033 7.20362C26.904 7.20362 28.1046 8.76443 28.1046 10.1451C28.5248 9.78489 29.0651 9.6048 29.6054 9.6048C31.1662 9.6048 32.3067 11.1656 32.3067 12.6063V13.1466C32.7269 12.7864 33.2672 12.6063 33.8074 12.6063C35.3683 12.6063 36.5088 14.1671 36.5088 15.6079V24.0121C36.5088 28.6945 36.5088 28.9946 34.7079 31.3958V35.4178C34.708 35.778 34.4679 36.0181 34.1077 36.0181Z"
        fill="#2A2A2A"/>
  <path d="M19.7008 7.80389C19.7008 7.44371 19.4607 7.20361 19.1005 7.20361C18.7403 7.20361 18.5002 7.44371 18.5002 7.80389C18.5002 8.16407 18.7403 8.40417 19.1005 8.40417C19.4606 8.40424 19.7008 8.16407 19.7008 7.80389Z"
        fill="#2A2A2A"/>
  <path d="M7.09405 4.80249C6.73387 4.80249 6.49377 4.56239 6.49377 4.20221V0.6004C6.49377 0.240219 6.73387 0.00012207 7.09405 0.00012207C7.45423 0.00012207 7.69433 0.240219 7.69433 0.6004V4.20221C7.69433 4.56232 7.45423 4.80249 7.09405 4.80249Z"
        fill="#2A2A2A"/>
  <path d="M7.09405 13.2067C6.73387 13.2067 6.49377 12.9666 6.49377 12.6064V9.00458C6.49377 8.64439 6.73387 8.4043 7.09405 8.4043C7.45423 8.4043 7.69433 8.64439 7.69433 9.00458V12.6064C7.69433 12.9666 7.45423 13.2067 7.09405 13.2067Z"
        fill="#2A2A2A"/>
  <path d="M8.89489 3.00164C8.7148 3.00164 8.59471 2.94163 8.4747 2.82155L7.09398 1.44083L5.71327 2.82155C5.47317 3.06164 5.11299 3.06164 4.87282 2.82155C4.63272 2.58145 4.63272 2.22127 4.87282 1.9811L6.67373 0.180195C6.91382 -0.0599022 7.274 -0.0599022 7.51417 0.180195L9.31508 1.9811C9.55517 2.2212 9.55517 2.58138 9.31508 2.82155C9.19499 2.94156 9.07498 3.00164 8.89489 3.00164Z"
        fill="#2A2A2A"/>
  <path d="M7.09587 13.2066C6.91578 13.2066 6.79569 13.1466 6.67568 13.0265L4.87477 11.2256C4.63468 10.9855 4.63468 10.6253 4.87477 10.3852C5.11487 10.145 5.47505 10.1451 5.71522 10.3852L7.09594 11.7659L8.47665 10.3852C8.71675 10.1451 9.07693 10.1451 9.3171 10.3852C9.55727 10.6253 9.5572 10.9855 9.3171 11.2256L7.51619 13.0265C7.39597 13.1466 7.27596 13.2066 7.09587 13.2066Z"
        fill="#2A2A2A"/>
  <path d="M4.69257 7.20373H1.09076C0.730576 7.20373 0.490479 6.96363 0.490479 6.60345C0.490479 6.24327 0.730576 6.00317 1.09076 6.00317H4.69257C5.05275 6.00317 5.29284 6.24327 5.29284 6.60345C5.29284 6.96363 5.05275 7.20373 4.69257 7.20373Z"
        fill="#2A2A2A"/>
  <path d="M13.0971 7.20373H9.4953C9.13512 7.20373 8.89502 6.96363 8.89502 6.60345C8.89502 6.24327 9.13512 6.00317 9.4953 6.00317H13.0971C13.4573 6.00317 13.6974 6.24327 13.6974 6.60345C13.6974 6.96363 13.4573 7.20373 13.0971 7.20373Z"
        fill="#2A2A2A"/>
  <path d="M2.89164 9.00457C2.71155 9.00457 2.59147 8.94456 2.47146 8.82448L0.670551 7.02357C0.430454 6.78347 0.430454 6.42329 0.670551 6.18313L2.47146 4.38222C2.71155 4.14212 3.07173 4.14212 3.3119 4.38222C3.55207 4.62232 3.552 4.9825 3.3119 5.22267L1.93118 6.60338L3.3119 7.9841C3.552 8.2242 3.552 8.58438 3.3119 8.82455C3.19182 8.94456 3.07173 9.00457 2.89164 9.00457Z"
        fill="#2A2A2A"/>
  <path d="M11.2963 9.00457C11.1162 9.00457 10.9961 8.94456 10.8761 8.82448C10.636 8.58438 10.636 8.2242 10.8761 7.98403L12.2568 6.60331L10.8761 5.22267C10.636 4.98257 10.636 4.62239 10.8761 4.38222C11.1162 4.14212 11.4764 4.14212 11.7166 4.38222L13.5175 6.18313C13.7576 6.42322 13.7576 6.7834 13.5175 7.02357L11.7166 8.82448C11.5965 8.94456 11.4764 9.00457 11.2963 9.00457Z"
        fill="#2A2A2A"/>
  <path d="M27.5031 30.6155H25.7022C25.342 30.6155 25.1019 30.3754 25.1019 30.0152C25.1019 29.655 25.342 29.4149 25.7022 29.4149H27.5031C27.8633 29.4149 28.1034 29.655 28.1034 30.0152C28.1034 30.3754 27.8633 30.6155 27.5031 30.6155Z"
        fill="#2A2A2A"/>
  <path d="M28.1034 33.0166H25.1019C24.7417 33.0166 24.5016 32.7765 24.5016 32.4163C24.5016 32.0561 24.7417 31.816 25.1019 31.816H28.1034C28.4636 31.816 28.7037 32.0561 28.7037 32.4163C28.7037 32.7765 28.4636 33.0166 28.1034 33.0166Z"
        fill="#2A2A2A"/>
</svg>
