<svg width="37" height="37" viewBox="0 0 37 37" fill="none" xmlns="http://www.w3.org/2000/svg">
<g clip-path="url(#clip0_713_2105)">
<path d="M29.365 3.06531H1.39347C1.07599 3.06531 0.818726 3.32264 0.818726 3.64005V12.0698C0.818726 12.3872 1.07599 12.6446 1.39347 12.6446H3.69251C4.00999 12.6446 4.26725 12.3872 4.26725 12.0698V10.3455H10.9727V17.1086C10.9727 17.426 11.23 17.6833 11.5475 17.6833C11.865 17.6833 12.1222 17.426 12.1222 17.1086V9.77079C12.1222 9.45338 11.865 9.19605 11.5475 9.19605H3.69251C3.37503 9.19605 3.11776 9.45338 3.11776 9.77079V11.4951H1.96821V4.21486H28.7902V11.4951H27.6407V9.77079C27.6407 9.45338 27.3835 9.19605 27.066 9.19605H19.211C18.8935 9.19605 18.6362 9.45338 18.6362 9.77079V30.0789C18.6362 30.3963 18.8935 30.6536 19.211 30.6536H23.2342V31.8031H7.52421V30.6536H11.5475C11.865 30.6536 12.1222 30.3963 12.1222 30.0789V21.9026C12.1222 21.5852 11.865 21.3278 11.5475 21.3278C11.23 21.3278 10.9727 21.5852 10.9727 21.9026V29.5041H6.94947C6.63199 29.5041 6.37473 29.7615 6.37473 30.0789V32.3779C6.37473 32.6953 6.63199 32.9527 6.94947 32.9527H23.809C24.1265 32.9527 24.3838 32.6953 24.3838 32.3779V30.0789C24.3838 29.7615 24.1265 29.5041 23.809 29.5041H19.7857V10.3456H26.4912V12.0699C26.4912 12.3873 26.7484 12.6446 27.0659 12.6446H29.365C29.6824 12.6446 29.9397 12.3873 29.9397 12.0699V3.64012C29.9397 3.32271 29.6824 3.06531 29.365 3.06531Z" fill="#2A2A2A"/>
<path d="M12.1172 19.5097C12.1172 19.1495 11.8771 18.9094 11.5169 18.9094C11.1567 18.9094 10.9166 19.1495 10.9166 19.5097C10.9166 19.8699 11.1567 20.11 11.5169 20.11C11.877 20.1101 12.1172 19.8699 12.1172 19.5097Z" fill="#2A2A2A"/>
<path d="M36.2617 31.8032H34.5374V4.21491H36.2617C36.5792 4.21491 36.8364 3.95758 36.8364 3.64017C36.8364 3.32276 36.5792 3.06543 36.2617 3.06543H31.6636C31.3461 3.06543 31.0889 3.32276 31.0889 3.64017C31.0889 3.95758 31.3461 4.21491 31.6636 4.21491H33.3879V31.8032H31.6636C31.3461 31.8032 31.0889 32.0606 31.0889 32.378C31.0889 32.6954 31.3461 32.9527 31.6636 32.9527H36.2617C36.5792 32.9527 36.8364 32.6954 36.8364 32.378C36.8364 32.0606 36.5792 31.8032 36.2617 31.8032Z" fill="#2A2A2A"/>
</g>
<defs>
<clipPath id="clip0_713_2105">
<rect width="36.0181" height="36.0181" fill="white" transform="translate(0.818604)"/>
</clipPath>
</defs>
</svg>
