<svg width="24" height="25" viewBox="0 0 24 25" fill="none" xmlns="http://www.w3.org/2000/svg">
<path d="M22 8.46484C22 6.2557 20.2091 4.46484 18 4.46484H6C3.79086 4.46484 2 6.2557 2 8.46484V16.4648C2 18.674 3.79086 20.4648 6 20.4648H18C20.2091 20.4648 22 18.674 22 16.4648V8.46484ZM20 7.99484C20 8.28722 19.8494 8.55898 19.6014 8.71394L14.12 12.1398C12.8229 12.9505 11.1771 12.9505 9.88 12.1398L4.39856 8.71394C4.15062 8.55898 4 8.28722 4 7.99484C4 7.32879 4.73263 6.92274 5.29744 7.27574L9.94175 10.1784C11.2011 10.9655 12.7989 10.9655 14.0583 10.1784L18.7026 7.27574C19.2674 6.92274 20 7.32879 20 7.99484Z" fill="#1A2037"/>
</svg>
