<svg width="37" height="37" viewBox="0 0 37 37" fill="none" xmlns="http://www.w3.org/2000/svg">
  <path d="M2.23072 13.3061C2.23072 12.9459 2.47081 12.7058 2.831 12.7058C3.19118 12.7058 3.43127 12.9459 3.43127 13.3061C3.43127 13.6663 3.19118 13.9064 2.831 13.9064C2.47088 13.9064 2.23072 13.6663 2.23072 13.3061Z"
        fill="#2A2A2A"/>
  <path d="M5.11658 4.60931C5.11658 4.24913 5.35668 4.00903 5.71686 4.00903C6.07704 4.00903 6.31714 4.24913 6.31714 4.60931C6.31714 4.96949 6.07704 5.20959 5.71686 5.20959C5.35675 5.20966 5.11658 4.96949 5.11658 4.60931Z"
        fill="#2A2A2A"/>
  <path d="M8.11658 4.60931C8.11658 4.24913 8.35668 4.00903 8.71686 4.00903C9.07704 4.00903 9.31714 4.24913 9.31714 4.60931C9.31714 4.96949 9.07704 5.20959 8.71686 5.20959C8.35675 5.20966 8.11658 4.96949 8.11658 4.60931Z"
        fill="#2A2A2A"/>
  <path d="M11.1166 4.60931C11.1166 4.24913 11.3567 4.00903 11.7169 4.00903C12.077 4.00903 12.3171 4.24913 12.3171 4.60931C12.3171 4.96949 12.077 5.20959 11.7169 5.20959C11.3567 5.20966 11.1166 4.96949 11.1166 4.60931Z"
        fill="#2A2A2A"/>
  <path d="M14.5237 17.1086L10.9219 19.81L14.5237 22.5114" stroke="#2A2A2A" stroke-width="1.12557"/>
  <path d="M20.8274 17.1086L24.4292 19.81L20.8274 22.5114" stroke="#2A2A2A" stroke-width="1.12557"/>
  <path d="M19.0262 14.4072L16.3248 25.2127" stroke="#2A2A2A" stroke-width="1.12557"/>
  <path d="M2.81669 15.7579V33.3167H32.5316V7.65384M2.81669 10.6926V7.65384M2.81669 7.65384V1.8009H32.5316V7.65384M2.81669 7.65384H32.5316"
        stroke="#2A2A2A" stroke-width="1.12557" stroke-linecap="round" stroke-linejoin="round"/>
</svg>
