<svg width="88" height="88" viewBox="0 0 88 88" fill="none" xmlns="http://www.w3.org/2000/svg">
<rect x="0.5" y="0.5" width="87" height="87" rx="5.5" fill="white"/>
<rect x="18.5" y="24.5" width="51" height="39" rx="3.5" fill="#F0F0F0" stroke="#1A2037"/>
<rect x="27.6648" y="49.1598" width="33.0341" height="4" rx="2" fill="#1A2037"/>
<rect x="23.8124" y="43.1598" width="40.375" height="2" rx="1" fill="#1A2037"/>
<rect x="23.8124" y="39.1598" width="40.375" height="2" rx="1" fill="#1A2037"/>
<path d="M23.9467 28.4584C23.9467 28.8527 23.6259 29.1744 23.2279 29.1744C22.8299 29.1744 22.5092 28.8527 22.5092 28.4584C22.5092 28.0641 22.8299 27.7424 23.2279 27.7424C23.6259 27.7424 23.9467 28.0641 23.9467 28.4584Z" fill="white" stroke="#1A2037"/>
<path d="M28.0099 28.4584C28.0099 28.8527 27.6892 29.1744 27.2911 29.1744C26.8931 29.1744 26.5724 28.8527 26.5724 28.4584C26.5724 28.0641 26.8931 27.7424 27.2911 27.7424C27.6892 27.7424 28.0099 28.0641 28.0099 28.4584Z" fill="white" stroke="#1A2037"/>
<path d="M32.0719 28.4584C32.0719 28.8527 31.7512 29.1744 31.3531 29.1744C30.9551 29.1744 30.6344 28.8527 30.6344 28.4584C30.6344 28.0641 30.9551 27.7424 31.3531 27.7424C31.7512 27.7424 32.0719 28.0641 32.0719 28.4584Z" fill="white" stroke="#1A2037"/>
<rect x="0.5" y="0.5" width="87" height="87" rx="5.5" stroke="#1A2037"/>
</svg>
