<svg width="20" height="20" viewBox="0 0 20 20" fill="none" xmlns="http://www.w3.org/2000/svg">
<path d="M19.2 10C19.2 15.081 15.081 19.2 10 19.2C4.91898 19.2 0.8 15.081 0.8 10C0.8 4.91898 4.91898 0.8 10 0.8C15.081 0.8 19.2 4.91898 19.2 10Z" stroke="#838383" stroke-width="1.6"/>
<path d="M14.1101 12.1151C13.732 12.8735 13.1474 13.5098 12.4236 13.9507C11.6998 14.3915 10.8663 14.6191 10.0189 14.607C9.17147 14.595 8.34469 14.3439 7.6337 13.8827C6.92271 13.4215 6.35642 12.7689 6 12" stroke="#838383" stroke-width="1.6" stroke-linecap="round"/>
<path d="M8 7C8 7.55228 7.55228 8 7 8C6.44772 8 6 7.55228 6 7C6 6.44772 6.44772 6 7 6C7.55228 6 8 6.44772 8 7Z" fill="#838383"/>
<path d="M14 7C14 7.55228 13.5523 8 13 8C12.4477 8 12 7.55228 12 7C12 6.44772 12.4477 6 13 6C13.5523 6 14 6.44772 14 7Z" fill="#838383"/>
</svg>
