<svg width="199" height="239" viewBox="0 0 199 239" fill="none" xmlns="http://www.w3.org/2000/svg">
<path d="M99.5 216C154.452 216 199 171.452 199 116.5C199 61.5477 154.452 17 99.5 17C44.5477 17 0 61.5477 0 116.5C0 171.452 44.5477 216 99.5 216Z" fill="url(#paint0_linear_138_18299)"/>
<g filter="url(#filter0_d_138_18299)">
<path d="M157 72H42C38.6863 72 36 74.6863 36 78V219C36 222.314 38.6863 225 42 225H157C160.314 225 163 222.314 163 219V78C163 74.6863 160.314 72 157 72Z" fill="white"/>
</g>
<g filter="url(#filter1_d_138_18299)">
<path d="M157 6H42C38.6863 6 36 8.68629 36 12V53C36 56.3137 38.6863 59 42 59H157C160.314 59 163 56.3137 163 53V12C163 8.68629 160.314 6 157 6Z" fill="#2F354D"/>
</g>
<path d="M86.5 21H51.5C49.567 21 48 22.567 48 24.5C48 26.433 49.567 28 51.5 28H86.5C88.433 28 90 26.433 90 24.5C90 22.567 88.433 21 86.5 21Z" fill="#5F6373"/>
<path d="M86.5 91H51.5C49.567 91 48 92.567 48 94.5C48 96.433 49.567 98 51.5 98H86.5C88.433 98 90 96.433 90 94.5C90 92.567 88.433 91 86.5 91Z" fill="#DCDFEA"/>
<path d="M86.5 127H51.5C49.567 127 48 128.567 48 130.5C48 132.433 49.567 134 51.5 134H86.5C88.433 134 90 132.433 90 130.5C90 128.567 88.433 127 86.5 127Z" fill="#DCDFEA"/>
<path d="M86.5 163H51.5C49.567 163 48 164.567 48 166.5C48 168.433 49.567 170 51.5 170H86.5C88.433 170 90 168.433 90 166.5C90 164.567 88.433 163 86.5 163Z" fill="#DCDFEA"/>
<path d="M110.5 38H51.5C49.567 38 48 39.567 48 41.5C48 43.433 49.567 45 51.5 45H110.5C112.433 45 114 43.433 114 41.5C114 39.567 112.433 38 110.5 38Z" fill="white" fill-opacity="0.7"/>
<path d="M110.5 108H51.5C49.567 108 48 109.567 48 111.5C48 113.433 49.567 115 51.5 115H110.5C112.433 115 114 113.433 114 111.5C114 109.567 112.433 108 110.5 108Z" fill="#F4F4F4"/>
<path d="M110.5 144H51.5C49.567 144 48 145.567 48 147.5C48 149.433 49.567 151 51.5 151H110.5C112.433 151 114 149.433 114 147.5C114 145.567 112.433 144 110.5 144Z" fill="#F4F4F4"/>
<path d="M110.5 180H51.5C49.567 180 48 181.567 48 183.5C48 185.433 49.567 187 51.5 187H110.5C112.433 187 114 185.433 114 183.5C114 181.567 112.433 180 110.5 180Z" fill="#F4F4F4"/>
<defs>
<filter id="filter0_d_138_18299" x="26" y="66" width="147" height="173" filterUnits="userSpaceOnUse" color-interpolation-filters="sRGB">
<feFlood flood-opacity="0" result="BackgroundImageFix"/>
<feColorMatrix in="SourceAlpha" type="matrix" values="0 0 0 0 0 0 0 0 0 0 0 0 0 0 0 0 0 0 127 0" result="hardAlpha"/>
<feOffset dy="4"/>
<feGaussianBlur stdDeviation="5"/>
<feComposite in2="hardAlpha" operator="out"/>
<feColorMatrix type="matrix" values="0 0 0 0 0 0 0 0 0 0 0 0 0 0 0 0 0 0 0.06 0"/>
<feBlend mode="normal" in2="BackgroundImageFix" result="effect1_dropShadow_138_18299"/>
<feBlend mode="normal" in="SourceGraphic" in2="effect1_dropShadow_138_18299" result="shape"/>
</filter>
<filter id="filter1_d_138_18299" x="26" y="0" width="147" height="73" filterUnits="userSpaceOnUse" color-interpolation-filters="sRGB">
<feFlood flood-opacity="0" result="BackgroundImageFix"/>
<feColorMatrix in="SourceAlpha" type="matrix" values="0 0 0 0 0 0 0 0 0 0 0 0 0 0 0 0 0 0 127 0" result="hardAlpha"/>
<feOffset dy="4"/>
<feGaussianBlur stdDeviation="5"/>
<feComposite in2="hardAlpha" operator="out"/>
<feColorMatrix type="matrix" values="0 0 0 0 0 0 0 0 0 0 0 0 0 0 0 0 0 0 0.06 0"/>
<feBlend mode="normal" in2="BackgroundImageFix" result="effect1_dropShadow_138_18299"/>
<feBlend mode="normal" in="SourceGraphic" in2="effect1_dropShadow_138_18299" result="shape"/>
</filter>
<linearGradient id="paint0_linear_138_18299" x1="99.5" y1="17" x2="99.5" y2="216" gradientUnits="userSpaceOnUse">
<stop stop-color="#E8E9EA"/>
<stop offset="1" stop-color="#F0F2F7" stop-opacity="0"/>
</linearGradient>
</defs>
</svg>
