<svg width="122" height="100" viewBox="0 0 122 100" fill="none" xmlns="http://www.w3.org/2000/svg">
<path d="M60.6033 99.4921C85.237 99.4921 105.207 95.7607 105.207 91.1579C105.207 86.555 85.237 82.8237 60.6033 82.8237C35.9696 82.8237 16 86.555 16 91.1579C16 95.7607 35.9696 99.4921 60.6033 99.4921Z" fill="#F5F5F7" fill-opacity="0.8"/>
<path fill-rule="evenodd" clip-rule="evenodd" d="M96.2854 66.6737L80.5452 47.3019C79.79 46.3901 78.686 45.8381 77.5235 45.8381H43.6814C42.5196 45.8381 41.4156 46.3901 40.6604 47.3019L24.9209 66.6737V76.7941H96.286V66.6737H96.2854Z" fill="#AEB8C2"/>
<path fill-rule="evenodd" clip-rule="evenodd" d="M38.2566 20.8355H82.9493C83.6473 20.8355 84.3166 21.1128 84.8102 21.6063C85.3037 22.0998 85.5809 22.7692 85.5809 23.4671V84.8776C85.5809 85.5755 85.3037 86.2449 84.8102 86.7384C84.3166 87.2319 83.6473 87.5092 82.9493 87.5092H38.2566C37.5586 87.5092 36.8893 87.2319 36.3958 86.7384C35.9023 86.2449 35.625 85.5755 35.625 84.8776V23.4671C35.625 22.7692 35.9023 22.0998 36.3958 21.6063C36.8893 21.1128 37.5586 20.8355 38.2566 20.8355V20.8355Z" fill="#F5F5F7"/>
<path fill-rule="evenodd" clip-rule="evenodd" d="M44.0772 27.3835H77.1278C77.4768 27.3835 77.8115 27.5222 78.0582 27.7689C78.305 28.0157 78.4436 28.3504 78.4436 28.6993V45.1184C78.4436 45.4674 78.305 45.8021 78.0582 46.0488C77.8115 46.2956 77.4768 46.4342 77.1278 46.4342H44.0772C43.7282 46.4342 43.3935 46.2956 43.1468 46.0488C42.9 45.8021 42.7614 45.4674 42.7614 45.1184V28.6993C42.7614 28.3504 42.9 28.0157 43.1468 27.7689C43.3935 27.5222 43.7282 27.3835 44.0772 27.3835ZM44.2495 53.577H76.9555C77.3501 53.577 77.7287 53.7338 78.0077 54.0128C78.2868 54.2919 78.4436 54.6704 78.4436 55.0651C78.4436 55.4598 78.2868 55.8383 78.0077 56.1174C77.7287 56.3965 77.3501 56.5533 76.9555 56.5533H44.2495C43.8548 56.5533 43.4763 56.3965 43.1972 56.1174C42.9182 55.8383 42.7614 55.4598 42.7614 55.0651C42.7614 54.6704 42.9182 54.2919 43.1972 54.0128C43.4763 53.7338 43.8548 53.577 44.2495 53.577ZM44.2495 61.3158H76.9555C77.3502 61.3158 77.7288 61.4726 78.008 61.7518C78.2871 62.0309 78.4439 62.4095 78.4439 62.8043C78.4439 63.199 78.2871 63.5776 78.008 63.8568C77.7288 64.1359 77.3502 64.2928 76.9555 64.2928H44.2495C43.8548 64.2928 43.4762 64.1359 43.197 63.8568C42.9179 63.5776 42.761 63.199 42.761 62.8043C42.761 62.4095 42.9179 62.0309 43.197 61.7518C43.4762 61.4726 43.8548 61.3158 44.2495 61.3158ZM96.1397 89.9355C95.6298 91.9559 93.839 93.4618 91.7087 93.4618H29.4962C27.366 93.4618 25.5752 91.9553 25.066 89.9355C24.9689 89.5505 24.9198 89.1549 24.9199 88.7579V66.6743H42.2344C44.1469 66.6743 45.6883 68.2849 45.6883 70.2401V70.2664C45.6883 72.221 47.2476 73.7993 49.1601 73.7993H72.0449C73.9574 73.7993 75.5166 72.2066 75.5166 70.2513V70.2434C75.5166 68.2881 77.0581 66.6737 78.9706 66.6737H96.2851V88.7585C96.2851 89.1645 96.2344 89.5585 96.1397 89.9355Z" fill="#DCE0E6"/>
<path fill-rule="evenodd" clip-rule="evenodd" d="M98.3162 21.9026L93.8227 23.6461C93.7073 23.6909 93.5815 23.7023 93.4599 23.6789C93.3383 23.6555 93.2258 23.5982 93.1352 23.5137C93.0447 23.4292 92.9799 23.3208 92.9483 23.2011C92.9166 23.0813 92.9194 22.9551 92.9563 22.8368L94.2306 18.7533C92.5273 16.8164 91.5273 14.4546 91.5273 11.9059C91.5273 5.33026 98.1839 0 106.396 0C114.606 0 121.263 5.33026 121.263 11.9059C121.263 18.4816 114.606 23.8118 106.395 23.8118C103.416 23.8118 100.642 23.1105 98.3162 21.9026Z" fill="#DCE0E6"/>
<path d="M112.252 14.0559C113.287 14.0559 114.127 13.2268 114.127 12.204C114.127 11.1811 113.287 10.352 112.252 10.352C111.217 10.352 110.378 11.1811 110.378 12.204C110.378 13.2268 111.217 14.0559 112.252 14.0559Z" fill="white"/>
<path fill-rule="evenodd" clip-rule="evenodd" d="M102.413 13.8243H98.6641L100.571 10.5836L102.413 13.8243ZM104.756 10.5836H108.035V13.8243H104.756V10.5836Z" fill="white"/>
</svg>
