<svg width="164" height="23" viewBox="0 0 164 23" fill="none" xmlns="http://www.w3.org/2000/svg">
    <path d="M0.587871 22C0.481204 22 0.395871 21.968 0.331871 21.904C0.289204 21.84 0.278538 21.7547 0.299871 21.648L4.71587 0.815998C4.75854 0.581332 4.90787 0.463999 5.16387 0.463999H15.6599C15.8732 0.463999 15.9905 0.485332 16.0119 0.528C16.0545 0.549333 16.0545 0.666666 16.0119 0.879999L15.5959 2.832C15.5532 3.06667 15.4999 3.20533 15.4359 3.248C15.3719 3.29067 15.2439 3.312 15.0519 3.312H8.10787C7.97987 3.312 7.9052 3.32267 7.88387 3.344C7.86254 3.36533 7.83054 3.42933 7.78787 3.536L6.53987 9.488C6.51854 9.59467 6.51854 9.66933 6.53987 9.712C6.5612 9.73333 6.61454 9.744 6.69987 9.744H12.2359C12.4705 9.744 12.5985 9.776 12.6199 9.84C12.6625 9.88267 12.6519 10.032 12.5879 10.288L12.2359 12.048C12.1932 12.2827 12.1399 12.432 12.0759 12.496C12.0119 12.5387 11.8732 12.56 11.6599 12.56H6.12387C6.0172 12.56 5.94254 12.5707 5.89987 12.592C5.8572 12.6133 5.8252 12.6773 5.80387 12.784L4.55587 18.896C4.53454 19.0027 4.52387 19.0773 4.52387 19.12C4.5452 19.1627 4.6092 19.184 4.71587 19.184H11.6279C11.8839 19.184 12.0225 19.216 12.0439 19.28C12.0865 19.3227 12.0865 19.4613 12.0439 19.696L11.6599 21.488C11.5959 21.7227 11.5212 21.872 11.4359 21.936C11.3719 21.9787 11.2332 22 11.0199 22H0.587871ZM31.6319 14.352C31.6745 14.4373 31.7492 14.48 31.8559 14.48C31.9625 14.48 32.0265 14.416 32.0479 14.288C32.2185 13.6053 32.3999 12.848 32.5919 12.016C32.7839 11.1627 32.9759 10.2667 33.1679 9.328C33.3599 8.38933 33.5412 7.42933 33.7119 6.448C33.8825 5.46667 34.0319 4.50667 34.1599 3.568C34.3092 2.608 34.4159 1.70133 34.4799 0.848C34.5225 0.591999 34.6185 0.463999 34.7679 0.463999H37.6799C37.8079 0.463999 37.9145 0.495999 37.9999 0.559999C38.0852 0.623999 38.1279 0.709332 38.1279 0.815998C38.1065 1.60533 38.0105 2.56533 37.8399 3.696C37.6905 4.80533 37.4879 6.02133 37.2319 7.344C36.9759 8.66667 36.6985 10.0213 36.3999 11.408C36.1012 12.7733 35.7919 14.1067 35.4719 15.408C35.1519 16.7093 34.8425 17.904 34.5439 18.992C34.2452 20.0587 33.9679 20.944 33.7119 21.648C33.6479 21.8187 33.5625 21.9253 33.4559 21.968C33.3492 21.9893 33.2319 22 33.1039 22H31.2159C31.0665 22 30.9492 21.8507 30.8639 21.552L24.7839 7.984C24.7625 7.89867 24.7092 7.856 24.6239 7.856C24.5599 7.856 24.5172 7.90933 24.4959 8.016C24.2399 9.104 23.9945 10.1813 23.7599 11.248C23.5465 12.2933 23.3332 13.3173 23.1199 14.32C22.9279 15.3013 22.7465 16.24 22.5759 17.136C22.4052 18.032 22.2665 18.864 22.1599 19.632C22.0532 20.3787 21.9785 21.0507 21.9359 21.648C21.9145 21.8827 21.8185 22 21.6479 22H18.7679C18.6612 22 18.5545 21.9893 18.4479 21.968C18.3412 21.9253 18.2985 21.8187 18.3199 21.648C18.3839 20.9227 18.4905 20.016 18.6399 18.928C18.8105 17.84 19.0132 16.6453 19.2479 15.344C19.5039 14.0427 19.7705 12.7093 20.0479 11.344C20.3252 9.95733 20.6132 8.61333 20.9119 7.312C21.2319 5.98933 21.5519 4.77333 21.8719 3.664C22.1919 2.53333 22.5119 1.584 22.8319 0.815998C22.8745 0.709332 22.9492 0.623999 23.0559 0.559999C23.1839 0.495999 23.3012 0.463999 23.4079 0.463999H25.2319C25.3812 0.463999 25.4879 0.549332 25.5519 0.719999L31.6319 14.352ZM41.9879 22C41.8812 22 41.7959 21.968 41.7319 21.904C41.6892 21.84 41.6785 21.7547 41.6999 21.648L46.1159 0.815998C46.1585 0.581332 46.3079 0.463999 46.5639 0.463999H57.0599C57.2732 0.463999 57.3905 0.485332 57.4119 0.528C57.4545 0.549333 57.4545 0.666666 57.4119 0.879999L56.9959 2.832C56.9532 3.06667 56.8999 3.20533 56.8359 3.248C56.7719 3.29067 56.6439 3.312 56.4519 3.312H49.5079C49.3799 3.312 49.3052 3.32267 49.2839 3.344C49.2625 3.36533 49.2305 3.42933 49.1879 3.536L47.9399 9.488C47.9185 9.59467 47.9185 9.66933 47.9399 9.712C47.9612 9.73333 48.0145 9.744 48.0999 9.744H53.6359C53.8705 9.744 53.9985 9.776 54.0199 9.84C54.0625 9.88267 54.0519 10.032 53.9879 10.288L53.6359 12.048C53.5932 12.2827 53.5399 12.432 53.4759 12.496C53.4119 12.5387 53.2732 12.56 53.0599 12.56H47.5239C47.4172 12.56 47.3425 12.5707 47.2999 12.592C47.2572 12.6133 47.2252 12.6773 47.2039 12.784L45.9559 18.896C45.9345 19.0027 45.9239 19.0773 45.9239 19.12C45.9452 19.1627 46.0092 19.184 46.1159 19.184H53.0279C53.2839 19.184 53.4225 19.216 53.4439 19.28C53.4865 19.3227 53.4865 19.4613 53.4439 19.696L53.0599 21.488C52.9959 21.7227 52.9212 21.872 52.8359 21.936C52.7719 21.9787 52.6332 22 52.4199 22H41.9879ZM59.6879 22C59.5812 22 59.4959 21.968 59.4319 21.904C59.3892 21.84 59.3785 21.7547 59.3999 21.648L63.8159 0.815998C63.8585 0.581332 64.0079 0.463999 64.2639 0.463999H69.4159C71.0799 0.463999 72.3812 0.677332 73.3199 1.104C74.2585 1.50933 74.8665 2.192 75.1439 3.152C75.4212 4.09067 75.3785 5.36 75.0159 6.96C74.7812 8.19733 74.3225 9.328 73.6399 10.352C72.9572 11.3547 72.0825 12.1547 71.0159 12.752C70.6745 12.9867 70.4185 13.2107 70.2479 13.424C70.0772 13.6373 70.0665 13.904 70.2159 14.224C70.2799 14.6933 70.3759 15.1627 70.5039 15.632C70.6532 16.1013 70.8345 16.5387 71.0479 16.944C71.2825 17.328 71.5492 17.648 71.8479 17.904C72.1679 18.16 72.5305 18.3627 72.9359 18.512C73.3412 18.6613 73.8319 18.736 74.4079 18.736C74.5785 18.736 74.6745 18.7573 74.6959 18.8C74.7385 18.8427 74.7492 18.96 74.7279 19.152L74.1839 21.68C74.1625 21.7653 74.1305 21.8293 74.0879 21.872C74.0452 21.9147 73.9279 21.9467 73.7359 21.968C73.5652 21.9893 73.2772 22 72.8719 22C71.9972 22 71.2292 21.872 70.5679 21.616C69.9065 21.36 69.3305 21.008 68.8399 20.56C68.3705 20.1333 67.9652 19.6213 67.6239 19.024C67.3039 18.4053 67.0372 17.7333 66.8239 17.008C66.6319 16.2827 66.5039 15.5467 66.4399 14.8C66.4185 14.736 66.3865 14.6187 66.3439 14.448C66.3225 14.2773 66.2372 14.192 66.0879 14.192H64.8399C64.7759 14.192 64.7119 14.224 64.6479 14.288C64.6052 14.352 64.5732 14.4693 64.5519 14.64L63.0479 21.648C63.0052 21.8827 62.8452 22 62.5679 22H59.6879ZM65.2879 11.024C65.2665 11.1947 65.3412 11.28 65.5119 11.28H67.1759C68.2425 11.28 69.1492 10.9173 69.8959 10.192C70.6425 9.44533 71.1652 8.37867 71.4639 6.992C71.6985 5.88267 71.7412 5.05067 71.5919 4.496C71.4425 3.94133 71.1225 3.55733 70.6319 3.344C70.1625 3.13067 69.5332 3.024 68.7439 3.024H67.2399C67.1545 3.024 67.0905 3.04533 67.0479 3.088C67.0052 3.10933 66.9732 3.184 66.9519 3.312L65.2879 11.024ZM94.2484 21.072C94.1844 21.3493 93.9497 21.5733 93.5444 21.744C93.1604 21.9147 92.6697 22.032 92.0724 22.096C91.4964 22.16 90.867 22.192 90.1844 22.192C86.387 22.192 83.7097 21.296 82.1524 19.504C80.595 17.712 80.179 15.0773 80.9044 11.6C81.4164 9.25333 82.2804 7.23733 83.4964 5.552C84.7337 3.86667 86.2164 2.576 87.9444 1.68C89.6937 0.762665 91.5497 0.303999 93.5124 0.303999C94.3017 0.303999 95.091 0.335999 95.8804 0.4C96.6697 0.442666 97.2777 0.549332 97.7044 0.719999C97.939 0.805333 98.099 0.879999 98.1844 0.943998C98.291 1.008 98.323 1.15733 98.2804 1.392L97.8644 3.344C97.8004 3.70667 97.683 3.93067 97.5124 4.016C97.3417 4.08 97.171 4.05867 97.0004 3.952C96.531 3.65333 96.0297 3.44 95.4964 3.312C94.963 3.184 94.3444 3.12 93.6404 3.12C93.0004 3.12 92.243 3.248 91.3684 3.504C90.515 3.73867 89.651 4.15467 88.7764 4.752C87.9017 5.34933 87.1017 6.192 86.3764 7.28C85.6724 8.34667 85.1497 9.712 84.8084 11.376C84.5097 12.7627 84.4137 13.9253 84.5204 14.864C84.627 15.8027 84.8617 16.5707 85.2244 17.168C85.6084 17.7653 86.067 18.224 86.6004 18.544C87.155 18.864 87.7204 19.088 88.2964 19.216C88.8724 19.3227 89.4057 19.376 89.8964 19.376C90.5364 19.376 90.9204 19.2373 91.0484 18.96L92.3604 12.784C92.403 12.656 92.403 12.5813 92.3604 12.56C92.339 12.5173 92.275 12.496 92.1684 12.496H88.2004C88.0297 12.496 87.923 12.4747 87.8804 12.432C87.8377 12.3893 87.827 12.2827 87.8484 12.112L88.2964 10.128C88.3177 9.936 88.3604 9.81867 88.4244 9.776C88.4884 9.712 88.6164 9.68 88.8084 9.68H96.0724C96.371 9.68 96.531 9.712 96.5524 9.776C96.595 9.84 96.5844 10.0107 96.5204 10.288L94.2484 21.072ZM101.65 22C101.544 22 101.458 21.968 101.394 21.904C101.352 21.84 101.341 21.7547 101.362 21.648L105.778 0.815998C105.821 0.581332 105.97 0.463999 106.226 0.463999H116.722C116.936 0.463999 117.053 0.485332 117.074 0.528C117.117 0.549333 117.117 0.666666 117.074 0.879999L116.658 2.832C116.616 3.06667 116.562 3.20533 116.498 3.248C116.434 3.29067 116.306 3.312 116.114 3.312H109.17C109.042 3.312 108.968 3.32267 108.946 3.344C108.925 3.36533 108.893 3.42933 108.85 3.536L107.602 9.488C107.581 9.59467 107.581 9.66933 107.602 9.712C107.624 9.73333 107.677 9.744 107.762 9.744H113.298C113.533 9.744 113.661 9.776 113.682 9.84C113.725 9.88267 113.714 10.032 113.65 10.288L113.298 12.048C113.256 12.2827 113.202 12.432 113.138 12.496C113.074 12.5387 112.936 12.56 112.722 12.56H107.186C107.08 12.56 107.005 12.5707 106.962 12.592C106.92 12.6133 106.888 12.6773 106.866 12.784L105.618 18.896C105.597 19.0027 105.586 19.0773 105.586 19.12C105.608 19.1627 105.672 19.184 105.778 19.184H112.69C112.946 19.184 113.085 19.216 113.106 19.28C113.149 19.3227 113.149 19.4613 113.106 19.696L112.722 21.488C112.658 21.7227 112.584 21.872 112.498 21.936C112.434 21.9787 112.296 22 112.082 22H101.65ZM122.486 22C122.401 22 122.316 21.968 122.23 21.904C122.166 21.84 122.145 21.7547 122.166 21.648L126.038 3.536C126.06 3.42933 126.06 3.36533 126.038 3.344C126.017 3.32267 125.953 3.312 125.846 3.312H121.75C121.558 3.312 121.441 3.29067 121.398 3.248C121.377 3.20533 121.377 3.09867 121.398 2.928L121.846 0.783998C121.889 0.655999 121.932 0.570666 121.974 0.528C122.038 0.485332 122.156 0.463999 122.326 0.463999H134.678C134.87 0.463999 134.988 0.485332 135.03 0.528C135.073 0.570666 135.084 0.655999 135.062 0.783998L134.582 2.96C134.561 3.10933 134.518 3.20533 134.454 3.248C134.39 3.29067 134.262 3.312 134.07 3.312H129.942C129.836 3.312 129.761 3.32267 129.718 3.344C129.697 3.36533 129.676 3.42933 129.654 3.536L125.814 21.648C125.75 21.8827 125.612 22 125.398 22H122.486ZM140.285 21.648C140.242 21.8827 140.093 22 139.837 22H136.957C136.722 22 136.626 21.8827 136.669 21.648L141.085 0.815998C141.127 0.581332 141.277 0.463999 141.533 0.463999H144.413C144.519 0.463999 144.605 0.495999 144.669 0.559999C144.733 0.623999 144.754 0.709332 144.733 0.815998L140.285 21.648ZM159.611 21.04C159.504 21.4667 159.184 21.7547 158.651 21.904C158.331 21.9893 157.947 22.0533 157.499 22.096C157.072 22.16 156.656 22.2027 156.251 22.224C155.846 22.2453 155.536 22.256 155.323 22.256C152.806 22.256 150.982 21.328 149.851 19.472C148.72 17.616 148.539 14.8853 149.307 11.28C150.096 7.632 151.419 4.88 153.275 3.024C155.131 1.168 157.371 0.24 159.995 0.24C160.208 0.24 160.507 0.261333 160.891 0.303999C161.296 0.325332 161.702 0.367999 162.107 0.431999C162.534 0.474665 162.886 0.549332 163.163 0.655998C163.398 0.719999 163.568 0.794666 163.675 0.879999C163.803 0.965333 163.846 1.104 163.803 1.296L163.291 3.664C163.206 4.176 162.939 4.25067 162.491 3.888C162.15 3.65333 161.734 3.46133 161.243 3.312C160.752 3.16267 160.24 3.088 159.707 3.088C158.747 3.088 157.904 3.29067 157.179 3.696C156.454 4.10133 155.835 4.66667 155.323 5.392C154.811 6.11733 154.374 6.94933 154.011 7.888C153.648 8.80533 153.36 9.79733 153.147 10.864C152.976 11.568 152.838 12.3147 152.731 13.104C152.646 13.8933 152.624 14.672 152.667 15.44C152.71 16.1867 152.848 16.8693 153.083 17.488C153.318 18.0853 153.691 18.5653 154.203 18.928C154.715 19.2907 155.387 19.472 156.219 19.472C156.816 19.472 157.382 19.3973 157.915 19.248C158.47 19.0987 158.896 18.9387 159.195 18.768C159.6 18.5547 159.856 18.4693 159.963 18.512C160.091 18.5333 160.123 18.6827 160.059 18.96L159.611 21.04Z" fill="#1A2037"/>
</svg>
