<svg width="20" height="21" viewBox="0 0 20 21" fill="none" xmlns="http://www.w3.org/2000/svg">
    <path d="M3.33317 17.1666C2.87484 17.1666 2.48262 17.0035 2.1565 16.6774C1.82984 16.3508 1.6665 15.9583 1.6665 15.4999V5.49992C1.6665 5.04159 1.82984 4.64936 2.1565 4.32325C2.48262 3.99659 2.87484 3.83325 3.33317 3.83325H16.6665C17.1248 3.83325 17.5173 3.99659 17.844 4.32325C18.1701 4.64936 18.3332 5.04159 18.3332 5.49992V10.4999H16.6665V5.49992H3.33317V15.4999H11.6665V17.1666H3.33317ZM11.6248 12.4791L9.1665 10.0208V11.8749H7.49984V7.16659H12.2082V8.83325H10.3332L12.7915 11.2916L11.6248 12.4791ZM15.8332 17.1666C15.1387 17.1666 14.5484 16.9235 14.0623 16.4374C13.5762 15.9513 13.3332 15.361 13.3332 14.6666C13.3332 13.9721 13.5762 13.3819 14.0623 12.8958C14.5484 12.4096 15.1387 12.1666 15.8332 12.1666C16.5276 12.1666 17.1179 12.4096 17.604 12.8958C18.0901 13.3819 18.3332 13.9721 18.3332 14.6666C18.3332 15.361 18.0901 15.9513 17.604 16.4374C17.1179 16.9235 16.5276 17.1666 15.8332 17.1666Z" fill="black" fill-opacity="0.6"/>
</svg>
