<svg width="14" height="14" viewBox="0 0 14 14" fill="none" xmlns="http://www.w3.org/2000/svg">
<path d="M11.6667 6.41667C11.512 6.41667 11.3636 6.47812 11.2542 6.58752C11.1448 6.69692 11.0833 6.84529 11.0833 7V10.5C11.0833 10.6547 11.0219 10.8031 10.9125 10.9125C10.8031 11.0219 10.6547 11.0833 10.5 11.0833H3.5C3.34529 11.0833 3.19692 11.0219 3.08752 10.9125C2.97812 10.8031 2.91667 10.6547 2.91667 10.5V3.5C2.91667 3.34529 2.97812 3.19692 3.08752 3.08752C3.19692 2.97812 3.34529 2.91667 3.5 2.91667H7C7.15471 2.91667 7.30308 2.85521 7.41248 2.74581C7.52187 2.63642 7.58333 2.48804 7.58333 2.33333C7.58333 2.17862 7.52187 2.03025 7.41248 1.92085C7.30308 1.81146 7.15471 1.75 7 1.75H3.5C3.03587 1.75 2.59075 1.93437 2.26256 2.26256C1.93437 2.59075 1.75 3.03587 1.75 3.5V10.5C1.75 10.9641 1.93437 11.4092 2.26256 11.7374C2.59075 12.0656 3.03587 12.25 3.5 12.25H10.5C10.9641 12.25 11.4092 12.0656 11.7374 11.7374C12.0656 11.4092 12.25 10.9641 12.25 10.5V7C12.25 6.84529 12.1885 6.69692 12.0791 6.58752C11.9697 6.47812 11.8214 6.41667 11.6667 6.41667Z" fill="#8A8B8C"/>
<path d="M9.33258 2.91667H10.2543L6.58509 6.58C6.53041 6.63423 6.48701 6.69875 6.4574 6.76983C6.42778 6.84091 6.41254 6.91716 6.41254 6.99417C6.41254 7.07117 6.42778 7.14742 6.4574 7.2185C6.48701 7.28959 6.53041 7.3541 6.58509 7.40833C6.63931 7.46301 6.70383 7.5064 6.77492 7.53602C6.846 7.56563 6.92225 7.58088 6.99925 7.58088C7.07626 7.58088 7.1525 7.56563 7.22359 7.53602C7.29467 7.5064 7.35919 7.46301 7.41342 7.40833L11.0826 3.745V4.66667C11.0826 4.82138 11.144 4.96975 11.2534 5.07915C11.3628 5.18854 11.5112 5.25 11.6659 5.25C11.8206 5.25 11.969 5.18854 12.0784 5.07915C12.1878 4.96975 12.2492 4.82138 12.2492 4.66667V2.33333C12.2492 2.17862 12.1878 2.03025 12.0784 1.92085C11.969 1.81146 11.8206 1.75 11.6659 1.75H9.33258C9.17787 1.75 9.0295 1.81146 8.92011 1.92085C8.81071 2.03025 8.74925 2.17862 8.74925 2.33333C8.74925 2.48804 8.81071 2.63642 8.92011 2.74581C9.0295 2.85521 9.17787 2.91667 9.33258 2.91667V2.91667Z" fill="#8A8B8C"/>
</svg>
