<svg width="14" height="10" viewBox="0 0 14 10" fill="none" xmlns="http://www.w3.org/2000/svg">
<mask id="path-1-inside-1_302_1224" fill="white">
<path d="M7.00016 1.79301C8.07276 1.78944 9.12459 2.08863 10.0347 2.65618C10.9449 3.22373 11.6764 4.0366 12.1452 5.00134C11.1827 6.96718 9.21683 8.20968 7.00016 8.20968C4.7835 8.20968 2.81766 6.96718 1.85516 5.00134C2.32394 4.0366 3.05545 3.22373 3.96559 2.65618C4.87574 2.08863 5.92757 1.78944 7.00016 1.79301ZM7.00016 0.626343C4.0835 0.626343 1.59266 2.44051 0.583496 5.00134C1.59266 7.56218 4.0835 9.37634 7.00016 9.37634C9.91683 9.37634 12.4077 7.56218 13.4168 5.00134C12.4077 2.44051 9.91683 0.626343 7.00016 0.626343ZM7.00016 3.54301C7.38694 3.54301 7.75787 3.69665 8.03136 3.97015C8.30485 4.24364 8.4585 4.61457 8.4585 5.00134C8.4585 5.38812 8.30485 5.75905 8.03136 6.03254C7.75787 6.30603 7.38694 6.45968 7.00016 6.45968C6.61339 6.45968 6.24246 6.30603 5.96897 6.03254C5.69548 5.75905 5.54183 5.38812 5.54183 5.00134C5.54183 4.61457 5.69548 4.24364 5.96897 3.97015C6.24246 3.69665 6.61339 3.54301 7.00016 3.54301ZM7.00016 2.37634C5.5535 2.37634 4.37516 3.55468 4.37516 5.00134C4.37516 6.44801 5.5535 7.62634 7.00016 7.62634C8.44683 7.62634 9.62516 6.44801 9.62516 5.00134C9.62516 3.55468 8.44683 2.37634 7.00016 2.37634Z"/>
</mask>
<path d="M7.00016 1.79301C8.07276 1.78944 9.12459 2.08863 10.0347 2.65618C10.9449 3.22373 11.6764 4.0366 12.1452 5.00134C11.1827 6.96718 9.21683 8.20968 7.00016 8.20968C4.7835 8.20968 2.81766 6.96718 1.85516 5.00134C2.32394 4.0366 3.05545 3.22373 3.96559 2.65618C4.87574 2.08863 5.92757 1.78944 7.00016 1.79301ZM7.00016 0.626343C4.0835 0.626343 1.59266 2.44051 0.583496 5.00134C1.59266 7.56218 4.0835 9.37634 7.00016 9.37634C9.91683 9.37634 12.4077 7.56218 13.4168 5.00134C12.4077 2.44051 9.91683 0.626343 7.00016 0.626343ZM7.00016 3.54301C7.38694 3.54301 7.75787 3.69665 8.03136 3.97015C8.30485 4.24364 8.4585 4.61457 8.4585 5.00134C8.4585 5.38812 8.30485 5.75905 8.03136 6.03254C7.75787 6.30603 7.38694 6.45968 7.00016 6.45968C6.61339 6.45968 6.24246 6.30603 5.96897 6.03254C5.69548 5.75905 5.54183 5.38812 5.54183 5.00134C5.54183 4.61457 5.69548 4.24364 5.96897 3.97015C6.24246 3.69665 6.61339 3.54301 7.00016 3.54301ZM7.00016 2.37634C5.5535 2.37634 4.37516 3.55468 4.37516 5.00134C4.37516 6.44801 5.5535 7.62634 7.00016 7.62634C8.44683 7.62634 9.62516 6.44801 9.62516 5.00134C9.62516 3.55468 8.44683 2.37634 7.00016 2.37634Z" fill="#D9D9DA"/>
<path d="M12.1452 5.00134L12.3248 5.08929L12.3677 5.00168L12.3251 4.91393L12.1452 5.00134ZM1.85516 5.00134L1.67528 4.91393L1.63264 5.00168L1.67554 5.08929L1.85516 5.00134ZM0.583496 5.00134L0.397423 4.92802L0.368527 5.00134L0.397423 5.07467L0.583496 5.00134ZM13.4168 5.00134L13.6029 5.07467L13.6318 5.00134L13.6029 4.92802L13.4168 5.00134ZM7.00083 1.99301C8.03578 1.98957 9.0507 2.27826 9.92891 2.82589L10.1406 2.48648C9.19848 1.89901 8.10973 1.58932 6.9995 1.59301L7.00083 1.99301ZM9.92891 2.82589C10.8071 3.37352 11.5129 4.15787 11.9653 5.08875L12.3251 4.91393C11.8398 3.91534 11.0826 3.07394 10.1406 2.48648L9.92891 2.82589ZM11.9655 4.9134C11.0364 6.81108 9.14 8.00968 7.00016 8.00968V8.40968C9.29366 8.40968 11.3289 7.12327 12.3248 5.08929L11.9655 4.9134ZM7.00016 8.00968C4.86033 8.00968 2.96392 6.81108 2.03479 4.9134L1.67554 5.08929C2.6714 7.12327 4.70666 8.40968 7.00016 8.40968V8.00968ZM2.03505 5.08875C2.48738 4.15787 3.19321 3.37352 4.07142 2.82589L3.85977 2.48648C2.91768 3.07394 2.1605 3.91534 1.67528 4.91393L2.03505 5.08875ZM4.07142 2.82589C4.94962 2.27826 5.96454 1.98957 6.9995 1.99301L7.00083 1.59301C5.89059 1.58932 4.80185 1.89901 3.85977 2.48648L4.07142 2.82589ZM7.00016 0.426343C3.99829 0.426343 1.43557 2.29363 0.397423 4.92802L0.769569 5.07467C1.74975 2.58739 4.16871 0.826343 7.00016 0.826343V0.426343ZM0.397423 5.07467C1.43557 7.70905 3.99829 9.57634 7.00016 9.57634V9.17634C4.16871 9.17634 1.74975 7.4153 0.769569 4.92802L0.397423 5.07467ZM7.00016 9.57634C10.002 9.57634 12.5648 7.70905 13.6029 5.07467L13.2308 4.92802C12.2506 7.4153 9.83162 9.17634 7.00016 9.17634V9.57634ZM13.6029 4.92802C12.5648 2.29363 10.002 0.426343 7.00016 0.426343V0.826343C9.83162 0.826343 12.2506 2.58739 13.2308 5.07467L13.6029 4.92802ZM7.00016 3.74301C7.33389 3.74301 7.65396 3.87558 7.88994 4.11157L8.17278 3.82872C7.86178 3.51773 7.43998 3.34301 7.00016 3.34301V3.74301ZM7.88994 4.11157C8.12592 4.34755 8.2585 4.66761 8.2585 5.00134H8.6585C8.6585 4.56153 8.48378 4.13972 8.17278 3.82872L7.88994 4.11157ZM8.2585 5.00134C8.2585 5.33507 8.12592 5.65514 7.88994 5.89112L8.17278 6.17396C8.48378 5.86296 8.6585 5.44116 8.6585 5.00134H8.2585ZM7.88994 5.89112C7.65396 6.1271 7.33389 6.25968 7.00016 6.25968V6.65968C7.43998 6.65968 7.86178 6.48496 8.17278 6.17396L7.88994 5.89112ZM7.00016 6.25968C6.66643 6.25968 6.34637 6.1271 6.11039 5.89112L5.82754 6.17396C6.13854 6.48496 6.56035 6.65968 7.00016 6.65968V6.25968ZM6.11039 5.89112C5.8744 5.65514 5.74183 5.33507 5.74183 5.00134H5.34183C5.34183 5.44116 5.51655 5.86296 5.82754 6.17396L6.11039 5.89112ZM5.74183 5.00134C5.74183 4.66761 5.8744 4.34755 6.11039 4.11157L5.82754 3.82872C5.51655 4.13972 5.34183 4.56153 5.34183 5.00134H5.74183ZM6.11039 4.11157C6.34637 3.87558 6.66643 3.74301 7.00016 3.74301V3.34301C6.56035 3.34301 6.13854 3.51773 5.82754 3.82872L6.11039 4.11157ZM7.00016 2.17634C5.44304 2.17634 4.17516 3.44422 4.17516 5.00134H4.57516C4.57516 3.66513 5.66395 2.57634 7.00016 2.57634V2.17634ZM4.17516 5.00134C4.17516 6.55847 5.44304 7.82634 7.00016 7.82634V7.42634C5.66395 7.42634 4.57516 6.33755 4.57516 5.00134H4.17516ZM7.00016 7.82634C8.55729 7.82634 9.82516 6.55847 9.82516 5.00134H9.42516C9.42516 6.33755 8.33637 7.42634 7.00016 7.42634V7.82634ZM9.82516 5.00134C9.82516 3.44422 8.55729 2.17634 7.00016 2.17634V2.57634C8.33637 2.57634 9.42516 3.66513 9.42516 5.00134H9.82516Z" fill="white" mask="url(#path-1-inside-1_302_1224)"/>
</svg>
