<svg width="19" height="19" viewBox="0 0 19 19" fill="none" xmlns="http://www.w3.org/2000/svg">
<g id="logos:facebook" clip-path="url(#clip0_25_2068)">
<path id="Vector" d="M19 9.5C19 4.25333 14.7467 0 9.5 0C4.25333 0 0 4.25325 0 9.5C0 14.2417 3.47403 18.1719 8.01562 18.8846V12.2461H5.60352V9.5H8.01562V7.40703C8.01562 5.02609 9.43395 3.71094 11.6039 3.71094C12.6433 3.71094 13.7305 3.89648 13.7305 3.89648V6.23438H12.5326C11.3524 6.23438 10.9844 6.96669 10.9844 7.71801V9.5H13.6191L13.1979 12.2461H10.9844V18.8846C15.526 18.1719 19 14.2418 19 9.5Z" fill="#1877F2"/>
<path id="Vector_2" d="M13.1979 12.2461L13.6191 9.5H10.9844V7.71801C10.9844 6.96662 11.3524 6.23438 12.5326 6.23438H13.7305V3.89648C13.7305 3.89648 12.6433 3.71094 11.6039 3.71094C9.43395 3.71094 8.01562 5.02609 8.01562 7.40703V9.5H5.60352V12.2461H8.01562V18.8846C8.50667 18.9615 9.00296 19.0001 9.5 19C9.99704 19.0001 10.4933 18.9616 10.9844 18.8846V12.2461H13.1979Z" fill="white"/>
</g>
<defs>
<clipPath id="clip0_25_2068">
<rect width="19" height="19" fill="white"/>
</clipPath>
</defs>
</svg>
