<svg width="14" height="15" viewBox="0 0 14 15" fill="none" xmlns="http://www.w3.org/2000/svg">
<circle cx="7" cy="7.2666" r="6.5" stroke="#FF4D4F"/>
<path d="M4.85355 4.64645C4.65829 4.45118 4.34171 4.45118 4.14645 4.64645C3.95118 4.84171 3.95118 5.15829 4.14645 5.35355L4.85355 4.64645ZM9.14611 10.3532C9.34137 10.5485 9.65795 10.5485 9.85322 10.3532C10.0485 10.158 10.0485 9.84137 9.85322 9.64611L9.14611 10.3532ZM9.85351 5.35355C10.0488 5.15829 10.0488 4.84171 9.85351 4.64645C9.65825 4.45118 9.34167 4.45118 9.14641 4.64645L9.85351 5.35355ZM4.14674 9.64611C3.95148 9.84137 3.95148 10.158 4.14674 10.3532C4.342 10.5485 4.65859 10.5485 4.85385 10.3532L4.14674 9.64611ZM4.14645 5.35355L9.14611 10.3532L9.85322 9.64611L4.85355 4.64645L4.14645 5.35355ZM9.14641 4.64645L4.14674 9.64611L4.85385 10.3532L9.85351 5.35355L9.14641 4.64645Z" fill="#FF4D4F"/>
</svg>
