<svg width="88" height="88" viewBox="0 0 88 88" fill="none" xmlns="http://www.w3.org/2000/svg">
<rect width="88" height="88" rx="6" fill="white"/>
<rect x="18.0594" y="24" width="51.8812" height="40" rx="4" fill="#F0F0F0"/>
<rect x="18.5594" y="24.5" width="50.8812" height="39" rx="3.5" stroke="black" stroke-opacity="0.4"/>
<mask id="path-4-inside-1_1162_15357" fill="white">
<path d="M33.0594 45C33.0594 42.7909 34.8502 41 37.0594 41H69.0594V59C69.0594 61.2091 67.2685 63 65.0594 63H33.0594V45Z"/>
</mask>
<path d="M33.0594 45C33.0594 42.7909 34.8502 41 37.0594 41H69.0594V59C69.0594 61.2091 67.2685 63 65.0594 63H33.0594V45Z" fill="white"/>
<rect x="45.0594" y="55" width="12" height="4" rx="2" fill="black" fill-opacity="0.4"/>
<rect x="40.0594" y="50" width="22" height="2" rx="1" fill="#C8C8C8"/>
<rect x="40.0594" y="46" width="22" height="2" rx="1" fill="#C8C8C8"/>
<path d="M32.0594 45C32.0594 42.2386 34.298 40 37.0594 40H69.0594V42H37.0594C35.4025 42 34.0594 43.3431 34.0594 45H32.0594ZM69.0594 63H33.0594H69.0594ZM32.0594 63V45C32.0594 42.2386 34.298 40 37.0594 40V42C35.4025 42 34.0594 43.3431 34.0594 45V63H32.0594ZM69.0594 41V63V41Z" fill="black" fill-opacity="0.4" mask="url(#path-4-inside-1_1162_15357)"/>
<circle cx="23.2754" cy="28.4584" r="1.21597" fill="#C8C8C8"/>
<circle cx="23.2754" cy="28.4584" r="0.715966" stroke="black" stroke-opacity="0.4"/>
<circle cx="27.3293" cy="28.4584" r="1.21597" fill="#C8C8C8"/>
<circle cx="27.3293" cy="28.4584" r="0.715966" stroke="black" stroke-opacity="0.4"/>
<path d="M32.598 28.4584C32.598 29.13 32.0536 29.6744 31.382 29.6744C30.7105 29.6744 30.1661 29.13 30.1661 28.4584C30.1661 27.7868 30.7105 27.2424 31.382 27.2424C32.0536 27.2424 32.598 27.7868 32.598 28.4584Z" fill="#C8C8C8"/>
<path d="M32.098 28.4584C32.098 28.8538 31.7775 29.1744 31.382 29.1744C30.9866 29.1744 30.6661 28.8538 30.6661 28.4584C30.6661 28.063 30.9866 27.7424 31.382 27.7424C31.7775 27.7424 32.098 28.063 32.098 28.4584Z" stroke="black" stroke-opacity="0.4"/>
</svg>
