<svg width="14" height="14" viewBox="0 0 14 14" fill="none" xmlns="http://www.w3.org/2000/svg">
    <path d="M1.625 4.87402H4.875V1.62402C4.875 1.48652 4.9875 1.37402 5.125 1.37402H12.375C12.5125 1.37402 12.625 1.48652 12.625 1.62402V8.87402C12.625 9.01152 12.5125 9.12402 12.375 9.12402H9.125V12.374C9.125 12.5115 9.0125 12.624 8.875 12.624H1.625C1.4875 12.624 1.375 12.5115 1.375 12.374V5.12402C1.375 4.98652 1.4875 4.87402 1.625 4.87402ZM9.125 5.12402V8.06152H11.5625V2.43652H5.9375V4.87402H8.875C9.0125 4.87402 9.125 4.98652 9.125 5.12402ZM2.4375 11.5615H8.0625V9.12402V8.06152V5.93652H5.9375H4.875H2.4375V11.5615Z" fill="#999999"/>
</svg>
