<svg width="14" height="14" viewBox="0 0 14 14" fill="none" xmlns="http://www.w3.org/2000/svg">
    <path d="M4.62476 1.87354H4.49976C4.56851 1.87354 4.62476 1.81729 4.62476 1.74854V1.87354H9.37476V1.74854C9.37476 1.81729 9.43101 1.87354 9.49976 1.87354H9.37476V2.99854H10.4998V1.74854C10.4998 1.19697 10.0513 0.748535 9.49976 0.748535H4.49976C3.94819 0.748535 3.49976 1.19697 3.49976 1.74854V2.99854H4.62476V1.87354ZM12.4998 2.99854H1.49976C1.22319 2.99854 0.999756 3.22197 0.999756 3.49854V3.99854C0.999756 4.06729 1.05601 4.12354 1.12476 4.12354H2.06851L2.45444 12.2954C2.47944 12.8282 2.92007 13.2485 3.45288 13.2485H10.5466C11.081 13.2485 11.5201 12.8298 11.5451 12.2954L11.931 4.12354H12.8748C12.9435 4.12354 12.9998 4.06729 12.9998 3.99854V3.49854C12.9998 3.22197 12.7763 2.99854 12.4998 2.99854ZM10.4263 12.1235H3.57319L3.19507 4.12354H10.8044L10.4263 12.1235Z" fill="#999999"/>
</svg>
