<svg width="102" height="19" viewBox="0 0 102 19" fill="none" xmlns="http://www.w3.org/2000/svg">
    <path d="M12.9737 11.256C12.9737 10.936 12.8617 10.664 12.6377 10.44C12.4297 10.216 12.1658 10.096 11.8457 10.08H4.16575V16.248C4.16575 16.664 4.31775 17.024 4.62175 17.328C4.92575 17.616 5.28575 17.76 5.70175 17.76H6.01375V18H0.757749V17.76H1.06975C1.48575 17.76 1.83775 17.616 2.12575 17.328C2.42975 17.024 2.58975 16.664 2.60575 16.248V2.808C2.60575 2.424 2.44575 2.104 2.12575 1.848C1.82175 1.576 1.46975 1.44 1.06975 1.44H0.781749L0.757749 1.2H7.78975C8.47775 1.2 9.08575 1.144 9.61375 1.032C10.1417 0.919999 10.4857 0.831999 10.6457 0.767999V3.48H10.4057V3.12C10.4057 2.8 10.2937 2.528 10.0697 2.304C9.84575 2.064 9.56575 1.944 9.22975 1.944H4.16575V9.36H11.8217C12.1417 9.344 12.4137 9.224 12.6377 9C12.8617 8.776 12.9737 8.496 12.9737 8.16V7.824H13.2138V11.616H12.9737V11.256ZM17.4707 3.288C19.1827 1.672 21.3987 0.863999 24.1187 0.863999C26.8547 0.863999 29.0787 1.672 30.7907 3.288C32.5027 4.888 33.3587 6.992 33.3587 9.6C33.3587 12.208 32.5027 14.32 30.7907 15.936C29.0787 17.536 26.8547 18.336 24.1187 18.336C21.3987 18.336 19.1827 17.536 17.4707 15.936C15.7587 14.32 14.9027 12.208 14.9027 9.6C14.9027 6.992 15.7587 4.888 17.4707 3.288ZM18.7667 15.408C20.1267 16.88 21.9107 17.616 24.1187 17.616C26.3267 17.616 28.1027 16.88 29.4467 15.408C30.8067 13.936 31.4867 12 31.4867 9.6C31.4867 7.2 30.8067 5.264 29.4467 3.792C28.1027 2.32 26.3267 1.584 24.1187 1.584C21.9107 1.584 20.1267 2.32 18.7667 3.792C17.4227 5.264 16.7507 7.2 16.7507 9.6C16.7507 12 17.4227 13.936 18.7667 15.408ZM40.2017 1.944H38.6657V16.248C38.6657 16.664 38.8097 17.024 39.0977 17.328C39.4017 17.616 39.7697 17.76 40.2017 17.76H40.4897L40.5137 18H35.2577V17.76H35.5697C35.9857 17.76 36.3377 17.616 36.6257 17.328C36.9297 17.04 37.0897 16.688 37.1057 16.272V2.952C37.0897 2.536 36.9297 2.184 36.6257 1.896C36.3377 1.592 35.9857 1.44 35.5697 1.44H35.2577V1.2H41.7377C43.1937 1.2 44.3377 1.608 45.1697 2.424C46.0017 3.224 46.4177 4.272 46.4177 5.568C46.4177 6.848 46.0177 7.96 45.2177 8.904C44.4337 9.832 43.4737 10.296 42.3377 10.296C42.5777 10.408 42.8577 10.632 43.1777 10.968C43.5137 11.288 43.8097 11.624 44.0657 11.976C45.4417 13.944 46.3377 15.16 46.7537 15.624C47.1697 16.072 47.4657 16.384 47.6417 16.56C47.8177 16.72 48.0097 16.88 48.2177 17.04C48.4257 17.2 48.6337 17.328 48.8418 17.424C49.3057 17.648 49.8017 17.76 50.3297 17.76V18H49.0097C48.3217 18 47.6817 17.88 47.0897 17.64C46.4977 17.384 46.0497 17.128 45.7457 16.872C45.4577 16.6 45.2017 16.344 44.9777 16.104C44.7697 15.848 44.1777 15.016 43.2017 13.608C42.2257 12.2 41.6577 11.4 41.4977 11.208C41.3377 11 41.1697 10.8 40.9937 10.608C40.4817 10.064 39.9697 9.792 39.4577 9.792V9.552C39.5857 9.568 39.7537 9.576 39.9617 9.576C40.1697 9.576 40.4257 9.568 40.7297 9.552C42.7137 9.504 43.9617 8.672 44.4737 7.056C44.5697 6.736 44.6177 6.44 44.6177 6.168C44.6177 5.88 44.6177 5.696 44.6177 5.616C44.5857 4.544 44.3057 3.68 43.7777 3.024C43.2497 2.368 42.5377 2.016 41.6417 1.968C41.2577 1.952 40.7777 1.944 40.2017 1.944ZM71.0506 17.76H71.4346V18H66.2266V17.784H66.5866C66.8586 17.784 67.0906 17.68 67.2826 17.472C67.4746 17.264 67.5546 17.024 67.5226 16.752L66.4426 4.68L61.4026 15.888C60.9546 16.864 60.6826 17.68 60.5866 18.336H60.3466L54.2026 5.016L53.1706 16.752C53.1386 17.008 53.2186 17.248 53.4106 17.472C53.6026 17.68 53.8346 17.784 54.1066 17.784H54.4666V18H49.8106V17.76H50.1946C50.6426 17.76 51.0266 17.624 51.3466 17.352C51.6826 17.08 51.8826 16.712 51.9466 16.248L53.7466 0.863999H53.9866L60.6826 15.336L67.2346 0.863999H67.4506L69.2986 16.248C69.3626 16.712 69.5626 17.08 69.8986 17.352C70.2346 17.624 70.6186 17.76 71.0506 17.76ZM88.9705 17.76H89.1625V18H83.7625V17.76H83.9785C84.3145 17.76 84.5625 17.656 84.7225 17.448C84.8985 17.224 84.9865 17.016 84.9865 16.824C84.9865 16.632 84.9545 16.44 84.8905 16.248L83.3545 12.168H76.8745L75.2665 16.272C75.2025 16.464 75.1705 16.656 75.1705 16.848C75.1705 17.024 75.2505 17.224 75.4105 17.448C75.5865 17.656 75.8425 17.76 76.1785 17.76H76.3945V18H71.5705V17.76H71.7865C72.1865 17.76 72.5785 17.632 72.9625 17.376C73.3465 17.12 73.6585 16.744 73.8985 16.248L79.3225 3.336C79.9145 2.04 80.2105 1.216 80.2105 0.863999H80.4265L86.8585 16.248C87.0825 16.744 87.3865 17.12 87.7705 17.376C88.1545 17.632 88.5545 17.76 88.9705 17.76ZM77.1625 11.448H83.0665L80.1865 3.744L77.1625 11.448ZM90.6244 17.76C91.0404 17.76 91.3924 17.616 91.6804 17.328C91.9844 17.024 92.1444 16.664 92.1604 16.248V2.952C92.1444 2.536 91.9844 2.184 91.6804 1.896C91.3924 1.592 91.0404 1.44 90.6244 1.44H90.3124V1.2H95.5684V1.44H95.2564C94.6804 1.44 94.2404 1.688 93.9364 2.184C93.7924 2.424 93.7204 2.68 93.7204 2.952V17.256H97.1524C98.3364 17.256 99.2404 16.992 99.8644 16.464C100.488 15.936 101.008 15.152 101.424 14.112H101.664L100.272 18H90.3124V17.76H90.6244Z" fill="#1A2037"/>
</svg>
