<svg width="129" height="18" viewBox="0 0 129 18" fill="none" xmlns="http://www.w3.org/2000/svg">
    <path d="M6.76584 1.3C2.46984 1.3 0.789843 3.652 0.789843 6.892V17.5H3.62184V11.092H13.3898V8.404H3.62184V6.868C3.62184 5.356 4.38984 4.132 6.95784 4.132H13.4858V1.3H6.76584ZM17.8319 4.828V12.508C17.8319 15.436 19.7039 17.5 23.3279 17.5H25.6799C29.3039 17.5 31.1759 15.436 31.1759 12.508V4.828H28.6799V12.412C28.6799 13.9 27.5999 15.028 25.5839 15.028H23.5199C21.5039 15.028 20.3999 13.9 20.3999 12.412V4.828H17.8319ZM34.6835 4.828V7.276H36.4115V13.132C36.4115 16.444 37.5395 17.5 40.1555 17.5H42.4355V15.172H40.6835C39.4835 15.172 38.9795 14.692 38.9795 13.276V7.276H42.4835V4.828H38.9795V1.828H36.4115V4.828H34.6835ZM46.0835 4.828V12.508C46.0835 15.436 47.9555 17.5 51.5795 17.5H53.9315C57.5555 17.5 59.4275 15.436 59.4275 12.508V4.828H56.9315V12.412C56.9315 13.9 55.8515 15.028 53.8355 15.028H51.7715C49.7555 15.028 48.6515 13.9 48.6515 12.412V4.828H46.0835ZM67.615 4.828C65.119 4.828 64.183 5.98 64.183 8.524V17.5H66.727V8.908C66.727 7.804 67.231 7.276 68.359 7.276H72.823V4.828H67.615ZM76.5164 4.828V17.5H79.0604V4.828H76.5164ZM76.5164 0.0519986V3.004H79.0844V0.0519986H76.5164ZM87.4319 4.828C84.4799 4.828 83.3039 6.244 83.3039 8.524C83.3039 10.468 84.1679 12.22 87.6719 12.22H90.6719C91.9439 12.22 92.4719 12.628 92.4719 13.636C92.4719 14.62 91.9919 15.028 90.8159 15.028H83.4479V17.5H90.8159C93.7919 17.5 94.9679 15.916 94.9679 13.66C94.9679 11.692 94.0799 10.084 90.5759 10.084H87.5999C86.1839 10.084 85.7999 9.604 85.7999 8.716C85.7999 7.756 86.2799 7.276 87.4559 7.276H94.4639V4.828H87.4319ZM97.8944 4.828V7.276H99.6224V13.132C99.6224 16.444 100.75 17.5 103.366 17.5H105.646V15.172H103.894C102.694 15.172 102.19 14.692 102.19 13.276V7.276H105.694V4.828H102.19V1.828H99.6224V4.828H97.8944ZM109.366 4.828V17.5H111.91V4.828H109.366ZM109.366 0.0519986V3.004H111.934V0.0519986H109.366ZM121.65 4.828C118.266 4.828 116.154 6.892 116.154 11.164C116.154 15.436 118.266 17.5 121.65 17.5H128.178V15.028H121.89C119.682 15.028 118.722 13.9 118.722 11.164C118.722 8.428 119.682 7.276 121.89 7.276H128.178V4.828H121.65Z" fill="#1A2037"/>
</svg>
