<svg width="502" height="69" viewBox="0 0 502 59" fill="none" xmlns="http://www.w3.org/2000/svg">
  <g clip-path="url(#clip0_11_3698)">
    <path d="M5.4263 18.4114V9.18662L2.56542 6.56935L0 5.11694V16.7835C0 17.6842 0.729793 18.4114 1.62793 18.4114H5.4263Z" fill="#4285F4"/>
    <path d="M18.4495 18.4114H22.2478C23.1487 18.4114 23.8758 17.6815 23.8758 16.7835V5.11703L20.97 6.78059L18.4495 9.18662V18.4114Z" fill="#34A853"/>
    <path d="M5.42639 9.18664L5.03711 5.58226L5.42639 2.13251L11.9379 7.0162L18.4494 2.13251L18.8849 5.39601L18.4494 9.18664L11.9379 14.0703L5.42639 9.18664Z" fill="#EA4335"/>
    <path d="M18.4495 2.1325V9.18663L23.8758 5.11696V2.94642C23.8758 0.933308 21.5777 -0.214309 19.9689 0.992996L18.4495 2.1325Z" fill="#FBBC04"/>
    <path d="M0 5.11697L2.49566 6.98878L5.4263 9.18665V2.13251L3.90684 0.993009C2.29523 -0.21439 0 0.93332 0 2.94634V5.11687V5.11697Z" fill="#C5221F"/>
  </g>
  <path d="M39.7157 3.272C40.5477 3.272 41.2864 3.44267 41.9317 3.784C42.5771 4.12533 43.0944 4.584 43.4837 5.16C43.8784 5.736 44.1131 6.37333 44.1877 7.072H42.3637C42.2837 6.63467 42.1291 6.24 41.8997 5.888C41.6757 5.53067 41.3771 5.25067 41.0037 5.048C40.6304 4.84 40.1877 4.736 39.6757 4.736C39.0197 4.736 38.4624 4.89067 38.0037 5.2C37.5451 5.50933 37.1957 5.992 36.9557 6.648C36.7211 7.304 36.6037 8.14933 36.6037 9.184C36.6037 10.7467 36.8677 11.8907 37.3957 12.616C37.9237 13.336 38.6837 13.696 39.6757 13.696C40.1877 13.696 40.6304 13.5867 41.0037 13.368C41.3771 13.144 41.6757 12.848 41.8997 12.48C42.1291 12.1067 42.2837 11.7013 42.3637 11.264H44.1877C44.1237 11.7707 43.9904 12.2587 43.7877 12.728C43.5851 13.192 43.3024 13.608 42.9397 13.976C42.5824 14.344 42.1371 14.6347 41.6037 14.848C41.0704 15.056 40.4411 15.16 39.7157 15.16C38.6704 15.16 37.7744 14.92 37.0277 14.44C36.2811 13.9547 35.7077 13.2667 35.3077 12.376C34.9131 11.48 34.7157 10.408 34.7157 9.16C34.7157 7.91733 34.9131 6.85867 35.3077 5.984C35.7024 5.104 36.2731 4.432 37.0197 3.968C37.7664 3.504 38.6651 3.272 39.7157 3.272ZM49.5207 15.16C48.7474 15.16 48.0701 14.9947 47.4887 14.664C46.9127 14.328 46.4647 13.8427 46.1447 13.208C45.8301 12.5733 45.6727 11.8053 45.6727 10.904C45.6727 10.0347 45.8221 9.27467 46.1207 8.624C46.4247 7.97333 46.8647 7.46933 47.4407 7.112C48.0167 6.74933 48.7127 6.568 49.5287 6.568C50.3074 6.568 50.9821 6.73867 51.5527 7.08C52.1234 7.416 52.5661 7.90933 52.8807 8.56C53.1954 9.20533 53.3527 9.98667 53.3527 10.904C53.3527 11.7413 53.2034 12.48 52.9047 13.12C52.6114 13.76 52.1794 14.2613 51.6087 14.624C51.0434 14.9813 50.3474 15.16 49.5207 15.16ZM49.5287 13.84C49.9981 13.84 50.3901 13.7173 50.7047 13.472C51.0247 13.2213 51.2647 12.872 51.4247 12.424C51.5847 11.9707 51.6647 11.448 51.6647 10.856C51.6647 10.3067 51.5927 9.808 51.4487 9.36C51.3101 8.90667 51.0834 8.54667 50.7687 8.28C50.4541 8.01333 50.0407 7.88 49.5287 7.88C49.0487 7.88 48.6487 8.00267 48.3287 8.248C48.0087 8.488 47.7661 8.832 47.6007 9.28C47.4407 9.72267 47.3607 10.248 47.3607 10.856C47.3607 11.3947 47.4327 11.8907 47.5767 12.344C47.7207 12.7973 47.9527 13.16 48.2727 13.432C48.5927 13.704 49.0114 13.84 49.5287 13.84ZM55.192 15V6.728H56.864V7.92C56.9973 7.696 57.176 7.48533 57.4 7.288C57.6293 7.09067 57.9093 6.93067 58.24 6.808C58.576 6.68533 58.9626 6.624 59.4 6.624C59.9173 6.624 60.3946 6.728 60.832 6.936C61.2746 7.13867 61.6293 7.45867 61.896 7.896C62.1626 8.328 62.296 8.888 62.296 9.576V15H60.584V9.76C60.584 9.168 60.424 8.728 60.104 8.44C59.7893 8.152 59.3813 8.008 58.88 8.008C58.544 8.008 58.224 8.064 57.92 8.176C57.616 8.288 57.3706 8.45867 57.184 8.688C56.9973 8.912 56.904 9.19467 56.904 9.536V15H55.192ZM64.4889 15V6.728H66.1609V7.92C66.2942 7.696 66.4729 7.48533 66.6969 7.288C66.9262 7.09067 67.2062 6.93067 67.5369 6.808C67.8729 6.68533 68.2595 6.624 68.6969 6.624C69.2142 6.624 69.6915 6.728 70.1289 6.936C70.5715 7.13867 70.9262 7.45867 71.1929 7.896C71.4595 8.328 71.5929 8.888 71.5929 9.576V15H69.8809V9.76C69.8809 9.168 69.7209 8.728 69.4009 8.44C69.0862 8.152 68.6782 8.008 68.1769 8.008C67.8409 8.008 67.5209 8.064 67.2169 8.176C66.9129 8.288 66.6675 8.45867 66.4809 8.688C66.2942 8.912 66.2009 9.19467 66.2009 9.536V15H64.4889ZM75.0817 11.264C75.0817 11.76 75.1617 12.2053 75.3217 12.6C75.4871 12.9893 75.7351 13.2987 76.0657 13.528C76.3964 13.752 76.8071 13.864 77.2977 13.864C77.7884 13.864 78.2124 13.752 78.5697 13.528C78.9324 13.304 79.1697 12.9707 79.2817 12.528H80.8657C80.7697 13.0933 80.5431 13.5733 80.1857 13.968C79.8337 14.3627 79.4071 14.6613 78.9057 14.864C78.4044 15.0613 77.8791 15.16 77.3297 15.16C76.5457 15.16 75.8551 14.992 75.2577 14.656C74.6604 14.3147 74.1937 13.8293 73.8577 13.2C73.5271 12.5707 73.3617 11.8213 73.3617 10.952C73.3617 10.0933 73.5137 9.336 73.8177 8.68C74.1217 8.01867 74.5617 7.50133 75.1377 7.128C75.7137 6.75467 76.4071 6.568 77.2177 6.568C78.0177 6.568 78.6897 6.73867 79.2337 7.08C79.7831 7.42133 80.1991 7.90133 80.4817 8.52C80.7644 9.13333 80.9057 9.85867 80.9057 10.696V11.264H75.0817ZM75.0817 10.152H79.2737C79.2737 9.72 79.1991 9.328 79.0497 8.976C78.9004 8.61867 78.6711 8.33867 78.3617 8.136C78.0577 7.928 77.6737 7.824 77.2097 7.824C76.7351 7.824 76.3404 7.93867 76.0257 8.168C75.7111 8.39733 75.4737 8.69067 75.3137 9.048C75.1591 9.40533 75.0817 9.77333 75.0817 10.152ZM86.185 6.568C86.8036 6.568 87.353 6.69067 87.833 6.936C88.3183 7.176 88.7103 7.512 89.009 7.944C89.3076 8.376 89.489 8.88 89.553 9.456H88.073C88.025 9.184 87.921 8.93067 87.761 8.696C87.6063 8.46133 87.3956 8.27467 87.129 8.136C86.8676 7.992 86.5556 7.92 86.193 7.92C85.5316 7.92 84.993 8.16267 84.577 8.648C84.161 9.13333 83.953 9.87733 83.953 10.88C83.953 11.7973 84.145 12.528 84.529 13.072C84.9183 13.616 85.4836 13.888 86.225 13.888C86.5823 13.888 86.8916 13.8133 87.153 13.664C87.4196 13.5147 87.6303 13.3227 87.785 13.088C87.9396 12.8533 88.0383 12.6107 88.081 12.36H89.537C89.4783 12.9147 89.297 13.4027 88.993 13.824C88.6943 14.2453 88.3023 14.5733 87.817 14.808C87.337 15.0427 86.793 15.16 86.185 15.16C85.433 15.16 84.7663 14.9973 84.185 14.672C83.6036 14.3413 83.1476 13.8587 82.817 13.224C82.4916 12.584 82.329 11.808 82.329 10.896C82.329 10.0373 82.481 9.28267 82.785 8.632C83.089 7.98133 83.529 7.47467 84.105 7.112C84.6863 6.74933 85.3796 6.568 86.185 6.568ZM95.6102 7.96H93.7542L93.7622 12.896C93.7622 13.168 93.7889 13.368 93.8422 13.496C93.9009 13.6187 93.9969 13.6987 94.1302 13.736C94.2689 13.768 94.4556 13.784 94.6902 13.784H95.6582V14.896C95.5516 14.9387 95.3916 14.976 95.1782 15.008C94.9702 15.04 94.7009 15.056 94.3702 15.056C93.7569 15.056 93.2796 14.9733 92.9382 14.808C92.6022 14.6427 92.3676 14.4053 92.2342 14.096C92.1062 13.7813 92.0422 13.4027 92.0422 12.96V7.96H90.6982V6.728H92.0902L92.5142 4.296H93.7542V6.72H95.6102V7.96ZM105.911 15.16C104.882 15.16 103.994 14.9253 103.247 14.456C102.5 13.9867 101.924 13.312 101.519 12.432C101.119 11.5467 100.919 10.4853 100.919 9.248C100.919 8 101.124 6.93067 101.535 6.04C101.951 5.144 102.54 4.45867 103.303 3.984C104.066 3.50933 104.962 3.272 105.991 3.272C106.604 3.272 107.172 3.376 107.695 3.584C108.223 3.792 108.687 4.07467 109.087 4.432C109.492 4.78933 109.812 5.19467 110.047 5.648C110.282 6.10133 110.415 6.576 110.447 7.072H108.623C108.548 6.66133 108.388 6.28267 108.143 5.936C107.903 5.584 107.596 5.30133 107.223 5.088C106.85 4.87467 106.428 4.768 105.959 4.768C105.335 4.768 104.783 4.92267 104.303 5.232C103.823 5.54133 103.447 6.024 103.175 6.68C102.908 7.33067 102.775 8.17333 102.775 9.208C102.775 10.0133 102.858 10.6987 103.023 11.264C103.194 11.8293 103.426 12.2853 103.719 12.632C104.012 12.9787 104.356 13.232 104.751 13.392C105.146 13.5467 105.567 13.624 106.015 13.624C106.458 13.624 106.847 13.5467 107.183 13.392C107.519 13.2373 107.799 13.0373 108.023 12.792C108.252 12.5467 108.428 12.2827 108.551 12C108.679 11.712 108.754 11.4347 108.775 11.168L108.831 10.232H106.127V9L110.615 9.016V15H109.375V13.304C109.172 13.6187 108.919 13.9173 108.615 14.2C108.311 14.4827 107.938 14.7147 107.495 14.896C107.052 15.072 106.524 15.16 105.911 15.16ZM113.083 15V6.728H114.747V7.92C114.981 7.55733 115.301 7.24267 115.707 6.976C116.112 6.704 116.635 6.568 117.275 6.568C117.573 6.568 117.875 6.61867 118.179 6.72C118.488 6.82133 118.771 6.97333 119.027 7.176C119.288 7.37333 119.493 7.61867 119.643 7.912C119.904 7.51733 120.253 7.19467 120.691 6.944C121.128 6.69333 121.619 6.568 122.163 6.568C122.456 6.568 122.76 6.616 123.075 6.712C123.389 6.80267 123.68 6.96 123.947 7.184C124.219 7.40267 124.437 7.70667 124.603 8.096C124.773 8.48533 124.859 8.97867 124.859 9.576V15H123.139V9.76C123.139 9.30667 123.061 8.952 122.907 8.696C122.757 8.44 122.56 8.26133 122.315 8.16C122.075 8.05333 121.819 8 121.547 8C121.301 8 121.045 8.048 120.779 8.144C120.512 8.24 120.285 8.4 120.099 8.624C119.912 8.848 119.819 9.152 119.819 9.536V15H118.107V9.392C118.107 9.088 118.024 8.832 117.859 8.624C117.699 8.416 117.496 8.26133 117.251 8.16C117.011 8.05333 116.771 8 116.531 8C116.264 8 115.997 8.05333 115.731 8.16C115.464 8.26667 115.24 8.43467 115.059 8.664C114.883 8.888 114.795 9.17867 114.795 9.536V15H113.083ZM129.34 15.16C128.807 15.16 128.332 15.064 127.916 14.872C127.505 14.68 127.183 14.4027 126.948 14.04C126.713 13.6773 126.596 13.24 126.596 12.728C126.596 11.8107 126.921 11.1253 127.572 10.672C128.223 10.2187 129.26 9.97867 130.684 9.952L132.044 9.912V9.312C132.044 8.83733 131.903 8.464 131.62 8.192C131.337 7.92 130.903 7.78667 130.316 7.792C129.873 7.792 129.479 7.89333 129.132 8.096C128.791 8.29867 128.567 8.632 128.46 9.096H126.972C127.004 8.54667 127.161 8.08533 127.444 7.712C127.732 7.33333 128.127 7.048 128.628 6.856C129.129 6.664 129.719 6.568 130.396 6.568C131.148 6.568 131.767 6.672 132.252 6.88C132.737 7.08267 133.097 7.38133 133.332 7.776C133.572 8.17067 133.692 8.65067 133.692 9.216V15H132.244L132.108 13.48C131.799 14.1147 131.407 14.5547 130.932 14.8C130.463 15.04 129.932 15.16 129.34 15.16ZM129.876 13.968C130.137 13.968 130.396 13.9227 130.652 13.832C130.908 13.736 131.14 13.608 131.348 13.448C131.556 13.2827 131.721 13.0987 131.844 12.896C131.972 12.6933 132.039 12.4853 132.044 12.272V10.904L130.924 10.928C130.353 10.9333 129.868 10.992 129.468 11.104C129.073 11.216 128.769 11.3893 128.556 11.624C128.348 11.8587 128.244 12.1707 128.244 12.56C128.244 13.0027 128.399 13.3493 128.708 13.6C129.017 13.8453 129.407 13.968 129.876 13.968ZM137.906 6.728V15H136.258V6.728H137.906ZM137.938 3.44V5.128H136.218V3.44H137.938ZM142.698 15.112C142.207 15.112 141.812 15.048 141.514 14.92C141.22 14.792 140.996 14.6213 140.842 14.408C140.687 14.1893 140.583 13.944 140.53 13.672C140.482 13.3947 140.458 13.1093 140.458 12.816V3.112H142.146V12.64C142.146 13.024 142.22 13.3173 142.37 13.52C142.524 13.7227 142.759 13.8373 143.074 13.864L143.506 13.88V14.968C143.372 15.0107 143.234 15.0453 143.09 15.072C142.951 15.0987 142.82 15.112 142.698 15.112Z" fill="#1A2037"/>
  <path d="M8.337 29.878L4.907 35.695V40H3.619V35.688L0.168 29.878H1.582L4.27 34.533L6.916 29.878H8.337ZM11.5769 40.14C10.9096 40.14 10.3262 39.9977 9.82691 39.713C9.32757 39.4237 8.94024 39.0013 8.66491 38.446C8.38957 37.8907 8.25191 37.2117 8.25191 36.409C8.25191 35.653 8.38024 34.9903 8.63691 34.421C8.89357 33.8517 9.26924 33.4107 9.76391 33.098C10.2632 32.7807 10.8676 32.622 11.5769 32.622C12.2442 32.622 12.8229 32.769 13.3129 33.063C13.8076 33.3523 14.1902 33.7793 14.4609 34.344C14.7316 34.9087 14.8669 35.597 14.8669 36.409C14.8669 37.1463 14.7409 37.795 14.4889 38.355C14.2416 38.915 13.8729 39.3537 13.3829 39.671C12.8976 39.9837 12.2956 40.14 11.5769 40.14ZM11.5769 39.118C12.0109 39.118 12.3772 39.0083 12.6759 38.789C12.9746 38.5697 13.2009 38.2547 13.3549 37.844C13.5089 37.4333 13.5859 36.9457 13.5859 36.381C13.5859 35.863 13.5182 35.3987 13.3829 34.988C13.2476 34.5727 13.0306 34.2437 12.7319 34.001C12.4379 33.7583 12.0529 33.637 11.5769 33.637C11.1382 33.637 10.7672 33.7467 10.4639 33.966C10.1606 34.1807 9.92957 34.4933 9.77091 34.904C9.61691 35.3147 9.53991 35.807 9.53991 36.381C9.53991 36.8897 9.60991 37.3517 9.74991 37.767C9.88991 38.1823 10.1092 38.5113 10.4079 38.754C10.7066 38.9967 11.0962 39.118 11.5769 39.118ZM19.1119 40.14C18.7339 40.1353 18.3769 40.0817 18.0409 39.979C17.7095 39.8717 17.4155 39.7153 17.1589 39.51C16.9022 39.3047 16.6992 39.0503 16.5499 38.747C16.4052 38.439 16.3329 38.082 16.3329 37.676V32.762H17.6279V37.543C17.6279 38.0143 17.7725 38.397 18.0619 38.691C18.3559 38.985 18.7969 39.132 19.3849 39.132C19.9169 39.132 20.3439 38.9943 20.6659 38.719C20.9925 38.439 21.1559 38.0237 21.1559 37.473V32.762H22.4439V40H21.4149L21.2819 38.614C21.1932 38.978 21.0415 39.272 20.8269 39.496C20.6169 39.72 20.3625 39.8857 20.0639 39.993C19.7699 40.0957 19.4525 40.1447 19.1119 40.14ZM30.3964 32.622C30.9144 32.622 31.3811 32.7223 31.7964 32.923C32.2117 33.119 32.5501 33.399 32.8114 33.763C33.0774 34.127 33.2431 34.5563 33.3084 35.051H32.1604C32.1184 34.799 32.0204 34.568 31.8664 34.358C31.7171 34.148 31.5187 33.98 31.2714 33.854C31.0241 33.728 30.7347 33.665 30.4034 33.665C29.7827 33.665 29.2787 33.889 28.8914 34.337C28.5041 34.785 28.3104 35.471 28.3104 36.395C28.3104 37.2303 28.4877 37.9 28.8424 38.404C29.2017 38.9033 29.7291 39.153 30.4244 39.153C30.7557 39.153 31.0427 39.09 31.2854 38.964C31.5327 38.8333 31.7311 38.663 31.8804 38.453C32.0297 38.2383 32.1254 38.0097 32.1674 37.767H33.2944C33.2337 38.2523 33.0704 38.6723 32.8044 39.027C32.5384 39.3817 32.1977 39.657 31.7824 39.853C31.3717 40.0443 30.9097 40.14 30.3964 40.14C29.7477 40.14 29.1714 39.9977 28.6674 39.713C28.1681 39.4283 27.7761 39.0083 27.4914 38.453C27.2067 37.8977 27.0644 37.2163 27.0644 36.409C27.0644 35.653 27.1927 34.9927 27.4494 34.428C27.7107 33.8587 28.0887 33.4153 28.5834 33.098C29.0827 32.7807 29.6871 32.622 30.3964 32.622ZM36.9793 40.14C36.5126 40.14 36.0996 40.0583 35.7403 39.895C35.3809 39.727 35.0986 39.4867 34.8933 39.174C34.6926 38.8613 34.5923 38.4833 34.5923 38.04C34.5923 37.2373 34.8723 36.64 35.4323 36.248C35.9923 35.856 36.8906 35.646 38.1273 35.618L39.4223 35.583V35.016C39.4223 34.5727 39.2893 34.2227 39.0233 33.966C38.7573 33.7047 38.3443 33.574 37.7843 33.574C37.3689 33.5787 37.0026 33.6767 36.6853 33.868C36.3726 34.0593 36.1696 34.372 36.0763 34.806H34.9352C34.9633 34.3347 35.0963 33.938 35.3343 33.616C35.5723 33.2893 35.9036 33.042 36.3283 32.874C36.7576 32.706 37.2639 32.622 37.8473 32.622C38.4773 32.622 38.9999 32.7107 39.4153 32.888C39.8353 33.0653 40.1479 33.3267 40.3533 33.672C40.5633 34.0173 40.6683 34.442 40.6683 34.946V40H39.5623L39.4713 38.642C39.1913 39.2067 38.8343 39.5987 38.4003 39.818C37.9709 40.0327 37.4973 40.14 36.9793 40.14ZM37.3713 39.209C37.6139 39.209 37.8543 39.1647 38.0923 39.076C38.3349 38.9873 38.5566 38.8683 38.7573 38.719C38.9579 38.565 39.1166 38.3947 39.2333 38.208C39.3546 38.0167 39.4176 37.8207 39.4223 37.62V36.381L38.3443 36.402C37.7936 36.4113 37.3316 36.4673 36.9583 36.57C36.5896 36.6727 36.3119 36.8337 36.1253 37.053C35.9433 37.2723 35.8523 37.5593 35.8523 37.914C35.8523 38.32 35.9923 38.6373 36.2723 38.866C36.5569 39.0947 36.9233 39.209 37.3713 39.209ZM42.8796 40V32.762H44.1326V33.812C44.2493 33.6113 44.4103 33.4223 44.6156 33.245C44.8256 33.0677 45.0776 32.9253 45.3716 32.818C45.6703 32.7107 46.0133 32.657 46.4006 32.657C46.8579 32.657 47.2779 32.748 47.6606 32.93C48.0479 33.112 48.3559 33.3967 48.5846 33.784C48.8179 34.1667 48.9346 34.6613 48.9346 35.268V40H47.6396V35.394C47.6396 34.8293 47.4903 34.4117 47.1916 34.141C46.8976 33.8657 46.5149 33.728 46.0436 33.728C45.7169 33.728 45.4113 33.7817 45.1266 33.889C44.8419 33.9917 44.6109 34.1503 44.4336 34.365C44.2563 34.575 44.1676 34.841 44.1676 35.163V40H42.8796ZM56.7552 40.14C56.2512 40.14 55.7822 40.063 55.3482 39.909C54.9189 39.7503 54.5619 39.5053 54.2772 39.174C53.9926 38.838 53.8129 38.411 53.7382 37.893H54.9142C54.9796 38.1777 55.0962 38.4157 55.2642 38.607C55.4369 38.7937 55.6516 38.936 55.9082 39.034C56.1649 39.1273 56.4449 39.174 56.7482 39.174C57.2336 39.174 57.6256 39.083 57.9242 38.901C58.2229 38.719 58.3722 38.439 58.3722 38.061C58.3722 37.795 58.2929 37.5827 58.1342 37.424C57.9802 37.2607 57.7399 37.1417 57.4132 37.067L55.9152 36.696C55.3319 36.556 54.8652 36.3367 54.5152 36.038C54.1652 35.7393 53.9902 35.3217 53.9902 34.785C53.9856 34.3603 54.0859 33.987 54.2912 33.665C54.4966 33.343 54.8046 33.0887 55.2152 32.902C55.6259 32.7153 56.1369 32.622 56.7482 32.622C57.5322 32.622 58.1646 32.7993 58.6452 33.154C59.1306 33.504 59.3826 34.0197 59.4012 34.701H58.2602C58.2136 34.3557 58.0572 34.0827 57.7912 33.882C57.5299 33.6767 57.1776 33.574 56.7342 33.574C56.2722 33.574 55.8966 33.6673 55.6072 33.854C55.3179 34.036 55.1732 34.3207 55.1732 34.708C55.1732 34.9647 55.2759 35.1677 55.4812 35.317C55.6866 35.4617 55.9899 35.583 56.3912 35.681L57.8402 36.045C58.1762 36.1337 58.4516 36.2503 58.6662 36.395C58.8856 36.5397 59.0582 36.7007 59.1842 36.878C59.3149 37.0553 59.4059 37.242 59.4572 37.438C59.5132 37.6293 59.5412 37.8137 59.5412 37.991C59.5412 38.4343 59.4292 38.817 59.2052 39.139C58.9859 39.4563 58.6686 39.7037 58.2532 39.881C57.8426 40.0537 57.3432 40.14 56.7552 40.14ZM62.2743 36.682C62.2743 37.1393 62.349 37.5547 62.4983 37.928C62.6523 38.2967 62.8833 38.5907 63.1913 38.81C63.504 39.0293 63.8936 39.139 64.3603 39.139C64.8223 39.139 65.219 39.0317 65.5503 38.817C65.8863 38.6023 66.101 38.292 66.1943 37.886H67.4193C67.3306 38.376 67.1346 38.789 66.8313 39.125C66.528 39.461 66.1616 39.7153 65.7323 39.888C65.303 40.056 64.855 40.14 64.3883 40.14C63.7116 40.14 63.1166 39.993 62.6033 39.699C62.09 39.405 61.6886 38.9827 61.3993 38.432C61.11 37.8813 60.9653 37.221 60.9653 36.451C60.9653 35.6903 61.096 35.023 61.3573 34.449C61.6186 33.875 61.9966 33.427 62.4913 33.105C62.9906 32.783 63.5903 32.622 64.2903 32.622C64.9716 32.622 65.548 32.769 66.0193 33.063C66.4906 33.357 66.8476 33.7723 67.0903 34.309C67.3376 34.841 67.4613 35.4733 67.4613 36.206V36.682H62.2743ZM62.2813 35.807H66.2153C66.2153 35.3917 66.1453 35.0183 66.0053 34.687C65.8653 34.351 65.6506 34.0873 65.3613 33.896C65.0766 33.7 64.7173 33.602 64.2833 33.602C63.8306 33.602 63.455 33.7117 63.1563 33.931C62.8623 34.1457 62.6406 34.4233 62.4913 34.764C62.3466 35.1 62.2766 35.4477 62.2813 35.807ZM69.239 40V32.762H70.492V33.812C70.6086 33.6113 70.7696 33.4223 70.975 33.245C71.185 33.0677 71.437 32.9253 71.731 32.818C72.0296 32.7107 72.3726 32.657 72.76 32.657C73.2173 32.657 73.6373 32.748 74.02 32.93C74.4073 33.112 74.7153 33.3967 74.944 33.784C75.1773 34.1667 75.294 34.6613 75.294 35.268V40H73.999V35.394C73.999 34.8293 73.8496 34.4117 73.551 34.141C73.257 33.8657 72.8743 33.728 72.403 33.728C72.0763 33.728 71.7706 33.7817 71.486 33.889C71.2013 33.9917 70.9703 34.1503 70.793 34.365C70.6156 34.575 70.527 34.841 70.527 35.163V40H69.239ZM79.93 40.14C78.992 40.14 78.2477 39.818 77.697 39.174C77.1464 38.53 76.871 37.5897 76.871 36.353C76.871 35.6017 76.9807 34.946 77.2 34.386C77.424 33.826 77.7554 33.392 78.194 33.084C78.6327 32.776 79.1787 32.622 79.832 32.622C80.1774 32.622 80.483 32.6663 80.749 32.755C81.0197 32.8437 81.253 32.9557 81.449 33.091C81.645 33.2263 81.8037 33.3663 81.925 33.511C82.051 33.6557 82.1444 33.7887 82.205 33.91V29.598H83.507V40H82.52L82.38 38.516C82.3334 38.656 82.2587 38.8193 82.156 39.006C82.0534 39.188 81.9087 39.3677 81.722 39.545C81.5354 39.7177 81.295 39.86 81.001 39.972C80.7117 40.084 80.3547 40.14 79.93 40.14ZM80.161 39.146C80.8937 39.146 81.4164 38.9243 81.729 38.481C82.0464 38.033 82.205 37.3027 82.205 36.29C82.2004 35.7253 82.128 35.2447 81.988 34.848C81.8527 34.4513 81.638 34.1503 81.344 33.945C81.0547 33.735 80.6697 33.63 80.189 33.63C79.5917 33.63 79.1064 33.8423 78.733 34.267C78.3597 34.6917 78.173 35.366 78.173 36.29C78.173 37.1953 78.341 37.8977 78.677 38.397C79.0177 38.8963 79.5124 39.146 80.161 39.146ZM89.5038 42.31C89.0791 42.31 88.7874 42.2797 88.6288 42.219C88.4701 42.1583 88.3908 42.128 88.3908 42.128V41.288L89.1258 41.302C89.3964 41.3113 89.6204 41.2927 89.7978 41.246C89.9751 41.1993 90.1174 41.1363 90.2248 41.057C90.3321 40.9777 90.4138 40.889 90.4698 40.791C90.5304 40.693 90.5794 40.5997 90.6168 40.511L90.8688 39.825L88.0408 32.762H89.3498L91.4848 38.348L93.6058 32.762H94.8728L91.8208 40.546C91.6341 41.0033 91.4241 41.3603 91.1908 41.617C90.9621 41.8737 90.7054 42.0533 90.4208 42.156C90.1408 42.2587 89.8351 42.31 89.5038 42.31ZM98.8718 40.14C98.2045 40.14 97.6212 39.9977 97.1218 39.713C96.6225 39.4237 96.2352 39.0013 95.9598 38.446C95.6845 37.8907 95.5468 37.2117 95.5468 36.409C95.5468 35.653 95.6752 34.9903 95.9318 34.421C96.1885 33.8517 96.5642 33.4107 97.0588 33.098C97.5582 32.7807 98.1625 32.622 98.8718 32.622C99.5392 32.622 100.118 32.769 100.608 33.063C101.102 33.3523 101.485 33.7793 101.756 34.344C102.026 34.9087 102.162 35.597 102.162 36.409C102.162 37.1463 102.036 37.795 101.784 38.355C101.536 38.915 101.168 39.3537 100.678 39.671C100.192 39.9837 99.5905 40.14 98.8718 40.14ZM98.8718 39.118C99.3058 39.118 99.6722 39.0083 99.9708 38.789C100.269 38.5697 100.496 38.2547 100.65 37.844C100.804 37.4333 100.881 36.9457 100.881 36.381C100.881 35.863 100.813 35.3987 100.678 34.988C100.542 34.5727 100.325 34.2437 100.027 34.001C99.7328 33.7583 99.3478 33.637 98.8718 33.637C98.4332 33.637 98.0622 33.7467 97.7588 33.966C97.4555 34.1807 97.2245 34.4933 97.0658 34.904C96.9118 35.3147 96.8348 35.807 96.8348 36.381C96.8348 36.8897 96.9048 37.3517 97.0448 37.767C97.1848 38.1823 97.4042 38.5113 97.7028 38.754C98.0015 38.9967 98.3912 39.118 98.8718 39.118ZM106.407 40.14C106.029 40.1353 105.672 40.0817 105.336 39.979C105.004 39.8717 104.71 39.7153 104.454 39.51C104.197 39.3047 103.994 39.0503 103.845 38.747C103.7 38.439 103.628 38.082 103.628 37.676V32.762H104.923V37.543C104.923 38.0143 105.067 38.397 105.357 38.691C105.651 38.985 106.092 39.132 106.68 39.132C107.212 39.132 107.639 38.9943 107.961 38.719C108.287 38.439 108.451 38.0237 108.451 37.473V32.762H109.739V40H108.71L108.577 38.614C108.488 38.978 108.336 39.272 108.122 39.496C107.912 39.72 107.657 39.8857 107.359 39.993C107.065 40.0957 106.747 40.1447 106.407 40.14ZM111.841 40V32.762H113.073V34.155C113.194 33.8097 113.364 33.525 113.584 33.301C113.803 33.0723 114.053 32.902 114.333 32.79C114.617 32.678 114.911 32.622 115.215 32.622C115.322 32.622 115.427 32.629 115.53 32.643C115.632 32.657 115.712 32.6803 115.768 32.713V33.966C115.698 33.9333 115.607 33.9123 115.495 33.903C115.387 33.889 115.296 33.882 115.222 33.882C114.932 33.8633 114.662 33.882 114.41 33.938C114.158 33.9893 113.936 34.0803 113.745 34.211C113.553 34.3417 113.402 34.5143 113.29 34.729C113.182 34.939 113.129 35.1957 113.129 35.499V40H111.841ZM120.495 40V32.762H121.741V33.812C121.941 33.4947 122.217 33.217 122.567 32.979C122.917 32.741 123.372 32.622 123.932 32.622C124.193 32.622 124.459 32.6663 124.73 32.755C125.005 32.8437 125.257 32.9767 125.486 33.154C125.714 33.3313 125.892 33.5483 126.018 33.805C126.242 33.4503 126.545 33.1657 126.928 32.951C127.31 32.7317 127.742 32.622 128.223 32.622C128.475 32.622 128.738 32.6617 129.014 32.741C129.289 32.8157 129.543 32.951 129.777 33.147C130.015 33.3383 130.208 33.6067 130.358 33.952C130.507 34.2927 130.582 34.7313 130.582 35.268V40H129.28V35.394C129.28 34.9553 129.21 34.617 129.07 34.379C128.93 34.1363 128.745 33.966 128.517 33.868C128.293 33.77 128.052 33.721 127.796 33.721C127.572 33.721 127.334 33.7653 127.082 33.854C126.83 33.9427 126.615 34.092 126.438 34.302C126.26 34.512 126.172 34.799 126.172 35.163V40H124.884V35.016C124.884 34.7313 124.807 34.4933 124.653 34.302C124.503 34.1107 124.314 33.966 124.086 33.868C123.862 33.77 123.638 33.721 123.414 33.721C123.166 33.721 122.917 33.77 122.665 33.868C122.417 33.966 122.207 34.1223 122.035 34.337C121.867 34.547 121.783 34.8223 121.783 35.163V40H120.495ZM134.583 40.14C134.116 40.14 133.703 40.0583 133.344 39.895C132.984 39.727 132.702 39.4867 132.497 39.174C132.296 38.8613 132.196 38.4833 132.196 38.04C132.196 37.2373 132.476 36.64 133.036 36.248C133.596 35.856 134.494 35.646 135.731 35.618L137.026 35.583V35.016C137.026 34.5727 136.893 34.2227 136.627 33.966C136.361 33.7047 135.948 33.574 135.388 33.574C134.972 33.5787 134.606 33.6767 134.289 33.868C133.976 34.0593 133.773 34.372 133.68 34.806H132.539C132.567 34.3347 132.7 33.938 132.938 33.616C133.176 33.2893 133.507 33.042 133.932 32.874C134.361 32.706 134.867 32.622 135.451 32.622C136.081 32.622 136.603 32.7107 137.019 32.888C137.439 33.0653 137.751 33.3267 137.957 33.672C138.167 34.0173 138.272 34.442 138.272 34.946V40H137.166L137.075 38.642C136.795 39.2067 136.438 39.5987 136.004 39.818C135.574 40.0327 135.101 40.14 134.583 40.14ZM134.975 39.209C135.217 39.209 135.458 39.1647 135.696 39.076C135.938 38.9873 136.16 38.8683 136.361 38.719C136.561 38.565 136.72 38.3947 136.837 38.208C136.958 38.0167 137.021 37.8207 137.026 37.62V36.381L135.948 36.402C135.397 36.4113 134.935 36.4673 134.562 36.57C134.193 36.6727 133.915 36.8337 133.729 37.053C133.547 37.2723 133.456 37.5593 133.456 37.914C133.456 38.32 133.596 38.6373 133.876 38.866C134.16 39.0947 134.527 39.209 134.975 39.209ZM140.483 40V32.762H141.715V34.155C141.836 33.8097 142.007 33.525 142.226 33.301C142.445 33.0723 142.695 32.902 142.975 32.79C143.26 32.678 143.554 32.622 143.857 32.622C143.964 32.622 144.069 32.629 144.172 32.643C144.275 32.657 144.354 32.6803 144.41 32.713V33.966C144.34 33.9333 144.249 33.9123 144.137 33.903C144.03 33.889 143.939 33.882 143.864 33.882C143.575 33.8633 143.304 33.882 143.052 33.938C142.8 33.9893 142.578 34.0803 142.387 34.211C142.196 34.3417 142.044 34.5143 141.932 34.729C141.825 34.939 141.771 35.1957 141.771 35.499V40H140.483ZM152.267 40H150.895L148.627 36.367L147.199 37.844V40H145.911V29.598H147.199V36.381L150.601 32.762H152.085L149.474 35.52L152.267 40ZM154.409 36.682C154.409 37.1393 154.484 37.5547 154.633 37.928C154.787 38.2967 155.018 38.5907 155.326 38.81C155.639 39.0293 156.028 39.139 156.495 39.139C156.957 39.139 157.354 39.0317 157.685 38.817C158.021 38.6023 158.236 38.292 158.329 37.886H159.554C159.465 38.376 159.269 38.789 158.966 39.125C158.663 39.461 158.296 39.7153 157.867 39.888C157.438 40.056 156.99 40.14 156.523 40.14C155.846 40.14 155.251 39.993 154.738 39.699C154.225 39.405 153.823 38.9827 153.534 38.432C153.245 37.8813 153.1 37.221 153.1 36.451C153.1 35.6903 153.231 35.023 153.492 34.449C153.753 33.875 154.131 33.427 154.626 33.105C155.125 32.783 155.725 32.622 156.425 32.622C157.106 32.622 157.683 32.769 158.154 33.063C158.625 33.357 158.982 33.7723 159.225 34.309C159.472 34.841 159.596 35.4733 159.596 36.206V36.682H154.409ZM154.416 35.807H158.35C158.35 35.3917 158.28 35.0183 158.14 34.687C158 34.351 157.785 34.0873 157.496 33.896C157.211 33.7 156.852 33.602 156.418 33.602C155.965 33.602 155.59 33.7117 155.291 33.931C154.997 34.1457 154.775 34.4233 154.626 34.764C154.481 35.1 154.411 35.4477 154.416 35.807ZM164.819 33.707H163.188V38.208C163.188 38.4647 163.213 38.6537 163.265 38.775C163.321 38.8917 163.412 38.9663 163.538 38.999C163.668 39.0317 163.846 39.048 164.07 39.048H164.861V39.916C164.772 39.9487 164.637 39.9767 164.455 40C164.277 40.0233 164.056 40.035 163.79 40.035C163.29 40.035 162.903 39.9673 162.628 39.832C162.352 39.6967 162.159 39.496 162.047 39.23C161.939 38.964 161.886 38.6373 161.886 38.25V33.707H160.71V32.762H161.921L162.236 30.655H163.188V32.755H164.819V33.707ZM168.078 32.762V40H166.825V32.762H168.078ZM168.106 29.885V31.229H166.783V29.885H168.106ZM170.438 40V32.762H171.691V33.812C171.808 33.6113 171.969 33.4223 172.174 33.245C172.384 33.0677 172.636 32.9253 172.93 32.818C173.229 32.7107 173.572 32.657 173.959 32.657C174.417 32.657 174.837 32.748 175.219 32.93C175.607 33.112 175.915 33.3967 176.143 33.784C176.377 34.1667 176.493 34.6613 176.493 35.268V40H175.198V35.394C175.198 34.8293 175.049 34.4117 174.75 34.141C174.456 33.8657 174.074 33.728 173.602 33.728C173.276 33.728 172.97 33.7817 172.685 33.889C172.401 33.9917 172.17 34.1503 171.992 34.365C171.815 34.575 171.726 34.841 171.726 35.163V40H170.438ZM181.57 42.394C180.432 42.394 179.545 42.2283 178.91 41.897C178.28 41.5703 177.965 41.1013 177.965 40.49C177.965 40.2287 178.026 40.007 178.147 39.825C178.269 39.6383 178.413 39.4843 178.581 39.363C178.749 39.2417 178.906 39.146 179.05 39.076C179.195 39.0013 179.288 38.9477 179.33 38.915C179.251 38.8683 179.151 38.81 179.029 38.74C178.913 38.67 178.81 38.5767 178.721 38.46C178.633 38.3433 178.588 38.1917 178.588 38.005C178.588 37.7763 178.696 37.5663 178.91 37.375C179.125 37.1837 179.442 37.0413 179.862 36.948C179.438 36.7333 179.106 36.4487 178.868 36.094C178.63 35.7393 178.511 35.3543 178.511 34.939C178.511 34.4723 178.637 34.0663 178.889 33.721C179.146 33.3757 179.51 33.112 179.981 32.93C180.453 32.7433 181.013 32.65 181.661 32.65C182.133 32.65 182.529 32.706 182.851 32.818C183.173 32.9253 183.472 33.0793 183.747 33.28C183.822 33.2473 183.939 33.1983 184.097 33.133C184.261 33.063 184.44 32.9883 184.636 32.909C184.832 32.8297 185.014 32.755 185.182 32.685C185.355 32.6103 185.493 32.5543 185.595 32.517L185.588 33.714L184.321 33.952C184.391 34.1013 184.447 34.2647 184.489 34.442C184.536 34.6193 184.559 34.785 184.559 34.939C184.559 35.3637 184.447 35.7487 184.223 36.094C184.004 36.4393 183.67 36.7147 183.222 36.92C182.774 37.1253 182.214 37.228 181.542 37.228C181.486 37.228 181.414 37.228 181.325 37.228C181.241 37.2233 181.169 37.2187 181.108 37.214C180.614 37.228 180.273 37.284 180.086 37.382C179.9 37.4753 179.806 37.5803 179.806 37.697C179.806 37.8323 179.911 37.9257 180.121 37.977C180.331 38.0283 180.688 38.0727 181.192 38.11C181.374 38.1193 181.598 38.131 181.864 38.145C182.135 38.159 182.434 38.1777 182.76 38.201C183.521 38.2477 184.107 38.4413 184.517 38.782C184.928 39.1227 185.133 39.5823 185.133 40.161C185.133 40.819 184.839 41.3557 184.251 41.771C183.663 42.1863 182.77 42.394 181.57 42.394ZM181.801 41.561C182.469 41.561 182.98 41.4607 183.334 41.26C183.689 41.0593 183.866 40.756 183.866 40.35C183.866 40.0607 183.757 39.825 183.537 39.643C183.323 39.4563 182.994 39.349 182.55 39.321L180.52 39.188C180.338 39.1787 180.149 39.2253 179.953 39.328C179.757 39.426 179.589 39.5637 179.449 39.741C179.314 39.9183 179.246 40.119 179.246 40.343C179.246 40.7257 179.454 41.0243 179.869 41.239C180.289 41.4537 180.933 41.561 181.801 41.561ZM181.577 36.395C182.1 36.395 182.52 36.2737 182.837 36.031C183.159 35.7883 183.32 35.429 183.32 34.953C183.32 34.463 183.159 34.0897 182.837 33.833C182.52 33.5763 182.1 33.448 181.577 33.448C181.05 33.448 180.623 33.5787 180.296 33.84C179.974 34.0967 179.813 34.4677 179.813 34.953C179.813 35.4103 179.967 35.765 180.275 36.017C180.583 36.269 181.017 36.395 181.577 36.395ZM191.186 36.682C191.186 37.1393 191.261 37.5547 191.41 37.928C191.564 38.2967 191.795 38.5907 192.103 38.81C192.416 39.0293 192.806 39.139 193.272 39.139C193.734 39.139 194.131 39.0317 194.462 38.817C194.798 38.6023 195.013 38.292 195.106 37.886H196.331C196.243 38.376 196.047 38.789 195.743 39.125C195.44 39.461 195.074 39.7153 194.644 39.888C194.215 40.056 193.767 40.14 193.3 40.14C192.624 40.14 192.029 39.993 191.515 39.699C191.002 39.405 190.601 38.9827 190.311 38.432C190.022 37.8813 189.877 37.221 189.877 36.451C189.877 35.6903 190.008 35.023 190.269 34.449C190.531 33.875 190.909 33.427 191.403 33.105C191.903 32.783 192.502 32.622 193.202 32.622C193.884 32.622 194.46 32.769 194.931 33.063C195.403 33.357 195.76 33.7723 196.002 34.309C196.25 34.841 196.373 35.4733 196.373 36.206V36.682H191.186ZM191.193 35.807H195.127C195.127 35.3917 195.057 35.0183 194.917 34.687C194.777 34.351 194.563 34.0873 194.273 33.896C193.989 33.7 193.629 33.602 193.195 33.602C192.743 33.602 192.367 33.7117 192.068 33.931C191.774 34.1457 191.553 34.4233 191.403 34.764C191.259 35.1 191.189 35.4477 191.193 35.807ZM198.151 40V32.762H199.397V33.812C199.598 33.4947 199.873 33.217 200.223 32.979C200.573 32.741 201.028 32.622 201.588 32.622C201.849 32.622 202.115 32.6663 202.386 32.755C202.661 32.8437 202.913 32.9767 203.142 33.154C203.371 33.3313 203.548 33.5483 203.674 33.805C203.898 33.4503 204.201 33.1657 204.584 32.951C204.967 32.7317 205.398 32.622 205.879 32.622C206.131 32.622 206.395 32.6617 206.67 32.741C206.945 32.8157 207.2 32.951 207.433 33.147C207.671 33.3383 207.865 33.6067 208.014 33.952C208.163 34.2927 208.238 34.7313 208.238 35.268V40H206.936V35.394C206.936 34.9553 206.866 34.617 206.726 34.379C206.586 34.1363 206.402 33.966 206.173 33.868C205.949 33.77 205.709 33.721 205.452 33.721C205.228 33.721 204.99 33.7653 204.738 33.854C204.486 33.9427 204.271 34.092 204.094 34.302C203.917 34.512 203.828 34.799 203.828 35.163V40H202.54V35.016C202.54 34.7313 202.463 34.4933 202.309 34.302C202.16 34.1107 201.971 33.966 201.742 33.868C201.518 33.77 201.294 33.721 201.07 33.721C200.823 33.721 200.573 33.77 200.321 33.868C200.074 33.966 199.864 34.1223 199.691 34.337C199.523 34.547 199.439 34.8223 199.439 35.163V40H198.151ZM212.239 40.14C211.772 40.14 211.359 40.0583 211 39.895C210.641 39.727 210.358 39.4867 210.153 39.174C209.952 38.8613 209.852 38.4833 209.852 38.04C209.852 37.2373 210.132 36.64 210.692 36.248C211.252 35.856 212.15 35.646 213.387 35.618L214.682 35.583V35.016C214.682 34.5727 214.549 34.2227 214.283 33.966C214.017 33.7047 213.604 33.574 213.044 33.574C212.629 33.5787 212.262 33.6767 211.945 33.868C211.632 34.0593 211.429 34.372 211.336 34.806H210.195C210.223 34.3347 210.356 33.938 210.594 33.616C210.832 33.2893 211.163 33.042 211.588 32.874C212.017 32.706 212.524 32.622 213.107 32.622C213.737 32.622 214.26 32.7107 214.675 32.888C215.095 33.0653 215.408 33.3267 215.613 33.672C215.823 34.0173 215.928 34.442 215.928 34.946V40H214.822L214.731 38.642C214.451 39.2067 214.094 39.5987 213.66 39.818C213.231 40.0327 212.757 40.14 212.239 40.14ZM212.631 39.209C212.874 39.209 213.114 39.1647 213.352 39.076C213.595 38.9873 213.816 38.8683 214.017 38.719C214.218 38.565 214.376 38.3947 214.493 38.208C214.614 38.0167 214.677 37.8207 214.682 37.62V36.381L213.604 36.402C213.053 36.4113 212.591 36.4673 212.218 36.57C211.849 36.6727 211.572 36.8337 211.385 37.053C211.203 37.2723 211.112 37.5593 211.112 37.914C211.112 38.32 211.252 38.6373 211.532 38.866C211.817 39.0947 212.183 39.209 212.631 39.209ZM219.539 32.762V40H218.286V32.762H219.539ZM219.567 29.885V31.229H218.244V29.885H219.567ZM223.726 40.091C223.334 40.091 223.017 40.0373 222.774 39.93C222.536 39.8227 222.352 39.678 222.221 39.496C222.095 39.314 222.009 39.1063 221.962 38.873C221.92 38.635 221.899 38.39 221.899 38.138V29.598H223.173V38.012C223.173 38.376 223.243 38.649 223.383 38.831C223.528 39.013 223.728 39.1133 223.985 39.132L224.377 39.139V39.979C224.27 40.0117 224.158 40.0373 224.041 40.056C223.924 40.0793 223.819 40.091 223.726 40.091ZM228.433 40.14C227.929 40.14 227.46 40.063 227.026 39.909C226.597 39.7503 226.24 39.5053 225.955 39.174C225.67 38.838 225.491 38.411 225.416 37.893H226.592C226.657 38.1777 226.774 38.4157 226.942 38.607C227.115 38.7937 227.329 38.936 227.586 39.034C227.843 39.1273 228.123 39.174 228.426 39.174C228.911 39.174 229.303 39.083 229.602 38.901C229.901 38.719 230.05 38.439 230.05 38.061C230.05 37.795 229.971 37.5827 229.812 37.424C229.658 37.2607 229.418 37.1417 229.091 37.067L227.593 36.696C227.01 36.556 226.543 36.3367 226.193 36.038C225.843 35.7393 225.668 35.3217 225.668 34.785C225.663 34.3603 225.764 33.987 225.969 33.665C226.174 33.343 226.482 33.0887 226.893 32.902C227.304 32.7153 227.815 32.622 228.426 32.622C229.21 32.622 229.842 32.7993 230.323 33.154C230.808 33.504 231.06 34.0197 231.079 34.701H229.938C229.891 34.3557 229.735 34.0827 229.469 33.882C229.208 33.6767 228.855 33.574 228.412 33.574C227.95 33.574 227.574 33.6673 227.285 33.854C226.996 34.036 226.851 34.3207 226.851 34.708C226.851 34.9647 226.954 35.1677 227.159 35.317C227.364 35.4617 227.668 35.583 228.069 35.681L229.518 36.045C229.854 36.1337 230.129 36.2503 230.344 36.395C230.563 36.5397 230.736 36.7007 230.862 36.878C230.993 37.0553 231.084 37.242 231.135 37.438C231.191 37.6293 231.219 37.8137 231.219 37.991C231.219 38.4343 231.107 38.817 230.883 39.139C230.664 39.4563 230.346 39.7037 229.931 39.881C229.52 40.0537 229.021 40.14 228.433 40.14ZM239.891 33.707H238.26V38.208C238.26 38.4647 238.286 38.6537 238.337 38.775C238.393 38.8917 238.484 38.9663 238.61 38.999C238.741 39.0317 238.918 39.048 239.142 39.048H239.933V39.916C239.844 39.9487 239.709 39.9767 239.527 40C239.35 40.0233 239.128 40.035 238.862 40.035C238.363 40.035 237.975 39.9673 237.7 39.832C237.425 39.6967 237.231 39.496 237.119 39.23C237.012 38.964 236.958 38.6373 236.958 38.25V33.707H235.782V32.762H236.993L237.308 30.655H238.26V32.755H239.891V33.707ZM241.751 40V29.598H243.011V33.826C243.132 33.6253 243.295 33.4387 243.501 33.266C243.706 33.0887 243.956 32.9463 244.25 32.839C244.544 32.727 244.884 32.671 245.272 32.671C245.743 32.671 246.17 32.7597 246.553 32.937C246.935 33.1097 247.239 33.357 247.463 33.679C247.687 34.001 247.799 34.3837 247.799 34.827V40H246.504V35.086C246.504 34.652 246.354 34.3183 246.056 34.085C245.762 33.847 245.377 33.728 244.901 33.728C244.579 33.728 244.275 33.7817 243.991 33.889C243.706 33.9917 243.475 34.1503 243.298 34.365C243.125 34.575 243.039 34.8433 243.039 35.17V40H241.751ZM249.817 40V32.762H251.049V34.155C251.17 33.8097 251.341 33.525 251.56 33.301C251.779 33.0723 252.029 32.902 252.309 32.79C252.594 32.678 252.888 32.622 253.191 32.622C253.298 32.622 253.403 32.629 253.506 32.643C253.609 32.657 253.688 32.6803 253.744 32.713V33.966C253.674 33.9333 253.583 33.9123 253.471 33.903C253.364 33.889 253.273 33.882 253.198 33.882C252.909 33.8633 252.638 33.882 252.386 33.938C252.134 33.9893 251.912 34.0803 251.721 34.211C251.53 34.3417 251.378 34.5143 251.266 34.729C251.159 34.939 251.105 35.1957 251.105 35.499V40H249.817ZM257.971 40.14C257.304 40.14 256.721 39.9977 256.221 39.713C255.722 39.4237 255.335 39.0013 255.059 38.446C254.784 37.8907 254.646 37.2117 254.646 36.409C254.646 35.653 254.775 34.9903 255.031 34.421C255.288 33.8517 255.664 33.4107 256.158 33.098C256.658 32.7807 257.262 32.622 257.971 32.622C258.639 32.622 259.217 32.769 259.707 33.063C260.202 33.3523 260.585 33.7793 260.855 34.344C261.126 34.9087 261.261 35.597 261.261 36.409C261.261 37.1463 261.135 37.795 260.883 38.355C260.636 38.915 260.267 39.3537 259.777 39.671C259.292 39.9837 258.69 40.14 257.971 40.14ZM257.971 39.118C258.405 39.118 258.772 39.0083 259.07 38.789C259.369 38.5697 259.595 38.2547 259.749 37.844C259.903 37.4333 259.98 36.9457 259.98 36.381C259.98 35.863 259.913 35.3987 259.777 34.988C259.642 34.5727 259.425 34.2437 259.126 34.001C258.832 33.7583 258.447 33.637 257.971 33.637C257.533 33.637 257.162 33.7467 256.858 33.966C256.555 34.1807 256.324 34.4933 256.165 34.904C256.011 35.3147 255.934 35.807 255.934 36.381C255.934 36.8897 256.004 37.3517 256.144 37.767C256.284 38.1823 256.504 38.5113 256.802 38.754C257.101 38.9967 257.491 39.118 257.971 39.118ZM265.506 40.14C265.128 40.1353 264.771 40.0817 264.435 39.979C264.104 39.8717 263.81 39.7153 263.553 39.51C263.297 39.3047 263.094 39.0503 262.944 38.747C262.8 38.439 262.727 38.082 262.727 37.676V32.762H264.022V37.543C264.022 38.0143 264.167 38.397 264.456 38.691C264.75 38.985 265.191 39.132 265.779 39.132C266.311 39.132 266.738 38.9943 267.06 38.719C267.387 38.439 267.55 38.0237 267.55 37.473V32.762H268.838V40H267.809L267.676 38.614C267.588 38.978 267.436 39.272 267.221 39.496C267.011 39.72 266.757 39.8857 266.458 39.993C266.164 40.0957 265.847 40.1447 265.506 40.14ZM273.883 42.394C272.744 42.394 271.857 42.2283 271.223 41.897C270.593 41.5703 270.278 41.1013 270.278 40.49C270.278 40.2287 270.338 40.007 270.46 39.825C270.581 39.6383 270.726 39.4843 270.894 39.363C271.062 39.2417 271.218 39.146 271.363 39.076C271.507 39.0013 271.601 38.9477 271.643 38.915C271.563 38.8683 271.463 38.81 271.342 38.74C271.225 38.67 271.122 38.5767 271.034 38.46C270.945 38.3433 270.901 38.1917 270.901 38.005C270.901 37.7763 271.008 37.5663 271.223 37.375C271.437 37.1837 271.755 37.0413 272.175 36.948C271.75 36.7333 271.419 36.4487 271.181 36.094C270.943 35.7393 270.824 35.3543 270.824 34.939C270.824 34.4723 270.95 34.0663 271.202 33.721C271.458 33.3757 271.822 33.112 272.294 32.93C272.765 32.7433 273.325 32.65 273.974 32.65C274.445 32.65 274.842 32.706 275.164 32.818C275.486 32.9253 275.784 33.0793 276.06 33.28C276.134 33.2473 276.251 33.1983 276.41 33.133C276.573 33.063 276.753 32.9883 276.949 32.909C277.145 32.8297 277.327 32.755 277.495 32.685C277.667 32.6103 277.805 32.5543 277.908 32.517L277.901 33.714L276.634 33.952C276.704 34.1013 276.76 34.2647 276.802 34.442C276.848 34.6193 276.872 34.785 276.872 34.939C276.872 35.3637 276.76 35.7487 276.536 36.094C276.316 36.4393 275.983 36.7147 275.535 36.92C275.087 37.1253 274.527 37.228 273.855 37.228C273.799 37.228 273.726 37.228 273.638 37.228C273.554 37.2233 273.481 37.2187 273.421 37.214C272.926 37.228 272.585 37.284 272.399 37.382C272.212 37.4753 272.119 37.5803 272.119 37.697C272.119 37.8323 272.224 37.9257 272.434 37.977C272.644 38.0283 273.001 38.0727 273.505 38.11C273.687 38.1193 273.911 38.131 274.177 38.145C274.447 38.159 274.746 38.1777 275.073 38.201C275.833 38.2477 276.419 38.4413 276.83 38.782C277.24 39.1227 277.446 39.5823 277.446 40.161C277.446 40.819 277.152 41.3557 276.564 41.771C275.976 42.1863 275.082 42.394 273.883 42.394ZM274.114 41.561C274.781 41.561 275.292 41.4607 275.647 41.26C276.001 41.0593 276.179 40.756 276.179 40.35C276.179 40.0607 276.069 39.825 275.85 39.643C275.635 39.4563 275.306 39.349 274.863 39.321L272.833 39.188C272.651 39.1787 272.462 39.2253 272.266 39.328C272.07 39.426 271.902 39.5637 271.762 39.741C271.626 39.9183 271.559 40.119 271.559 40.343C271.559 40.7257 271.766 41.0243 272.182 41.239C272.602 41.4537 273.246 41.561 274.114 41.561ZM273.89 36.395C274.412 36.395 274.832 36.2737 275.15 36.031C275.472 35.7883 275.633 35.429 275.633 34.953C275.633 34.463 275.472 34.0897 275.15 33.833C274.832 33.5763 274.412 33.448 273.89 33.448C273.362 33.448 272.935 33.5787 272.609 33.84C272.287 34.0967 272.126 34.4677 272.126 34.953C272.126 35.4103 272.28 35.765 272.588 36.017C272.896 36.269 273.33 36.395 273.89 36.395ZM279.526 40V29.598H280.786V33.826C280.907 33.6253 281.071 33.4387 281.276 33.266C281.481 33.0887 281.731 32.9463 282.025 32.839C282.319 32.727 282.66 32.671 283.047 32.671C283.518 32.671 283.945 32.7597 284.328 32.937C284.711 33.1097 285.014 33.357 285.238 33.679C285.462 34.001 285.574 34.3837 285.574 34.827V40H284.279V35.086C284.279 34.652 284.13 34.3183 283.831 34.085C283.537 33.847 283.152 33.728 282.676 33.728C282.354 33.728 282.051 33.7817 281.766 33.889C281.481 33.9917 281.25 34.1503 281.073 34.365C280.9 34.575 280.814 34.8433 280.814 35.17V40H279.526ZM291.451 42.31C291.026 42.31 290.735 42.2797 290.576 42.219C290.417 42.1583 290.338 42.128 290.338 42.128V41.288L291.073 41.302C291.344 41.3113 291.568 41.2927 291.745 41.246C291.922 41.1993 292.065 41.1363 292.172 41.057C292.279 40.9777 292.361 40.889 292.417 40.791C292.478 40.693 292.527 40.5997 292.564 40.511L292.816 39.825L289.988 32.762H291.297L293.432 38.348L295.553 32.762H296.82L293.768 40.546C293.581 41.0033 293.371 41.3603 293.138 41.617C292.909 41.8737 292.653 42.0533 292.368 42.156C292.088 42.2587 291.782 42.31 291.451 42.31ZM300.819 40.14C300.152 40.14 299.568 39.9977 299.069 39.713C298.57 39.4237 298.182 39.0013 297.907 38.446C297.632 37.8907 297.494 37.2117 297.494 36.409C297.494 35.653 297.622 34.9903 297.879 34.421C298.136 33.8517 298.511 33.4107 299.006 33.098C299.505 32.7807 300.11 32.622 300.819 32.622C301.486 32.622 302.065 32.769 302.555 33.063C303.05 33.3523 303.432 33.7793 303.703 34.344C303.974 34.9087 304.109 35.597 304.109 36.409C304.109 37.1463 303.983 37.795 303.731 38.355C303.484 38.915 303.115 39.3537 302.625 39.671C302.14 39.9837 301.538 40.14 300.819 40.14ZM300.819 39.118C301.253 39.118 301.619 39.0083 301.918 38.789C302.217 38.5697 302.443 38.2547 302.597 37.844C302.751 37.4333 302.828 36.9457 302.828 36.381C302.828 35.863 302.76 35.3987 302.625 34.988C302.49 34.5727 302.273 34.2437 301.974 34.001C301.68 33.7583 301.295 33.637 300.819 33.637C300.38 33.637 300.009 33.7467 299.706 33.966C299.403 34.1807 299.172 34.4933 299.013 34.904C298.859 35.3147 298.782 35.807 298.782 36.381C298.782 36.8897 298.852 37.3517 298.992 37.767C299.132 38.1823 299.351 38.5113 299.65 38.754C299.949 38.9967 300.338 39.118 300.819 39.118ZM308.354 40.14C307.976 40.1353 307.619 40.0817 307.283 39.979C306.952 39.8717 306.658 39.7153 306.401 39.51C306.144 39.3047 305.941 39.0503 305.792 38.747C305.647 38.439 305.575 38.082 305.575 37.676V32.762H306.87V37.543C306.87 38.0143 307.015 38.397 307.304 38.691C307.598 38.985 308.039 39.132 308.627 39.132C309.159 39.132 309.586 38.9943 309.908 38.719C310.235 38.439 310.398 38.0237 310.398 37.473V32.762H311.686V40H310.657L310.524 38.614C310.435 38.978 310.284 39.272 310.069 39.496C309.859 39.72 309.605 39.8857 309.306 39.993C309.012 40.0957 308.695 40.1447 308.354 40.14ZM313.788 40V32.762H315.02V34.155C315.141 33.8097 315.311 33.525 315.531 33.301C315.75 33.0723 316 32.902 316.28 32.79C316.564 32.678 316.858 32.622 317.162 32.622C317.269 32.622 317.374 32.629 317.477 32.643C317.579 32.657 317.659 32.6803 317.715 32.713V33.966C317.645 33.9333 317.554 33.9123 317.442 33.903C317.334 33.889 317.243 33.882 317.169 33.882C316.879 33.8633 316.609 33.882 316.357 33.938C316.105 33.9893 315.883 34.0803 315.692 34.211C315.5 34.3417 315.349 34.5143 315.237 34.729C315.129 34.939 315.076 35.1957 315.076 35.499V40H313.788ZM325.141 40.14C324.474 40.14 323.891 39.9977 323.391 39.713C322.892 39.4237 322.505 39.0013 322.229 38.446C321.954 37.8907 321.816 37.2117 321.816 36.409C321.816 35.653 321.945 34.9903 322.201 34.421C322.458 33.8517 322.834 33.4107 323.328 33.098C323.828 32.7807 324.432 32.622 325.141 32.622C325.809 32.622 326.387 32.769 326.877 33.063C327.372 33.3523 327.755 33.7793 328.025 34.344C328.296 34.9087 328.431 35.597 328.431 36.409C328.431 37.1463 328.305 37.795 328.053 38.355C327.806 38.915 327.437 39.3537 326.947 39.671C326.462 39.9837 325.86 40.14 325.141 40.14ZM325.141 39.118C325.575 39.118 325.942 39.0083 326.24 38.789C326.539 38.5697 326.765 38.2547 326.919 37.844C327.073 37.4333 327.15 36.9457 327.15 36.381C327.15 35.863 327.083 35.3987 326.947 34.988C326.812 34.5727 326.595 34.2437 326.296 34.001C326.002 33.7583 325.617 33.637 325.141 33.637C324.703 33.637 324.332 33.7467 324.028 33.966C323.725 34.1807 323.494 34.4933 323.335 34.904C323.181 35.3147 323.104 35.807 323.104 36.381C323.104 36.8897 323.174 37.3517 323.314 37.767C323.454 38.1823 323.674 38.5113 323.972 38.754C324.271 38.9967 324.661 39.118 325.141 39.118ZM339.386 32.762L337.195 40H335.921L334.269 34.659L332.701 40H331.434L329.201 32.762H330.398L332.057 38.327H332.169L333.8 32.762H334.78L336.474 38.313H336.586L338.175 32.762H339.386ZM340.858 40V32.762H342.111V33.812C342.228 33.6113 342.389 33.4223 342.594 33.245C342.804 33.0677 343.056 32.9253 343.35 32.818C343.649 32.7107 343.992 32.657 344.379 32.657C344.836 32.657 345.256 32.748 345.639 32.93C346.026 33.112 346.334 33.3967 346.563 33.784C346.796 34.1667 346.913 34.6613 346.913 35.268V40H345.618V35.394C345.618 34.8293 345.469 34.4117 345.17 34.141C344.876 33.8657 344.493 33.728 344.022 33.728C343.695 33.728 343.39 33.7817 343.105 33.889C342.82 33.9917 342.589 34.1503 342.412 34.365C342.235 34.575 342.146 34.841 342.146 35.163V40H340.858ZM356.148 40.14C355.261 40.14 354.496 39.937 353.852 39.531C353.208 39.1203 352.713 38.53 352.368 37.76C352.022 36.99 351.85 36.059 351.85 34.967C351.85 33.8657 352.025 32.9253 352.375 32.146C352.729 31.3667 353.233 30.7717 353.887 30.361C354.54 29.9457 355.312 29.738 356.204 29.738C356.712 29.738 357.191 29.8267 357.639 30.004C358.087 30.1813 358.483 30.424 358.829 30.732C359.174 31.0353 359.449 31.383 359.655 31.775C359.865 32.167 359.984 32.5753 360.012 33H358.626C358.56 32.6267 358.416 32.279 358.192 31.957C357.968 31.635 357.683 31.376 357.338 31.18C356.997 30.984 356.612 30.886 356.183 30.886C355.599 30.886 355.086 31.0307 354.643 31.32C354.204 31.6047 353.861 32.0457 353.614 32.643C353.371 33.2403 353.25 34.0057 353.25 34.939C353.25 35.6577 353.324 36.2737 353.474 36.787C353.623 37.3003 353.831 37.718 354.097 38.04C354.367 38.3573 354.682 38.593 355.042 38.747C355.406 38.8963 355.798 38.971 356.218 38.971C356.642 38.971 357.011 38.8963 357.324 38.747C357.641 38.5977 357.905 38.4063 358.115 38.173C358.325 37.935 358.486 37.6807 358.598 37.41C358.714 37.1347 358.777 36.871 358.787 36.619L358.829 35.723H356.365V34.771L360.173 34.778V40H359.2V38.46C359.022 38.7493 358.798 39.0223 358.528 39.279C358.257 39.5357 357.926 39.7433 357.534 39.902C357.146 40.0607 356.684 40.14 356.148 40.14ZM362.432 40V32.762H363.678V33.812C363.879 33.4947 364.154 33.217 364.504 32.979C364.854 32.741 365.309 32.622 365.869 32.622C366.131 32.622 366.397 32.6663 366.667 32.755C366.943 32.8437 367.195 32.9767 367.423 33.154C367.652 33.3313 367.829 33.5483 367.955 33.805C368.179 33.4503 368.483 33.1657 368.865 32.951C369.248 32.7317 369.68 32.622 370.16 32.622C370.412 32.622 370.676 32.6617 370.951 32.741C371.227 32.8157 371.481 32.951 371.714 33.147C371.952 33.3383 372.146 33.6067 372.295 33.952C372.445 34.2927 372.519 34.7313 372.519 35.268V40H371.217V35.394C371.217 34.9553 371.147 34.617 371.007 34.379C370.867 34.1363 370.683 33.966 370.454 33.868C370.23 33.77 369.99 33.721 369.733 33.721C369.509 33.721 369.271 33.7653 369.019 33.854C368.767 33.9427 368.553 34.092 368.375 34.302C368.198 34.512 368.109 34.799 368.109 35.163V40H366.821V35.016C366.821 34.7313 366.744 34.4933 366.59 34.302C366.441 34.1107 366.252 33.966 366.023 33.868C365.799 33.77 365.575 33.721 365.351 33.721C365.104 33.721 364.854 33.77 364.602 33.868C364.355 33.966 364.145 34.1223 363.972 34.337C363.804 34.547 363.72 34.8223 363.72 35.163V40H362.432ZM376.52 40.14C376.054 40.14 375.641 40.0583 375.281 39.895C374.922 39.727 374.64 39.4867 374.434 39.174C374.234 38.8613 374.133 38.4833 374.133 38.04C374.133 37.2373 374.413 36.64 374.973 36.248C375.533 35.856 376.432 35.646 377.668 35.618L378.963 35.583V35.016C378.963 34.5727 378.83 34.2227 378.564 33.966C378.298 33.7047 377.885 33.574 377.325 33.574C376.91 33.5787 376.544 33.6767 376.226 33.868C375.914 34.0593 375.711 34.372 375.617 34.806H374.476C374.504 34.3347 374.637 33.938 374.875 33.616C375.113 33.2893 375.445 33.042 375.869 32.874C376.299 32.706 376.805 32.622 377.388 32.622C378.018 32.622 378.541 32.7107 378.956 32.888C379.376 33.0653 379.689 33.3267 379.894 33.672C380.104 34.0173 380.209 34.442 380.209 34.946V40H379.103L379.012 38.642C378.732 39.2067 378.375 39.5987 377.941 39.818C377.512 40.0327 377.038 40.14 376.52 40.14ZM376.912 39.209C377.155 39.209 377.395 39.1647 377.633 39.076C377.876 38.9873 378.098 38.8683 378.298 38.719C378.499 38.565 378.658 38.3947 378.774 38.208C378.896 38.0167 378.959 37.8207 378.963 37.62V36.381L377.885 36.402C377.335 36.4113 376.873 36.4673 376.499 36.57C376.131 36.6727 375.853 36.8337 375.666 37.053C375.484 37.2723 375.393 37.5593 375.393 37.914C375.393 38.32 375.533 38.6373 375.813 38.866C376.098 39.0947 376.464 39.209 376.912 39.209ZM383.821 32.762V40H382.568V32.762H383.821ZM383.849 29.885V31.229H382.526V29.885H383.849ZM388.007 40.091C387.615 40.091 387.298 40.0373 387.055 39.93C386.817 39.8227 386.633 39.678 386.502 39.496C386.376 39.314 386.29 39.1063 386.243 38.873C386.201 38.635 386.18 38.39 386.18 38.138V29.598H387.454V38.012C387.454 38.376 387.524 38.649 387.664 38.831C387.809 39.013 388.01 39.1133 388.266 39.132L388.658 39.139V39.979C388.551 40.0117 388.439 40.0373 388.322 40.056C388.206 40.0793 388.101 40.091 388.007 40.091ZM397.28 40.14C396.804 40.14 396.342 40.0817 395.894 39.965C395.446 39.8437 395.04 39.664 394.676 39.426C394.312 39.188 394.009 38.894 393.766 38.544C393.528 38.1893 393.379 37.7787 393.318 37.312H394.676C394.76 37.6947 394.926 38.0167 395.173 38.278C395.425 38.5393 395.731 38.7353 396.09 38.866C396.454 38.9967 396.848 39.062 397.273 39.062C397.749 39.062 398.174 38.9967 398.547 38.866C398.925 38.7307 399.221 38.5393 399.436 38.292C399.655 38.0447 399.765 37.7483 399.765 37.403C399.765 37.0997 399.695 36.836 399.555 36.612C399.42 36.388 399.221 36.2013 398.96 36.052C398.699 35.9027 398.381 35.786 398.008 35.702L396.02 35.24C395.273 35.0767 394.688 34.785 394.263 34.365C393.843 33.945 393.628 33.3897 393.619 32.699C393.619 32.1157 393.773 31.6023 394.081 31.159C394.394 30.7157 394.821 30.3703 395.362 30.123C395.908 29.8757 396.531 29.752 397.231 29.752C398.038 29.752 398.717 29.8897 399.268 30.165C399.819 30.4403 400.234 30.802 400.514 31.25C400.794 31.698 400.936 32.1763 400.941 32.685H399.604C399.562 32.2277 399.427 31.866 399.198 31.6C398.974 31.3293 398.692 31.138 398.351 31.026C398.01 30.9093 397.639 30.851 397.238 30.851C396.949 30.851 396.669 30.8883 396.398 30.963C396.132 31.033 395.892 31.1403 395.677 31.285C395.467 31.4297 395.299 31.6093 395.173 31.824C395.047 32.0387 394.984 32.2883 394.984 32.573C394.984 32.937 395.108 33.2333 395.355 33.462C395.607 33.6907 396.062 33.8867 396.72 34.05L398.645 34.512C399.149 34.6193 399.56 34.778 399.877 34.988C400.199 35.198 400.446 35.436 400.619 35.702C400.796 35.968 400.918 36.2457 400.983 36.535C401.053 36.8243 401.088 37.109 401.088 37.389C401.088 37.8977 400.936 38.362 400.633 38.782C400.33 39.1973 399.893 39.5287 399.324 39.776C398.759 40.0187 398.078 40.14 397.28 40.14ZM403.235 40V29.878H405.027L408.079 38.236L411.173 29.878H412.958V40H411.621V31.817L408.688 40H407.477L404.565 31.894V40H403.235ZM414.621 31.068V29.878H422.279V31.068H419.192V40H417.89V31.068H414.621ZM423.948 40V29.878H427.371C428.095 29.878 428.739 29.9993 429.303 30.242C429.868 30.4847 430.311 30.844 430.633 31.32C430.96 31.796 431.123 32.3817 431.123 33.077C431.123 33.749 430.972 34.323 430.668 34.799C430.37 35.275 429.952 35.6367 429.415 35.884C428.879 36.1313 428.256 36.255 427.546 36.255H425.278V40H423.948ZM425.271 35.163H427.518C428.214 35.163 428.778 34.9693 429.212 34.582C429.646 34.1947 429.863 33.6673 429.863 33C429.863 32.328 429.639 31.8193 429.191 31.474C428.743 31.1287 428.165 30.956 427.455 30.956H425.271V35.163ZM439.911 32.762V33.707H438.154V40H436.852V33.707H435.326V32.762H436.852V31.642C436.852 31.068 436.999 30.6317 437.293 30.333C437.587 30.0297 438.026 29.878 438.609 29.878H439.974L439.981 30.795H438.896C438.602 30.795 438.401 30.8743 438.294 31.033C438.187 31.1917 438.133 31.432 438.133 31.754V32.762H439.911ZM444.305 40.14C443.638 40.14 443.055 39.9977 442.555 39.713C442.056 39.4237 441.669 39.0013 441.393 38.446C441.118 37.8907 440.98 37.2117 440.98 36.409C440.98 35.653 441.109 34.9903 441.365 34.421C441.622 33.8517 441.998 33.4107 442.492 33.098C442.992 32.7807 443.596 32.622 444.305 32.622C444.973 32.622 445.551 32.769 446.041 33.063C446.536 33.3523 446.919 33.7793 447.189 34.344C447.46 34.9087 447.595 35.597 447.595 36.409C447.595 37.1463 447.469 37.795 447.217 38.355C446.97 38.915 446.601 39.3537 446.111 39.671C445.626 39.9837 445.024 40.14 444.305 40.14ZM444.305 39.118C444.739 39.118 445.106 39.0083 445.404 38.789C445.703 38.5697 445.929 38.2547 446.083 37.844C446.237 37.4333 446.314 36.9457 446.314 36.381C446.314 35.863 446.247 35.3987 446.111 34.988C445.976 34.5727 445.759 34.2437 445.46 34.001C445.166 33.7583 444.781 33.637 444.305 33.637C443.867 33.637 443.496 33.7467 443.192 33.966C442.889 34.1807 442.658 34.4933 442.499 34.904C442.345 35.3147 442.268 35.807 442.268 36.381C442.268 36.8897 442.338 37.3517 442.478 37.767C442.618 38.1823 442.838 38.5113 443.136 38.754C443.435 38.9967 443.825 39.118 444.305 39.118ZM449.29 40V32.762H450.522V34.155C450.643 33.8097 450.813 33.525 451.033 33.301C451.252 33.0723 451.502 32.902 451.782 32.79C452.066 32.678 452.36 32.622 452.664 32.622C452.771 32.622 452.876 32.629 452.979 32.643C453.081 32.657 453.161 32.6803 453.217 32.713V33.966C453.147 33.9333 453.056 33.9123 452.944 33.903C452.836 33.889 452.745 33.882 452.671 33.882C452.381 33.8633 452.111 33.882 451.859 33.938C451.607 33.9893 451.385 34.0803 451.194 34.211C451.002 34.3417 450.851 34.5143 450.739 34.729C450.631 34.939 450.578 35.1957 450.578 35.499V40H449.29ZM461.521 40.14C461.096 40.14 460.737 40.084 460.443 39.972C460.154 39.86 459.916 39.7177 459.729 39.545C459.542 39.3677 459.398 39.188 459.295 39.006C459.192 38.8193 459.118 38.656 459.071 38.516L458.931 40H457.944V29.598H459.246V33.91C459.307 33.7887 459.398 33.6557 459.519 33.511C459.645 33.3663 459.806 33.2263 460.002 33.091C460.198 32.9557 460.429 32.8437 460.695 32.755C460.966 32.6663 461.274 32.622 461.619 32.622C462.524 32.622 463.243 32.937 463.775 33.567C464.312 34.197 464.58 35.1257 464.58 36.353C464.58 37.1137 464.466 37.7787 464.237 38.348C464.008 38.9127 463.668 39.3537 463.215 39.671C462.762 39.9837 462.198 40.14 461.521 40.14ZM461.29 39.146C461.878 39.146 462.356 38.9197 462.725 38.467C463.094 38.0097 463.278 37.284 463.278 36.29C463.278 35.4453 463.105 34.792 462.76 34.33C462.419 33.8633 461.92 33.63 461.262 33.63C460.781 33.63 460.394 33.735 460.1 33.945C459.811 34.1503 459.596 34.4513 459.456 34.848C459.321 35.2447 459.251 35.7253 459.246 36.29C459.246 37.3027 459.402 38.033 459.715 38.481C460.032 38.9243 460.557 39.146 461.29 39.146ZM467.194 36.682C467.194 37.1393 467.269 37.5547 467.418 37.928C467.572 38.2967 467.803 38.5907 468.111 38.81C468.424 39.0293 468.814 39.139 469.28 39.139C469.742 39.139 470.139 39.0317 470.47 38.817C470.806 38.6023 471.021 38.292 471.114 37.886H472.339C472.251 38.376 472.055 38.789 471.751 39.125C471.448 39.461 471.082 39.7153 470.652 39.888C470.223 40.056 469.775 40.14 469.308 40.14C468.632 40.14 468.037 39.993 467.523 39.699C467.01 39.405 466.609 38.9827 466.319 38.432C466.03 37.8813 465.885 37.221 465.885 36.451C465.885 35.6903 466.016 35.023 466.277 34.449C466.539 33.875 466.917 33.427 467.411 33.105C467.911 32.783 468.51 32.622 469.21 32.622C469.892 32.622 470.468 32.769 470.939 33.063C471.411 33.357 471.768 33.7723 472.01 34.309C472.258 34.841 472.381 35.4733 472.381 36.206V36.682H467.194ZM467.201 35.807H471.135C471.135 35.3917 471.065 35.0183 470.925 34.687C470.785 34.351 470.571 34.0873 470.281 33.896C469.997 33.7 469.637 33.602 469.203 33.602C468.751 33.602 468.375 33.7117 468.076 33.931C467.782 34.1457 467.561 34.4233 467.411 34.764C467.267 35.1 467.197 35.4477 467.201 35.807ZM476.687 40.14C476.183 40.14 475.714 40.063 475.28 39.909C474.851 39.7503 474.494 39.5053 474.209 39.174C473.924 38.838 473.745 38.411 473.67 37.893H474.846C474.911 38.1777 475.028 38.4157 475.196 38.607C475.369 38.7937 475.583 38.936 475.84 39.034C476.097 39.1273 476.377 39.174 476.68 39.174C477.165 39.174 477.557 39.083 477.856 38.901C478.155 38.719 478.304 38.439 478.304 38.061C478.304 37.795 478.225 37.5827 478.066 37.424C477.912 37.2607 477.672 37.1417 477.345 37.067L475.847 36.696C475.264 36.556 474.797 36.3367 474.447 36.038C474.097 35.7393 473.922 35.3217 473.922 34.785C473.917 34.3603 474.018 33.987 474.223 33.665C474.428 33.343 474.736 33.0887 475.147 32.902C475.558 32.7153 476.069 32.622 476.68 32.622C477.464 32.622 478.096 32.7993 478.577 33.154C479.062 33.504 479.314 34.0197 479.333 34.701H478.192C478.145 34.3557 477.989 34.0827 477.723 33.882C477.462 33.6767 477.109 33.574 476.666 33.574C476.204 33.574 475.828 33.6673 475.539 33.854C475.25 34.036 475.105 34.3207 475.105 34.708C475.105 34.9647 475.208 35.1677 475.413 35.317C475.618 35.4617 475.922 35.583 476.323 35.681L477.772 36.045C478.108 36.1337 478.383 36.2503 478.598 36.395C478.817 36.5397 478.99 36.7007 479.116 36.878C479.247 37.0553 479.338 37.242 479.389 37.438C479.445 37.6293 479.473 37.8137 479.473 37.991C479.473 38.4343 479.361 38.817 479.137 39.139C478.918 39.4563 478.6 39.7037 478.185 39.881C477.774 40.0537 477.275 40.14 476.687 40.14ZM484.795 33.707H483.164V38.208C483.164 38.4647 483.19 38.6537 483.241 38.775C483.297 38.8917 483.388 38.9663 483.514 38.999C483.645 39.0317 483.822 39.048 484.046 39.048H484.837V39.916C484.749 39.9487 484.613 39.9767 484.431 40C484.254 40.0233 484.032 40.035 483.766 40.035C483.267 40.035 482.88 39.9673 482.604 39.832C482.329 39.6967 482.135 39.496 482.023 39.23C481.916 38.964 481.862 38.6373 481.862 38.25V33.707H480.686V32.762H481.897L482.212 30.655H483.164V32.755H484.795V33.707ZM3.682 56.14C2.744 56.14 1.99967 55.818 1.449 55.174C0.898333 54.53 0.623 53.5897 0.623 52.353C0.623 51.6017 0.732667 50.946 0.952 50.386C1.176 49.826 1.50733 49.392 1.946 49.084C2.38467 48.776 2.93067 48.622 3.584 48.622C3.92933 48.622 4.235 48.6663 4.501 48.755C4.77167 48.8437 5.005 48.9557 5.201 49.091C5.397 49.2263 5.55567 49.3663 5.677 49.511C5.803 49.6557 5.89633 49.7887 5.957 49.91V45.598H7.259V56H6.272L6.132 54.516C6.08533 54.656 6.01067 54.8193 5.908 55.006C5.80533 55.188 5.66067 55.3677 5.474 55.545C5.28733 55.7177 5.047 55.86 4.753 55.972C4.46367 56.084 4.10667 56.14 3.682 56.14ZM3.913 55.146C4.64567 55.146 5.16833 54.9243 5.481 54.481C5.79833 54.033 5.957 53.3027 5.957 52.29C5.95233 51.7253 5.88 51.2447 5.74 50.848C5.60467 50.4513 5.39 50.1503 5.096 49.945C4.80667 49.735 4.42167 49.63 3.941 49.63C3.34367 49.63 2.85833 49.8423 2.485 50.267C2.11167 50.6917 1.925 51.366 1.925 52.29C1.925 53.1953 2.093 53.8977 2.429 54.397C2.76967 54.8963 3.26433 55.146 3.913 55.146ZM10.3212 52.682C10.3212 53.1393 10.3958 53.5547 10.5452 53.928C10.6992 54.2967 10.9302 54.5907 11.2382 54.81C11.5508 55.0293 11.9405 55.139 12.4072 55.139C12.8692 55.139 13.2658 55.0317 13.5972 54.817C13.9332 54.6023 14.1478 54.292 14.2412 53.886H15.4662C15.3775 54.376 15.1815 54.789 14.8782 55.125C14.5748 55.461 14.2085 55.7153 13.7792 55.888C13.3498 56.056 12.9018 56.14 12.4352 56.14C11.7585 56.14 11.1635 55.993 10.6502 55.699C10.1368 55.405 9.73551 54.9827 9.44617 54.432C9.15684 53.8813 9.01217 53.221 9.01217 52.451C9.01217 51.6903 9.14284 51.023 9.40417 50.449C9.66551 49.875 10.0435 49.427 10.5382 49.105C11.0375 48.783 11.6372 48.622 12.3372 48.622C13.0185 48.622 13.5948 48.769 14.0662 49.063C14.5375 49.357 14.8945 49.7723 15.1372 50.309C15.3845 50.841 15.5082 51.4733 15.5082 52.206V52.682H10.3212ZM10.3282 51.807H14.2622C14.2622 51.3917 14.1922 51.0183 14.0522 50.687C13.9122 50.351 13.6975 50.0873 13.4082 49.896C13.1235 49.7 12.7642 49.602 12.3302 49.602C11.8775 49.602 11.5018 49.7117 11.2032 49.931C10.9092 50.1457 10.6875 50.4233 10.5382 50.764C10.3935 51.1 10.3235 51.4477 10.3282 51.807ZM19.1128 56.091C18.7208 56.091 18.4035 56.0373 18.1608 55.93C17.9228 55.8227 17.7385 55.678 17.6078 55.496C17.4818 55.314 17.3955 55.1063 17.3488 54.873C17.3068 54.635 17.2858 54.39 17.2858 54.138V45.598H18.5598V54.012C18.5598 54.376 18.6298 54.649 18.7698 54.831C18.9145 55.013 19.1152 55.1133 19.3718 55.132L19.7638 55.139V55.979C19.6565 56.0117 19.5445 56.0373 19.4278 56.056C19.3112 56.0793 19.2062 56.091 19.1128 56.091ZM22.8284 48.762V56H21.5754V48.762H22.8284ZM22.8564 45.885V47.229H21.5334V45.885H22.8564ZM30.7622 48.762L28.1512 56H26.9752L24.3572 48.762H25.5752L27.5002 54.376H27.6192L29.5512 48.762H30.7622ZM32.8114 52.682C32.8114 53.1393 32.8861 53.5547 33.0354 53.928C33.1894 54.2967 33.4204 54.5907 33.7284 54.81C34.0411 55.0293 34.4307 55.139 34.8974 55.139C35.3594 55.139 35.7561 55.0317 36.0874 54.817C36.4234 54.6023 36.6381 54.292 36.7314 53.886H37.9564C37.8677 54.376 37.6717 54.789 37.3684 55.125C37.0651 55.461 36.6987 55.7153 36.2694 55.888C35.8401 56.056 35.3921 56.14 34.9254 56.14C34.2487 56.14 33.6537 55.993 33.1404 55.699C32.6271 55.405 32.2257 54.9827 31.9364 54.432C31.6471 53.8813 31.5024 53.221 31.5024 52.451C31.5024 51.6903 31.6331 51.023 31.8944 50.449C32.1557 49.875 32.5337 49.427 33.0284 49.105C33.5277 48.783 34.1274 48.622 34.8274 48.622C35.5087 48.622 36.0851 48.769 36.5564 49.063C37.0277 49.357 37.3847 49.7723 37.6274 50.309C37.8747 50.841 37.9984 51.4733 37.9984 52.206V52.682H32.8114ZM32.8184 51.807H36.7524C36.7524 51.3917 36.6824 51.0183 36.5424 50.687C36.4024 50.351 36.1877 50.0873 35.8984 49.896C35.6137 49.7 35.2544 49.602 34.8204 49.602C34.3677 49.602 33.9921 49.7117 33.6934 49.931C33.3994 50.1457 33.1777 50.4233 33.0284 50.764C32.8837 51.1 32.8137 51.4477 32.8184 51.807ZM39.7761 56V48.762H41.0081V50.155C41.1294 49.8097 41.2997 49.525 41.5191 49.301C41.7384 49.0723 41.9881 48.902 42.2681 48.79C42.5527 48.678 42.8467 48.622 43.1501 48.622C43.2574 48.622 43.3624 48.629 43.4651 48.643C43.5677 48.657 43.6471 48.6803 43.7031 48.713V49.966C43.6331 49.9333 43.5421 49.9123 43.4301 49.903C43.3227 49.889 43.2317 49.882 43.1571 49.882C42.8677 49.8633 42.5971 49.882 42.3451 49.938C42.0931 49.9893 41.8714 50.0803 41.6801 50.211C41.4887 50.3417 41.3371 50.5143 41.2251 50.729C41.1177 50.939 41.0641 51.1957 41.0641 51.499V56H39.7761ZM47.0281 56.14C46.5614 56.14 46.1484 56.0583 45.7891 55.895C45.4297 55.727 45.1474 55.4867 44.9421 55.174C44.7414 54.8613 44.6411 54.4833 44.6411 54.04C44.6411 53.2373 44.9211 52.64 45.4811 52.248C46.0411 51.856 46.9394 51.646 48.1761 51.618L49.4711 51.583V51.016C49.4711 50.5727 49.3381 50.2227 49.0721 49.966C48.8061 49.7047 48.3931 49.574 47.8331 49.574C47.4177 49.5787 47.0514 49.6767 46.7341 49.868C46.4214 50.0593 46.2184 50.372 46.1251 50.806H44.9841C45.0121 50.3347 45.1451 49.938 45.3831 49.616C45.6211 49.2893 45.9524 49.042 46.3771 48.874C46.8064 48.706 47.3127 48.622 47.8961 48.622C48.5261 48.622 49.0487 48.7107 49.4641 48.888C49.8841 49.0653 50.1967 49.3267 50.4021 49.672C50.6121 50.0173 50.7171 50.442 50.7171 50.946V56H49.6111L49.5201 54.642C49.2401 55.2067 48.8831 55.5987 48.4491 55.818C48.0197 56.0327 47.5461 56.14 47.0281 56.14ZM47.4201 55.209C47.6627 55.209 47.9031 55.1647 48.1411 55.076C48.3837 54.9873 48.6054 54.8683 48.8061 54.719C49.0067 54.565 49.1654 54.3947 49.2821 54.208C49.4034 54.0167 49.4664 53.8207 49.4711 53.62V52.381L48.3931 52.402C47.8424 52.4113 47.3804 52.4673 47.0071 52.57C46.6384 52.6727 46.3607 52.8337 46.1741 53.053C45.9921 53.2723 45.9011 53.5593 45.9011 53.914C45.9011 54.32 46.0411 54.6373 46.3211 54.866C46.6057 55.0947 46.9721 55.209 47.4201 55.209ZM56.5054 56.14C56.0808 56.14 55.7214 56.084 55.4274 55.972C55.1381 55.86 54.9001 55.7177 54.7134 55.545C54.5268 55.3677 54.3821 55.188 54.2794 55.006C54.1768 54.8193 54.1021 54.656 54.0554 54.516L53.9154 56H52.9284V45.598H54.2304V49.91C54.2911 49.7887 54.3821 49.6557 54.5034 49.511C54.6294 49.3663 54.7904 49.2263 54.9864 49.091C55.1824 48.9557 55.4134 48.8437 55.6794 48.755C55.9501 48.6663 56.2581 48.622 56.6034 48.622C57.5088 48.622 58.2274 48.937 58.7594 49.567C59.2961 50.197 59.5644 51.1257 59.5644 52.353C59.5644 53.1137 59.4501 53.7787 59.2214 54.348C58.9928 54.9127 58.6521 55.3537 58.1994 55.671C57.7468 55.9837 57.1821 56.14 56.5054 56.14ZM56.2744 55.146C56.8624 55.146 57.3408 54.9197 57.7094 54.467C58.0781 54.0097 58.2624 53.284 58.2624 52.29C58.2624 51.4453 58.0898 50.792 57.7444 50.33C57.4038 49.8633 56.9044 49.63 56.2464 49.63C55.7658 49.63 55.3784 49.735 55.0844 49.945C54.7951 50.1503 54.5804 50.4513 54.4404 50.848C54.3051 51.2447 54.2351 51.7253 54.2304 52.29C54.2304 53.3027 54.3868 54.033 54.6994 54.481C55.0168 54.9243 55.5418 55.146 56.2744 55.146ZM62.6546 48.762V56H61.4016V48.762H62.6546ZM62.6826 45.885V47.229H61.3596V45.885H62.6826ZM66.8414 56.091C66.4494 56.091 66.132 56.0373 65.8894 55.93C65.6514 55.8227 65.467 55.678 65.3364 55.496C65.2104 55.314 65.124 55.1063 65.0774 54.873C65.0354 54.635 65.0144 54.39 65.0144 54.138V45.598H66.2884V54.012C66.2884 54.376 66.3584 54.649 66.4984 54.831C66.643 55.013 66.8437 55.1133 67.1004 55.132L67.4924 55.139V55.979C67.385 56.0117 67.273 56.0373 67.1564 56.056C67.0397 56.0793 66.9347 56.091 66.8414 56.091ZM70.5569 48.762V56H69.3039V48.762H70.5569ZM70.5849 45.885V47.229H69.2619V45.885H70.5849ZM76.6077 49.707H74.9767V54.208C74.9767 54.4647 75.0023 54.6537 75.0537 54.775C75.1097 54.8917 75.2007 54.9663 75.3267 54.999C75.4573 55.0317 75.6347 55.048 75.8587 55.048H76.6497V55.916C76.561 55.9487 76.4257 55.9767 76.2437 56C76.0663 56.0233 75.8447 56.035 75.5787 56.035C75.0793 56.035 74.692 55.9673 74.4167 55.832C74.1413 55.6967 73.9477 55.496 73.8357 55.23C73.7283 54.964 73.6747 54.6373 73.6747 54.25V49.707H72.4987V48.762H73.7097L74.0247 46.655H74.9767V48.755H76.6077V49.707ZM79.2225 58.31C78.7978 58.31 78.5062 58.2797 78.3475 58.219C78.1888 58.1583 78.1095 58.128 78.1095 58.128V57.288L78.8445 57.302C79.1152 57.3113 79.3392 57.2927 79.5165 57.246C79.6938 57.1993 79.8362 57.1363 79.9435 57.057C80.0508 56.9777 80.1325 56.889 80.1885 56.791C80.2492 56.693 80.2982 56.5997 80.3355 56.511L80.5875 55.825L77.7595 48.762H79.0685L81.2035 54.348L83.3245 48.762H84.5915L81.5395 56.546C81.3528 57.0033 81.1428 57.3603 80.9095 57.617C80.6808 57.8737 80.4242 58.0533 80.1395 58.156C79.8595 58.2587 79.5538 58.31 79.2225 58.31ZM89.1452 56V48.762H90.3772V50.155C90.4986 49.8097 90.6689 49.525 90.8882 49.301C91.1076 49.0723 91.3572 48.902 91.6372 48.79C91.9219 48.678 92.2159 48.622 92.5192 48.622C92.6266 48.622 92.7316 48.629 92.8342 48.643C92.9369 48.657 93.0162 48.6803 93.0722 48.713V49.966C93.0022 49.9333 92.9112 49.9123 92.7992 49.903C92.6919 49.889 92.6009 49.882 92.5262 49.882C92.2369 49.8633 91.9662 49.882 91.7142 49.938C91.4622 49.9893 91.2406 50.0803 91.0492 50.211C90.8579 50.3417 90.7062 50.5143 90.5942 50.729C90.4869 50.939 90.4332 51.1957 90.4332 51.499V56H89.1452ZM95.3466 52.682C95.3466 53.1393 95.4212 53.5547 95.5706 53.928C95.7246 54.2967 95.9556 54.5907 96.2636 54.81C96.5762 55.0293 96.9659 55.139 97.4326 55.139C97.8946 55.139 98.2912 55.0317 98.6226 54.817C98.9586 54.6023 99.1732 54.292 99.2666 53.886H100.492C100.403 54.376 100.207 54.789 99.9036 55.125C99.6002 55.461 99.2339 55.7153 98.8046 55.888C98.3752 56.056 97.9272 56.14 97.4606 56.14C96.7839 56.14 96.1889 55.993 95.6756 55.699C95.1622 55.405 94.7609 54.9827 94.4716 54.432C94.1822 53.8813 94.0376 53.221 94.0376 52.451C94.0376 51.6903 94.1682 51.023 94.4296 50.449C94.6909 49.875 95.0689 49.427 95.5636 49.105C96.0629 48.783 96.6626 48.622 97.3626 48.622C98.0439 48.622 98.6202 48.769 99.0916 49.063C99.5629 49.357 99.9199 49.7723 100.163 50.309C100.41 50.841 100.534 51.4733 100.534 52.206V52.682H95.3466ZM95.3536 51.807H99.2876C99.2876 51.3917 99.2176 51.0183 99.0776 50.687C98.9376 50.351 98.7229 50.0873 98.4336 49.896C98.1489 49.7 97.7896 49.602 97.3556 49.602C96.9029 49.602 96.5272 49.7117 96.2286 49.931C95.9346 50.1457 95.7129 50.4233 95.5636 50.764C95.4189 51.1 95.3489 51.4477 95.3536 51.807ZM104.839 56.14C104.335 56.14 103.866 56.063 103.432 55.909C103.003 55.7503 102.646 55.5053 102.361 55.174C102.077 54.838 101.897 54.411 101.822 53.893H102.998C103.064 54.1777 103.18 54.4157 103.348 54.607C103.521 54.7937 103.736 54.936 103.992 55.034C104.249 55.1273 104.529 55.174 104.832 55.174C105.318 55.174 105.71 55.083 106.008 54.901C106.307 54.719 106.456 54.439 106.456 54.061C106.456 53.795 106.377 53.5827 106.218 53.424C106.064 53.2607 105.824 53.1417 105.497 53.067L103.999 52.696C103.416 52.556 102.949 52.3367 102.599 52.038C102.249 51.7393 102.074 51.3217 102.074 50.785C102.07 50.3603 102.17 49.987 102.375 49.665C102.581 49.343 102.889 49.0887 103.299 48.902C103.71 48.7153 104.221 48.622 104.832 48.622C105.616 48.622 106.249 48.7993 106.729 49.154C107.215 49.504 107.467 50.0197 107.485 50.701H106.344C106.298 50.3557 106.141 50.0827 105.875 49.882C105.614 49.6767 105.262 49.574 104.818 49.574C104.356 49.574 103.981 49.6673 103.691 49.854C103.402 50.036 103.257 50.3207 103.257 50.708C103.257 50.9647 103.36 51.1677 103.565 51.317C103.771 51.4617 104.074 51.583 104.475 51.681L105.924 52.045C106.26 52.1337 106.536 52.2503 106.75 52.395C106.97 52.5397 107.142 52.7007 107.268 52.878C107.399 53.0553 107.49 53.242 107.541 53.438C107.597 53.6293 107.625 53.8137 107.625 53.991C107.625 54.4343 107.513 54.817 107.289 55.139C107.07 55.4563 106.753 55.7037 106.337 55.881C105.927 56.0537 105.427 56.14 104.839 56.14ZM112.094 56.14C111.716 56.1353 111.359 56.0817 111.023 55.979C110.692 55.8717 110.398 55.7153 110.141 55.51C109.885 55.3047 109.682 55.0503 109.532 54.747C109.388 54.439 109.315 54.082 109.315 53.676V48.762H110.61V53.543C110.61 54.0143 110.755 54.397 111.044 54.691C111.338 54.985 111.779 55.132 112.367 55.132C112.899 55.132 113.326 54.9943 113.648 54.719C113.975 54.439 114.138 54.0237 114.138 53.473V48.762H115.426V56H114.397L114.264 54.614C114.176 54.978 114.024 55.272 113.809 55.496C113.599 55.72 113.345 55.8857 113.046 55.993C112.752 56.0957 112.435 56.1447 112.094 56.14ZM119.355 56.091C118.963 56.091 118.646 56.0373 118.403 55.93C118.165 55.8227 117.981 55.678 117.85 55.496C117.724 55.314 117.638 55.1063 117.591 54.873C117.549 54.635 117.528 54.39 117.528 54.138V45.598H118.802V54.012C118.802 54.376 118.872 54.649 119.012 54.831C119.157 55.013 119.357 55.1133 119.614 55.132L120.006 55.139V55.979C119.899 56.0117 119.787 56.0373 119.67 56.056C119.553 56.0793 119.448 56.091 119.355 56.091ZM124.979 49.707H123.348V54.208C123.348 54.4647 123.373 54.6537 123.425 54.775C123.481 54.8917 123.572 54.9663 123.698 54.999C123.828 55.0317 124.006 55.048 124.23 55.048H125.021V55.916C124.932 55.9487 124.797 55.9767 124.615 56C124.437 56.0233 124.216 56.035 123.95 56.035C123.45 56.035 123.063 55.9673 122.788 55.832C122.512 55.6967 122.319 55.496 122.207 55.23C122.099 54.964 122.046 54.6373 122.046 54.25V49.707H120.87V48.762H122.081L122.396 46.655H123.348V48.755H124.979V49.707ZM129.38 56.14C128.876 56.14 128.407 56.063 127.973 55.909C127.544 55.7503 127.187 55.5053 126.902 55.174C126.618 54.838 126.438 54.411 126.363 53.893H127.539C127.605 54.1777 127.721 54.4157 127.889 54.607C128.062 54.7937 128.277 54.936 128.533 55.034C128.79 55.1273 129.07 55.174 129.373 55.174C129.859 55.174 130.251 55.083 130.549 54.901C130.848 54.719 130.997 54.439 130.997 54.061C130.997 53.795 130.918 53.5827 130.759 53.424C130.605 53.2607 130.365 53.1417 130.038 53.067L128.54 52.696C127.957 52.556 127.49 52.3367 127.14 52.038C126.79 51.7393 126.615 51.3217 126.615 50.785C126.611 50.3603 126.711 49.987 126.916 49.665C127.122 49.343 127.43 49.0887 127.84 48.902C128.251 48.7153 128.762 48.622 129.373 48.622C130.157 48.622 130.79 48.7993 131.27 49.154C131.756 49.504 132.008 50.0197 132.026 50.701H130.885C130.839 50.3557 130.682 50.0827 130.416 49.882C130.155 49.6767 129.803 49.574 129.359 49.574C128.897 49.574 128.522 49.6673 128.232 49.854C127.943 50.036 127.798 50.3207 127.798 50.708C127.798 50.9647 127.901 51.1677 128.106 51.317C128.312 51.4617 128.615 51.583 129.016 51.681L130.465 52.045C130.801 52.1337 131.077 52.2503 131.291 52.395C131.511 52.5397 131.683 52.7007 131.809 52.878C131.94 53.0553 132.031 53.242 132.082 53.438C132.138 53.6293 132.166 53.8137 132.166 53.991C132.166 54.4343 132.054 54.817 131.83 55.139C131.611 55.4563 131.294 55.7037 130.878 55.881C130.468 56.0537 129.968 56.14 129.38 56.14Z" fill="#686969"/>
  <defs>
    <clipPath id="clip0_11_3698">
      <rect width="23.8756" height="18" fill="white" transform="translate(0 0.5)"/>
    </clipPath>
  </defs>
</svg>
