<svg width="12" height="12" viewBox="0 0 12 12" fill="none" xmlns="http://www.w3.org/2000/svg">
<path fill-rule="evenodd" clip-rule="evenodd" d="M1.63322 2C1.47409 2 1.32148 2.06321 1.20896 2.17574C1.09643 2.28826 1.03322 2.44087 1.03322 2.6L1.00391 9.59603C1.00391 9.75516 1.06712 9.90777 1.17964 10.0203C1.29216 10.1328 1.44478 10.196 1.60391 10.196C1.76304 10.196 1.91565 10.1328 2.02817 10.0203C2.14069 9.90777 2.20391 9.75516 2.20391 9.59603L2.23322 2.6C2.23322 2.44087 2.17001 2.28826 2.05748 2.17574C1.94496 2.06321 1.79235 2 1.63322 2ZM7.80902 7.5758C7.69972 7.68896 7.63924 7.84052 7.64061 7.99784C7.64198 8.15516 7.70508 8.30565 7.81633 8.41689C7.92757 8.52814 8.07806 8.59124 8.23538 8.5926C8.39269 8.59397 8.54425 8.53349 8.65742 8.4242L10.4574 6.6242C10.5699 6.51168 10.6331 6.3591 10.6331 6.2C10.6331 6.0409 10.5699 5.88832 10.4574 5.7758L8.65742 3.9758C8.60207 3.91849 8.53586 3.87278 8.46266 3.84134C8.38946 3.80989 8.31072 3.79334 8.23106 3.79265C8.15139 3.79196 8.07238 3.80714 7.99864 3.83731C7.92491 3.86748 7.85792 3.91203 7.80158 3.96836C7.74524 4.0247 7.70069 4.09169 7.67052 4.16543C7.64035 4.23917 7.62517 4.31817 7.62587 4.39784C7.62656 4.47751 7.64311 4.55624 7.67455 4.62944C7.706 4.70265 7.75171 4.76885 7.80902 4.8242L8.58482 5.6H4.03322C3.87409 5.6 3.72147 5.66321 3.60895 5.77574C3.49643 5.88826 3.43322 6.04087 3.43322 6.2C3.43322 6.35913 3.49643 6.51174 3.60895 6.62426C3.72147 6.73679 3.87409 6.8 4.03322 6.8H8.58482L7.80902 7.5758Z" fill="#8A8B8C"/>
<path fill-rule="evenodd" clip-rule="evenodd" d="M1 9.6C1 9.75913 1.06321 9.91174 1.17574 10.0243C1.28826 10.1368 1.44087 10.2 1.6 10.2H5.8C5.95913 10.2 6.11174 10.1368 6.22427 10.0243C6.33679 9.91174 6.4 9.75913 6.4 9.6C6.4 9.44087 6.33679 9.28826 6.22427 9.17574C6.11174 9.06321 5.95913 9 5.8 9H1.6C1.44087 9 1.28826 9.06321 1.17574 9.17574C1.06321 9.28826 1 9.44087 1 9.6Z" fill="#8A8B8C"/>
<path fill-rule="evenodd" clip-rule="evenodd" d="M1 2.6C1 2.75913 1.06321 2.91174 1.17574 3.02426C1.28826 3.13679 1.44087 3.2 1.6 3.2H5.8C5.95913 3.2 6.11174 3.13679 6.22427 3.02426C6.33679 2.91174 6.4 2.75913 6.4 2.6C6.4 2.44087 6.33679 2.28826 6.22427 2.17574C6.11174 2.06321 5.95913 2 5.8 2H1.6C1.44087 2 1.28826 2.06321 1.17574 2.17574C1.06321 2.28826 1 2.44087 1 2.6Z" fill="#8A8B8C"/>
</svg>
