<svg width="24" height="24" viewBox="0 0 24 24" fill="none" xmlns="http://www.w3.org/2000/svg">
<path fill-rule="evenodd" clip-rule="evenodd" d="M3 7C3 4.79086 4.79086 3 7 3H17C19.2091 3 21 4.79086 21 7V17C21 19.2091 19.2091 21 17 21H7C4.79086 21 3 19.2091 3 17V7ZM11.7636 15.5261C11.3716 16.0312 10.6128 16.0438 10.2043 15.5519L9.29485 14.457C8.88663 13.9655 8.12849 13.9777 7.73623 14.482L6.25529 16.3861C5.7444 17.0429 6.21249 18 7.04464 18H17C17.824 18 18.2944 17.0592 17.8 16.4L15.2864 13.0486C14.8905 12.5207 14.1009 12.5142 13.6964 13.0355L11.7636 15.5261ZM8.5 10C9.60457 10 10.5 9.10457 10.5 8C10.5 6.89543 9.60457 6 8.5 6C7.39543 6 6.5 6.89543 6.5 8C6.5 9.10457 7.39543 10 8.5 10Z" fill="#757575"/>
</svg>
