<svg width="15" height="15" viewBox="0 0 15 15" fill="none" xmlns="http://www.w3.org/2000/svg">
              <g clip-path="url(#clip0_605_2636)">
                <path
                    d="M7.50036 0.5C3.63379 0.5 0.5 3.6338 0.5 7.49964C0.499904 8.41896 0.680909 9.32931 1.03268 10.1787C1.38444 11.028 1.90008 11.7998 2.55015 12.4499C3.20021 13.0999 3.97196 13.6156 4.82133 13.9673C5.67069 14.3191 6.58104 14.5001 7.50036 14.5C11.3655 14.5 14.5 11.3662 14.5 7.49964C14.5 3.6338 11.3655 0.5 7.50036 0.5V0.5ZM8.15366 3.02716C8.83613 3.02716 9.03664 3.42308 9.03664 3.87587C9.03664 4.44094 8.58458 4.96373 7.81243 4.96373C7.16642 4.96373 6.85873 4.63926 6.87769 4.1019C6.87769 3.64911 7.25611 3.02716 8.15366 3.02716V3.02716ZM6.40521 11.6921C5.93857 11.6921 5.59807 11.4085 5.92399 10.1653L6.45844 7.95972C6.55104 7.60682 6.56635 7.46537 6.45844 7.46537C6.31918 7.46537 5.71327 7.7089 5.356 7.94951L5.1234 7.56817C6.2572 6.62104 7.56088 6.06544 8.11866 6.06544C8.58531 6.06544 8.66259 6.61666 8.43 7.46537L7.81754 9.784C7.7089 10.1938 7.75556 10.3352 7.8642 10.3352C8.00419 10.3352 8.46209 10.1661 8.91269 9.81097L9.17663 10.1653C8.07346 11.2678 6.87113 11.6921 6.40521 11.6921Z"
                    fill="#2A2A2A" fill-opacity="0.6"/>
              </g>
              <defs>
                <clipPath id="clip0_605_2636">
                  <rect width="14" height="14" fill="white" transform="translate(0.5 0.5)"/>
                </clipPath>
              </defs>
            </svg>
