<svg width="12" height="12" viewBox="0 0 12 12" fill="none" xmlns="http://www.w3.org/2000/svg">
<g clip-path="url(#clip0_158_593)">
<path d="M6 11.25C3.10078 11.25 0.75 8.89922 0.75 6C0.75 3.10078 3.10078 0.75 6 0.75C8.89922 0.75 11.25 3.10078 11.25 6C11.25 8.89922 8.89922 11.25 6 11.25ZM6 1.64062C3.59297 1.64062 1.64063 3.59297 1.64063 6C1.64063 8.40703 3.59297 10.3594 6 10.3594C8.40703 10.3594 10.3594 8.40703 10.3594 6C10.3594 3.59297 8.40703 1.64062 6 1.64062Z" fill="black" fill-opacity="0.5"/>
<path d="M5.43732 8.0625C5.43732 7.91332 5.49658 7.77024 5.60207 7.66475C5.70756 7.55926 5.85063 7.5 5.99982 7.5C6.149 7.5 6.29207 7.55926 6.39756 7.66475C6.50305 7.77024 6.56232 7.91332 6.56232 8.0625C6.56232 8.21168 6.50305 8.35476 6.39756 8.46025C6.29207 8.56574 6.149 8.625 5.99982 8.625C5.85063 8.625 5.70756 8.56574 5.60207 8.46025C5.49658 8.35476 5.43732 8.21168 5.43732 8.0625ZM6.28107 6.75H5.71857C5.667 6.75 5.62482 6.70781 5.62482 6.65625V3.46875C5.62482 3.41719 5.667 3.375 5.71857 3.375H6.28107C6.33263 3.375 6.37482 3.41719 6.37482 3.46875V6.65625C6.37482 6.70781 6.33263 6.75 6.28107 6.75Z" fill="black" fill-opacity="0.5"/>
</g>
<defs>
<clipPath id="clip0_158_593">
<rect width="12" height="12" fill="white" transform="matrix(1 0 0 -1 0 12)"/>
</clipPath>
</defs>
</svg>
