<svg width="24" height="25" viewBox="0 0 24 25" fill="none" xmlns="http://www.w3.org/2000/svg">
<path fill-rule="evenodd" clip-rule="evenodd" d="M24 10.4648C24 8.80799 22.6569 7.46484 21 7.46484H3C1.34315 7.46484 0 8.80799 0 10.4648V15.4648C0 17.1217 1.34315 18.4648 3 18.4648H21C22.6569 18.4648 24 17.1217 24 15.4648V10.4648ZM22 10.4648C22 9.91256 21.5523 9.46484 21 9.46484H3C2.44772 9.46484 2 9.91256 2 10.4648V15.4648C2 16.0171 2.44772 16.4648 3 16.4648H21C21.5523 16.4648 22 16.0171 22 15.4648V10.4648Z" fill="#757575"/>
<rect x="4" y="10.4648" width="1" height="5" rx="0.5" fill="#757575"/>
</svg>
