<svg width="30" height="30" viewBox="0 0 30 30" fill="none" xmlns="http://www.w3.org/2000/svg">
<path d="M19.45 9.54999C19.2522 9.54999 19.0589 9.60864 18.8944 9.71852C18.73 9.8284 18.6018 9.98458 18.5261 10.1673C18.4504 10.35 18.4306 10.5511 18.4692 10.7451C18.5078 10.9391 18.603 11.1172 18.7429 11.2571C18.8827 11.3969 19.0609 11.4922 19.2549 11.5308C19.4489 11.5694 19.65 11.5496 19.8327 11.4739C20.0154 11.3982 20.1716 11.27 20.2815 11.1056C20.3914 10.9411 20.45 10.7478 20.45 10.55C20.45 10.2848 20.3446 10.0304 20.1571 9.84288C19.9696 9.65535 19.7152 9.54999 19.45 9.54999ZM23.2833 11.5667C23.2671 10.8752 23.1376 10.1912 22.9 9.54166C22.6881 8.98593 22.3583 8.48272 21.9333 8.06666C21.5207 7.63951 21.0163 7.3118 20.4583 7.10832C19.8105 6.86346 19.1257 6.731 18.4333 6.71666C17.55 6.66666 17.2667 6.66666 15 6.66666C12.7333 6.66666 12.45 6.66666 11.5667 6.71666C10.8743 6.731 10.1895 6.86346 9.54167 7.10832C8.98473 7.31386 8.48078 7.64129 8.06667 8.06666C7.63952 8.4793 7.31181 8.98369 7.10833 9.54166C6.86347 10.1894 6.73101 10.8743 6.71667 11.5667C6.66667 12.45 6.66667 12.7333 6.66667 15C6.66667 17.2667 6.66667 17.55 6.71667 18.4333C6.73101 19.1257 6.86347 19.8105 7.10833 20.4583C7.31181 21.0163 7.63952 21.5207 8.06667 21.9333C8.48078 22.3587 8.98473 22.6861 9.54167 22.8917C10.1895 23.1365 10.8743 23.269 11.5667 23.2833C12.45 23.3333 12.7333 23.3333 15 23.3333C17.2667 23.3333 17.55 23.3333 18.4333 23.2833C19.1257 23.269 19.8105 23.1365 20.4583 22.8917C21.0163 22.6882 21.5207 22.3605 21.9333 21.9333C22.3602 21.5188 22.6903 21.0152 22.9 20.4583C23.1376 19.8088 23.2671 19.1247 23.2833 18.4333C23.2833 17.55 23.3333 17.2667 23.3333 15C23.3333 12.7333 23.3333 12.45 23.2833 11.5667ZM21.7833 18.3333C21.7773 18.8623 21.6815 19.3864 21.5 19.8833C21.3669 20.246 21.1532 20.5737 20.875 20.8417C20.6047 21.1171 20.2777 21.3304 19.9167 21.4667C19.4198 21.6481 18.8956 21.7439 18.3667 21.75C17.5333 21.7917 17.225 21.8 15.0333 21.8C12.8417 21.8 12.5333 21.8 11.7 21.75C11.1507 21.7603 10.6038 21.6757 10.0833 21.5C9.73815 21.3567 9.42613 21.144 9.16667 20.875C8.89007 20.6073 8.67904 20.2793 8.55 19.9167C8.34655 19.4126 8.2337 18.8766 8.21667 18.3333C8.21667 17.5 8.16667 17.1917 8.16667 15C8.16667 12.8083 8.16667 12.5 8.21667 11.6667C8.2204 11.1259 8.31913 10.5899 8.50833 10.0833C8.65504 9.73158 8.88022 9.41804 9.16667 9.16666C9.41984 8.88013 9.73274 8.65257 10.0833 8.49999C10.5913 8.31669 11.1267 8.22089 11.6667 8.21666C12.5 8.21666 12.8083 8.16666 15 8.16666C17.1917 8.16666 17.5 8.16666 18.3333 8.21666C18.8623 8.22272 19.3864 8.31853 19.8833 8.49999C20.262 8.64053 20.6019 8.86903 20.875 9.16666C21.1481 9.42264 21.3615 9.7356 21.5 10.0833C21.6852 10.5908 21.7811 11.1265 21.7833 11.6667C21.825 12.5 21.8333 12.8083 21.8333 15C21.8333 17.1917 21.825 17.5 21.7833 18.3333ZM15 10.725C14.1548 10.7266 13.3291 10.9788 12.6272 11.4495C11.9253 11.9202 11.3786 12.5885 11.0564 13.3698C10.7341 14.1511 10.6506 15.0104 10.8165 15.8391C10.9824 16.6678 11.3902 17.4288 11.9884 18.0258C12.5866 18.6228 13.3483 19.0292 14.1774 19.1934C15.0064 19.3577 15.8656 19.2726 16.6462 18.9488C17.4269 18.625 18.0941 18.077 18.5634 17.3742C19.0328 16.6713 19.2833 15.8451 19.2833 15C19.2844 14.4376 19.1743 13.8805 18.9594 13.3608C18.7444 12.8411 18.4288 12.369 18.0307 11.9717C17.6327 11.5744 17.16 11.2597 16.6398 11.0458C16.1197 10.8318 15.5624 10.7228 15 10.725ZM15 17.775C14.4512 17.775 13.9146 17.6122 13.4583 17.3073C13.0019 17.0024 12.6463 16.569 12.4362 16.0619C12.2262 15.5549 12.1712 14.9969 12.2783 14.4586C12.3854 13.9203 12.6497 13.4259 13.0378 13.0378C13.4259 12.6497 13.9203 12.3854 14.4586 12.2783C14.9969 12.1712 15.5549 12.2262 16.0619 12.4362C16.569 12.6463 17.0024 13.0019 17.3073 13.4583C17.6122 13.9146 17.775 14.4511 17.775 15C17.775 15.3644 17.7032 15.7253 17.5638 16.0619C17.4243 16.3986 17.2199 16.7045 16.9622 16.9622C16.7045 17.2199 16.3986 17.4243 16.0619 17.5638C15.7253 17.7032 15.3644 17.775 15 17.775Z" fill="#666666"/>
</svg>
