<svg width="40" height="40" viewBox="0 0 40 40" fill="none" xmlns="http://www.w3.org/2000/svg">
<g id="1632517_circle_instagram_photos_round icon_social media_icon 1" clip-path="url(#clip0_25_2047)">
<g id="Group">
<g id="Background_1_">
<path id="Vector" d="M0 19.4922V20.5703C0.28125 30.914 8.60938 39.2187 18.5234 40H21.5703C31.5391 39.2109 39.7266 30.8359 40 20.5547V19.4922C39.7266 9.03123 31.2578 0.546852 21.0469 0.0234149C10.0625 -0.531273 0.304688 8.28123 0 19.4922Z" fill="url(#paint0_radial_25_2047)"/>
</g>
<g id="Symbol">
<g id="Group_2">
<path id="Vector_2" d="M20.0938 10.0469C23.2812 10.0469 23.6562 10.0547 24.9219 10.1172C26.0859 10.1641 26.7109 10.3672 27.1328 10.5313C27.6875 10.75 28.0859 11.0156 28.5 11.4375C28.9141 11.8594 29.1797 12.2656 29.3984 12.8281C29.5625 13.2578 29.75 13.8984 29.8125 15.0859C29.875 16.3672 29.8828 16.75 29.8828 19.9922C29.8828 23.2344 29.875 23.6172 29.8125 24.8984C29.7656 26.0781 29.5703 26.7266 29.3984 27.1562C29.1797 27.7188 28.9219 28.125 28.5 28.5469C28.0859 28.9688 27.6875 29.2344 27.1328 29.4531C26.7109 29.625 26.0781 29.8203 24.9219 29.8672C23.6641 29.9297 23.2812 29.9375 20.0938 29.9375C16.9063 29.9375 16.5312 29.9297 15.2656 29.8672C14.1016 29.8203 13.4766 29.6172 13.0547 29.4531C12.5 29.2344 12.1016 28.9688 11.6875 28.5469C11.2734 28.125 11.0078 27.7188 10.7891 27.1562C10.625 26.7266 10.4375 26.0859 10.375 24.8984C10.3125 23.6172 10.3047 23.2344 10.3047 19.9922C10.3047 16.75 10.3125 16.3672 10.375 15.0859C10.4219 13.9063 10.6172 13.2578 10.7891 12.8281C11.0078 12.2656 11.2656 11.8594 11.6875 11.4375C12.1016 11.0156 12.5 10.75 13.0547 10.5313C13.4766 10.3594 14.1094 10.1641 15.2656 10.1172C16.5234 10.0625 16.9063 10.0469 20.0938 10.0469ZM20.0938 7.85938C16.8516 7.85938 16.4453 7.875 15.1797 7.9375C13.9141 8 13.0391 8.20313 12.2812 8.5C11.4922 8.8125 10.8281 9.22656 10.1719 9.90625C9.50781 10.5859 9.10156 11.2578 8.79688 12.0625C8.5 12.8281 8.29688 13.7188 8.24219 15.0078C8.17969 16.2969 8.17188 16.7109 8.17188 20.0078C8.17188 23.3047 8.1875 23.7188 8.24219 25.0078C8.30469 26.2969 8.50781 27.1797 8.79688 27.9531C9.10156 28.75 9.50781 29.4297 10.1719 30.1094C10.8359 30.7891 11.5 31.2031 12.2812 31.5156C13.0391 31.8203 13.9141 32.0234 15.1797 32.0781C16.4531 32.1406 16.8594 32.1562 20.0938 32.1562C23.3281 32.1562 23.7422 32.1406 25.0078 32.0781C26.2734 32.0156 27.1484 31.8125 27.9062 31.5156C28.6953 31.2031 29.3594 30.7891 30.0156 30.1094C30.6797 29.4297 31.0859 28.7578 31.3906 27.9531C31.6875 27.1875 31.8906 26.2969 31.9453 25.0078C32.0078 23.7188 32.0156 23.3047 32.0156 20.0078C32.0156 16.7109 32 16.2969 31.9453 15.0078C31.8828 13.7188 31.6797 12.8359 31.3906 12.0625C31.0859 11.2656 30.6797 10.5859 30.0156 9.90625C29.3516 9.22656 28.6875 8.8125 27.9062 8.5C27.1484 8.19531 26.2734 7.99219 25.0078 7.9375C23.7422 7.875 23.3281 7.85938 20.0938 7.85938Z" fill="white"/>
<path id="Vector_3" d="M20.0938 13.7656C16.7031 13.7656 13.9688 16.5547 13.9688 20C13.9688 23.4453 16.7109 26.2344 20.0938 26.2344C23.4766 26.2344 26.2188 23.4453 26.2188 20C26.2188 16.5547 23.4766 13.7656 20.0938 13.7656ZM20.0938 24.0469C17.8984 24.0469 16.1172 22.2422 16.1172 20C16.1172 17.7578 17.8984 15.9531 20.0938 15.9531C22.2891 15.9531 24.0703 17.7578 24.0703 20C24.0703 22.2422 22.2891 24.0469 20.0938 24.0469Z" fill="white"/>
<path id="Vector_4" d="M26.4609 14.9688C27.2505 14.9688 27.8906 14.3182 27.8906 13.5156C27.8906 12.7131 27.2505 12.0625 26.4609 12.0625C25.6713 12.0625 25.0312 12.7131 25.0312 13.5156C25.0312 14.3182 25.6713 14.9688 26.4609 14.9688Z" fill="white"/>
</g>
</g>
</g>
</g>
<defs>
<radialGradient id="paint0_radial_25_2047" cx="0" cy="0" r="1" gradientUnits="userSpaceOnUse" gradientTransform="translate(0.730924 36.3324) rotate(-86.9998) scale(57.8293 49.1549)">
<stop stop-color="#FED576"/>
<stop offset="0.2634" stop-color="#F47133"/>
<stop offset="0.6091" stop-color="#BC3081"/>
<stop offset="1" stop-color="#4C63D2"/>
</radialGradient>
<clipPath id="clip0_25_2047">
<rect width="40" height="40" fill="white"/>
</clipPath>
</defs>
</svg>
