<svg width="20" height="20" viewBox="0 0 20 20" fill="none" xmlns="http://www.w3.org/2000/svg">
<path d="M10 7.29163C9.2817 7.29163 8.59283 7.57697 8.08492 8.08488C7.57701 8.59279 7.29167 9.28166 7.29167 9.99996C7.29167 10.7183 7.57701 11.4071 8.08492 11.915C8.59283 12.423 9.2817 12.7083 10 12.7083C10.7183 12.7083 11.4072 12.423 11.9151 11.915C12.423 11.4071 12.7083 10.7183 12.7083 9.99996C12.7083 9.28166 12.423 8.59279 11.9151 8.08488C11.4072 7.57697 10.7183 7.29163 10 7.29163Z" fill="#EC615B"/>
<path fill-rule="evenodd" clip-rule="evenodd" d="M5.44833 2.25108C8.47352 1.91631 11.5265 1.91631 14.5517 2.25108C16.2044 2.43527 17.5369 3.73421 17.7309 5.39025C18.0897 8.45267 18.0897 11.5464 17.7309 14.6088C17.5369 16.2648 16.2044 17.5638 14.5526 17.7489C11.5271 18.0837 8.47381 18.0837 5.44833 17.7489C3.79562 17.5638 2.46318 16.2648 2.2691 14.6097C1.9103 11.547 1.9103 8.45296 2.2691 5.39025C2.46318 3.73421 3.79562 2.43527 5.44833 2.25108ZM14.3515 4.7864C14.1207 4.7864 13.8994 4.87794 13.7361 5.04088C13.5729 5.20382 13.4812 5.42482 13.4812 5.65525C13.4812 5.88569 13.5729 6.10668 13.7361 6.26963C13.8994 6.43257 14.1207 6.52411 14.3515 6.52411C14.5824 6.52411 14.8037 6.43257 14.9669 6.26963C15.1302 6.10668 15.2218 5.88569 15.2218 5.65525C15.2218 5.42482 15.1302 5.20382 14.9669 5.04088C14.8037 4.87794 14.5824 4.7864 14.3515 4.7864ZM5.86607 9.99953C5.86607 8.90497 6.30161 7.85523 7.07688 7.08126C7.85214 6.30728 8.90363 5.87247 10 5.87247C11.0964 5.87247 12.1479 6.30728 12.9232 7.08126C13.6984 7.85523 14.134 8.90497 14.134 9.99953C14.134 11.0941 13.6984 12.1438 12.9232 12.9178C12.1479 13.6918 11.0964 14.1266 10 14.1266C8.90363 14.1266 7.85214 13.6918 7.07688 12.9178C6.30161 12.1438 5.86607 11.0941 5.86607 9.99953Z" fill="#EC615B"/>
</svg>
