<svg width="98" height="78" viewBox="0 0 98 78" fill="none" xmlns="http://www.w3.org/2000/svg">
    <g filter="url(#filter0_d_428_27018)">
        <rect x="30" y="20" width="38" height="38" rx="6" fill="#B6B6B6"/>
        <path d="M48.2766 47.968C47.0459 47.968 45.9279 47.708 44.9226 47.188C43.9172 46.668 43.1199 45.8967 42.5306 44.874C41.9586 43.8513 41.6726 42.5773 41.6726 41.052V40.402H44.2206V41.52C44.2206 42.82 44.6019 43.834 45.3646 44.562C46.1272 45.2727 47.0979 45.628 48.2766 45.628C49.4552 45.628 50.4259 45.2727 51.1886 44.562C51.9512 43.834 52.3326 42.82 52.3326 41.52V30.288H54.8806V41.052C54.8806 42.5773 54.5859 43.8513 53.9966 44.874C53.4246 45.8967 52.6359 46.668 51.6306 47.188C50.6426 47.708 49.5246 47.968 48.2766 47.968ZM44.1686 30.808V28.52H54.8806V30.808H44.1686Z" fill="white"/>
    </g>
    <defs>
        <filter id="filter0_d_428_27018" x="0" y="-10" width="98" height="98" filterUnits="userSpaceOnUse" color-interpolation-filters="sRGB">
            <feFlood flood-opacity="0" result="BackgroundImageFix"/>
            <feColorMatrix in="SourceAlpha" type="matrix" values="0 0 0 0 0 0 0 0 0 0 0 0 0 0 0 0 0 0 127 0" result="hardAlpha"/>
            <feOffset/>
            <feGaussianBlur stdDeviation="15"/>
            <feComposite in2="hardAlpha" operator="out"/>
            <feColorMatrix type="matrix" values="0 0 0 0 0 0 0 0 0 0 0 0 0 0 0 0 0 0 0.1 0"/>
            <feBlend mode="normal" in2="BackgroundImageFix" result="effect1_dropShadow_428_27018"/>
            <feBlend mode="normal" in="SourceGraphic" in2="effect1_dropShadow_428_27018" result="shape"/>
        </filter>
    </defs>
</svg>
