<svg width="126" height="20" viewBox="0 0 126 20" fill="none" xmlns="http://www.w3.org/2000/svg">
    <path d="M1.25538 19.5C1.04738 19.5 0.871376 19.436 0.727376 19.308C0.599376 19.164 0.535376 18.988 0.535376 18.78V1.476C0.535376 1.268 0.599376 1.1 0.727376 0.972C0.871376 0.828 1.04738 0.756 1.25538 0.756C1.57538 0.756 1.79138 0.875999 1.90338 1.116L10.3994 17.892H9.55938L17.9354 1.116C18.0794 0.875999 18.2954 0.756 18.5834 0.756C18.7914 0.756 18.9594 0.828 19.0874 0.972C19.2154 1.1 19.2794 1.268 19.2794 1.476V18.78C19.2794 18.988 19.2154 19.164 19.0874 19.308C18.9594 19.436 18.7914 19.5 18.5834 19.5C18.3754 19.5 18.1994 19.436 18.0554 19.308C17.9114 19.164 17.8394 18.988 17.8394 18.78V3.204L18.1994 3.324L10.5434 18.924C10.4314 19.148 10.2234 19.26 9.91938 19.26C9.63138 19.26 9.40738 19.108 9.24738 18.804L1.49538 3.324L1.97538 3.204V18.78C1.97538 18.988 1.90338 19.164 1.75938 19.308C1.63138 19.436 1.46338 19.5 1.25538 19.5ZM25.0501 19.5C24.8421 19.5 24.6661 19.436 24.5221 19.308C24.3941 19.164 24.3301 18.988 24.3301 18.78V7.092C24.3301 6.868 24.3941 6.692 24.5221 6.564C24.6661 6.436 24.8421 6.372 25.0501 6.372C25.2741 6.372 25.4501 6.436 25.5781 6.564C25.7061 6.692 25.7701 6.868 25.7701 7.092V18.78C25.7701 18.988 25.7061 19.164 25.5781 19.308C25.4501 19.436 25.2741 19.5 25.0501 19.5ZM25.0261 3.612C24.7221 3.612 24.4581 3.508 24.2341 3.3C24.0261 3.076 23.9221 2.804 23.9221 2.484C23.9221 2.116 24.0341 1.844 24.2581 1.668C24.4981 1.476 24.7621 1.38 25.0501 1.38C25.3221 1.38 25.5701 1.476 25.7941 1.668C26.0341 1.844 26.1541 2.116 26.1541 2.484C26.1541 2.804 26.0421 3.076 25.8181 3.3C25.6101 3.508 25.3461 3.612 25.0261 3.612ZM41.9286 19.5C41.7206 19.5 41.5446 19.436 41.4006 19.308C41.2726 19.164 41.2086 18.988 41.2086 18.78V12.324C41.2086 11.268 41.0006 10.396 40.5846 9.708C40.1846 9.02 39.6326 8.508 38.9286 8.172C38.2406 7.82 37.4566 7.644 36.5766 7.644C35.7126 7.644 34.9366 7.812 34.2486 8.148C33.5606 8.468 33.0166 8.916 32.6166 9.492C32.2166 10.068 32.0166 10.716 32.0166 11.436H30.8166C30.8806 10.444 31.1766 9.556 31.7046 8.772C32.2326 7.972 32.9206 7.348 33.7686 6.9C34.6166 6.436 35.5526 6.204 36.5766 6.204C37.7286 6.204 38.7606 6.444 39.6726 6.924C40.6006 7.388 41.3286 8.076 41.8566 8.988C42.3846 9.884 42.6486 10.996 42.6486 12.324V18.78C42.6486 18.988 42.5766 19.164 42.4326 19.308C42.3046 19.436 42.1366 19.5 41.9286 19.5ZM31.2966 19.5C31.0886 19.5 30.9126 19.436 30.7686 19.308C30.6406 19.164 30.5766 18.988 30.5766 18.78V7.092C30.5766 6.868 30.6406 6.692 30.7686 6.564C30.9126 6.436 31.0886 6.372 31.2966 6.372C31.5206 6.372 31.6966 6.436 31.8246 6.564C31.9526 6.692 32.0166 6.868 32.0166 7.092V18.78C32.0166 18.988 31.9526 19.164 31.8246 19.308C31.6966 19.436 31.5206 19.5 31.2966 19.5ZM47.9251 19.5C47.7171 19.5 47.5411 19.436 47.3971 19.308C47.2691 19.164 47.2051 18.988 47.2051 18.78V7.092C47.2051 6.868 47.2691 6.692 47.3971 6.564C47.5411 6.436 47.7171 6.372 47.9251 6.372C48.1491 6.372 48.3251 6.436 48.4531 6.564C48.5811 6.692 48.6451 6.868 48.6451 7.092V18.78C48.6451 18.988 48.5811 19.164 48.4531 19.308C48.3251 19.436 48.1491 19.5 47.9251 19.5ZM47.9011 3.612C47.5971 3.612 47.3331 3.508 47.1091 3.3C46.9011 3.076 46.7971 2.804 46.7971 2.484C46.7971 2.116 46.9091 1.844 47.1331 1.668C47.3731 1.476 47.6371 1.38 47.9251 1.38C48.1971 1.38 48.4451 1.476 48.6691 1.668C48.9091 1.844 49.0291 2.116 49.0291 2.484C49.0291 2.804 48.9171 3.076 48.6931 3.3C48.4851 3.508 48.2211 3.612 47.9011 3.612ZM71.5236 19.5C71.3156 19.5 71.1396 19.436 70.9956 19.308C70.8676 19.164 70.8036 18.988 70.8036 18.78V11.844C70.8036 10.612 70.4756 9.604 69.8196 8.82C69.1796 8.036 68.3396 7.644 67.2996 7.644C66.1956 7.644 65.2916 8.012 64.5876 8.748C63.8996 9.468 63.5716 10.444 63.6036 11.676H62.1636C62.1956 10.572 62.4356 9.612 62.8836 8.796C63.3316 7.98 63.9396 7.348 64.7076 6.9C65.4756 6.436 66.3396 6.204 67.2996 6.204C68.2756 6.204 69.1316 6.444 69.8676 6.924C70.6036 7.404 71.1796 8.068 71.5956 8.916C72.0276 9.764 72.2436 10.74 72.2436 11.844V18.78C72.2436 18.988 72.1796 19.164 72.0516 19.308C71.9236 19.436 71.7476 19.5 71.5236 19.5ZM54.1716 19.5C53.9636 19.5 53.7876 19.436 53.6436 19.308C53.5156 19.164 53.4516 18.988 53.4516 18.78V7.092C53.4516 6.868 53.5156 6.692 53.6436 6.564C53.7876 6.436 53.9636 6.372 54.1716 6.372C54.3956 6.372 54.5716 6.436 54.6996 6.564C54.8276 6.692 54.8916 6.868 54.8916 7.092V18.78C54.8916 18.988 54.8276 19.164 54.6996 19.308C54.5716 19.436 54.3956 19.5 54.1716 19.5ZM62.8836 19.5C62.6756 19.5 62.4996 19.436 62.3556 19.308C62.2276 19.164 62.1636 18.988 62.1636 18.78V11.844C62.1636 10.612 61.8356 9.604 61.1796 8.82C60.5396 8.036 59.6996 7.644 58.6596 7.644C57.5556 7.644 56.6516 7.996 55.9476 8.7C55.2436 9.404 54.8916 10.316 54.8916 11.436H53.6916C53.7396 10.412 53.9796 9.508 54.4116 8.724C54.8596 7.94 55.4516 7.324 56.1876 6.876C56.9236 6.428 57.7476 6.204 58.6596 6.204C59.6356 6.204 60.4916 6.444 61.2276 6.924C61.9636 7.404 62.5396 8.068 62.9556 8.916C63.3876 9.764 63.6036 10.74 63.6036 11.844V18.78C63.6036 18.988 63.5396 19.164 63.4116 19.308C63.2836 19.436 63.1076 19.5 62.8836 19.5ZM82.3266 19.644C81.0466 19.644 79.8946 19.356 78.8706 18.78C77.8626 18.188 77.0626 17.388 76.4706 16.38C75.8946 15.356 75.6066 14.212 75.6066 12.948C75.6066 11.668 75.8946 10.524 76.4706 9.516C77.0626 8.492 77.8626 7.692 78.8706 7.116C79.8946 6.524 81.0466 6.228 82.3266 6.228C83.6066 6.228 84.7506 6.524 85.7586 7.116C86.7666 7.692 87.5586 8.492 88.1346 9.516C88.7266 10.524 89.0226 11.668 89.0226 12.948L88.4226 13.908C88.4226 14.996 88.1506 15.972 87.6066 16.836C87.0786 17.7 86.3586 18.388 85.4466 18.9C84.5346 19.396 83.4946 19.644 82.3266 19.644ZM82.3266 18.3C83.3346 18.3 84.2306 18.068 85.0146 17.604C85.8146 17.124 86.4386 16.484 86.8866 15.684C87.3506 14.868 87.5826 13.956 87.5826 12.948C87.5826 11.924 87.3506 11.012 86.8866 10.212C86.4386 9.396 85.8146 8.756 85.0146 8.292C84.2306 7.812 83.3346 7.572 82.3266 7.572C81.3346 7.572 80.4386 7.812 79.6386 8.292C78.8386 8.756 78.2066 9.396 77.7426 10.212C77.2786 11.012 77.0466 11.924 77.0466 12.948C77.0466 13.956 77.2786 14.868 77.7426 15.684C78.2066 16.484 78.8386 17.124 79.6386 17.604C80.4386 18.068 81.3346 18.3 82.3266 18.3ZM88.3026 19.5C88.0946 19.5 87.9186 19.436 87.7746 19.308C87.6466 19.164 87.5826 18.988 87.5826 18.78V14.388L88.0386 12.948H89.0226V18.78C89.0226 18.988 88.9586 19.164 88.8306 19.308C88.7026 19.436 88.5266 19.5 88.3026 19.5ZM95.2557 19.5C94.6477 19.5 94.1037 19.332 93.6237 18.996C93.1597 18.66 92.7917 18.196 92.5197 17.604C92.2637 17.012 92.1357 16.324 92.1357 15.54V1.476C92.1357 1.252 92.1997 1.076 92.3277 0.947999C92.4717 0.819999 92.6477 0.756 92.8557 0.756C93.0797 0.756 93.2557 0.819999 93.3837 0.947999C93.5117 1.076 93.5757 1.252 93.5757 1.476V15.54C93.5757 16.276 93.7277 16.884 94.0317 17.364C94.3517 17.828 94.7597 18.06 95.2557 18.06H95.8557C96.0317 18.06 96.1757 18.124 96.2877 18.252C96.3997 18.38 96.4557 18.556 96.4557 18.78C96.4557 18.988 96.3917 19.164 96.2637 19.308C96.1357 19.436 95.9597 19.5 95.7357 19.5H95.2557ZM100.284 19.5C100.076 19.5 99.9004 19.436 99.7564 19.308C99.6284 19.164 99.5644 18.988 99.5644 18.78V7.092C99.5644 6.868 99.6284 6.692 99.7564 6.564C99.9004 6.436 100.076 6.372 100.284 6.372C100.508 6.372 100.684 6.436 100.812 6.564C100.94 6.692 101.004 6.868 101.004 7.092V18.78C101.004 18.988 100.94 19.164 100.812 19.308C100.684 19.436 100.508 19.5 100.284 19.5ZM100.26 3.612C99.9564 3.612 99.6924 3.508 99.4684 3.3C99.2604 3.076 99.1564 2.804 99.1564 2.484C99.1564 2.116 99.2684 1.844 99.4924 1.668C99.7324 1.476 99.9964 1.38 100.284 1.38C100.556 1.38 100.804 1.476 101.028 1.668C101.268 1.844 101.388 2.116 101.388 2.484C101.388 2.804 101.276 3.076 101.052 3.3C100.844 3.508 100.58 3.612 100.26 3.612ZM110.275 19.644C109.443 19.644 108.571 19.492 107.659 19.188C106.747 18.884 105.987 18.372 105.379 17.652C105.251 17.492 105.195 17.324 105.211 17.148C105.243 16.956 105.347 16.796 105.523 16.668C105.683 16.556 105.851 16.516 106.027 16.548C106.219 16.58 106.371 16.668 106.483 16.812C106.947 17.356 107.507 17.74 108.163 17.964C108.835 18.172 109.563 18.276 110.347 18.276C111.691 18.276 112.643 18.036 113.203 17.556C113.763 17.076 114.043 16.516 114.043 15.876C114.043 15.252 113.739 14.74 113.131 14.34C112.539 13.924 111.619 13.628 110.371 13.452C108.771 13.228 107.587 12.796 106.819 12.156C106.051 11.516 105.667 10.772 105.667 9.924C105.667 9.124 105.867 8.452 106.267 7.908C106.667 7.348 107.211 6.932 107.899 6.66C108.603 6.372 109.403 6.228 110.299 6.228C111.387 6.228 112.307 6.428 113.059 6.828C113.811 7.212 114.419 7.732 114.883 8.388C115.011 8.548 115.051 8.724 115.003 8.916C114.971 9.092 114.851 9.236 114.643 9.348C114.483 9.428 114.315 9.452 114.139 9.42C113.963 9.388 113.811 9.292 113.683 9.132C113.283 8.62 112.795 8.236 112.219 7.98C111.659 7.708 111.003 7.572 110.251 7.572C109.243 7.572 108.459 7.788 107.899 8.22C107.339 8.652 107.059 9.172 107.059 9.78C107.059 10.196 107.171 10.564 107.395 10.884C107.635 11.188 108.019 11.452 108.547 11.676C109.075 11.884 109.779 12.052 110.659 12.18C111.859 12.34 112.803 12.612 113.491 12.996C114.195 13.38 114.691 13.828 114.979 14.34C115.283 14.836 115.435 15.372 115.435 15.948C115.435 16.7 115.195 17.356 114.715 17.916C114.235 18.476 113.603 18.908 112.819 19.212C112.035 19.5 111.187 19.644 110.275 19.644ZM124.054 19.5C123.174 19.484 122.39 19.284 121.702 18.9C121.014 18.5 120.478 17.956 120.094 17.268C119.71 16.564 119.518 15.772 119.518 14.892V2.94C119.518 2.716 119.582 2.54 119.71 2.412C119.854 2.268 120.03 2.196 120.238 2.196C120.462 2.196 120.638 2.268 120.766 2.412C120.91 2.54 120.982 2.716 120.982 2.94V14.892C120.982 15.82 121.27 16.58 121.846 17.172C122.422 17.748 123.166 18.036 124.078 18.036H124.606C124.83 18.036 125.006 18.108 125.134 18.252C125.278 18.38 125.35 18.556 125.35 18.78C125.35 18.988 125.278 19.164 125.134 19.308C125.006 19.436 124.83 19.5 124.606 19.5H124.054ZM117.646 8.148C117.454 8.148 117.294 8.092 117.166 7.98C117.054 7.852 116.998 7.692 116.998 7.5C116.998 7.308 117.054 7.156 117.166 7.044C117.294 6.916 117.454 6.852 117.646 6.852H124.15C124.342 6.852 124.494 6.916 124.606 7.044C124.734 7.156 124.798 7.308 124.798 7.5C124.798 7.692 124.734 7.852 124.606 7.98C124.494 8.092 124.342 8.148 124.15 8.148H117.646Z" fill="#1A2037"/>
</svg>
