<svg width="25" height="26" viewBox="0 0 25 26" fill="none" xmlns="http://www.w3.org/2000/svg">
<path d="M3.5 22V8C3.5 6.34315 4.84315 5 6.5 5H14.5C16.1569 5 17.5 6.34315 17.5 8V22C17.5 23.6569 16.1569 25 14.5 25H6.5C4.84315 25 3.5 23.6569 3.5 22Z" stroke="#999999" stroke-width="1.4" stroke-linecap="round"/>
<path d="M14.0324 11H20.9676C22.5222 11 23.4824 9.30406 22.6826 7.97101L21.5123 6.02043C21.5041 6.00691 21.4984 5.9921 21.4953 5.97663L21.0883 3.94174C20.7462 2.23124 19.2444 1 17.5 1C15.7556 1 14.2538 2.23124 13.9117 3.94174L13.5047 5.97663C13.5016 5.9921 13.4959 6.00691 13.4877 6.02043L12.3174 7.97101C11.5176 9.30406 12.4778 11 14.0324 11Z" fill="white" stroke="#999999" stroke-width="1.4" stroke-linecap="round"/>
<path d="M8.5 21H12.5" stroke="#999999" stroke-width="1.4" stroke-linecap="round"/>
<path d="M19.5 11.0652V12C19.5 13.1046 18.6046 14 17.5 14C16.3954 14 15.5 13.1046 15.5 12V11.0652C15.5 11.0292 15.5292 11 15.5652 11H19.4348C19.4708 11 19.5 11.0292 19.5 11.0652Z" fill="white" stroke="#999999" stroke-width="1.4" stroke-linecap="round"/>
</svg>
