<svg width="28" height="28" viewBox="0 0 28 28" fill="none" xmlns="http://www.w3.org/2000/svg">
<path d="M19.1314 15.4302V20.999C19.1314 21.2568 18.9224 21.4657 18.6647 21.4657H8.74804C8.49031 21.4657 8.28138 21.2568 8.28138 20.999V7.58236C8.28138 7.32463 8.49031 7.1157 8.74805 7.1157H12.6433C12.6569 6.63298 12.7263 6.16424 12.8453 5.7157H8.74805C7.71711 5.7157 6.88138 6.55143 6.88138 7.58236V20.999C6.88138 22.03 7.71711 22.8657 8.74804 22.8657H18.6647C19.6956 22.8657 20.5314 22.03 20.5314 20.999V15C20.1181 15.2482 19.6414 15.4016 19.1314 15.4302Z" fill="#ACACAC"/>
<path d="M12.832 17.966C12.4454 17.966 12.132 18.2794 12.132 18.666C12.132 19.0526 12.4454 19.366 12.832 19.366H14.582C14.9686 19.366 15.282 19.0526 15.282 18.666C15.282 18.2794 14.9686 17.966 14.582 17.966H12.832Z" fill="#ACACAC"/>
<path d="M16.7695 9.91602H14.6513C14.6131 9.91602 14.582 9.88499 14.582 9.84671V7.29102C14.582 4.87477 16.5408 2.91602 18.957 2.91602V2.91602C21.3733 2.91602 23.332 4.87477 23.332 7.29102V9.84671C23.332 9.88499 23.301 9.91602 23.2627 9.91602H21.1445M16.7695 9.91602V11.2285C16.7695 12.4366 17.7489 13.416 18.957 13.416V13.416C20.1652 13.416 21.1445 12.4366 21.1445 11.2285V9.91602M16.7695 9.91602H21.1445" stroke="#ACACAC" stroke-width="1.4" stroke-linecap="round"/>
</svg>
