<svg width="48" height="48" viewBox="0 0 48 48" fill="none" xmlns="http://www.w3.org/2000/svg">
<path d="M23.1572 12C23.2171 11.4129 23.2521 10.7495 23.2534 10H15.6572C12.8958 10 10.6572 12.2386 10.6572 15V35C10.6572 37.7614 12.8958 40 15.6572 40H26.657C29.4184 40 31.657 37.7615 31.657 35L31.6674 24.9958C31.6571 25 31.6468 25.0042 31.6365 25.0083C31.1838 25.1909 30.6995 25.2846 30.2109 25.2846C30.0287 25.2846 29.847 25.2716 29.6673 25.2457L29.657 35C29.657 36.6569 28.3139 38 26.657 38H15.6572C14.0004 38 12.6572 36.6569 12.6572 35V15C12.6572 13.3431 14.0004 12 15.6572 12H23.1572Z" fill="#EC615B"/>
<path d="M20.1573 33.5002C19.605 33.5002 19.1573 33.948 19.1573 34.5002C19.1573 35.0525 19.605 35.5002 20.1573 35.5002H23.1573C23.7096 35.5002 24.1573 35.0525 24.1573 34.5002C24.1573 33.948 23.7096 33.5002 23.1573 33.5002H20.1573Z" fill="#EC615B"/>
<path d="M33.9168 8.39804L33.2192 9.11451L33.2192 9.11451L33.9168 8.39804ZM26.984 8.39804L27.6817 9.11451L27.6817 9.11451L26.984 8.39804ZM23.6756 17.5948L24.2044 18.4436L24.2044 18.4436L23.6756 17.5948ZM36.9832 17.6002L37.5622 16.7849L37.5621 16.7849L36.9832 17.6002ZM28.7101 16.7641C28.1579 16.7641 27.7101 17.2118 27.7101 17.7641C27.7101 18.3164 28.1579 18.7641 28.7101 18.7641V16.7641ZM33.7015 20.6636C33.7015 20.1113 33.2537 19.6636 32.7015 19.6636C32.1492 19.6636 31.7015 20.1113 31.7015 20.6636H33.7015ZM31.3427 22.6436L30.9687 21.7162L30.9687 21.7162L31.3427 22.6436ZM29.2995 20.6636C29.2995 20.1113 28.8517 19.6636 28.2995 19.6636C27.7472 19.6636 27.2995 20.1113 27.2995 20.6636H29.2995ZM28.6996 18.7641C29.2519 18.7641 29.6996 18.3164 29.6996 17.7641C29.6996 17.2118 29.2519 16.7641 28.6996 16.7641V18.7641ZM36.3527 11.7732C36.3527 10.2333 35.7242 8.76208 34.6144 7.68157L33.2192 9.11451C33.9482 9.82431 34.3527 10.7812 34.3527 11.7732H36.3527ZM34.6144 7.68157C33.5056 6.60195 32.0073 6 30.4504 6V8C31.4938 8 32.4893 8.40384 33.2192 9.11451L34.6144 7.68157ZM30.4504 6C28.8935 6 27.3952 6.60195 26.2864 7.68157L27.6817 9.11451C28.4115 8.40384 29.407 8 30.4504 8V6ZM26.2864 7.68157C25.1767 8.76208 24.5482 10.2333 24.5482 11.7732H26.5482C26.5482 10.7812 26.9527 9.82431 27.6817 9.11451L26.2864 7.68157ZM24.5482 11.7732C24.5482 15.7054 23.3817 16.5997 23.1468 16.7461L24.2044 18.4436C25.252 17.7909 26.5482 16.0784 26.5482 11.7732H24.5482ZM37.5621 16.7849C37.396 16.6669 36.3527 15.7754 36.3527 11.7732H34.3527C34.3527 16.0461 35.4632 17.7474 36.4042 18.4156L37.5621 16.7849ZM36.939 16.7641H28.7101V18.7641H36.939V16.7641ZM31.7015 20.6636C31.7015 20.81 31.6719 20.9556 31.6137 21.0923L33.4541 21.8752C33.6172 21.4919 33.7015 21.0801 33.7015 20.6636H31.7015ZM31.6137 21.0923C31.5555 21.2291 31.4695 21.3551 31.3592 21.4625L32.7544 22.8955C33.0529 22.6049 33.2911 22.2584 33.4541 21.8752L31.6137 21.0923ZM31.3592 21.4625C31.2488 21.57 31.1164 21.6566 30.9687 21.7162L31.7168 23.571C32.1032 23.4151 32.456 23.186 32.7544 22.8955L31.3592 21.4625ZM30.9687 21.7162C30.821 21.7757 30.6618 21.8067 30.5005 21.8067V23.8067C30.9172 23.8067 31.3304 23.7268 31.7168 23.571L30.9687 21.7162ZM30.5005 21.8067C30.3391 21.8067 30.1799 21.7757 30.0322 21.7162L29.2841 23.571C29.6705 23.7268 30.0837 23.8067 30.5005 23.8067V21.8067ZM30.0322 21.7162C29.8846 21.6566 29.7521 21.57 29.6417 21.4625L28.2465 22.8955C28.5449 23.186 28.8977 23.4151 29.2841 23.571L30.0322 21.7162ZM29.6417 21.4625C29.5314 21.3551 29.4454 21.2291 29.3872 21.0923L27.5468 21.8752C27.7098 22.2584 27.948 22.6049 28.2465 22.8955L29.6417 21.4625ZM29.3872 21.0923C29.329 20.9556 29.2995 20.81 29.2995 20.6636H27.2995C27.2995 21.0801 27.3838 21.4919 27.5468 21.8752L29.3872 21.0923ZM23.7166 18.7641H28.6996V16.7641H23.7166V18.7641ZM36.4042 18.4156C36.0453 18.1607 36.0088 17.7925 36.0028 17.7214C35.9925 17.5983 36.0098 17.5008 36.0266 17.4374C36.0428 17.3758 36.0774 17.2741 36.1567 17.1627C36.208 17.0905 36.4575 16.7641 36.939 16.7641V18.7641C37.4444 18.7641 37.7162 18.4206 37.7863 18.322C37.8844 18.1842 37.9343 18.0466 37.9604 17.9475C37.9871 17.8466 38.009 17.7098 37.9958 17.5534C37.987 17.449 37.9404 17.0535 37.5622 16.7849L36.4042 18.4156ZM23.1468 16.7461C22.7318 17.0046 22.6747 17.4242 22.6638 17.5235C22.6466 17.6812 22.6657 17.8193 22.6896 17.92C22.7131 18.0189 22.7592 18.1577 22.8534 18.2982C22.9167 18.3925 23.1891 18.7641 23.7166 18.7641V16.7641C24.2198 16.7641 24.4699 17.1177 24.5145 17.1843C24.5901 17.297 24.6214 17.3983 24.6355 17.458C24.6501 17.5195 24.6655 17.6169 24.652 17.7405C24.6449 17.8056 24.599 18.1977 24.2044 18.4436L23.1468 16.7461Z" fill="#EC615B"/>
</svg>
