<svg width="90" height="90" viewBox="0 0 90 90" fill="none" xmlns="http://www.w3.org/2000/svg">
<rect x="0.5" y="0.5" width="89" height="89" rx="6.5" fill="white"/>
<path fill-rule="evenodd" clip-rule="evenodd" d="M55 34.1667H31.6667L31.6667 47.1116L37.6965 40.8991C38.3729 40.2021 39.4996 40.2289 40.1422 40.9571L44.9178 46.3695L48.211 43.8813C48.8055 43.4322 49.6259 43.4322 50.2204 43.8813L55 47.4926L55 34.1667ZM31.6667 54.1667L31.6667 49.5046L38.8924 42.0598L43.6681 47.4722C44.2446 48.1257 45.2272 48.2246 45.9225 47.6993L49.2157 45.2111L55 49.5815V54.1667L31.6667 54.1667ZM31.6667 32.5C30.7462 32.5 30 33.2462 30 34.1667V54.1667C30 55.0871 30.7462 55.8333 31.6667 55.8333H55C55.9205 55.8333 56.6667 55.0871 56.6667 54.1667V34.1667C56.6667 33.2462 55.9205 32.5 55 32.5H31.6667ZM48.3366 38.3333C48.3366 38.7936 47.9635 39.1667 47.5033 39.1667C47.043 39.1667 46.6699 38.7936 46.6699 38.3333C46.6699 37.8731 47.043 37.5 47.5033 37.5C47.9635 37.5 48.3366 37.8731 48.3366 38.3333ZM50.0033 38.3333C50.0033 39.714 48.884 40.8333 47.5033 40.8333C46.1225 40.8333 45.0033 39.714 45.0033 38.3333C45.0033 36.9526 46.1225 35.8333 47.5033 35.8333C48.884 35.8333 50.0033 36.9526 50.0033 38.3333Z" fill="#8A8B8C"/>
<rect x="48.333" y="45.8334" width="11.6667" height="11.6667" rx="5.83333" fill="white"/>
<path fill-rule="evenodd" clip-rule="evenodd" d="M58.333 51.6667C58.333 53.9679 56.4675 55.8334 54.1663 55.8334C53.3171 55.8334 52.5272 55.5793 51.8685 55.143L57.6427 49.3689C58.0789 50.0276 58.333 50.8175 58.333 51.6667ZM50.69 53.9645L56.4642 48.1904C55.8055 47.7541 55.0156 47.5 54.1663 47.5C51.8652 47.5 49.9997 49.3655 49.9997 51.6667C49.9997 52.5159 50.2537 53.3058 50.69 53.9645ZM59.9997 51.6667C59.9997 54.8884 57.388 57.5 54.1663 57.5C50.9447 57.5 48.333 54.8884 48.333 51.6667C48.333 48.445 50.9447 45.8334 54.1663 45.8334C57.388 45.8334 59.9997 48.445 59.9997 51.6667Z" fill="#8A8B8C"/>
<rect x="0.5" y="0.5" width="89" height="89" rx="6.5" stroke="#D9D9DA"/>
</svg>
