<svg width="88" height="88" viewBox="0 0 88 88" fill="none" xmlns="http://www.w3.org/2000/svg">
<rect x="0.5" y="0.5" width="87" height="87" rx="5.5" fill="white"/>
<path fill-rule="evenodd" clip-rule="evenodd" d="M54 33.1667H30.6667L30.6667 46.1116L36.6965 39.8991C37.3729 39.2021 38.4996 39.2289 39.1422 39.9571L43.9178 45.3695L47.211 42.8813C47.8055 42.4322 48.6259 42.4322 49.2204 42.8813L54 46.4926L54 33.1667ZM30.6667 53.1667L30.6667 48.5046L37.8924 41.0598L42.6681 46.4722C43.2446 47.1257 44.2272 47.2246 44.9225 46.6993L48.2157 44.2111L54 48.5815V53.1667L30.6667 53.1667ZM30.6667 31.5C29.7462 31.5 29 32.2462 29 33.1667V53.1667C29 54.0871 29.7462 54.8333 30.6667 54.8333H54C54.9205 54.8333 55.6667 54.0871 55.6667 53.1667V33.1667C55.6667 32.2462 54.9205 31.5 54 31.5H30.6667ZM47.3366 37.3333C47.3366 37.7936 46.9635 38.1667 46.5033 38.1667C46.043 38.1667 45.6699 37.7936 45.6699 37.3333C45.6699 36.8731 46.043 36.5 46.5033 36.5C46.9635 36.5 47.3366 36.8731 47.3366 37.3333ZM49.0033 37.3333C49.0033 38.714 47.884 39.8333 46.5033 39.8333C45.1225 39.8333 44.0033 38.714 44.0033 37.3333C44.0033 35.9526 45.1225 34.8333 46.5033 34.8333C47.884 34.8333 49.0033 35.9526 49.0033 37.3333Z" fill="#1A2037"/>
<rect x="47.333" y="44.8334" width="11.6667" height="11.6667" rx="5.83333" fill="white"/>
<path fill-rule="evenodd" clip-rule="evenodd" d="M57.333 50.6667C57.333 52.9679 55.4675 54.8334 53.1663 54.8334C52.3171 54.8334 51.5272 54.5793 50.8685 54.143L56.6427 48.3689C57.0789 49.0276 57.333 49.8175 57.333 50.6667ZM49.69 52.9645L55.4642 47.1904C54.8055 46.7541 54.0156 46.5 53.1663 46.5C50.8652 46.5 48.9997 48.3655 48.9997 50.6667C48.9997 51.5159 49.2537 52.3058 49.69 52.9645ZM58.9997 50.6667C58.9997 53.8884 56.388 56.5 53.1663 56.5C49.9447 56.5 47.333 53.8884 47.333 50.6667C47.333 47.445 49.9447 44.8334 53.1663 44.8334C56.388 44.8334 58.9997 47.445 58.9997 50.6667Z" fill="#1A2037"/>
<rect x="0.5" y="0.5" width="87" height="87" rx="5.5" stroke="#1A2037"/>
</svg>
