<svg width="30" height="30" viewBox="0 0 30 30" fill="none" xmlns="http://www.w3.org/2000/svg">
<path d="M22.4 10V21C22.4 21.7732 21.7732 22.4 21 22.4H9C8.2268 22.4 7.6 21.7732 7.6 21V10C7.6 9.2268 8.2268 8.6 9 8.6H21C21.7732 8.6 22.4 9.2268 22.4 10Z" stroke="#797979" stroke-width="1.2" stroke-linejoin="round"/>
<path d="M7.5 12H22.5" stroke="#797979" stroke-width="1.2"/>
<rect x="10" y="18" width="2" height="2" rx="1" fill="#797979"/>
<rect x="10" y="14" width="2" height="2" rx="1" fill="#797979"/>
<rect x="14" y="18" width="2" height="2" rx="1" fill="#797979"/>
<rect x="14" y="14" width="2" height="2" rx="1" fill="#797979"/>
<rect x="18" y="14" width="2" height="2" rx="1" fill="#797979"/>
<path d="M12 7L12 8" stroke="#797979" stroke-width="1.2" stroke-linecap="round"/>
<path d="M18 7L18 8" stroke="#797979" stroke-width="1.2" stroke-linecap="round"/>
</svg>
