 <svg width="97" height="26" viewBox="0 0 97 26" fill="none" xmlns="http://www.w3.org/2000/svg">
    <path d="M9.47441 19.168C7.92241 19.168 6.49041 18.808 5.17841 18.088C3.88241 17.352 2.85041 16.336 2.08241 15.04C1.33041 13.728 0.954406 12.256 0.954406 10.624C0.954406 8.992 1.33041 7.528 2.08241 6.232C2.85041 4.936 3.88241 3.928 5.17841 3.208C6.49041 2.472 7.92241 2.104 9.47441 2.104C11.0424 2.104 12.4744 2.472 13.7704 3.208C15.0824 3.928 16.1144 4.936 16.8664 6.232C17.6184 7.528 17.9944 8.992 17.9944 10.624C17.9944 12.256 17.6184 13.728 16.8664 15.04C16.1144 16.336 15.0824 17.352 13.7704 18.088C12.4744 18.808 11.0424 19.168 9.47441 19.168ZM9.47441 16.792C10.5784 16.792 11.5624 16.544 12.4264 16.048C13.2904 15.536 13.9624 14.816 14.4424 13.888C14.9384 12.944 15.1864 11.856 15.1864 10.624C15.1864 9.392 14.9384 8.312 14.4424 7.384C13.9624 6.456 13.2904 5.744 12.4264 5.248C11.5624 4.752 10.5784 4.504 9.47441 4.504C8.37041 4.504 7.38641 4.752 6.52241 5.248C5.65841 5.744 4.97841 6.456 4.48241 7.384C4.00241 8.312 3.76241 9.392 3.76241 10.624C3.76241 11.856 4.00241 12.944 4.48241 13.888C4.97841 14.816 5.65841 15.536 6.52241 16.048C7.38641 16.544 8.37041 16.792 9.47441 16.792ZM23.4227 7.696C23.8227 7.024 24.3507 6.504 25.0067 6.136C25.6787 5.752 26.4707 5.56 27.3827 5.56V8.392H26.6867C25.6147 8.392 24.7987 8.664 24.2387 9.208C23.6947 9.752 23.4227 10.696 23.4227 12.04V19H20.6867V5.776H23.4227V7.696ZM35.2257 5.56C36.2497 5.56 37.1537 5.768 37.9377 6.184C38.7377 6.584 39.3617 7.088 39.8097 7.696V5.776H42.5697V19.216C42.5697 20.432 42.3137 21.512 41.8017 22.456C41.2897 23.416 40.5457 24.168 39.5697 24.712C38.6097 25.256 37.4577 25.528 36.1137 25.528C34.3217 25.528 32.8337 25.104 31.6497 24.256C30.4657 23.424 29.7937 22.288 29.6337 20.848H32.3457C32.5537 21.536 32.9937 22.088 33.6657 22.504C34.3537 22.936 35.1697 23.152 36.1137 23.152C37.2177 23.152 38.1057 22.816 38.7777 22.144C39.4657 21.472 39.8097 20.496 39.8097 19.216V17.008C39.3457 17.632 38.7137 18.16 37.9137 18.592C37.1297 19.008 36.2337 19.216 35.2257 19.216C34.0737 19.216 33.0177 18.928 32.0577 18.352C31.1137 17.76 30.3617 16.944 29.8017 15.904C29.2577 14.848 28.9857 13.656 28.9857 12.328C28.9857 11 29.2577 9.824 29.8017 8.8C30.3617 7.776 31.1137 6.984 32.0577 6.424C33.0177 5.848 34.0737 5.56 35.2257 5.56ZM39.8097 12.376C39.8097 11.464 39.6177 10.672 39.2337 10C38.8657 9.328 38.3777 8.816 37.7697 8.464C37.1617 8.112 36.5057 7.936 35.8017 7.936C35.0977 7.936 34.4417 8.112 33.8337 8.464C33.2257 8.8 32.7297 9.304 32.3457 9.976C31.9777 10.632 31.7937 11.416 31.7937 12.328C31.7937 13.24 31.9777 14.04 32.3457 14.728C32.7297 15.416 33.2257 15.944 33.8337 16.312C34.4577 16.664 35.1137 16.84 35.8017 16.84C36.5057 16.84 37.1617 16.664 37.7697 16.312C38.3777 15.96 38.8657 15.448 39.2337 14.776C39.6177 14.088 39.8097 13.288 39.8097 12.376ZM45.2513 12.328C45.2513 11 45.5233 9.824 46.0673 8.8C46.6273 7.776 47.3793 6.984 48.3233 6.424C49.2833 5.848 50.3393 5.56 51.4913 5.56C52.5313 5.56 53.4353 5.768 54.2033 6.184C54.9873 6.584 55.6113 7.088 56.0753 7.696V5.776H58.8353V19H56.0753V17.032C55.6113 17.656 54.9793 18.176 54.1793 18.592C53.3793 19.008 52.4673 19.216 51.4433 19.216C50.3073 19.216 49.2673 18.928 48.3233 18.352C47.3793 17.76 46.6273 16.944 46.0673 15.904C45.5233 14.848 45.2513 13.656 45.2513 12.328ZM56.0753 12.376C56.0753 11.464 55.8833 10.672 55.4993 10C55.1313 9.328 54.6433 8.816 54.0353 8.464C53.4273 8.112 52.7713 7.936 52.0673 7.936C51.3633 7.936 50.7073 8.112 50.0993 8.464C49.4913 8.8 48.9953 9.304 48.6113 9.976C48.2433 10.632 48.0593 11.416 48.0593 12.328C48.0593 13.24 48.2433 14.04 48.6113 14.728C48.9953 15.416 49.4913 15.944 50.0993 16.312C50.7233 16.664 51.3793 16.84 52.0673 16.84C52.7713 16.84 53.4273 16.664 54.0353 16.312C54.6433 15.96 55.1313 15.448 55.4993 14.776C55.8833 14.088 56.0753 13.288 56.0753 12.376ZM69.1009 5.56C70.1409 5.56 71.0689 5.776 71.8849 6.208C72.7169 6.64 73.3649 7.28 73.8289 8.128C74.2929 8.976 74.5249 10 74.5249 11.2V19H71.8129V11.608C71.8129 10.424 71.5169 9.52 70.9249 8.896C70.3329 8.256 69.5249 7.936 68.5009 7.936C67.4769 7.936 66.6609 8.256 66.0529 8.896C65.4609 9.52 65.1649 10.424 65.1649 11.608V19H62.4289V5.776H65.1649V7.288C65.6129 6.744 66.1809 6.32 66.8689 6.016C67.5729 5.712 68.3169 5.56 69.1009 5.56ZM79.4068 4.024C78.9108 4.024 78.4948 3.856 78.1588 3.52C77.8228 3.184 77.6548 2.768 77.6548 2.272C77.6548 1.776 77.8228 1.36 78.1588 1.024C78.4948 0.687999 78.9108 0.519999 79.4068 0.519999C79.8868 0.519999 80.2948 0.687999 80.6308 1.024C80.9668 1.36 81.1348 1.776 81.1348 2.272C81.1348 2.768 80.9668 3.184 80.6308 3.52C80.2948 3.856 79.8868 4.024 79.4068 4.024ZM80.7508 5.776V19H78.0148V5.776H80.7508ZM83.431 12.376C83.431 11.016 83.703 9.824 84.247 8.8C84.807 7.76 85.575 6.96 86.551 6.4C87.527 5.84 88.647 5.56 89.911 5.56C91.511 5.56 92.831 5.944 93.871 6.712C94.927 7.464 95.639 8.544 96.007 9.952H93.055C92.815 9.296 92.431 8.784 91.903 8.416C91.375 8.048 90.711 7.864 89.911 7.864C88.791 7.864 87.895 8.264 87.223 9.064C86.567 9.848 86.239 10.952 86.239 12.376C86.239 13.8 86.567 14.912 87.223 15.712C87.895 16.512 88.791 16.912 89.911 16.912C91.495 16.912 92.543 16.216 93.055 14.824H96.007C95.623 16.168 94.903 17.24 93.847 18.04C92.791 18.824 91.479 19.216 89.911 19.216C88.647 19.216 87.527 18.936 86.551 18.376C85.575 17.8 84.807 17 84.247 15.976C83.703 14.936 83.431 13.736 83.431 12.376Z" fill="#1A2037"/>
</svg>
