<svg width="25" height="25" viewBox="0 0 25 25" fill="none" xmlns="http://www.w3.org/2000/svg">
<mask id="mask0_766_20395" style="mask-type:alpha" maskUnits="userSpaceOnUse" x="0" y="0" width="25" height="25">
<rect x="0.166016" y="0.789062" width="24" height="24" fill="#D9D9D9"/>
</mask>
<g mask="url(#mask0_766_20395)">
<path d="M9.16602 13.2891H10.166V11.2891H11.166C11.4493 11.2891 11.6868 11.1932 11.8785 11.0016C12.0702 10.8099 12.166 10.5724 12.166 10.2891V9.28906C12.166 9.00573 12.0702 8.76823 11.8785 8.57656C11.6868 8.3849 11.4493 8.28906 11.166 8.28906H9.16602V13.2891ZM10.166 10.2891V9.28906H11.166V10.2891H10.166ZM13.166 13.2891H15.166C15.4493 13.2891 15.6868 13.1932 15.8785 13.0016C16.0702 12.8099 16.166 12.5724 16.166 12.2891V9.28906C16.166 9.00573 16.0702 8.76823 15.8785 8.57656C15.6868 8.3849 15.4493 8.28906 15.166 8.28906H13.166V13.2891ZM14.166 12.2891V9.28906H15.166V12.2891H14.166ZM17.166 13.2891H18.166V11.2891H19.166V10.2891H18.166V9.28906H19.166V8.28906H17.166V13.2891ZM8.16602 18.7891C7.61602 18.7891 7.14518 18.5932 6.75352 18.2016C6.36185 17.8099 6.16602 17.3391 6.16602 16.7891V4.78906C6.16602 4.23906 6.36185 3.76823 6.75352 3.37656C7.14518 2.9849 7.61602 2.78906 8.16602 2.78906H20.166C20.716 2.78906 21.1868 2.9849 21.5785 3.37656C21.9702 3.76823 22.166 4.23906 22.166 4.78906V16.7891C22.166 17.3391 21.9702 17.8099 21.5785 18.2016C21.1868 18.5932 20.716 18.7891 20.166 18.7891H8.16602ZM8.16602 16.7891H20.166V4.78906H8.16602V16.7891ZM4.16602 22.7891C3.61602 22.7891 3.14518 22.5932 2.75352 22.2016C2.36185 21.8099 2.16602 21.3391 2.16602 20.7891V6.78906H4.16602V20.7891H18.166V22.7891H4.16602Z" fill="#1C1B1F"/>
</g>
</svg>
