<svg width="25" height="24" viewBox="0 0 25 24" fill="none" xmlns="http://www.w3.org/2000/svg">
    <path d="M24.666 11.9999L21.2392 9.21479L22.375 4.94514L17.9625 4.70779L16.3762 0.583496L12.666 2.98836L8.95584 0.583496L7.36956 4.70783L2.95707 4.94518L4.0929 9.21483L0.666016 11.9999L4.09286 14.7849L2.95707 19.0545L7.36956 19.2919L8.95584 23.4162L12.666 21.0114L16.3762 23.4162L17.9625 19.2919L22.375 19.0545L21.2392 14.7849L24.666 11.9999ZM16.8097 17.7032L15.5673 20.929L12.666 19.0497L9.76473 20.9315L8.52233 17.7056L5.06886 17.5216L5.96005 14.1795L3.2791 11.9999L5.96005 9.82027L5.07127 6.48061L8.52474 6.29656L9.76714 3.0707L12.666 4.95001L15.5673 3.06829L16.8097 6.29415L20.2632 6.4782L19.372 9.82027L22.0529 11.9999L19.372 14.1795L20.2608 17.5192L16.8097 17.7032ZM16.972 8.8588L9.52496 16.3058L8.36009 15.1409L15.8071 7.69392L16.972 8.8588ZM10.1546 11.5252C11.2784 11.5252 12.1914 10.6122 12.1914 9.48846C12.1914 8.36474 11.2784 7.45174 10.1546 7.45174C9.03091 7.45174 8.11791 8.36474 8.11791 9.48846C8.11791 10.6122 9.03332 11.5252 10.1546 11.5252ZM10.1546 9.09856C10.3702 9.09856 10.5445 9.27292 10.5445 9.48846C10.5445 9.70401 10.3702 9.87837 10.1546 9.87837C9.93908 9.87837 9.76473 9.70401 9.76473 9.48846C9.76473 9.27292 9.93908 9.09856 10.1546 9.09856ZM15.1774 12.4745C14.0537 12.4745 13.1407 13.3875 13.1407 14.5113C13.1407 15.635 14.0537 16.548 15.1774 16.548C16.3011 16.548 17.2142 15.635 17.2142 14.5113C17.2142 13.3875 16.2987 12.4745 15.1774 12.4745ZM15.1774 14.9011C14.9619 14.9011 14.7875 14.7268 14.7875 14.5112C14.7875 14.2957 14.9619 14.1213 15.1774 14.1213C15.3929 14.1213 15.5673 14.2957 15.5673 14.5112C15.5673 14.7268 15.3929 14.9011 15.1774 14.9011Z" fill="black" fill-opacity="0.5"/>
</svg>
