<svg width="24" height="25" viewBox="0 0 24 25" fill="none" xmlns="http://www.w3.org/2000/svg">
<path d="M3.32726 17.6051L7.39226 13.9091C7.58441 13.7344 7.83692 13.6413 8.09646 13.6493C8.356 13.6573 8.60226 13.7659 8.78326 13.9521L11.1763 16.4131C11.7523 16.3031 12.9103 15.9421 14.1023 14.7531C15.2943 13.5601 15.6553 12.3991 15.7623 11.8271L13.3033 9.43308C13.1169 9.25221 13.0081 9.0059 13.0001 8.74629C12.9921 8.48667 13.0854 8.23412 13.2603 8.04208L16.9553 3.97808C17.1302 3.78544 17.3734 3.66859 17.6331 3.65234C17.8928 3.6361 18.1487 3.72174 18.3463 3.89108L20.5163 5.75208C20.6892 5.9256 20.7924 6.15653 20.8063 6.40108C20.8213 6.65108 21.1073 12.5731 16.5153 17.1671C12.5093 21.1721 7.49126 21.4651 6.10926 21.4651C5.90726 21.4651 5.78326 21.4591 5.75026 21.4571C5.50575 21.4434 5.27494 21.3397 5.10226 21.1661L3.24226 18.9951C3.07225 18.7981 2.98597 18.5425 3.00186 18.2828C3.01774 18.0231 3.13452 17.7799 3.32726 17.6051Z" fill="#1A2037"/>
</svg>
