<svg width="24" height="25" viewBox="0 0 24 25" fill="none" xmlns="http://www.w3.org/2000/svg">
<path d="M3.32717 17.6051L7.39217 13.9091C7.58432 13.7344 7.83683 13.6413 8.09637 13.6493C8.35591 13.6573 8.60217 13.7659 8.78317 13.9521L11.1762 16.4131C11.7522 16.3031 12.9102 15.9421 14.1022 14.7531C15.2942 13.5601 15.6552 12.3991 15.7622 11.8271L13.3032 9.43308C13.1168 9.25221 13.008 9.0059 13 8.74629C12.992 8.48667 13.0853 8.23412 13.2602 8.04208L16.9552 3.97808C17.1301 3.78544 17.3733 3.66859 17.633 3.65234C17.8927 3.6361 18.1486 3.72174 18.3462 3.89108L20.5162 5.75208C20.6891 5.9256 20.7923 6.15653 20.8062 6.40108C20.8212 6.65108 21.1072 12.5731 16.5152 17.1671C12.5092 21.1721 7.49117 21.4651 6.10917 21.4651C5.90717 21.4651 5.78317 21.4591 5.75017 21.4571C5.50566 21.4434 5.27485 21.3397 5.10217 21.1661L3.24217 18.9951C3.07216 18.7981 2.98588 18.5425 3.00177 18.2828C3.01765 18.0231 3.13443 17.7799 3.32717 17.6051V17.6051Z" fill="#757575"/>
</svg>
