<svg width="88" height="88" viewBox="0 0 88 88" fill="none" xmlns="http://www.w3.org/2000/svg">
<rect width="88" height="88" rx="6" fill="white"/>
<rect x="18.5" y="24.5" width="51" height="39" rx="3.5" fill="#F5F5F5" stroke="#8A8B8C"/>
<rect x="26.5183" y="35.5" width="35.0824" height="21" rx="3.5" fill="white"/>
<rect x="38.0183" y="49" width="12" height="4" rx="2" fill="#8A8B8C"/>
<rect x="33.0183" y="43" width="22" height="2" rx="1" fill="#D9D9DA"/>
<rect x="33.0183" y="39" width="22" height="2" rx="1" fill="#D9D9DA"/>
<rect x="26.5183" y="35.5" width="35.0824" height="21" rx="3.5" stroke="#8A8B8C"/>
<path d="M23.9467 28.4584C23.9467 28.8527 23.6259 29.1744 23.2279 29.1744C22.8299 29.1744 22.5092 28.8527 22.5092 28.4584C22.5092 28.0641 22.8299 27.7424 23.2279 27.7424C23.6259 27.7424 23.9467 28.0641 23.9467 28.4584Z" fill="white" stroke="#8A8B8C"/>
<path d="M28.0098 28.4583C28.0098 28.8526 27.6891 29.1742 27.2911 29.1742C26.893 29.1742 26.5723 28.8526 26.5723 28.4583C26.5723 28.0639 26.893 27.7423 27.2911 27.7423C27.6891 27.7423 28.0098 28.0639 28.0098 28.4583Z" fill="white" stroke="#8A8B8C"/>
<path d="M32.0717 28.4583C32.0717 28.8526 31.751 29.1742 31.353 29.1742C30.9549 29.1742 30.6342 28.8526 30.6342 28.4583C30.6342 28.0639 30.9549 27.7423 31.353 27.7423C31.751 27.7423 32.0717 28.0639 32.0717 28.4583Z" fill="white" stroke="#8A8B8C"/>
</svg>
