<svg width="19" height="18" viewBox="0 0 19 18" fill="none" xmlns="http://www.w3.org/2000/svg">
    <path d="M7.76581 1.43416L6.51838 1.90773C6.41912 1.94468 6.35294 2.04208 6.35294 2.14955C6.35294 2.25703 6.41912 2.35443 6.51838 2.39138L7.76581 2.86495L8.23235 4.13118C8.26875 4.23194 8.36471 4.29911 8.47059 4.29911C8.57647 4.29911 8.67243 4.23194 8.70882 4.13118L9.17537 2.86495L10.4228 2.39138C10.5221 2.35443 10.5882 2.25703 10.5882 2.14955C10.5882 2.04208 10.5221 1.94468 10.4228 1.90773L9.17537 1.43416L8.70882 0.167934C8.67243 0.0671735 8.57647 0 8.47059 0C8.36471 0 8.26875 0.0671735 8.23235 0.167934L7.76581 1.43416ZM0.73125 14.0863C0.1125 14.7144 0.1125 15.7354 0.73125 16.3668L1.8761 17.5289C2.49485 18.157 3.50074 18.157 4.12279 17.5289L16.7393 4.71894C17.3581 4.09087 17.3581 3.06983 16.7393 2.4384L15.5945 1.27966C14.9757 0.651584 13.9699 0.651584 13.3478 1.27966L0.73125 14.0863ZM15.2404 3.58035L11.7662 7.10697L10.9952 6.32439L14.4695 2.79778L15.2404 3.58035ZM0.248162 3.93637C0.0992647 3.99347 0 4.13789 0 4.29911C0 4.46033 0.0992647 4.60475 0.248162 4.66185L2.11765 5.37389L2.81912 7.27154C2.87537 7.42268 3.01765 7.52344 3.17647 7.52344C3.33529 7.52344 3.47757 7.42268 3.53382 7.27154L4.23529 5.37389L6.10478 4.66185C6.25368 4.60475 6.35294 4.46033 6.35294 4.29911C6.35294 4.13789 6.25368 3.99347 6.10478 3.93637L4.23529 3.22433L3.53382 1.32668C3.47757 1.17554 3.33529 1.07478 3.17647 1.07478C3.01765 1.07478 2.87537 1.17554 2.81912 1.32668L2.11765 3.22433L0.248162 3.93637ZM12.8952 10.9224C12.7463 10.9795 12.6471 11.1239 12.6471 11.2852C12.6471 11.4464 12.7463 11.5908 12.8952 11.6479L14.7647 12.3599L15.4662 14.2576C15.5224 14.4087 15.6647 14.5095 15.8235 14.5095C15.9824 14.5095 16.1246 14.4087 16.1809 14.2576L16.8824 12.3599L18.7518 11.6479C18.9007 11.5908 19 11.4464 19 11.2852C19 11.1239 18.9007 10.9795 18.7518 10.9224L16.8824 10.2104L16.1809 8.31273C16.1246 8.16159 15.9824 8.06083 15.8235 8.06083C15.6647 8.06083 15.5224 8.16159 15.4662 8.31273L14.7647 10.2104L12.8952 10.9224Z" fill="#1A2037"/>
    <path d="M7.76581 1.43416L6.51838 1.90773C6.41912 1.94468 6.35294 2.04208 6.35294 2.14955C6.35294 2.25703 6.41912 2.35443 6.51838 2.39138L7.76581 2.86495L8.23235 4.13118C8.26875 4.23194 8.36471 4.29911 8.47059 4.29911C8.57647 4.29911 8.67243 4.23194 8.70882 4.13118L9.17537 2.86495L10.4228 2.39138C10.5221 2.35443 10.5882 2.25703 10.5882 2.14955C10.5882 2.04208 10.5221 1.94468 10.4228 1.90773L9.17537 1.43416L8.70882 0.167934C8.67243 0.0671735 8.57647 0 8.47059 0C8.36471 0 8.26875 0.0671735 8.23235 0.167934L7.76581 1.43416ZM0.73125 14.0863C0.1125 14.7144 0.1125 15.7354 0.73125 16.3668L1.8761 17.5289C2.49485 18.157 3.50074 18.157 4.12279 17.5289L16.7393 4.71894C17.3581 4.09087 17.3581 3.06983 16.7393 2.4384L15.5945 1.27966C14.9757 0.651584 13.9699 0.651584 13.3478 1.27966L0.73125 14.0863ZM15.2404 3.58035L11.7662 7.10697L10.9952 6.32439L14.4695 2.79778L15.2404 3.58035ZM0.248162 3.93637C0.0992647 3.99347 0 4.13789 0 4.29911C0 4.46033 0.0992647 4.60475 0.248162 4.66185L2.11765 5.37389L2.81912 7.27154C2.87537 7.42268 3.01765 7.52344 3.17647 7.52344C3.33529 7.52344 3.47757 7.42268 3.53382 7.27154L4.23529 5.37389L6.10478 4.66185C6.25368 4.60475 6.35294 4.46033 6.35294 4.29911C6.35294 4.13789 6.25368 3.99347 6.10478 3.93637L4.23529 3.22433L3.53382 1.32668C3.47757 1.17554 3.33529 1.07478 3.17647 1.07478C3.01765 1.07478 2.87537 1.17554 2.81912 1.32668L2.11765 3.22433L0.248162 3.93637ZM12.8952 10.9224C12.7463 10.9795 12.6471 11.1239 12.6471 11.2852C12.6471 11.4464 12.7463 11.5908 12.8952 11.6479L14.7647 12.3599L15.4662 14.2576C15.5224 14.4087 15.6647 14.5095 15.8235 14.5095C15.9824 14.5095 16.1246 14.4087 16.1809 14.2576L16.8824 12.3599L18.7518 11.6479C18.9007 11.5908 19 11.4464 19 11.2852C19 11.1239 18.9007 10.9795 18.7518 10.9224L16.8824 10.2104L16.1809 8.31273C16.1246 8.16159 15.9824 8.06083 15.8235 8.06083C15.6647 8.06083 15.5224 8.16159 15.4662 8.31273L14.7647 10.2104L12.8952 10.9224Z" fill="#EC615B"/>
</svg>
