<svg width="88" height="88" viewBox="0 0 88 88" fill="none" xmlns="http://www.w3.org/2000/svg">
<rect x="0.5" y="0.5" width="87" height="87" rx="5.5" fill="white"/>
<rect x="18.5" y="24.5" width="51" height="39" rx="3.5" fill="#F0F0F0" stroke="#1A2037"/>
<rect x="26.5" y="35.5" width="35.0824" height="21" rx="3.5" fill="white"/>
<rect x="38" y="49" width="12" height="4" rx="2" fill="#1A2037"/>
<rect x="33" y="43" width="22" height="2" rx="1" fill="#1A2037"/>
<rect x="33" y="39" width="22" height="2" rx="1" fill="#1A2037"/>
<rect x="26.5" y="35.5" width="35.0824" height="21" rx="3.5" stroke="#1A2037"/>
<path d="M23.9467 28.4584C23.9467 28.8527 23.6259 29.1744 23.2279 29.1744C22.8299 29.1744 22.5092 28.8527 22.5092 28.4584C22.5092 28.0641 22.8299 27.7424 23.2279 27.7424C23.6259 27.7424 23.9467 28.0641 23.9467 28.4584Z" fill="#F0F0F0" stroke="#1A2037"/>
<path d="M28.0099 28.4583C28.0099 28.8526 27.6892 29.1742 27.2911 29.1742C26.8931 29.1742 26.5724 28.8526 26.5724 28.4583C26.5724 28.0639 26.8931 27.7423 27.2911 27.7423C27.6892 27.7423 28.0099 28.0639 28.0099 28.4583Z" fill="#F0F0F0" stroke="#1A2037"/>
<path d="M32.0718 28.4583C32.0718 28.8526 31.7511 29.1742 31.353 29.1742C30.955 29.1742 30.6343 28.8526 30.6343 28.4583C30.6343 28.0639 30.955 27.7423 31.353 27.7423C31.7511 27.7423 32.0718 28.0639 32.0718 28.4583Z" fill="#F0F0F0" stroke="#1A2037"/>
<rect x="0.5" y="0.5" width="87" height="87" rx="5.5" stroke="#1A2037"/>
</svg>
