<svg width="45" height="36" viewBox="0 0 45 36" fill="none" xmlns="http://www.w3.org/2000/svg">
<path d="M22 5L22 30" stroke="#EC615B" stroke-width="1.61" stroke-linecap="round"/>
<path d="M2.28507 29.3166V18.6925V15.6537V5.80078C2.28507 3.59164 4.07593 1.80078 6.28507 1.80078H39C41.2091 1.80078 43 3.59164 43 5.80078V7.65372V29.3166C43 31.5258 41.2091 33.3166 39 33.3166H6.28507C4.07593 33.3166 2.28507 31.5258 2.28507 29.3166Z" stroke="#EC615B" stroke-width="1.61" stroke-linecap="round" stroke-linejoin="round"/>
<path d="M31 12V9.54286V7.48571C31 6.66518 31.6652 6 32.4857 6H37.5143C38.3348 6 39 6.66518 39 7.48571V12C39 13.1046 38.1046 14 37 14H33C31.8954 14 31 13.1046 31 12Z" stroke="#EC615B" stroke-width="1.61" stroke-linecap="round" stroke-linejoin="round"/>
<path d="M6 23H12" stroke="#EC615B" stroke-width="1.61" stroke-linecap="round"/>
<path d="M6 26H18" stroke="#EC615B" stroke-width="1.61" stroke-linecap="round"/>
<path d="M12 29L18 29" stroke="#EC615B" stroke-width="1.61" stroke-linecap="round"/>
</svg>
