<svg width="50" height="50" viewBox="0 0 50 50" fill="none" xmlns="http://www.w3.org/2000/svg">
<g clip-path="url(#clip0_173_6481)">
<path d="M16.2068 38.3625C16.6061 38.1848 17.0105 38.0213 17.4187 37.868C17.8797 37.6947 18.3443 37.5318 18.8152 37.39C19.4014 37.2135 19.9924 37.0537 20.5914 36.9266C21.3997 36.7546 22.217 36.6283 23.0395 36.5482C22.5745 38.0064 22.066 39.4503 21.5145 40.8779C21.5372 41.1566 21.5518 41.4359 21.5582 41.7154C22.6918 41.4913 23.8445 41.3783 25 41.3781C26.1779 41.3781 27.3281 41.4957 28.4418 41.7154C28.4482 41.4359 28.4628 41.1566 28.4855 40.8779C27.9339 39.4503 27.4254 38.0064 26.9605 36.5482C27.7838 36.6281 28.601 36.7551 29.4086 36.9266C30.0074 37.0537 30.5984 37.2135 31.1846 37.39C31.6557 37.5318 32.1203 37.6947 32.5812 37.868C32.9896 38.0215 33.3943 38.185 33.7936 38.3627C36.6795 39.6458 39.2504 41.5436 41.3268 43.9234C46.6354 39.3393 50 32.5646 50 25C50 11.193 38.807 0 25 0C11.193 0 0 11.193 0 25C0 32.5646 3.36465 39.3391 8.67324 43.9234C10.7497 41.5435 13.3208 39.6456 16.2068 38.3625Z" fill="#A5DBE8"/>
<path d="M33.7939 38.3623L35.3459 43.6988L35.7861 43.7195C36.0719 43.7195 36.2729 43.7947 36.2729 44.0805C36.2729 44.5555 36.2975 45.0893 36.343 45.5553C36.7297 45.8836 37.2006 46.2539 37.5576 46.6137C38.8945 45.8351 40.1564 44.9344 41.3271 43.923C39.2508 41.5432 36.6799 39.6454 33.7939 38.3623ZM30.7594 38.309L32.5816 37.8676C32.1207 37.6943 31.6561 37.5314 31.185 37.3896C30.5988 37.2131 30.0078 37.0533 29.409 36.9262C28.6007 36.7543 27.7834 36.6279 26.9609 36.5479C27.4258 38.006 27.9343 39.4499 28.4859 40.8775C28.4632 41.1562 28.4486 41.4355 28.4422 41.715C29.7334 41.9697 31.0029 42.4123 32.1768 42.9314L30.7594 38.309Z" fill="#525353"/>
<path d="M12.4424 46.6139C12.7326 46.783 13.0258 46.948 13.3238 47.1057C13.4281 46.6047 13.5949 45.9105 13.6453 45.3951C13.2586 45.7234 12.7994 46.2541 12.4424 46.6139ZM32.1455 42.8855C30.9579 42.3595 29.7156 41.967 28.4414 41.7152C27.3078 41.4911 26.1551 41.3782 24.9996 41.3779C23.8215 41.3779 22.6715 41.4955 21.5578 41.7152C20.2668 41.9697 18.9197 42.3559 17.7463 42.8748L17.6215 43.6523H32.3781L32.1455 42.8855Z" fill="black"/>
<path d="M13.5996 45.5432C13.6453 45.0772 13.6783 44.6617 13.6783 44.1865C13.6783 43.901 13.8742 43.718 14.16 43.718L14.6285 43.7016L16.2064 38.3623C13.3204 39.6454 10.7493 41.5433 8.67285 43.9232C9.84361 44.9346 11.1055 45.8353 12.4424 46.6139C12.7994 46.2538 13.1716 45.909 13.558 45.5807" fill="#525353"/>
<path d="M36.5332 46.4932C36.6344 47.001 36.6572 47.1021 36.6756 47.1059C36.9727 46.948 37.2666 46.784 37.557 46.6141C37.1962 46.2501 36.82 45.9015 36.4297 45.5693L36.5332 46.4932Z" fill="black"/>
<path d="M32.1457 42.8859L32.3783 43.6527H35.3967L33.7934 38.3629C33.3942 38.186 32.99 38.0211 32.5811 37.8682L30.7588 38.3096L32.1457 42.8859Z" fill="#AA9678"/>
<path d="M14.6562 44.7211C14.6721 44.71 14.6881 44.6988 14.7037 44.6875H14.6584C14.658 44.6986 14.6568 44.71 14.6562 44.7211Z" fill="#C4B6A1"/>
<path d="M35.3414 44.6875H35.2959L35.3434 44.7211C35.343 44.71 35.3418 44.6986 35.3414 44.6875Z" fill="#AA9678"/>
<path d="M35.2898 44.6104L24.9785 44.6221L25 50.0002C28.8375 50.0002 32.4719 49.1332 35.7213 47.5879C35.5092 46.6559 35.4879 45.652 35.4533 44.675C35.4377 44.6637 35.2898 44.6104 35.2898 44.6104Z" fill="#AA9678"/>
<path d="M24.983 44.6441C24.983 44.6441 14.6148 44.631 14.599 44.6422C14.5646 45.6193 14.3631 46.7787 14.2783 47.5877C17.5277 49.133 21.1621 50 24.9996 50L25.0055 44.6615L24.983 44.6441Z" fill="#C4B6A1"/>
<path d="M32.7334 40.6561L32.7387 40.6723L32.7334 40.6561C32.7334 40.6561 32.4799 40.4551 32.1582 40.085C32.4799 40.4551 32.7334 40.6561 32.7334 40.6561Z" fill="#AA9678"/>
<path d="M40.3721 18.0371V18.0383V18.0371ZM41.3781 25.235L41.3783 25.2275L41.3781 25.235Z" fill="white"/>
<path d="M41.3506 24.8375C41.3514 24.8441 41.3533 24.85 41.3541 24.8566C41.3547 24.8607 41.3559 24.8645 41.3564 24.8684V24.8699C41.3684 24.9654 41.3729 25.0652 41.375 25.1658C41.3754 25.1844 41.3785 25.2018 41.3785 25.2201L41.3787 25.227L41.3785 25.2344C41.3783 25.2543 41.375 25.2729 41.3748 25.2926C41.3735 25.3896 41.3674 25.4864 41.3566 25.5828V25.5842L41.3539 25.5984C41.3531 25.6061 41.3508 25.6129 41.3498 25.6203C41.3367 25.7199 41.318 25.8187 41.2937 25.9162L41.2934 25.9176V25.9178L41.2969 25.9139L41.2982 25.9094V25.9096L41.9525 25.2246L41.293 24.5342L41.2932 24.5355C41.3178 24.6318 41.3365 24.733 41.3506 24.8375Z" fill="#676A6A"/>
<path d="M41.35 25.6203C41.3518 25.6074 41.3551 25.5959 41.3568 25.5828C41.3684 25.4891 41.3727 25.3912 41.375 25.2926C41.3752 25.2703 41.3787 25.2494 41.3787 25.227C41.3787 25.2061 41.3756 25.1865 41.3752 25.1658C41.374 25.0669 41.3678 24.9682 41.3566 24.8699C41.3551 24.8586 41.3521 24.8486 41.3508 24.8375C41.3375 24.7358 41.3183 24.635 41.2934 24.5355C41.2848 24.502 41.2729 24.4721 41.2629 24.4396C41.2037 24.2439 41.123 24.0711 41.0273 23.9275C40.9907 23.873 40.9507 23.8208 40.9074 23.7713C40.8679 23.7276 40.8246 23.6874 40.7781 23.6512C40.7609 23.6381 40.7428 23.6289 40.7252 23.6176C40.6713 23.5822 40.613 23.554 40.5518 23.5338C40.4939 23.5146 40.4336 23.5042 40.3727 23.5029C40.3113 23.5029 40.252 23.5158 40.1936 23.5338C40.1322 23.5539 40.0738 23.5821 40.0199 23.6176C40.0027 23.6289 39.9844 23.6379 39.9674 23.651C39.8869 23.7137 39.8163 23.788 39.7576 23.8715C39.7439 23.8899 39.7307 23.9086 39.718 23.9277C39.6223 24.0713 39.5414 24.2441 39.4824 24.4398L39.475 24.4633C39.4488 24.5531 39.4285 24.6477 39.4115 24.7447C39.4064 24.7744 39.3996 24.8029 39.3955 24.8334C39.3799 24.942 39.3719 25.0553 39.3699 25.1713C39.3697 25.1873 39.3672 25.2025 39.3672 25.2186H39.3711C39.3711 26.1709 39.8217 26.9428 40.3773 26.9428C40.473 26.9428 40.565 26.9178 40.6527 26.875C40.7053 26.8492 40.7549 26.8179 40.8008 26.7814C40.8197 26.7662 40.8375 26.7479 40.8557 26.7307C40.9 26.6893 40.9422 26.6424 40.9822 26.5902C41.01 26.5537 41.0373 26.5172 41.0627 26.4764C41.0789 26.4504 41.0938 26.4223 41.1088 26.3945C41.1369 26.3426 41.1635 26.2885 41.1875 26.2311C41.1965 26.2104 41.2057 26.1902 41.2139 26.1689C41.2445 26.0891 41.2713 26.0047 41.2939 25.9162C41.318 25.8219 41.3359 25.7227 41.35 25.6203ZM40.4088 24.9975C40.2004 24.9975 40.0314 24.7078 40.0314 24.3508C40.0314 23.9939 40.2004 23.7043 40.4088 23.7043C40.6172 23.7043 40.7859 23.9939 40.7859 24.3508C40.7859 24.7078 40.6172 24.9975 40.4088 24.9975Z" fill="black"/>
<path d="M40.4086 23.7041C40.2002 23.7041 40.0312 23.9938 40.0312 24.3506C40.0312 24.7076 40.2002 24.9973 40.4086 24.9973C40.617 24.9973 40.7857 24.7076 40.7857 24.3506C40.7857 23.9938 40.617 23.7041 40.4086 23.7041Z" fill="white"/>
<path d="M39.4816 24.4396C39.5406 24.2439 39.6215 24.0711 39.7172 23.9275C39.7301 23.908 39.7432 23.8898 39.7568 23.8713C39.8153 23.7877 39.886 23.7133 39.9666 23.6508C39.9836 23.6377 40.002 23.6287 40.0191 23.6174C40.073 23.5818 40.1314 23.5536 40.1928 23.5336C40.251 23.5152 40.3105 23.5027 40.3719 23.5027C40.4332 23.5027 40.4928 23.5152 40.551 23.5336C40.6122 23.5538 40.6705 23.582 40.7244 23.6174C40.742 23.6287 40.7602 23.6379 40.7773 23.651C40.8223 23.6854 40.8652 23.726 40.9066 23.7711C40.9499 23.8206 40.9899 23.8728 41.0266 23.9273C41.1223 24.0709 41.2029 24.2437 41.2621 24.4395V24.4398L40.3719 20.3623L39.4814 24.4396H39.4816Z" fill="#909393"/>
<path d="M28.5739 25.1887C28.5728 25.1066 28.5675 25.0256 28.5583 24.9459C28.5581 24.9449 28.5577 24.9437 28.5577 24.9426C28.5485 24.8646 28.5354 24.7872 28.5185 24.7105L28.5169 24.7047C28.5001 24.6299 28.4797 24.556 28.4558 24.4832L28.4538 24.4783C28.43 24.4061 28.4025 24.3352 28.3714 24.2658C28.371 24.2645 28.37 24.2631 28.3694 24.2615C28.1213 23.7094 27.6712 23.2733 27.1114 23.0428L27.1046 23.0402C26.9684 22.9847 26.8273 22.9421 26.6831 22.9131C26.6794 22.9125 26.6759 22.9123 26.6722 22.9115C26.5234 22.8822 26.3721 22.8673 26.2204 22.8672C26.0683 22.8672 25.9204 22.8828 25.7765 22.9104L25.7612 22.9127C25.6181 22.9412 25.48 22.983 25.3474 23.0361L25.3368 23.0402C25.2027 23.0946 25.074 23.1614 24.9522 23.2396C24.8306 23.3182 24.7163 23.4074 24.6112 23.5061L24.6087 23.5141L24.5999 23.516C24.4316 23.6761 24.2876 23.86 24.1724 24.0617L24.1681 24.0689C24.1329 24.1309 24.1011 24.1953 24.0718 24.2609C24.0687 24.268 24.0647 24.2746 24.0618 24.2816C24.0351 24.3424 24.012 24.4053 23.9905 24.4686C23.9864 24.4811 23.981 24.4928 23.9771 24.5051C23.9583 24.5643 23.9431 24.625 23.9286 24.6857C23.9249 24.7033 23.9192 24.7201 23.9155 24.7375C23.903 24.7977 23.8944 24.8592 23.8864 24.9209C23.8841 24.9398 23.88 24.958 23.878 24.977C23.8535 25.2108 23.8643 25.4471 23.9101 25.6777C23.9104 25.6807 23.9106 25.684 23.9114 25.6871C23.9409 25.8342 23.9843 25.976 24.0399 26.1117C24.0407 26.1137 24.0411 26.1156 24.0421 26.1174C24.1548 26.39 24.3175 26.639 24.5218 26.8518C24.6819 27.0188 24.8663 27.1619 25.069 27.2764L25.072 27.2781C25.1353 27.3137 25.2007 27.3457 25.2673 27.3754C25.2728 27.3777 25.278 27.3809 25.2837 27.3832C25.3454 27.4102 25.4093 27.4334 25.4735 27.4551C25.4845 27.4588 25.495 27.4635 25.506 27.467C25.5653 27.4859 25.6267 27.5012 25.688 27.5152C25.7046 27.5191 25.7206 27.5246 25.7374 27.5281C25.797 27.5404 25.8583 27.5488 25.92 27.5568C25.9386 27.559 25.9569 27.5633 25.9759 27.5652C26.5259 27.6232 27.0788 27.4853 27.5372 27.1758C27.788 27.0063 28.004 26.7904 28.1735 26.5396C28.4362 26.1507 28.5763 25.692 28.5759 25.2227C28.5759 25.217 28.5751 25.2117 28.5751 25.2064C28.5749 25.2004 28.5741 25.1947 28.5739 25.1887ZM26.2204 24.9127C26.1042 24.9127 25.9891 24.8898 25.8818 24.8453C25.7744 24.8008 25.6769 24.7356 25.5947 24.6535C25.5126 24.5713 25.4474 24.4737 25.403 24.3664C25.3585 24.259 25.3356 24.1439 25.3356 24.0277C25.3357 23.9115 25.3586 23.7965 25.403 23.6891C25.4475 23.5818 25.5127 23.4842 25.5949 23.4021C25.6771 23.3199 25.7746 23.2547 25.882 23.2103C25.9893 23.1658 26.1044 23.143 26.2206 23.143C26.4553 23.143 26.6803 23.2362 26.8463 23.4022C27.0122 23.5682 27.1054 23.7932 27.1054 24.0279C27.1053 24.2626 27.0121 24.4877 26.8461 24.6536C26.6802 24.8195 26.4551 24.9127 26.2204 24.9127Z" fill="black"/>
<path d="M26.2207 23.1436C25.986 23.1436 25.761 23.2368 25.5951 23.4027C25.4292 23.5686 25.3359 23.7937 25.3359 24.0283C25.3359 24.263 25.4292 24.488 25.5951 24.6539C25.761 24.8199 25.986 24.9131 26.2207 24.9131C26.4554 24.9131 26.6804 24.8199 26.8463 24.6539C27.0123 24.488 27.1055 24.263 27.1055 24.0283C27.1055 23.7937 27.0123 23.5686 26.8463 23.4027C26.6804 23.2368 26.4554 23.1436 26.2207 23.1436Z" fill="white"/>
<path d="M24.6002 23.5166L24.609 23.5146L24.6115 23.5066L26.2338 18.5453V17.3842L26.2336 17.3711C25.318 17.1815 24.3854 17.0853 23.4504 17.084C23.133 17.084 22.8182 17.0975 22.5053 17.1188C22.4598 17.1219 22.4141 17.1246 22.3684 17.1281C20.74 17.2518 19.1365 17.6762 17.6518 18.3539C16.3785 18.9354 15.1955 19.7012 14.132 20.6092V20.6094L14.1303 20.6109C13.8457 20.8546 13.5701 21.1085 13.3039 21.3721C13.2539 21.4209 13.2031 21.4693 13.1537 21.5189C12.9021 21.7727 12.6587 22.0345 12.4238 22.3039C12.3729 22.3627 12.3227 22.4227 12.2723 22.482C12.0353 22.7601 11.8072 23.0456 11.5883 23.3381C11.5701 23.3627 11.5531 23.3885 11.5352 23.4131C11.3275 23.6966 11.1285 23.9863 10.9383 24.2818C10.901 24.3395 10.8627 24.3963 10.8262 24.4545C10.6719 24.6992 10.5283 24.9506 10.3857 25.2025H17.7758L24.6002 23.5166Z" fill="#BBBCBD"/>
<path d="M30.8387 22.9584C30.8537 22.7648 30.866 22.5715 30.876 22.3777C30.8895 22.1156 30.8986 21.8531 30.9037 21.5908C30.9076 21.3871 30.907 21.1832 30.9061 20.9795C30.9061 20.9207 30.9074 20.8619 30.9068 20.8029C30.9007 20.2769 30.8814 19.7512 30.8488 19.2262L30.8443 19.2232L30.8424 19.2195C30.6471 19.1073 30.4516 18.9956 30.2559 18.8844L30.2422 18.8766L30.0893 18.79L30.0865 18.7885L29.9805 18.7291L29.9596 18.7174C29.934 18.7032 29.9083 18.6892 29.8824 18.6754C29.5427 18.4991 29.1961 18.3363 28.8436 18.1873C28.0031 17.8324 26.8711 17.5213 26.2334 17.3711V18.5453L27.8414 23.5146L27.8432 23.5188C28.0092 23.677 28.152 23.8588 28.2664 24.0592V24.0594C28.3039 24.125 28.3383 24.1928 28.3693 24.2621C28.3701 24.2637 28.3709 24.265 28.3713 24.2664C28.4023 24.3355 28.4297 24.4064 28.4537 24.4789L28.4557 24.4838C28.4795 24.5563 28.5 24.6301 28.5168 24.7053L28.5184 24.7111C28.5352 24.7871 28.5482 24.8646 28.5576 24.9432C28.5576 24.9443 28.558 24.9455 28.5582 24.9465C28.5674 25.0262 28.5727 25.1072 28.5738 25.1893L28.5799 25.2025H30.5488C30.6809 24.4799 30.7759 23.7511 30.8334 23.0188C30.8348 22.9986 30.8371 22.9785 30.8387 22.9584Z" fill="#E3DDDB"/>
<path d="M33.4137 21.2012C33.4123 21.2033 33.4113 21.2059 33.4102 21.208L33.4137 21.2014" fill="#FCB03F"/>
<path d="M24.6113 23.5063C24.7172 23.4071 24.8317 23.3177 24.9537 23.2393C25.075 23.1613 25.2033 23.0947 25.3369 23.0404C25.3404 23.0389 25.3441 23.0379 25.3475 23.0363C25.4813 22.9825 25.6199 22.9412 25.7613 22.9129L25.7766 22.9105C25.9228 22.8822 26.0715 22.8677 26.2205 22.8674C26.3752 22.8674 26.526 22.883 26.6723 22.9117C26.676 22.9125 26.6795 22.9127 26.6832 22.9133C26.8298 22.9427 26.9732 22.9861 27.1115 23.043C27.3828 23.1548 27.6309 23.316 27.8434 23.5184L27.8416 23.5143L26.2336 18.5449L24.6113 23.5063Z" fill="#909393"/>
<path d="M24.0402 26.1123C23.9839 25.9752 23.9409 25.833 23.9117 25.6877C23.9109 25.6846 23.9107 25.6813 23.9104 25.6783C23.8646 25.4477 23.8538 25.2114 23.8783 24.9775C23.8803 24.9586 23.8844 24.9404 23.8867 24.9215C23.8947 24.8598 23.9033 24.7982 23.9158 24.7381C23.9195 24.7207 23.9252 24.7039 23.9289 24.6863C23.9434 24.6256 23.9586 24.5648 23.9773 24.5057C23.9814 24.4934 23.9865 24.4816 23.9908 24.4691C24.0123 24.4059 24.0354 24.343 24.0621 24.2822C24.065 24.2752 24.0689 24.2686 24.0721 24.2615C24.1014 24.1959 24.1332 24.1314 24.1684 24.0695L24.1727 24.0623C24.2879 23.8606 24.4319 23.6767 24.6002 23.5166L17.7758 25.2025H17.7627L24.5221 26.8523C24.3178 26.6396 24.1551 26.3905 24.0424 26.118C24.0414 26.1162 24.041 26.1143 24.0402 26.1123Z" fill="#676A6A"/>
<path d="M39.3949 24.834C39.3992 24.8035 39.4057 24.775 39.4109 24.7453C39.4279 24.6482 39.4482 24.5537 39.4744 24.4639C39.4773 24.4537 39.4785 24.4422 39.4816 24.4322L40.3721 20.3549L40.3719 18.0301C39.6443 17.4291 38.8652 17.1006 38.0541 17.1006C37.0291 17.1006 36.0734 17.6666 35.3588 18.3656C34.5768 19.1307 33.9725 20.0932 33.4838 21.0645C33.4613 21.1092 33.4383 21.1521 33.416 21.1971C33.5666 21.3275 33.7156 21.4598 33.8627 21.5943C34.195 21.8995 34.5217 22.2108 34.8424 22.5281C34.992 22.6758 35.1389 22.8266 35.2861 22.9768C35.4424 23.1359 35.5988 23.2947 35.7527 23.4564C36.0342 23.7521 36.3117 24.0515 36.5852 24.3545C36.8198 24.6133 37.0519 24.8745 37.2814 25.1379L37.2818 25.1383C37.3203 25.1785 37.3473 25.2074 37.3576 25.2191H39.3658C39.3658 25.2029 39.3691 25.1881 39.3693 25.1719C39.3713 25.0559 39.3793 24.9426 39.3949 24.834ZM33.4158 21.2078L33.4137 21.2018L33.4102 21.2084L33.4189 21.217C33.418 21.2139 33.4169 21.2108 33.4158 21.2078Z" fill="#E3DDDB"/>
<path d="M9.17461 27.768L9.19258 27.723C9.46223 27.0234 9.77319 26.3403 10.1238 25.6775C10.1781 25.5744 10.2313 25.4709 10.2875 25.3688C10.3186 25.3123 10.3537 25.2584 10.3854 25.2021C10.5279 24.9502 10.6715 24.6988 10.8258 24.4541C10.8623 24.3957 10.9006 24.3391 10.9379 24.2814C11.1281 23.9859 11.3271 23.6962 11.5348 23.4127C11.5527 23.3881 11.5697 23.3623 11.5879 23.3377C11.8068 23.0452 12.0349 22.7597 12.2719 22.4816C12.3223 22.4223 12.3723 22.3625 12.4234 22.3035C12.6583 22.0341 12.9017 21.7723 13.1533 21.5186C13.2029 21.4689 13.2535 21.4205 13.3035 21.3717C13.5697 21.1081 13.8453 20.8542 14.1299 20.6105L14.1316 20.6088C15.2549 16.8463 18.8818 14.5342 22.9484 14.5342C24.5852 14.5342 26.2129 15.0059 27.6078 15.8592C29.0387 16.7344 30.0143 17.5895 30.7717 19.0842L30.783 19.1066C30.8021 19.1445 30.8236 19.1809 30.8424 19.2191L30.8443 19.2229L30.8488 19.2258C31.4849 19.6193 32.0908 20.0597 32.6615 20.5432C32.8535 20.7052 33.0418 20.8715 33.2264 21.042C33.2873 21.0979 33.35 21.151 33.4102 21.2078C33.4113 21.2055 33.4123 21.2031 33.4137 21.201C33.4143 21.1994 33.415 21.1978 33.4158 21.1963C33.4365 21.1539 33.4568 21.1107 33.4777 21.0689C34.0508 17.4523 35.8715 15.4803 37.7531 15.4803C39.1715 15.4803 40.2025 16.326 40.9812 18.6025L40.9893 18.627L40.9912 18.6297C41.2208 18.8802 41.4352 19.1442 41.6332 19.4203L41.6328 19.4201C41.6369 19.4256 41.6412 19.4307 41.6453 19.4363L41.6451 19.4361L41.6453 19.4363C41.6564 19.4693 41.666 19.5033 41.6768 19.5363V19.5361L41.6475 19.4176C39.3066 12.4875 32.752 7.49805 25.0316 7.49805C15.348 7.49805 7.49805 15.348 7.49805 25.0316C7.49805 26.9406 7.80313 28.7785 8.36953 30.4887L8.37188 30.4787C8.57101 29.5563 8.83935 28.6501 9.17461 27.768Z" fill="#525353"/>
<path d="M41.9094 25.2256L41.2979 25.9098V25.9096L41.2965 25.9141C41.2732 26.0041 41.2447 26.0881 41.2133 26.1691C41.2051 26.1904 41.1959 26.2105 41.1869 26.2313C41.1635 26.287 41.1372 26.3416 41.1082 26.3947C41.0932 26.4225 41.0783 26.4506 41.0621 26.4766C41.0367 26.5172 41.0094 26.5541 40.9816 26.5904C40.9434 26.6406 40.9011 26.6876 40.8551 26.7309C40.8369 26.7479 40.8193 26.7664 40.8002 26.7816C40.7544 26.8181 40.7047 26.8494 40.6521 26.8752C40.5645 26.918 40.4725 26.943 40.3768 26.943C39.8211 26.943 39.3705 26.1711 39.3705 25.2188H37.3516L37.3527 25.2203C37.732 25.6587 38.1054 26.1022 38.4727 26.5508C38.8256 26.9821 39.1742 27.4169 39.5184 27.8553L39.5691 27.9195C39.8953 28.3359 40.2185 28.7545 40.5387 29.1754L40.632 29.2973C40.9722 29.745 41.3101 30.1944 41.6459 30.6455C42.2368 28.8964 42.5471 27.0649 42.5654 25.2188L41.9979 25.1973L41.9094 25.2256Z" fill="white"/>
<path d="M22.3682 17.1279C22.4139 17.1244 22.4596 17.1217 22.5051 17.1186C22.8196 17.0963 23.1349 17.0847 23.4502 17.0838C24.401 17.0838 25.3299 17.1855 26.2334 17.3709H26.2336C26.8713 17.5211 28.0033 17.8322 28.8437 18.1871C29.1963 18.3361 29.5429 18.4989 29.8826 18.6752L29.9598 18.7172L29.9807 18.7289C30.0121 18.7465 30.0465 18.7654 30.0867 18.7883L30.0895 18.7898L30.2424 18.8764L30.2561 18.8842C30.4721 19.0066 30.7111 19.1439 30.8025 19.1963L30.826 19.2098L30.8426 19.2193C30.8238 19.1811 30.8023 19.1447 30.7832 19.1068L30.7719 19.0844C30.0145 17.5896 28.8484 16.3076 27.4176 15.4324C26.0227 14.5791 24.3949 14.1074 22.758 14.1074C18.6916 14.1074 15.2551 16.8465 14.1318 20.609C15.1953 19.701 16.3783 18.9352 17.6516 18.3537C19.1363 17.676 20.7398 17.2516 22.3682 17.1279Z" fill="black"/>
<path d="M41.6453 19.4369L41.6451 19.4367L41.6453 19.4369C41.6412 19.4312 41.6369 19.4262 41.6328 19.4207L41.6332 19.4209C41.4352 19.1448 41.2208 18.8808 40.9912 18.6303L40.9855 18.6234C40.8877 18.5172 40.7867 18.414 40.6826 18.3139C40.6441 18.277 40.6043 18.2447 40.5654 18.2094C40.5012 18.151 40.4373 18.0906 40.3721 18.0371V20.3631L41.2625 24.4408V24.4406C41.2723 24.4723 41.284 24.502 41.2926 24.5348L41.9094 25.226L41.9154 25.2191H42.5609C42.5617 25.1594 42.5654 25.1004 42.5654 25.0404V25.0395C42.5651 23.1695 42.2651 21.3117 41.6768 19.5367V19.5369C41.666 19.5039 41.6564 19.4699 41.6453 19.4369Z" fill="#BBBCBD"/>
<path d="M35.359 18.3648C36.0736 17.6658 37.0293 17.0998 38.0543 17.0998C38.8654 17.0998 39.6445 17.4283 40.3721 18.0293L40.3723 18.0363V18.0375V18.0363C40.4375 18.0898 40.5014 18.1502 40.5656 18.2086C40.6045 18.2439 40.6443 18.2762 40.6828 18.3131C40.7869 18.4132 40.8879 18.5164 40.9857 18.6227L40.9914 18.6295C40.9909 18.6286 40.9903 18.6278 40.9896 18.6271L40.9895 18.627L40.9814 18.6023C40.2027 16.3258 38.9463 14.8467 37.5283 14.8467C35.6465 14.8467 34.051 17.4521 33.4779 21.0688L33.484 21.0637C33.9727 20.0924 34.577 19.1299 35.359 18.3648ZM32.8162 40.5926C32.8162 40.5926 32.5629 40.3918 32.2412 40.0217C32.0915 39.8505 31.952 39.6707 31.8234 39.4832C31.7824 39.4234 31.7418 39.3613 31.7014 39.2973C31.5797 39.1049 31.4826 38.8707 31.3756 38.6393C31.2518 38.3713 31.2514 38.193 31.1803 37.9434C31.128 37.7595 31.0864 37.5728 31.0559 37.3842C31.0065 37.079 30.9867 36.7697 30.9967 36.4607C31.0021 36.2824 31.0205 36.0979 31.0473 35.91C31.0738 35.7234 31.1101 35.5383 31.1561 35.3555C31.2979 34.7885 31.543 34.1846 31.9254 33.5471L32.0227 33.3287C32.1477 33.1205 32.1754 33.1297 32.2941 32.9291C33.9668 30.1062 34.8691 27.9717 34.4277 24.685C34.3793 24.3482 34.3244 24.0125 34.2629 23.6779C34.2244 23.9204 34.1837 24.1626 34.1408 24.4043C34.1242 24.4793 34.0787 24.5607 34.0615 24.6117C33.335 26.7621 32.1912 28.3439 30.5455 30.1301C30.3164 30.3778 30.0845 30.6229 29.8498 30.8654C29.4307 31.2987 29.0071 31.7278 28.5793 32.1525C28.4012 32.3297 28.2195 32.5094 28.0348 32.6926C27.865 32.8605 27.6539 33.2197 27.402 33.4844C27.2465 33.9197 27.0697 34.4107 26.9203 34.9271C26.8529 34.9016 26.7887 34.8787 26.7201 34.8521C23.5232 33.6156 21.3828 31.9635 21.3828 31.9635C21.3828 31.9635 23.0297 34.1078 25.8043 36.1207C26.0594 36.3056 26.324 36.4769 26.5971 36.634C26.4826 38.4457 27.2818 40.185 30.8895 40.7037C31.4994 40.7914 32.124 40.7873 32.7531 40.7164C32.7469 40.6977 32.7883 40.698 32.785 40.6877C32.7814 40.6771 32.8186 40.6494 32.8186 40.6494" fill="black"/>
<path d="M30.8867 35.9296C34.0894 36.4464 38.8294 36.3616 43.7501 34.0577C43.8687 34.0023 43.9993 34.1484 44.1179 34.0902C44.1179 34.0902 40.7548 37.5251 36.7384 39.4671C36.621 39.5238 36.5052 39.5841 36.3867 39.638C35.9986 39.8154 35.6038 39.9698 35.2075 40.1124C34.4304 40.3917 33.6429 40.6036 32.8611 40.7015C32.8251 40.7062 32.7892 40.713 32.7533 40.7169C32.7483 40.7022 32.7434 40.6874 32.7386 40.6726L32.7333 40.6564C32.7333 40.6564 32.4798 40.4554 32.1581 40.0853C32.0083 39.9143 31.8689 39.7345 31.7406 39.5468C31.5613 39.2865 31.4044 39.0114 31.2716 38.7245C31.1594 38.4824 31.0662 38.2318 30.9929 37.9751C30.8551 37.4934 30.7931 36.9933 30.8091 36.4925C30.8158 36.3081 30.8327 36.1242 30.8597 35.9417L30.8867 35.9296Z" fill="#9F2254"/>
<path d="M28.5914 32.2828C29.0194 31.8581 29.4429 31.4291 29.8621 30.9957C30.0967 30.7532 30.3286 30.508 30.5578 30.2604C32.2033 28.4742 33.4113 26.8027 34.1381 24.6523C34.1551 24.6014 34.1723 24.5342 34.1889 24.4586L34.1967 24.4236C34.2137 24.3434 34.2303 24.2541 34.2469 24.1535C34.2535 24.0842 34.4709 23.9443 34.477 23.8793C34.2947 22.943 33.8748 21.9586 33.4164 21.207C33.4175 21.2101 33.4186 21.2131 33.4195 21.2162L33.4107 21.2076C33.3506 21.1508 33.2879 21.0977 33.227 21.0418C33.0424 20.8713 32.8541 20.705 32.6621 20.543C32.0913 20.0595 31.4854 19.6192 30.8494 19.2256C30.8814 19.7518 30.902 20.2773 30.9074 20.8023C30.9082 20.8613 30.9066 20.9201 30.9066 20.9789C30.9076 21.1826 30.9082 21.3865 30.9043 21.5902C30.8992 21.8527 30.89 22.115 30.8766 22.3771C30.8666 22.5709 30.8543 22.7643 30.8393 22.9578C30.8377 22.9779 30.8354 22.998 30.834 23.0182C30.7765 23.7505 30.6815 24.4794 30.5494 25.202L30.3182 26.2955C29.8352 28.2537 28.8541 30.0299 28.0475 31.8639C27.8336 32.3502 27.6307 32.842 27.4527 33.343L27.4023 33.4844C27.6141 33.2609 27.829 33.0404 28.0469 32.8229C28.2318 32.6398 28.4135 32.46 28.5914 32.2828Z" fill="#FCB03F"/>
<path d="M18.0076 42.8146C19.1812 42.2955 20.2674 41.9695 21.5584 41.715C21.552 41.4355 21.5374 41.1562 21.5146 40.8775C22.0662 39.4499 22.5747 38.006 23.0396 36.5479C22.2172 36.6279 21.3999 36.7543 20.5916 36.9262C19.9926 37.0533 19.4016 37.2131 18.8154 37.3896C18.3445 37.5314 17.8799 37.6943 17.4189 37.8676L19.2414 38.309L17.775 42.9117L18.0076 42.8146Z" fill="#525353"/>
<path d="M40.5387 29.1752C40.2185 28.7543 39.8953 28.3357 39.5691 27.9193L39.5184 27.8551C39.17 27.4113 38.817 26.9711 38.4596 26.5346C38.0965 26.0915 37.7275 25.6533 37.3527 25.2201C37.3291 25.1926 37.3055 25.1646 37.2814 25.1373C36.9726 24.7826 36.659 24.4319 36.3408 24.0855C36.1468 23.8738 35.9507 23.6639 35.7527 23.4559C35.5984 23.2948 35.4429 23.1349 35.2861 22.9762C35.1389 22.826 34.992 22.6752 34.8424 22.5275C34.5216 22.2103 34.195 21.899 33.8627 21.5937C33.7155 21.4593 33.5665 21.3268 33.4158 21.1963C33.415 21.1978 33.4143 21.1994 33.4137 21.201C33.7305 22.1115 34.092 23.0334 34.273 23.983C34.3201 24.2301 34.359 24.4703 34.3906 24.7051C34.832 27.9916 33.7789 30.1375 32.1064 32.9604C31.984 33.1667 31.861 33.3726 31.7375 33.5783C31.3551 34.2162 31.1102 34.8199 30.9682 35.3869C30.9224 35.5697 30.886 35.7548 30.8594 35.9414C34.1393 36.4707 39.0713 36.5693 44.1176 34.0898C44.1176 34.0898 43.1279 32.6353 41.6389 30.6359C41.3054 30.188 40.9698 29.7417 40.632 29.2971C40.6012 29.2562 40.5697 29.2156 40.5387 29.1752Z" fill="#DF0067"/>
<path d="M17.6006 43.735L19.2412 38.3096L17.4187 37.8682C17.0105 38.0215 16.6061 38.185 16.2068 38.3627L14.582 43.735L16.3959 43.7633L17.6006 43.735Z" fill="#AA9678"/>
<path d="M18.7539 41.3873C18.9141 41.4488 19.077 41.5043 19.2395 41.5611C21.1008 42.2143 23.0594 42.5476 25.032 42.5469C27.2761 42.5482 29.4994 42.1173 31.5805 41.2777C31.6875 41.2348 31.7924 41.1875 31.8982 41.1424C32.0699 41.0695 32.2404 40.9939 32.4098 40.9156C32.5609 40.8453 32.7121 40.7756 32.8609 40.7012C32.825 40.7059 32.7891 40.7127 32.7531 40.7166C32.124 40.7875 31.4994 40.7916 30.8895 40.7039C27.2818 40.1852 26.4826 38.4459 26.5971 36.6342C26.324 36.4771 26.0594 36.3058 25.8043 36.1209C23.0297 34.108 21.3828 31.9637 21.3828 31.9637C21.3828 31.9637 23.5232 33.6158 26.7201 34.8523C26.7887 34.8789 26.8529 34.9018 26.9203 34.9273C27.0697 34.4109 27.2465 33.9199 27.402 33.4846L27.4523 33.3432C27.6303 32.8422 27.8332 32.3504 28.0471 31.8641C28.8537 30.0301 29.8348 28.2539 30.3178 26.2957L30.549 25.2021H28.576L28.5758 25.2023L28.576 25.2063L28.5752 25.2066C28.5752 25.2119 28.576 25.2172 28.576 25.2229C28.5764 25.6922 28.4363 26.1509 28.1736 26.5398C27.9176 26.9181 27.5577 27.2144 27.1373 27.393C26.7711 27.548 26.3714 27.6073 25.976 27.5654C25.957 27.5635 25.9389 27.5594 25.9201 27.557C25.8584 27.549 25.7971 27.5406 25.7375 27.5283C25.7207 27.5246 25.7047 27.5193 25.6881 27.5154C25.6268 27.5014 25.5654 27.4861 25.5061 27.4672C25.4951 27.4635 25.4846 27.459 25.4736 27.4553C25.4094 27.4336 25.3455 27.4104 25.2838 27.3834C25.2781 27.3811 25.2729 27.3781 25.2674 27.3756C25.2008 27.3462 25.1356 27.3137 25.0721 27.2783L25.0691 27.2766C24.867 27.1625 24.6826 27.0194 24.5219 26.852L17.7625 25.2021H10.3855C10.3539 25.2584 10.3187 25.3123 10.2877 25.3688C10.2314 25.4709 10.1783 25.5746 10.124 25.6775C9.94274 26.02 9.77208 26.3679 9.6123 26.7209C9.46291 27.0509 9.32301 27.3851 9.19277 27.723L9.1748 27.768C8.83954 28.6501 8.5712 29.5563 8.37207 30.4787C9.5334 34.0209 11.793 37.0646 14.7467 39.21C14.8326 39.2723 14.9232 39.3277 15.0104 39.3887C15.5102 39.7396 16.028 40.0642 16.5617 40.3611C17.2677 40.7538 18.0002 41.0967 18.7539 41.3873Z" fill="white"/>
<path d="M36.4414 45.5807C36.3941 45.1118 36.3696 44.6409 36.368 44.1697C36.368 44.0325 36.3135 43.901 36.2165 43.8039C36.1195 43.7069 35.988 43.6524 35.8508 43.6523H14.1492C14.012 43.6524 13.8804 43.7069 13.7834 43.8039C13.6864 43.901 13.6319 44.0325 13.6318 44.1697C13.6318 44.6447 13.6039 45.1146 13.5584 45.5807C13.5078 46.0928 13.4296 46.6019 13.3242 47.1057C13.6389 47.2721 13.9561 47.434 14.2787 47.5875C14.4945 46.6459 14.6208 45.686 14.6561 44.7207C14.6566 44.7096 14.6578 44.6982 14.6582 44.6871H35.3418C35.3422 44.6982 35.3434 44.7096 35.3438 44.7207C35.3791 45.686 35.5055 46.6459 35.7213 47.5875C36.0428 47.4337 36.3611 47.273 36.6758 47.1057C36.5704 46.6019 36.4922 46.0928 36.4414 45.5807Z" fill="#8B7460"/>
</g>
<defs>
<clipPath id="clip0_173_6481">
<rect width="50" height="50" fill="white"/>
</clipPath>
</defs>
</svg>
