<svg width="20" height="20" viewBox="0 0 20 20" fill="none" xmlns="http://www.w3.org/2000/svg">
<path d="M19.6038 9.42404C17.4877 4.96645 14.2891 2.72314 10.0011 2.72314C5.71093 2.72314 2.5145 4.96645 0.398427 9.42627C0.313551 9.60599 0.269531 9.80229 0.269531 10.001C0.269531 10.1998 0.313551 10.3961 0.398427 10.5758C2.5145 15.0334 5.71316 17.2767 10.0011 17.2767C14.2913 17.2767 17.4877 15.0334 19.6038 10.5736C19.7757 10.212 19.7757 9.79234 19.6038 9.42404V9.42404ZM10.0011 15.6696C6.40066 15.6696 3.7645 13.8437 1.90512 9.99993C3.7645 6.15618 6.40066 4.33029 10.0011 4.33029C13.6016 4.33029 16.2377 6.15618 18.0971 9.99993C16.2399 13.8437 13.6038 15.6696 10.0011 15.6696ZM9.91182 6.07136C7.74218 6.07136 5.98325 7.83029 5.98325 9.99993C5.98325 12.1696 7.74218 13.9285 9.91182 13.9285C12.0815 13.9285 13.8404 12.1696 13.8404 9.99993C13.8404 7.83029 12.0815 6.07136 9.91182 6.07136ZM9.91182 12.4999C8.53012 12.4999 7.41182 11.3816 7.41182 9.99993C7.41182 8.61823 8.53012 7.49993 9.91182 7.49993C11.2935 7.49993 12.4118 8.61823 12.4118 9.99993C12.4118 11.3816 11.2935 12.4999 9.91182 12.4999Z" fill="white"/>
</svg>
