<svg width="16" height="17" viewBox="0 0 16 17" fill="none" xmlns="http://www.w3.org/2000/svg">
<path d="M15.6822 8.10876C13.9894 4.54269 11.4305 2.74805 8.0001 2.74805C4.56796 2.74805 2.01082 4.54269 0.31796 8.11055C0.250059 8.25433 0.214844 8.41136 0.214844 8.57037C0.214844 8.72938 0.250059 8.88641 0.31796 9.03019C2.01082 12.5963 4.56975 14.3909 8.0001 14.3909C11.4322 14.3909 13.9894 12.5963 15.6822 9.02841C15.8197 8.73912 15.8197 8.40341 15.6822 8.10876ZM8.0001 13.1052C5.11975 13.1052 3.01082 11.6445 1.52332 8.56948C3.01082 5.49448 5.11975 4.03376 8.0001 4.03376C10.8805 4.03376 12.9894 5.49448 14.4769 8.56948C12.9912 11.6445 10.8822 13.1052 8.0001 13.1052ZM7.92867 5.42662C6.19296 5.42662 4.78582 6.83376 4.78582 8.56948C4.78582 10.3052 6.19296 11.7123 7.92867 11.7123C9.66439 11.7123 11.0715 10.3052 11.0715 8.56948C11.0715 6.83376 9.66439 5.42662 7.92867 5.42662ZM7.92867 10.5695C6.82332 10.5695 5.92867 9.67483 5.92867 8.56948C5.92867 7.46412 6.82332 6.56948 7.92867 6.56948C9.03403 6.56948 9.92868 7.46412 9.92868 8.56948C9.92868 9.67483 9.03403 10.5695 7.92867 10.5695Z" fill="#3D86FD"/>
</svg>
