<svg width="24" height="24" viewBox="0 0 24 24" fill="none" xmlns="http://www.w3.org/2000/svg">
<path d="M14.5385 4H18.6287C18.7178 4 18.8022 4.03955 18.8592 4.10794L22.8246 8.86646C22.9239 8.98566 22.916 9.16093 22.8063 9.27065L19.8275 12.2494C19.7104 12.3666 19.5204 12.3666 19.4033 12.2494L18.4352 11.2814C18.2462 11.0924 17.9231 11.2262 17.9231 11.4935V20.6231C17.9231 20.7888 17.7888 20.9231 17.6231 20.9231H6.37692C6.21124 20.9231 6.07692 20.7888 6.07692 20.6231V11.4935C6.07692 11.2262 5.75378 11.0924 5.56479 11.2814L4.59675 12.2494C4.47959 12.3666 4.28964 12.3666 4.17248 12.2494L1.21213 9.28906C1.09497 9.1719 1.09497 8.98195 1.21213 8.86479L5.98906 4.08787C6.04532 4.03161 6.12162 4 6.20119 4H9.46154" stroke="#757575" stroke-width="2"/>
<path d="M15 3C15 3.39397 14.9224 3.78407 14.7716 4.14805C14.6209 4.51203 14.3999 4.84274 14.1213 5.12132C13.8427 5.3999 13.512 5.62087 13.1481 5.77164C12.7841 5.9224 12.394 6 12 6C11.606 6 11.2159 5.9224 10.8519 5.77164C10.488 5.62087 10.1573 5.3999 9.87868 5.12132C9.6001 4.84274 9.37913 4.51203 9.22836 4.14805C9.0776 3.78407 9 3.39397 9 3" stroke="#757575" stroke-width="2"/>
<path d="M11.6196 9.17082C11.7393 8.8023 12.2607 8.8023 12.3804 9.17082L12.8083 10.4875C12.8618 10.6523 13.0154 10.7639 13.1887 10.7639H14.5732C14.9606 10.7639 15.1218 11.2598 14.8083 11.4875L13.6882 12.3013C13.548 12.4032 13.4893 12.5837 13.5429 12.7485L13.9707 14.0652C14.0905 14.4338 13.6687 14.7402 13.3552 14.5125L12.2351 13.6987C12.0949 13.5968 11.9051 13.5968 11.7649 13.6987L10.6448 14.5125C10.3313 14.7402 9.90954 14.4338 10.0293 14.0652L10.4571 12.7485C10.5107 12.5837 10.452 12.4032 10.3118 12.3013L9.19173 11.4875C8.87825 11.2598 9.03936 10.7639 9.42685 10.7639H10.8113C10.9846 10.7639 11.1382 10.6523 11.1917 10.4875L11.6196 9.17082Z" fill="#757575"/>
</svg>
