<svg width="20" height="20" viewBox="0 0 20 20" fill="none" xmlns="http://www.w3.org/2000/svg">
<path d="M5.00004 18.3334C4.54171 18.3334 4.14921 18.17 3.82254 17.8434C3.49588 17.5167 3.33282 17.1245 3.33338 16.6667V6.66669C3.33338 6.20835 3.49671 5.81585 3.82338 5.48919C4.15004 5.16252 4.54226 4.99946 5.00004 5.00002H6.66671C6.66671 4.08335 6.9931 3.29863 7.64588 2.64585C8.29865 1.99308 9.08338 1.66669 10 1.66669C10.9167 1.66669 11.7014 1.99308 12.3542 2.64585C13.007 3.29863 13.3334 4.08335 13.3334 5.00002H15C15.4584 5.00002 15.8509 5.16335 16.1775 5.49002C16.5042 5.81669 16.6673 6.20891 16.6667 6.66669V16.6667C16.6667 17.125 16.5034 17.5175 16.1767 17.8442C15.85 18.1709 15.4578 18.3339 15 18.3334H5.00004ZM5.00004 16.6667H15V6.66669H13.3334V8.33335C13.3334 8.56946 13.2534 8.76752 13.0934 8.92752C12.9334 9.08752 12.7356 9.16724 12.5 9.16669C12.2639 9.16669 12.0659 9.08669 11.9059 8.92669C11.7459 8.76669 11.6662 8.56891 11.6667 8.33335V6.66669H8.33338V8.33335C8.33338 8.56946 8.25338 8.76752 8.09338 8.92752C7.93338 9.08752 7.7356 9.16724 7.50004 9.16669C7.26393 9.16669 7.06588 9.08669 6.90588 8.92669C6.74588 8.76669 6.66615 8.56891 6.66671 8.33335V6.66669H5.00004V16.6667ZM8.33338 5.00002H11.6667C11.6667 4.54169 11.5034 4.14919 11.1767 3.82252C10.85 3.49585 10.4578 3.3328 10 3.33335C9.54171 3.33335 9.14921 3.49669 8.82254 3.82335C8.49588 4.15002 8.33282 4.54224 8.33338 5.00002Z" fill="black" fill-opacity="0.6"/>
</svg>
