<svg width="24" height="24" viewBox="0 0 24 24" fill="none" xmlns="http://www.w3.org/2000/svg">
<path d="M14.5383 4H18.6285C18.7176 4 18.802 4.03955 18.859 4.10794L22.8244 8.86646C22.9237 8.98566 22.9158 9.16093 22.8061 9.27065L19.8273 12.2494C19.7102 12.3666 19.5202 12.3666 19.4031 12.2494L18.435 11.2814C18.246 11.0924 17.9229 11.2262 17.9229 11.4935V20.6231C17.9229 20.7888 17.7886 20.9231 17.6229 20.9231H6.37668C6.211 20.9231 6.07668 20.7888 6.07668 20.6231V11.4935C6.07668 11.2262 5.75354 11.0924 5.56455 11.2814L4.59651 12.2494C4.47935 12.3666 4.2894 12.3666 4.17224 12.2494L1.21189 9.28906C1.09473 9.1719 1.09473 8.98195 1.21189 8.86479L5.98882 4.08787C6.04508 4.03161 6.12138 4 6.20095 4H9.4613" stroke="#1A2037" stroke-width="2"/>
<path d="M15 3C15 3.39397 14.9224 3.78407 14.7716 4.14805C14.6209 4.51203 14.3999 4.84274 14.1213 5.12132C13.8427 5.3999 13.512 5.62087 13.1481 5.77164C12.7841 5.9224 12.394 6 12 6C11.606 6 11.2159 5.9224 10.8519 5.77164C10.488 5.62087 10.1573 5.3999 9.87868 5.12132C9.6001 4.84274 9.37913 4.51203 9.22836 4.14805C9.0776 3.78407 9 3.39397 9 3" stroke="#1A2037" stroke-width="2"/>
<path d="M11.6199 9.1708C11.7396 8.80228 12.261 8.80228 12.3807 9.1708L12.8086 10.4875C12.8621 10.6523 13.0157 10.7639 13.189 10.7639H14.5735C14.9609 10.7639 15.1221 11.2598 14.8086 11.4875L13.6885 12.3013C13.5483 12.4032 13.4896 12.5837 13.5432 12.7485L13.971 14.0652C14.0908 14.4338 13.669 14.7402 13.3555 14.5125L12.2354 13.6987C12.0952 13.5968 11.9054 13.5968 11.7652 13.6987L10.6451 14.5125C10.3316 14.7402 9.90983 14.4338 10.0296 14.0652L10.4574 12.7485C10.511 12.5837 10.4523 12.4032 10.3121 12.3013L9.19202 11.4875C8.87854 11.2598 9.03965 10.7639 9.42714 10.7639H10.8116C10.9849 10.7639 11.1385 10.6523 11.192 10.4875L11.6199 9.1708Z" fill="#1A2037"/>
</svg>
