<svg width="20" height="20" viewBox="0 0 20 20" fill="none" xmlns="http://www.w3.org/2000/svg">
<path d="M1.80049 2.80627V2.80625C1.80049 2.53848 1.90652 2.28224 2.09436 2.09374C2.28211 1.90534 2.53617 1.8 2.80049 1.8H16.8356C17.0999 1.8 17.3539 1.90534 17.5417 2.09374C17.7295 2.28224 17.8356 2.53848 17.8356 2.80625L17.8356 2.80828L17.8623 13.3467C17.8623 13.347 17.8623 13.3474 17.8623 13.3477C17.862 13.6151 17.756 13.8709 17.5684 14.0592C17.3807 14.2476 17.1266 14.3529 16.8623 14.3529H5.62721C5.43608 14.3529 5.25126 14.4213 5.10622 14.5458L1.80005 17.3831L1.80049 2.80627Z" stroke="#838383" stroke-width="1.6" stroke-linejoin="round"/>
<path d="M8.34912 11.9738C8.28291 11.9456 8.2279 11.896 8.19275 11.8327C8.1576 11.7695 8.14432 11.6962 8.15501 11.6245L8.89482 8.27455H7.33222C7.28268 8.2759 7.2335 8.26574 7.18847 8.24486C7.14343 8.22398 7.10376 8.19294 7.07249 8.15413C7.04123 8.11532 7.01922 8.06978 7.00816 8.02102C6.9971 7.97227 6.99729 7.9216 7.0087 7.87293L8 4.5C8.01708 4.42695 8.05857 4.36206 8.1175 4.31627C8.17642 4.27047 8.24918 4.24657 8.32352 4.24857H11.5587C11.607 4.24841 11.6548 4.25917 11.6985 4.28008C11.7421 4.30099 11.7806 4.33151 11.8111 4.36939C11.8419 4.4077 11.8638 4.45258 11.875 4.50066C11.8862 4.54873 11.8865 4.59875 11.8758 4.64694L11.1443 6.93882H12.681C12.7417 6.9387 12.8011 6.95577 12.8526 6.9881C12.9041 7.02044 12.9455 7.06672 12.9722 7.12167C12.9954 7.17442 13.0043 7.23242 12.9981 7.28978C12.9918 7.34714 12.9706 7.4018 12.9366 7.4482L8.73087 11.8563C8.70245 11.8988 8.6645 11.934 8.62009 11.959C8.57569 11.9839 8.52608 11.998 8.47529 12C8.432 11.9991 8.38923 11.9903 8.34912 11.9738Z" fill="#838383"/>
</svg>
