<svg width="90" height="90" viewBox="0 0 90 90" fill="none" xmlns="http://www.w3.org/2000/svg">
<rect x="0.5" y="0.5" width="89" height="89" rx="6.5" fill="white"/>
<path d="M30 38.3334H60" stroke="#8A8B8C" stroke-width="1.66667"/>
<path d="M30 42.9166H60" stroke="#8A8B8C" stroke-width="1.66667"/>
<path d="M30 47.5H60" stroke="#8A8B8C" stroke-width="1.66667"/>
<path d="M30 52.0834H60" stroke="#8A8B8C" stroke-width="1.66667"/>
<mask id="path-6-outside-1_332_9274" maskUnits="userSpaceOnUse" x="43" y="36.6666" width="17" height="17" fill="black">
<rect fill="white" x="43" y="36.6666" width="17" height="17"/>
<path d="M45 36.6666H60V53.3333H45V36.6666Z"/>
</mask>
<path d="M45 36.6666H60V53.3333H45V36.6666Z" fill="white"/>
<rect x="45.8333" y="37.5" width="13.3333" height="15" rx="0.833333" fill="white" stroke="#8A8B8C" stroke-width="1.66667"/>
<path d="M45.833 49.1667L49.1663 45.8334L51.6663 47.5L55.833 43.3334L59.1663 46.6667" stroke="#8A8B8C" stroke-width="1.66667"/>
<path d="M46.6667 53.3333V36.6666H43.3333V53.3333H46.6667Z" fill="white" mask="url(#path-6-outside-1_332_9274)"/>
<rect x="0.5" y="0.5" width="89" height="89" rx="6.5" stroke="#D9D9DA"/>
</svg>
