<svg width="129" height="24" viewBox="0 0 129 24" fill="none" xmlns="http://www.w3.org/2000/svg">
    <path d="M0.9795 2.716C1.6835 2.476 2.8275 2.244 4.4115 2.02C6.0115 1.78 7.4835 1.66 8.8275 1.66C9.4355 1.66 9.8995 1.732 10.2195 1.876C10.5555 2.004 10.7875 2.236 10.9155 2.572C11.0595 2.892 11.1315 3.356 11.1315 3.964V6.076C11.1315 6.46 11.0835 6.756 10.9875 6.964C10.8915 7.172 10.7235 7.332 10.4835 7.444C10.2595 7.54 9.9075 7.636 9.4275 7.732C8.3555 7.94 6.9235 8.084 5.1315 8.164V3.652C5.1315 3.364 4.9875 3.22 4.6995 3.22C3.9155 3.22 3.2355 3.316 2.6595 3.508C2.3875 3.604 2.2515 3.772 2.2515 4.012V16.78C2.2355 17.116 2.2595 17.356 2.3235 17.5C2.4035 17.628 2.5475 17.708 2.7555 17.74C2.9795 17.788 3.3475 17.812 3.8595 17.812C4.8515 17.812 5.8755 17.66 6.9315 17.356C6.9795 17.212 7.0035 17.076 7.0035 16.948C7.0035 16.756 6.9715 16.604 6.9075 16.492L5.3955 16.54C5.2195 16.54 5.1315 16.1 5.1315 15.22V9.292C5.7555 9.292 6.6915 9.244 7.9395 9.148L11.3715 16.78C11.5155 17.132 11.6355 17.372 11.7315 17.5C11.8435 17.628 11.9955 17.708 12.1875 17.74C12.3955 17.788 12.7395 17.812 13.2195 17.812C14.3075 17.812 15.3795 17.66 16.4355 17.356C16.4835 17.228 16.5075 17.1 16.5075 16.972C16.5075 16.844 16.4755 16.684 16.4115 16.492L14.7555 16.54C14.6435 16.54 14.5475 16.5 14.4675 16.42C14.3715 16.324 14.2915 16.212 14.2275 16.084L14.1075 15.844C14.0595 15.764 13.9635 15.556 13.8195 15.22L10.9395 8.812C11.4995 8.732 11.7795 8.692 11.7795 8.692C12.5635 8.516 13.1315 8.228 13.4835 7.828C13.8355 7.428 14.0115 6.876 14.0115 6.172V3.628C14.0115 2.78 13.8835 2.124 13.6275 1.66C13.3875 1.196 12.9875 0.868 12.4275 0.675999C11.8675 0.483999 11.0835 0.387999 10.0755 0.387999C6.6195 0.387999 3.5715 0.763999 0.9315 1.516C0.8675 1.66 0.8355 1.852 0.8355 2.092C0.8355 2.332 0.8835 2.54 0.9795 2.716ZM30.0953 17.356C30.1433 17.18 30.1673 17.044 30.1673 16.948C30.1673 16.724 30.1353 16.572 30.0713 16.492L28.4153 16.54C28.2873 16.54 28.2153 16.46 28.1993 16.3C28.1673 16.108 28.1512 15.748 28.1512 15.22V6.196C28.1673 5.86 28.1433 5.628 28.0793 5.5C28.0153 5.356 27.8873 5.268 27.6953 5.236C27.5033 5.188 27.1753 5.164 26.7113 5.164C25.6073 5.164 24.5273 5.316 23.4713 5.62C23.4233 5.764 23.3993 5.9 23.3993 6.028C23.3993 6.252 23.4313 6.404 23.4953 6.484L25.1513 6.436C25.3273 6.436 25.4153 6.876 25.4153 7.756V15.7C23.9753 16.148 22.9353 16.372 22.2953 16.372C21.3993 16.372 20.9513 16.044 20.9513 15.388V6.196C20.9673 5.86 20.9433 5.628 20.8793 5.5C20.8313 5.356 20.7113 5.268 20.5193 5.236C20.3273 5.188 19.9913 5.164 19.5113 5.164C18.4073 5.164 17.3273 5.316 16.2713 5.62C16.2233 5.764 16.1993 5.9 16.1993 6.028C16.1993 6.22 16.2313 6.372 16.2953 6.484L17.9513 6.436C18.1273 6.436 18.2153 6.876 18.2153 7.756V15.988C18.2153 16.644 18.3993 17.116 18.7673 17.404C19.1353 17.676 19.7593 17.812 20.6393 17.812C21.1033 17.812 21.6073 17.764 22.1513 17.668C22.6793 17.572 23.2073 17.444 23.7353 17.284L25.4153 16.78C25.3993 17.116 25.4153 17.356 25.4633 17.5C25.5273 17.628 25.6553 17.708 25.8473 17.74C26.0393 17.788 26.3753 17.812 26.8553 17.812C27.9593 17.812 29.0393 17.66 30.0953 17.356ZM32.7504 23.02C35.6144 23.036 38.0464 22.828 40.0464 22.396C40.7664 22.252 41.2944 21.988 41.6304 21.604C41.9824 21.22 42.1584 20.692 42.1584 20.02V7.756C42.1584 7.068 42.0624 6.54 41.8704 6.172C41.6784 5.804 41.3584 5.548 40.9104 5.404C40.4784 5.244 39.8544 5.164 39.0384 5.164C36.5904 5.164 34.7984 5.356 33.6624 5.74C32.5424 6.14 31.9824 6.836 31.9824 7.828V15.988C31.9824 16.644 32.1664 17.116 32.5344 17.404C32.9024 17.676 33.5264 17.812 34.4064 17.812C35.0784 17.812 35.7344 17.732 36.3744 17.572C36.9344 17.444 37.6064 17.276 38.3904 17.068L39.4224 16.78V19.828C39.4224 20.164 39.3904 20.412 39.3264 20.572C39.2784 20.732 39.1584 20.892 38.9664 21.052C38.7424 21.228 38.3744 21.364 37.8624 21.46C36.8384 21.668 35.0944 21.772 32.6304 21.772C32.5664 21.916 32.5344 22.124 32.5344 22.396C32.5344 22.556 32.6064 22.764 32.7504 23.02ZM34.7184 7.924C34.7024 7.284 34.9104 6.828 35.3424 6.556C35.7424 6.3 36.6384 6.172 38.0304 6.172C38.5584 6.172 38.9184 6.308 39.1104 6.58C39.3184 6.836 39.4224 7.324 39.4224 8.044V15.7C37.8864 16.148 36.7664 16.372 36.0624 16.372C35.1664 16.372 34.7184 16.044 34.7184 15.388V7.924ZM46.1801 23.02C49.0441 23.036 51.4761 22.828 53.4761 22.396C54.1961 22.252 54.7241 21.988 55.0601 21.604C55.4121 21.22 55.5881 20.692 55.5881 20.02V7.756C55.5881 7.068 55.4921 6.54 55.3001 6.172C55.1081 5.804 54.7881 5.548 54.3401 5.404C53.9081 5.244 53.2841 5.164 52.4681 5.164C50.0201 5.164 48.2281 5.356 47.0921 5.74C45.9721 6.14 45.4121 6.836 45.4121 7.828V15.988C45.4121 16.644 45.5961 17.116 45.9641 17.404C46.3321 17.676 46.9561 17.812 47.8361 17.812C48.5081 17.812 49.1641 17.732 49.8041 17.572C50.3641 17.444 51.0361 17.276 51.8201 17.068L52.8521 16.78V19.828C52.8521 20.164 52.8201 20.412 52.7561 20.572C52.7081 20.732 52.5881 20.892 52.3961 21.052C52.1721 21.228 51.8041 21.364 51.2921 21.46C50.2681 21.668 48.5241 21.772 46.0601 21.772C45.9961 21.916 45.9641 22.124 45.9641 22.396C45.9641 22.556 46.0361 22.764 46.1801 23.02ZM48.1481 7.924C48.1321 7.284 48.3401 6.828 48.7721 6.556C49.1721 6.3 50.0681 6.172 51.4601 6.172C51.9881 6.172 52.3481 6.308 52.5401 6.58C52.7481 6.836 52.8521 7.324 52.8521 8.044V15.7C51.3161 16.148 50.1961 16.372 49.4921 16.372C48.5961 16.372 48.1481 16.044 48.1481 15.388V7.924ZM68.3458 15.892C67.8498 16.02 67.0498 16.172 65.9458 16.348C64.8578 16.524 63.9938 16.612 63.3538 16.612C62.6338 16.612 62.1538 16.516 61.9138 16.324C61.6898 16.132 61.5778 15.732 61.5778 15.124V12.388C63.0338 12.292 64.6498 12.108 66.4258 11.836C67.1618 11.676 67.6978 11.412 68.0338 11.044C68.3698 10.66 68.5378 10.132 68.5378 9.46V7.756C68.5378 7.068 68.4418 6.54 68.2498 6.172C68.0578 5.804 67.7378 5.548 67.2898 5.404C66.8578 5.244 66.2338 5.164 65.4178 5.164C63.1138 5.164 61.4498 5.356 60.4258 5.74C59.3698 6.14 58.8418 6.836 58.8418 7.828V16.06C58.8418 16.684 59.0338 17.132 59.4178 17.404C59.8178 17.676 60.4498 17.812 61.3138 17.812C63.8738 17.812 66.2258 17.532 68.3698 16.972C68.4338 16.86 68.4658 16.7 68.4658 16.492C68.4658 16.252 68.4258 16.052 68.3458 15.892ZM61.5778 7.924C61.5458 7.284 61.7298 6.836 62.1298 6.58C62.5298 6.308 63.2898 6.172 64.4098 6.172C64.9378 6.172 65.2978 6.3 65.4898 6.556C65.6978 6.796 65.8018 7.252 65.8018 7.924V9.388C65.8018 9.9 65.6978 10.252 65.4898 10.444C65.2818 10.636 64.8498 10.804 64.1938 10.948C63.5218 11.076 62.6498 11.188 61.5778 11.284V7.924ZM83.3848 17.356C83.4328 17.212 83.4568 17.076 83.4568 16.948C83.4568 16.756 83.4248 16.604 83.3608 16.492H81.6808C81.5208 16.492 81.4408 16.068 81.4408 15.22V1.42C81.4568 1.084 81.4328 0.851999 81.3688 0.723999C81.3208 0.579999 81.2008 0.492 81.0088 0.459999C80.8168 0.411999 80.4808 0.387999 80.0008 0.387999C78.8968 0.387999 77.8168 0.539999 76.7608 0.844C76.7128 0.987999 76.6888 1.124 76.6888 1.252C76.6888 1.444 76.7208 1.596 76.7848 1.708L78.4408 1.66C78.6168 1.66 78.7048 2.1 78.7048 2.98V5.164C76.6408 5.228 74.8488 5.404 73.3288 5.692C71.9208 5.948 71.2168 6.708 71.2168 7.972V15.988C71.2168 16.644 71.4008 17.116 71.7688 17.404C72.1368 17.676 72.7608 17.812 73.6408 17.812C73.8008 17.812 74.0728 17.796 74.4568 17.764C75.0968 17.684 75.6488 17.588 76.1128 17.476C76.6888 17.332 77.2568 17.18 77.8168 17.02L78.7048 16.78C78.6888 17.116 78.7048 17.356 78.7528 17.5C78.8168 17.628 78.9448 17.708 79.1368 17.74C79.3288 17.788 79.6648 17.812 80.1448 17.812C81.2488 17.812 82.3288 17.66 83.3848 17.356ZM78.7048 15.7C77.1208 16.148 75.9848 16.372 75.2968 16.372C74.4008 16.372 73.9528 16.044 73.9528 15.388V7.996C73.9528 7.564 74.0568 7.252 74.2648 7.06C74.4888 6.868 74.9208 6.708 75.5608 6.58C76.1848 6.452 77.2328 6.348 78.7048 6.268V15.7ZM88.5701 7.276C90.1221 6.828 91.2581 6.604 91.9781 6.604C92.8741 6.604 93.3221 6.932 93.3221 7.588V16.78C93.3061 17.116 93.3221 17.356 93.3701 17.5C93.4341 17.628 93.5621 17.708 93.7541 17.74C93.9461 17.788 94.2821 17.812 94.7621 17.812C95.8661 17.812 96.9461 17.66 98.0021 17.356C98.0501 17.212 98.0741 17.076 98.0741 16.948C98.0741 16.756 98.0421 16.604 97.9781 16.492L96.3221 16.54C96.1461 16.54 96.0581 16.1 96.0581 15.22V6.988C96.0581 6.332 95.8741 5.868 95.5061 5.596C95.1381 5.308 94.5141 5.164 93.6341 5.164C93.4741 5.164 93.2021 5.18 92.8181 5.212C92.1781 5.292 91.6341 5.388 91.1861 5.5C90.8181 5.58 90.6421 5.62 90.6581 5.62C90.4181 5.668 90.0181 5.772 89.4581 5.932L88.5701 6.196C88.5861 5.86 88.5621 5.628 88.4981 5.5C88.4501 5.356 88.3301 5.268 88.1381 5.236C87.9461 5.188 87.6101 5.164 87.1301 5.164C86.0261 5.164 84.9461 5.316 83.8901 5.62C83.8421 5.764 83.8181 5.9 83.8181 6.028C83.8181 6.22 83.8501 6.372 83.9141 6.484L85.5701 6.436C85.7461 6.436 85.8341 6.876 85.8341 7.756V17.404C85.8341 17.676 85.9701 17.812 86.2421 17.812C86.9301 17.812 87.5781 17.724 88.1861 17.548C88.4421 17.452 88.5701 17.292 88.5701 17.068V7.276ZM109.338 15.892C108.842 16.02 108.042 16.172 106.938 16.348C105.85 16.524 104.986 16.612 104.346 16.612C103.626 16.612 103.146 16.516 102.906 16.324C102.682 16.132 102.57 15.732 102.57 15.124V12.388C104.026 12.292 105.642 12.108 107.418 11.836C108.154 11.676 108.69 11.412 109.026 11.044C109.362 10.66 109.53 10.132 109.53 9.46V7.756C109.53 7.068 109.434 6.54 109.242 6.172C109.05 5.804 108.73 5.548 108.282 5.404C107.85 5.244 107.226 5.164 106.41 5.164C104.106 5.164 102.442 5.356 101.418 5.74C100.362 6.14 99.834 6.836 99.834 7.828V16.06C99.834 16.684 100.026 17.132 100.41 17.404C100.81 17.676 101.442 17.812 102.306 17.812C104.866 17.812 107.218 17.532 109.362 16.972C109.426 16.86 109.458 16.7 109.458 16.492C109.458 16.252 109.418 16.052 109.338 15.892ZM102.57 7.924C102.538 7.284 102.722 6.836 103.122 6.58C103.522 6.308 104.282 6.172 105.402 6.172C105.93 6.172 106.29 6.3 106.482 6.556C106.69 6.796 106.794 7.252 106.794 7.924V9.388C106.794 9.9 106.69 10.252 106.482 10.444C106.274 10.636 105.842 10.804 105.186 10.948C104.514 11.076 103.642 11.188 102.57 11.284V7.924ZM111.369 17.692C112.217 17.772 113.393 17.812 114.897 17.812C116.129 17.812 117.129 17.644 117.897 17.308C118.681 16.956 119.073 16.436 119.073 15.748C119.073 15.108 118.801 14.348 118.257 13.468L114.897 8.164C114.641 7.796 114.513 7.476 114.513 7.204C114.513 6.564 115.129 6.244 116.361 6.244C117.289 6.244 117.977 6.276 118.425 6.34C118.505 6.132 118.545 5.956 118.545 5.812C118.545 5.636 118.497 5.452 118.401 5.26C117.873 5.196 117.145 5.164 116.217 5.164C113.161 5.164 111.633 5.844 111.633 7.204C111.633 7.604 111.689 7.956 111.801 8.26C111.913 8.564 112.161 9.004 112.545 9.58L115.905 14.884C116.129 15.3 116.241 15.588 116.241 15.748C116.241 16.132 116.081 16.388 115.761 16.516C115.425 16.66 114.849 16.732 114.033 16.732C112.769 16.732 111.873 16.692 111.345 16.612C111.281 16.756 111.249 16.932 111.249 17.14C111.249 17.348 111.289 17.532 111.369 17.692ZM120.463 17.692C121.311 17.772 122.487 17.812 123.991 17.812C125.223 17.812 126.223 17.644 126.991 17.308C127.775 16.956 128.167 16.436 128.167 15.748C128.167 15.108 127.895 14.348 127.351 13.468L123.991 8.164C123.735 7.796 123.607 7.476 123.607 7.204C123.607 6.564 124.223 6.244 125.455 6.244C126.383 6.244 127.071 6.276 127.519 6.34C127.599 6.132 127.639 5.956 127.639 5.812C127.639 5.636 127.591 5.452 127.495 5.26C126.967 5.196 126.239 5.164 125.311 5.164C122.255 5.164 120.727 5.844 120.727 7.204C120.727 7.604 120.783 7.956 120.895 8.26C121.007 8.564 121.255 9.004 121.639 9.58L124.999 14.884C125.223 15.3 125.335 15.588 125.335 15.748C125.335 16.132 125.175 16.388 124.855 16.516C124.519 16.66 123.943 16.732 123.127 16.732C121.863 16.732 120.967 16.692 120.439 16.612C120.375 16.756 120.343 16.932 120.343 17.14C120.343 17.348 120.383 17.532 120.463 17.692Z" fill="#1A2037"/>
</svg>
