<svg width="18" height="15" viewBox="0 0 18 15" fill="none" xmlns="http://www.w3.org/2000/svg">
<path d="M1.22266 1.68005V5.76793H5.31053" stroke="#CACACA" stroke-width="1.77141" stroke-linecap="round" stroke-linejoin="round"/>
<path d="M16.2119 12.5804V8.49255H12.124" stroke="#CACACA" stroke-width="1.77141" stroke-linecap="round" stroke-linejoin="round"/>
<path d="M14.5014 5.08626C14.1559 4.1098 13.5686 3.23677 12.7944 2.54866C12.0202 1.86054 11.0843 1.37976 10.0741 1.15118C9.06381 0.922593 8.0121 0.953654 7.01709 1.24146C6.02208 1.52927 5.11619 2.06445 4.38395 2.79705L1.22266 5.76758M16.2115 8.49283L13.0502 11.4633C12.318 12.196 11.4121 12.7311 10.4171 13.0189C9.42208 13.3067 8.37038 13.3378 7.36011 13.1092C6.34985 12.8806 5.41395 12.3999 4.63976 11.7117C3.86556 11.0236 3.27829 10.1506 2.93275 9.17414" stroke="#CACACA" stroke-width="1.77141" stroke-linecap="round" stroke-linejoin="round"/>
</svg>
