<svg width="20" height="20" viewBox="0 0 20 20" fill="none" xmlns="http://www.w3.org/2000/svg">
<path d="M10 4.16669C9.22645 4.16669 8.48459 4.47398 7.93761 5.02096C7.39062 5.56794 7.08333 6.30981 7.08333 7.08335C7.08333 7.8569 7.39062 8.59877 7.93761 9.14575C8.48459 9.69273 9.22645 10 10 10C10.7735 10 11.5154 9.69273 12.0624 9.14575C12.6094 8.59877 12.9167 7.8569 12.9167 7.08335C12.9167 6.30981 12.6094 5.56794 12.0624 5.02096C11.5154 4.47398 10.7735 4.16669 10 4.16669ZM10 5.83335C10.3315 5.83335 10.6495 5.96505 10.8839 6.19947C11.1183 6.43389 11.25 6.75183 11.25 7.08335C11.25 7.41487 11.1183 7.73282 10.8839 7.96724C10.6495 8.20166 10.3315 8.33335 10 8.33335C9.66848 8.33335 9.35054 8.20166 9.11612 7.96724C8.8817 7.73282 8.75 7.41487 8.75 7.08335C8.75 6.75183 8.8817 6.43389 9.11612 6.19947C9.35054 5.96505 9.66848 5.83335 10 5.83335ZM4.58333 6.66669C4.0308 6.66669 3.50089 6.88618 3.11019 7.27688C2.71949 7.66758 2.5 8.19749 2.5 8.75002C2.5 9.53335 2.94167 10.2084 3.575 10.5667C3.875 10.7334 4.21667 10.8334 4.58333 10.8334C4.95 10.8334 5.29167 10.7334 5.59167 10.5667C5.9 10.3917 6.15833 10.1417 6.35 9.84169C5.7429 9.0505 5.41473 8.08062 5.41667 7.08335V6.85002C5.16667 6.73335 4.88333 6.66669 4.58333 6.66669ZM15.4167 6.66669C15.1167 6.66669 14.8333 6.73335 14.5833 6.85002V7.08335C14.5833 8.08335 14.2583 9.05002 13.65 9.84169C13.75 10 13.8583 10.125 13.9833 10.25C14.3676 10.6226 14.8814 10.8317 15.4167 10.8334C15.7833 10.8334 16.125 10.7334 16.425 10.5667C17.0583 10.2084 17.5 9.53335 17.5 8.75002C17.5 8.19749 17.2805 7.66758 16.8898 7.27688C16.4991 6.88618 15.9692 6.66669 15.4167 6.66669ZM10 11.6667C8.05 11.6667 4.16667 12.6417 4.16667 14.5834V15.8334H15.8333V14.5834C15.8333 12.6417 11.95 11.6667 10 11.6667ZM3.925 12.125C2.31667 12.3167 0 13.1334 0 14.5834V15.8334H2.5V14.225C2.5 13.3834 3.075 12.6834 3.925 12.125ZM16.075 12.125C16.925 12.6834 17.5 13.3834 17.5 14.225V15.8334H20V14.5834C20 13.1334 17.6833 12.3167 16.075 12.125ZM10 13.3334C11.275 13.3334 12.7 13.75 13.525 14.1667H6.475C7.3 13.75 8.725 13.3334 10 13.3334Z" fill="black" fill-opacity="0.6"/>
</svg>
