<svg width="30" height="30" viewBox="0 0 30 30" fill="none" xmlns="http://www.w3.org/2000/svg">
<path d="M22.4 10V21C22.4 21.7732 21.7732 22.4 21 22.4H9C8.2268 22.4 7.6 21.7732 7.6 21V10C7.6 9.2268 8.2268 8.6 9 8.6H21C21.7732 8.6 22.4 9.2268 22.4 10Z" stroke="#EC615B" stroke-width="1.2" stroke-linejoin="round"/>
<path d="M7.5 12H22.5" stroke="#EC615B" stroke-width="1.2"/>
<path d="M12 7L12 8" stroke="#EC615B" stroke-width="1.2" stroke-linecap="round"/>
<path d="M18 7L18 8" stroke="#EC615B" stroke-width="1.2" stroke-linecap="round"/>
<rect x="8" y="9" width="14" height="4" fill="#EC615B"/>
<path d="M8.2002 13C8.2002 12.4477 8.64791 12 9.2002 12H20.8002C21.3525 12 21.8002 12.4477 21.8002 13V20.8C21.8002 21.3523 21.3525 21.8 20.8002 21.8H9.20019C8.64791 21.8 8.2002 21.3523 8.2002 20.8V13Z" fill="#EFEFEF"/>
<rect x="10" y="18" width="2" height="2" rx="1" fill="#EC615B"/>
<rect x="10" y="14" width="2" height="2" rx="1" fill="#EC615B"/>
<rect x="14" y="18" width="2" height="2" rx="1" fill="#EC615B"/>
<rect x="14" y="14" width="2" height="2" rx="1" fill="#EC615B"/>
<rect x="18" y="14" width="2" height="2" rx="1" fill="#EC615B"/>
</svg>
