<svg width="16" height="14" viewBox="0 0 16 14" fill="none" xmlns="http://www.w3.org/2000/svg">
    <path d="M0.5 12.4168V1.58342C0.5 1.27786 0.625 1.04509 0.875 0.885087C1.125 0.725643 1.38889 0.701476 1.66667 0.812587L14.5 6.22925C14.8472 6.38203 15.0208 6.63898 15.0208 7.00009C15.0208 7.3612 14.8472 7.61814 14.5 7.77092L1.66667 13.1876C1.38889 13.2987 1.125 13.2743 0.875 13.1143C0.625 12.9548 0.5 12.7223 0.5 12.4168ZM2.16667 11.1668L12.0417 7.00009L2.16667 2.83342V5.75009L7.16667 7.00009L2.16667 8.25009V11.1668ZM2.16667 7.00009V2.83342V11.1668V7.00009Z" fill="black" fill-opacity="0.2"/>
</svg>
