<svg width="16" height="14" viewBox="0 0 16 14" fill="none" xmlns="http://www.w3.org/2000/svg">
<path d="M0.739624 12.4168V1.58342C0.739624 1.27786 0.864624 1.04509 1.11462 0.885087C1.36462 0.725643 1.62851 0.701476 1.90629 0.812587L14.7396 6.22925C15.0868 6.38203 15.2605 6.63898 15.2605 7.00009C15.2605 7.3612 15.0868 7.61814 14.7396 7.77092L1.90629 13.1876C1.62851 13.2987 1.36462 13.2743 1.11462 13.1143C0.864624 12.9548 0.739624 12.7223 0.739624 12.4168ZM2.40629 11.1668L12.2813 7.00009L2.40629 2.83342V5.75009L7.40629 7.00009L2.40629 8.25009V11.1668ZM2.40629 7.00009V2.83342V11.1668V7.00009Z" fill="black" fill-opacity="0.6"/>
</svg>
