<svg width="24" height="17" viewBox="0 0 24 17" fill="none" xmlns="http://www.w3.org/2000/svg">
    <path d="M0.833984 0.5V2H13.584V13.25H8.9668C8.63281 11.9609 7.47266 11 6.08398 11C4.69531 11 3.53516 11.9609 3.20117 13.25H2.33398V2H0.833984V14.75H3.20117C3.53516 16.0391 4.69531 17 6.08398 17C7.47266 17 8.63281 16.0391 8.9668 14.75H15.2012C15.5352 16.0391 16.6953 17 18.084 17C19.4727 17 20.6328 16.0391 20.9668 14.75H23.334V8.63281L23.2871 8.51562L21.7871 4.01562L21.623 3.5H15.084V0.5H0.833984ZM15.084 5H20.5449L21.834 8.84375V13.25H20.9668C20.6328 11.9609 19.4727 11 18.084 11C16.6953 11 15.5352 11.9609 15.2012 13.25H15.084V5ZM6.08398 12.5C6.92188 12.5 7.58398 13.1621 7.58398 14C7.58398 14.8379 6.92188 15.5 6.08398 15.5C5.24609 15.5 4.58398 14.8379 4.58398 14C4.58398 13.1621 5.24609 12.5 6.08398 12.5ZM18.084 12.5C18.9219 12.5 19.584 13.1621 19.584 14C19.584 14.8379 18.9219 15.5 18.084 15.5C17.2461 15.5 16.584 14.8379 16.584 14C16.584 13.1621 17.2461 12.5 18.084 12.5Z" fill="black" fill-opacity="0.5"/>
</svg>
