<svg width="46" height="50" viewBox="0 0 46 50" fill="none" xmlns="http://www.w3.org/2000/svg">
<g clip-path="url(#clip0_173_7405)">
<path d="M39.5057 9.81889C39.471 9.56889 39.2506 9.43054 39.0685 9.4153C37.7253 9.31501 36.3821 9.21553 35.0388 9.11684C35.0388 9.11684 32.3664 6.48071 32.0731 6.18893C31.7796 5.89732 31.2064 5.98601 30.9839 6.05108C30.9512 6.06067 30.4 6.22968 29.4884 6.50999C28.5957 3.95759 27.0202 1.61204 24.2486 1.61204C24.172 1.61204 24.0933 1.61512 24.0145 1.61958C23.2263 0.583789 22.2498 0.133789 21.4064 0.133789C14.9499 0.133789 11.8653 8.15348 10.8981 12.2288C8.3893 13.0013 6.60702 13.5504 6.37936 13.6215C4.97897 14.0579 4.93468 14.1018 4.7508 15.4129C4.61242 16.4055 0.948242 44.5612 0.948242 44.5612L29.5003 49.8766L44.9708 46.5513C44.9708 46.5513 39.54 10.0689 39.5059 9.81889H39.5057ZM27.9103 6.99492L25.4944 7.7379C25.4952 7.56872 25.4961 7.40228 25.4961 7.22026C25.4961 5.63396 25.2745 4.35673 24.9189 3.34423C26.3471 3.52232 27.2982 5.13687 27.9103 6.99492ZM23.1473 3.65879C23.5444 4.64732 23.8026 6.06598 23.8026 7.98036C23.8026 8.07831 23.8017 8.16786 23.8008 8.25845C22.2297 8.74201 20.5223 9.26701 18.8112 9.79372C19.772 6.10947 21.5729 4.33002 23.1473 3.65879ZM21.2291 1.85451C21.5078 1.85451 21.7885 1.94851 22.0572 2.13225C19.9879 3.09971 17.77 5.53636 16.8333 10.4023L12.8893 11.616C13.9864 7.90451 16.5914 1.85451 21.2289 1.85451H21.2291Z" fill="#95BF46"/>
<path d="M39.0678 9.41455C37.7246 9.31427 36.3814 9.21478 35.0381 9.1161C35.0381 9.1161 32.3657 6.47997 32.0724 6.18818C31.9626 6.07962 31.8146 6.02397 31.6598 6L29.501 49.8755L44.9701 46.5505C44.9701 46.5505 39.5391 10.0682 39.505 9.81815C39.4704 9.56815 39.2499 9.42979 39.0678 9.41455Z" fill="#5E8E3E"/>
<path d="M24.2479 17.9088L22.3404 23.5468C22.3404 23.5468 20.6691 22.6605 18.6203 22.6605C15.6169 22.6605 15.4658 24.5333 15.4658 25.0052C15.4658 27.5802 22.2213 28.5669 22.2213 34.5984C22.2213 39.3438 19.1922 42.3994 15.1078 42.3994C10.2066 42.3994 7.7002 39.3686 7.7002 39.3686L9.01252 35.0604C9.01252 35.0604 11.5889 37.2581 13.7629 37.2581C15.1835 37.2581 15.7613 36.1468 15.7613 35.3349C15.7613 31.9759 10.219 31.8261 10.219 26.3068C10.219 21.6614 13.5747 17.166 20.3485 17.166C22.9585 17.166 24.2479 17.9088 24.2479 17.9088Z" fill="white"/>
</g>
<defs>
<clipPath id="clip0_173_7405">
<rect width="44.1176" height="50" fill="white" transform="translate(0.941406)"/>
</clipPath>
</defs>
</svg>
