<svg width="20" height="20" viewBox="0 0 20 20" fill="none" xmlns="http://www.w3.org/2000/svg">
<path fill-rule="evenodd" clip-rule="evenodd" d="M19 5.61243V11.6124C19 13.2693 17.6569 14.6124 16 14.6124H10H6.6406C5.90586 14.6124 5.19666 14.8821 4.64751 15.3702L2.66436 17.133C2.01946 17.7062 1 17.2484 1 16.3856V13.0124V5.61243C1 3.95557 2.34315 2.61243 4 2.61243H16C17.6569 2.61243 19 3.95557 19 5.61243ZM7.4 8.81243C7.4 9.47517 6.86274 10.0124 6.2 10.0124C5.53726 10.0124 5 9.47517 5 8.81243C5 8.14968 5.53726 7.61243 6.2 7.61243C6.86274 7.61243 7.4 8.14968 7.4 8.81243ZM11.4 8.81243C11.4 9.47517 10.8627 10.0124 10.2 10.0124C9.53726 10.0124 9 9.47517 9 8.81243C9 8.14968 9.53726 7.61243 10.2 7.61243C10.8627 7.61243 11.4 8.14968 11.4 8.81243ZM14.2 10.0124C14.8627 10.0124 15.4 9.47517 15.4 8.81243C15.4 8.14968 14.8627 7.61243 14.2 7.61243C13.5373 7.61243 13 8.14968 13 8.81243C13 9.47517 13.5373 10.0124 14.2 10.0124Z" fill="#EC615B"/>
</svg>
