<svg width="88" height="88" viewBox="0 0 88 88" fill="none" xmlns="http://www.w3.org/2000/svg">
<rect x="0.5" y="0.5" width="87" height="87" rx="5.5" fill="white"/>
<rect x="18.5" y="24.5" width="51" height="39" rx="3.5" fill="#F0F0F0" stroke="#1A2037"/>
<mask id="path-3-inside-1_1162_15478" fill="white">
<path d="M61.0984 25H23.0023C20.7931 25 19.0023 26.7909 19.0023 29V59C19.0023 61.2091 20.7931 63 23.0023 63H61.0984V25Z"/>
</mask>
<path d="M61.0984 25H23.0023C20.7931 25 19.0023 26.7909 19.0023 29V59C19.0023 61.2091 20.7931 63 23.0023 63H61.0984V25Z" fill="white"/>
<path d="M51.2328 37.8381C48.7701 33.5375 44.2859 31.1179 39.6627 31.0914L39.6127 44.4893L51.2328 37.8381Z" fill="#242F5E"/>
<path d="M39.6573 31.0914C37.3758 31.0792 35.0607 31.6498 32.9382 32.8647C30.8229 34.0755 29.1624 35.7753 28.0178 37.7403L39.6073 44.4892L39.6573 31.0914Z" fill="white"/>
<path d="M28.0152 37.7449C25.6856 41.7478 25.4961 46.8497 27.9613 51.1584L39.6047 44.4939L28.0152 37.7449Z" fill="#242F5E"/>
<path d="M27.9639 51.163C30.4307 55.4708 34.9259 57.8911 39.5573 57.9097L39.6073 44.4985L27.9639 51.163Z" fill="white"/>
<path d="M39.5627 57.9097C41.8366 57.9179 44.1432 57.3471 46.2585 56.1363C48.381 54.9214 50.0455 53.2141 51.1905 51.2407L39.6127 44.4986L39.5627 57.9097Z" fill="#242F5E"/>
<path d="M51.1931 51.2361C53.5116 47.2363 53.6965 42.1442 51.2355 37.8427L39.6153 44.4939L51.1931 51.2361Z" fill="white"/>
<path d="M51.2328 37.8381C48.7701 33.5375 44.2859 31.1179 39.6627 31.0914L39.6127 44.4893L51.2328 37.8381Z" stroke="#1A2037"/>
<path d="M39.6573 31.0914C37.3758 31.0792 35.0607 31.6498 32.9382 32.8647C30.8229 34.0755 29.1624 35.7753 28.0178 37.7403L39.6073 44.4892L39.6573 31.0914Z" stroke="#1A2037"/>
<path d="M28.0152 37.7449C25.6856 41.7478 25.4961 46.8497 27.9613 51.1584L39.6047 44.4939L28.0152 37.7449Z" stroke="#1A2037"/>
<path d="M27.9639 51.163C30.4307 55.4708 34.9259 57.8911 39.5573 57.9097L39.6073 44.4985L27.9639 51.163Z" stroke="#1A2037"/>
<path d="M39.5627 57.9097C41.8366 57.9179 44.1432 57.3471 46.2585 56.1363C48.381 54.9214 50.0455 53.2141 51.1905 51.2407L39.6127 44.4986L39.5627 57.9097Z" stroke="#1A2037"/>
<path d="M51.1931 51.2361C53.5116 47.2363 53.6965 42.1442 51.2355 37.8427L39.6153 44.4939L51.1931 51.2361Z" stroke="#1A2037"/>
<path d="M49.81 34.871L46.1102 40.9697L53.2091 40.2703C55.8477 40.0103 57.2902 37.0645 55.8777 34.8207C54.4652 32.577 51.1852 32.6041 49.81 34.871Z" fill="white" stroke="#1A2037" stroke-linejoin="round"/>
<path d="M61.0984 25H19.0023H61.0984ZM19.0023 63H61.0984H19.0023ZM62.0984 63V25H60.0984V63H62.0984ZM19.0023 25V63V25Z" fill="#1A2037" mask="url(#path-3-inside-1_1162_15478)"/>
<path d="M23.9467 28.4584C23.9467 28.8527 23.6259 29.1744 23.2279 29.1744C22.8299 29.1744 22.5092 28.8527 22.5092 28.4584C22.5092 28.0641 22.8299 27.7424 23.2279 27.7424C23.6259 27.7424 23.9467 28.0641 23.9467 28.4584Z" fill="white" stroke="#1A2037"/>
<path d="M28.0099 28.4584C28.0099 28.8527 27.6892 29.1744 27.2911 29.1744C26.8931 29.1744 26.5724 28.8527 26.5724 28.4584C26.5724 28.0641 26.8931 27.7424 27.2911 27.7424C27.6892 27.7424 28.0099 28.0641 28.0099 28.4584Z" fill="white" stroke="#1A2037"/>
<path d="M32.0719 28.4584C32.0719 28.8527 31.7512 29.1744 31.3531 29.1744C30.9551 29.1744 30.6344 28.8527 30.6344 28.4584C30.6344 28.0641 30.9551 27.7424 31.3531 27.7424C31.7512 27.7424 32.0719 28.0641 32.0719 28.4584Z" fill="white" stroke="#1A2037"/>
<rect x="0.5" y="0.5" width="87" height="87" rx="5.5" stroke="#1A2037"/>
</svg>
