<svg width="88" height="88" viewBox="0 0 88 88" fill="none" xmlns="http://www.w3.org/2000/svg">
<rect width="88" height="88" rx="6" fill="white"/>
<rect x="18.0594" y="24" width="51.8812" height="40" rx="4" fill="#F0F0F0"/>
<rect x="18.5594" y="24.5" width="50.8812" height="39" rx="3.5" stroke="black" stroke-opacity="0.4"/>
<mask id="path-4-inside-1_1162_15385" fill="white">
<path d="M61.0594 25H23.0594C20.8502 25 19.0594 26.7909 19.0594 29V59C19.0594 61.2091 20.8502 63 23.0594 63H61.0594V25Z"/>
</mask>
<path d="M61.0594 25H23.0594C20.8502 25 19.0594 26.7909 19.0594 29V59C19.0594 61.2091 20.8502 63 23.0594 63H61.0594V25Z" fill="white"/>
<path d="M51.1938 37.8381C48.7311 33.5375 44.2468 31.1179 39.6237 31.0914L39.5736 44.4893L51.1938 37.8381Z" fill="#D0D0D0"/>
<path d="M39.6182 31.0914C37.3368 31.0792 35.0217 31.6498 32.8991 32.8647C30.7838 34.0755 29.1233 35.7753 27.9788 37.7403L39.5683 44.4892L39.6182 31.0914Z" fill="white"/>
<path d="M27.9761 37.7449C25.6466 41.7478 25.4571 46.8497 27.9222 51.1584L39.5656 44.4939L27.9761 37.7449Z" fill="#D0D0D0"/>
<path d="M27.9249 51.163C30.3917 55.4708 34.8869 57.8911 39.5182 57.9097L39.5683 44.4985L27.9249 51.163Z" fill="white"/>
<path d="M39.5236 57.9097C41.7976 57.9179 44.1041 57.3471 46.2194 56.1363C48.342 54.9214 50.0065 53.2141 51.1514 51.2407L39.5736 44.4986L39.5236 57.9097Z" fill="#D0D0D0"/>
<path d="M51.1541 51.2361C53.4726 47.2363 53.6575 42.1442 51.1964 37.8427L39.5763 44.4939L51.1541 51.2361Z" fill="white"/>
<path d="M51.1938 37.8381C48.7311 33.5375 44.2468 31.1179 39.6237 31.0914L39.5736 44.4893L51.1938 37.8381Z" stroke="#999999"/>
<path d="M39.6182 31.0914C37.3368 31.0792 35.0217 31.6498 32.8991 32.8647C30.7838 34.0755 29.1233 35.7753 27.9788 37.7403L39.5683 44.4892L39.6182 31.0914Z" stroke="#999999"/>
<path d="M27.9761 37.7449C25.6466 41.7478 25.4571 46.8497 27.9222 51.1584L39.5656 44.4939L27.9761 37.7449Z" stroke="#999999"/>
<path d="M27.9249 51.163C30.3917 55.4708 34.8869 57.8911 39.5182 57.9097L39.5683 44.4985L27.9249 51.163Z" stroke="#999999"/>
<path d="M39.5236 57.9097C41.7976 57.9179 44.1041 57.3471 46.2194 56.1363C48.342 54.9214 50.0065 53.2141 51.1514 51.2407L39.5736 44.4986L39.5236 57.9097Z" stroke="#999999"/>
<path d="M51.1541 51.2361C53.4726 47.2363 53.6575 42.1442 51.1964 37.8427L39.5763 44.4939L51.1541 51.2361Z" stroke="#999999"/>
<path d="M49.771 34.871L46.0712 40.9697L53.17 40.2703C55.8086 40.0103 57.2511 37.0645 55.8386 34.8207C54.4261 32.577 51.1461 32.6041 49.771 34.871Z" fill="white" stroke="#999999" stroke-linejoin="round"/>
<path d="M61.0594 25H19.0594H61.0594ZM19.0594 63H61.0594H19.0594ZM62.0594 63V25H60.0594V63H62.0594ZM19.0594 25V63V25Z" fill="black" fill-opacity="0.4" mask="url(#path-4-inside-1_1162_15385)"/>
<circle cx="23.2754" cy="28.4584" r="1.21597" fill="#C8C8C8"/>
<circle cx="23.2754" cy="28.4584" r="0.715966" stroke="black" stroke-opacity="0.4"/>
<circle cx="27.3293" cy="28.4584" r="1.21597" fill="#C8C8C8"/>
<circle cx="27.3293" cy="28.4584" r="0.715966" stroke="black" stroke-opacity="0.4"/>
<path d="M32.598 28.4584C32.598 29.13 32.0536 29.6744 31.382 29.6744C30.7105 29.6744 30.1661 29.13 30.1661 28.4584C30.1661 27.7868 30.7105 27.2424 31.382 27.2424C32.0536 27.2424 32.598 27.7868 32.598 28.4584Z" fill="#C8C8C8"/>
<path d="M32.098 28.4584C32.098 28.8538 31.7775 29.1744 31.382 29.1744C30.9866 29.1744 30.6661 28.8538 30.6661 28.4584C30.6661 28.063 30.9866 27.7424 31.382 27.7424C31.7775 27.7424 32.098 28.063 32.098 28.4584Z" stroke="black" stroke-opacity="0.4"/>
</svg>
