<svg width="17" height="16" viewBox="0 0 17 16" fill="none" xmlns="http://www.w3.org/2000/svg">
  <path d="M15.7416 7.16002C15.7338 7.10502 15.6838 7.07458 15.6425 7.07123C15.3381 7.04917 15.0336 7.02728 14.7291 7.00557C14.7291 7.00557 14.1234 6.42562 14.0569 6.36143C13.9904 6.29727 13.8605 6.31679 13.81 6.3311C13.8026 6.33321 13.6777 6.37039 13.4711 6.43206C13.2687 5.87053 12.9116 5.35451 12.2834 5.35451C12.266 5.35451 12.2482 5.35519 12.2303 5.35617C12.0516 5.1283 11.8303 5.0293 11.6391 5.0293C10.1757 5.0293 9.47648 6.79363 9.25727 7.6902C8.68859 7.86014 8.28461 7.98095 8.23301 7.99658C7.91559 8.09261 7.90555 8.10225 7.86387 8.3907C7.8325 8.60908 7.00195 14.8033 7.00195 14.8033L13.4737 15.9727L16.9804 15.2411C16.9804 15.2411 15.7494 7.21502 15.7417 7.16002H15.7416ZM13.1134 6.53875L12.5657 6.7022C12.5659 6.66498 12.5661 6.62837 12.5661 6.58832C12.5661 6.23933 12.5159 5.95834 12.4353 5.73559C12.759 5.77477 12.9746 6.12998 13.1134 6.53875ZM12.0337 5.8048C12.1237 6.02227 12.1823 6.33438 12.1823 6.75554C12.1823 6.77709 12.1821 6.79679 12.1819 6.81672C11.8257 6.92311 11.4387 7.03861 11.0509 7.15448C11.2687 6.34395 11.6769 5.95247 12.0337 5.8048V5.8048ZM11.5989 5.40786C11.6621 5.40786 11.7257 5.42854 11.7866 5.46896C11.3176 5.6818 10.8149 6.21786 10.6026 7.28837L9.70859 7.55538C9.95727 6.73886 10.5477 5.40786 11.5989 5.40786H11.5989Z" fill="#95BF46"/>
  <path d="M12.2821 8.93978L11.8497 10.1801C11.8497 10.1801 11.4709 9.98516 11.0065 9.98516C10.3257 9.98516 10.2914 10.3972 10.2914 10.501C10.2914 11.0675 11.8227 11.2846 11.8227 12.6115C11.8227 13.6555 11.1361 14.3277 10.2103 14.3277C9.09938 14.3277 8.53125 13.6609 8.53125 13.6609L8.82871 12.7131C8.82871 12.7131 9.4127 13.1966 9.90547 13.1966C10.2275 13.1966 10.3584 12.9521 10.3584 12.7735C10.3584 12.0346 9.10219 12.0016 9.10219 10.7873C9.10219 9.76535 9.86281 8.77637 11.3982 8.77637C11.9898 8.77637 12.2821 8.93978 12.2821 8.93978" fill="white"/>
  <path fill-rule="evenodd" clip-rule="evenodd" d="M0.175781 7.18518L0.865471 8.16718L1.21823 8.66945L1.90792 9.65146L2.18195 9.459C2.78733 9.03383 3.62275 9.17991 4.04792 9.78528C4.47309 10.3907 4.32701 11.2261 3.72164 11.6512L3.4476 11.8437L4.13729 12.8257L4.49006 13.328L5.17975 14.31L6.16175 13.6203L6.40826 13.4472C6.26982 13.0476 6.16429 12.6309 6.09524 12.2006L5.47206 12.6383L5.03241 12.0123C5.62821 11.1615 5.6614 9.99471 5.02992 9.09559C4.39845 8.19648 3.28964 7.83175 2.28712 8.10348L1.84747 7.47749L10.114 1.67169L10.5536 2.29768C10.1157 2.92302 9.98172 3.71905 10.1922 4.45404C10.5608 4.30325 10.9454 4.18753 11.3425 4.11066C11.1965 3.58051 11.3886 2.99291 11.8644 2.65874L12.1384 2.46628L11.4487 1.48428L11.096 0.982002L10.4063 0L9.42427 0.68969L1.15778 6.49549L0.175781 7.18518Z" fill="#808080"/>
</svg>
