<svg width="24" height="24" viewBox="0 0 24 24" fill="none" xmlns="http://www.w3.org/2000/svg">
<path d="M19.5858 18.0659C20.3668 17.2849 20.3668 16.0185 19.5858 15.2375L15.8979 11.5495L16.6341 10.8133C17.0246 10.4228 17.0246 9.78965 16.6341 9.39912L14.6009 7.36594C14.2104 6.97542 13.5772 6.97542 13.1867 7.36594L12.4505 8.10214L8.76253 4.41421C7.98148 3.63317 6.71515 3.63316 5.9341 4.41421L4.41421 5.9341C3.63317 6.71515 3.63316 7.98148 4.41421 8.76253L8.10214 12.4505L4.31204 16.2406C3.93697 16.6156 3.72625 17.1243 3.72625 17.6548V20.2737H6.34522C6.87565 20.2737 7.38436 20.063 7.75943 19.688L11.5495 15.8979L15.2375 19.5858C16.0185 20.3668 17.2848 20.3668 18.0659 19.5858L19.5858 18.0659ZM9.40756 11.145L6.31045 8.05542C5.91912 7.66503 5.91874 7.03121 6.3096 6.64035L6.64121 6.30874C7.03173 5.91822 7.6649 5.91822 8.05542 6.30874L8.51583 6.76915L8.06997 7.21501C7.71203 7.57296 7.71203 8.15329 8.06997 8.51124C8.42791 8.86918 9.00825 8.86918 9.36619 8.51123L9.81205 8.06537L11.145 9.39837L9.40756 11.145ZM12.855 14.5924L14.6016 12.8458L15.9346 14.1788L15.4888 14.6246C15.1308 14.9826 15.1308 15.5629 15.4888 15.9208C15.8467 16.2788 16.427 16.2788 16.785 15.9208L17.2308 15.475L17.6913 15.9354C18.0818 16.3259 18.0818 16.9591 17.6913 17.3496L17.3588 17.6821C16.9683 18.0726 16.3351 18.0726 15.9446 17.6821L12.855 14.5924ZM15.5872 6.3849C15.1967 5.99443 15.1966 5.36138 15.587 4.97083L16.5063 4.05121C16.8968 3.66055 17.53 3.66049 17.9206 4.05107L19.952 6.08241C20.3424 6.47288 20.3425 7.10594 19.9521 7.49648L19.0328 8.41611C18.6423 8.80676 18.0091 8.80683 17.6185 8.41625L15.5872 6.3849Z" fill="#757575"/>
</svg>
