<svg version="1.2" xmlns="http://www.w3.org/2000/svg" viewBox="0 0 25 24" width="25" height="24">
	<title>targeting_icon_selected-svg</title>
	<style>
		.s0 { fill: #757575 } 
	</style>
	<path id="Layer" fill-rule="evenodd" class="s0" d="m22.6 12q0 0.5 0 0.9l-2-0.6q0-0.1 0-0.3c0-4.4-3.6-8-8-8-4.4 0-8 3.6-8 8 0 4.4 3.6 8 8 8q0.2 0 0.3 0l0.6 2q-0.4 0-0.9 0c-5.5 0-10-4.5-10-10 0-5.5 4.5-10 10-10 5.5 0 10 4.5 10 10zm-10.3 6c-1.5-0.1-3-0.7-4-1.9-1.1-1.1-1.7-2.6-1.7-4.1 0-3.3 2.7-6 6-6 3.2 0 5.9 2.5 6 5.7l-2.1-0.6c-0.1-0.7-0.5-1.4-1-1.9-0.5-0.5-1.1-0.9-1.8-1-0.7-0.2-1.4-0.3-2.1-0.1-0.7 0.2-1.3 0.6-1.8 1.1-0.5 0.5-0.9 1.1-1 1.8-0.2 0.7-0.2 1.4 0 2.1 0.2 0.7 0.5 1.3 1.1 1.8 0.5 0.5 1.1 0.8 1.8 1zm10.8 2.5l-2 2-4.2-4.3-1.3 3.8-3-10 10 3-3.8 1.3z"/>
</svg>