<svg width="20" height="20" viewBox="0 0 20 20" fill="none" xmlns="http://www.w3.org/2000/svg">
<path d="M1.80049 2.80627V2.80625C1.80049 2.53848 1.90652 2.28224 2.09436 2.09374C2.28211 1.90534 2.53617 1.8 2.80049 1.8H16.8356C17.0999 1.8 17.3539 1.90534 17.5417 2.09374C17.7295 2.28224 17.8356 2.53848 17.8356 2.80625L17.8356 2.80828L17.8623 13.3467C17.8623 13.347 17.8623 13.3474 17.8623 13.3477C17.862 13.6151 17.756 13.8709 17.5684 14.0592C17.3807 14.2476 17.1266 14.3529 16.8623 14.3529H5.62721C5.43608 14.3529 5.25126 14.4213 5.10622 14.5458L1.80005 17.3831L1.80049 2.80627Z" stroke="#838383" stroke-width="1.6" stroke-linejoin="round"/>
<path d="M6.9 6.14302C6.67909 6.14302 6.5 5.96393 6.5 5.74302V5.09995C6.5 4.87904 6.67909 4.69995 6.9 4.69995H13.1C13.3209 4.69995 13.5 4.87904 13.5 5.09995V5.74302C13.5 5.96393 13.3209 6.14302 13.1 6.14302H11.1851C10.9642 6.14302 10.7851 6.32211 10.7851 6.54302V11.1C10.7851 11.3209 10.606 11.5 10.3851 11.5H9.61062C9.38971 11.5 9.21062 11.3209 9.21062 11.1V6.54302C9.21062 6.32211 9.03154 6.14302 8.81062 6.14302H6.9Z" fill="#838383"/>
</svg>
