<svg width="24" height="24" viewBox="0 0 24 24" fill="none" xmlns="http://www.w3.org/2000/svg">
<path d="M5 7C5 7.55228 5.44772 8 6 8V8C6.55228 8 7 7.55228 7 7V6.4C7 6.17909 7.17909 6 7.4 6H9.75718C10.0118 6 10.2017 6.23482 10.1483 6.48383L7.74777 17.6838C7.70824 17.8683 7.54526 18 7.35665 18H6C5.44772 18 5 18.4477 5 19V19C5 19.5523 5.44772 20 6 20H12C12.5523 20 13 19.5523 13 19V19C13 18.4477 12.5523 18 12 18H11.2428C10.9882 18 10.7983 17.7652 10.8517 17.5162L13.2522 6.31617C13.2918 6.13175 13.4547 6 13.6434 6H16.6C16.8209 6 17 6.17909 17 6.4V7C17 7.55228 17.4477 8 18 8V8C18.5523 8 19 7.55228 19 7V5C19 4.44772 18.5523 4 18 4H6C5.44772 4 5 4.44772 5 5V7Z" fill="#757575"/>
</svg>
