<svg width="12" height="3" viewBox="0 0 12 3" fill="none" xmlns="http://www.w3.org/2000/svg">
<path d="M0 1.98438C-2.7674e-09 2.1157 0.0258657 2.24573 0.0761204 2.36706C0.126375 2.48838 0.200035 2.59862 0.292893 2.69148C0.385752 2.78434 0.495991 2.858 0.617317 2.90825C0.738642 2.95851 0.868678 2.98438 1 2.98438C1.13132 2.98438 1.26136 2.95851 1.38268 2.90825C1.50401 2.858 1.61425 2.78434 1.70711 2.69148C1.79997 2.59862 1.87362 2.48838 1.92388 2.36706C1.97413 2.24573 2 2.1157 2 1.98438C2 1.85305 1.97413 1.72302 1.92388 1.60169C1.87362 1.48037 1.79997 1.37013 1.70711 1.27727C1.61425 1.18441 1.50401 1.11075 1.38268 1.0605C1.26136 1.01024 1.13132 0.984375 1 0.984375C0.868678 0.984375 0.738642 1.01024 0.617317 1.0605C0.495991 1.11075 0.385752 1.18441 0.292893 1.27727C0.200035 1.37013 0.126375 1.48037 0.0761204 1.60169C0.0258657 1.72302 -2.7674e-09 1.85305 0 1.98438V1.98438ZM5 1.98438C5 2.24959 5.10536 2.50395 5.29289 2.69148C5.48043 2.87902 5.73478 2.98438 6 2.98438C6.26522 2.98438 6.51957 2.87902 6.70711 2.69148C6.89464 2.50395 7 2.24959 7 1.98438C7 1.71916 6.89464 1.4648 6.70711 1.27727C6.51957 1.08973 6.26522 0.984375 6 0.984375C5.73478 0.984375 5.48043 1.08973 5.29289 1.27727C5.10536 1.4648 5 1.71916 5 1.98438V1.98438ZM10 1.98438C10 2.24959 10.1054 2.50395 10.2929 2.69148C10.4804 2.87902 10.7348 2.98438 11 2.98438C11.2652 2.98438 11.5196 2.87902 11.7071 2.69148C11.8946 2.50395 12 2.24959 12 1.98438C12 1.71916 11.8946 1.4648 11.7071 1.27727C11.5196 1.08973 11.2652 0.984375 11 0.984375C10.7348 0.984375 10.4804 1.08973 10.2929 1.27727C10.1054 1.4648 10 1.71916 10 1.98438V1.98438Z" fill="#1A2037"/>
</svg>
