<svg width="24" height="24" viewBox="0 0 24 24" fill="none" xmlns="http://www.w3.org/2000/svg">
<path fill-rule="evenodd" clip-rule="evenodd" d="M11.98 23.48C17.2267 23.48 21.48 19.2267 21.48 13.98C21.48 8.73329 17.2267 4.48 11.98 4.48C6.73328 4.48 2.47998 8.73329 2.47998 13.98C2.47998 19.2267 6.73328 23.48 11.98 23.48ZM11.98 21.8967C16.3522 21.8967 19.8966 18.3523 19.8966 13.98C19.8966 9.60775 16.3522 6.06333 11.98 6.06333C7.60773 6.06333 4.06331 9.60775 4.06331 13.98C4.06331 18.3523 7.60773 21.8967 11.98 21.8967Z" fill="#7B7B7B"/>
<path d="M7.77157 18.2568C8.4716 18.9521 9.33232 19.4641 10.2775 19.7474C11.2227 20.0307 12.2231 20.0765 13.1902 19.8808C14.1573 19.6851 15.0612 19.2538 15.8218 18.6253C16.5825 17.9968 17.1764 17.1904 17.5509 16.2776C17.9255 15.3647 18.0691 14.3736 17.9691 13.392C17.8692 12.4104 17.5286 11.4685 16.9777 10.65C16.4268 9.83137 15.6825 9.16129 14.8107 8.69907C13.939 8.23684 12.9667 7.99674 11.98 8.00003L12 14L7.77157 18.2568Z" fill="#7B7B7B"/>
<path d="M6 7.06897L4 5M18 7.06897L20 5" stroke="#7B7B7B" stroke-width="2" stroke-linecap="round" stroke-linejoin="round"/>
<path d="M12 5L12 2M12 2L9 2M12 2L15 2" stroke="#7B7B7B" stroke-width="2" stroke-linecap="round" stroke-linejoin="round"/>
</svg>
