<svg width="24" height="24" viewBox="0 0 24 24" fill="none" xmlns="http://www.w3.org/2000/svg">
<path fill-rule="evenodd" clip-rule="evenodd" d="M11.9795 23.48C17.2262 23.48 21.4795 19.2267 21.4795 13.98C21.4795 8.73327 17.2262 4.47998 11.9795 4.47998C6.73279 4.47998 2.47949 8.73327 2.47949 13.98C2.47949 19.2267 6.73279 23.48 11.9795 23.48ZM11.9795 21.8967C16.3517 21.8967 19.8961 18.3523 19.8961 13.98C19.8961 9.60773 16.3517 6.06331 11.9795 6.06331C7.60724 6.06331 4.06282 9.60773 4.06282 13.98C4.06282 18.3523 7.60724 21.8967 11.9795 21.8967Z" fill="#1A2037"/>
<path d="M7.77148 18.2568C8.47151 18.9521 9.33223 19.4641 10.2774 19.7474C11.2226 20.0307 12.223 20.0765 13.1901 19.8808C14.1572 19.6851 15.0611 19.2538 15.8217 18.6253C16.5824 17.9968 17.1763 17.1904 17.5508 16.2776C17.9254 15.3647 18.069 14.3736 17.969 13.392C17.8691 12.4104 17.5285 11.4685 16.9776 10.65C16.4267 9.83137 15.6824 9.16129 14.8106 8.69907C13.9389 8.23684 12.9666 7.99674 11.9799 8.00003L11.9999 14L7.77148 18.2568Z" fill="#1A2037"/>
<path d="M6 7.06897L4 5M18 7.06897L20 5" stroke="#1A2037" stroke-width="2" stroke-linecap="round" stroke-linejoin="round"/>
<path d="M12 5V2M12 2H9M12 2H15" stroke="#1A2037" stroke-width="2" stroke-linecap="round" stroke-linejoin="round"/>
</svg>
