<svg width="12" height="14" viewBox="0 0 12 14" fill="none" xmlns="http://www.w3.org/2000/svg">
<path d="M3.625 1.87494H3.5C3.56875 1.87494 3.625 1.81869 3.625 1.74994V1.87494H8.375V1.74994C8.375 1.81869 8.43125 1.87494 8.5 1.87494H8.375V2.99994H9.5V1.74994C9.5 1.19838 9.05156 0.749939 8.5 0.749939H3.5C2.94844 0.749939 2.5 1.19838 2.5 1.74994V2.99994H3.625V1.87494ZM11.5 2.99994H0.5C0.223438 2.99994 0 3.22338 0 3.49994V3.99994C0 4.06869 0.05625 4.12494 0.125 4.12494H1.06875L1.45469 12.2968C1.47969 12.8296 1.92031 13.2499 2.45313 13.2499H9.54688C10.0813 13.2499 10.5203 12.8312 10.5453 12.2968L10.9313 4.12494H11.875C11.9438 4.12494 12 4.06869 12 3.99994V3.49994C12 3.22338 11.7766 2.99994 11.5 2.99994ZM9.42656 12.1249H2.57344L2.19531 4.12494H9.80469L9.42656 12.1249Z" fill="#D9D9DA"/>
</svg>
