<?xml version="1.0" standalone="no"?>
<!DOCTYPE svg PUBLIC "-//W3C//DTD SVG 20010904//EN"
 "http://www.w3.org/TR/2001/REC-SVG-20010904/DTD/svg10.dtd">
<svg version="1.0" xmlns="http://www.w3.org/2000/svg"
 width="640.000000pt" height="675.000000pt" viewBox="0 0 640.000000 675.000000"
 preserveAspectRatio="xMidYMid meet">
<metadata>
Created by potrace 1.16, written by Peter Selinger 2001-2019
</metadata>
<g transform="translate(0.000000,675.000000) scale(0.100000,-0.100000)"
fill="#000000" stroke="none">
<path d="M2445 6720 c-201 -23 -309 -110 -362 -295 -11 -36 -16 -127 -20 -317
l-5 -268 -484 0 c-315 0 -501 -4 -536 -11 -210 -44 -343 -237 -294 -430 30
-115 115 -209 236 -256 43 -17 162 -18 2194 -21 1914 -2 2156 -1 2210 13 116
30 199 98 250 205 60 127 35 268 -68 378 -51 55 -131 98 -207 112 -29 6 -264
10 -540 10 l-489 0 0 276 c0 215 -3 290 -16 345 -29 130 -109 211 -241 245
-61 16 -141 17 -813 20 -410 1 -776 -2 -815 -6z m1395 -685 l0 -195 -640 0
-640 0 0 195 0 195 640 0 640 0 0 -195z"/>
<path d="M954 4913 c3 -21 24 -216 46 -433 22 -217 65 -633 95 -925 30 -291
68 -660 84 -820 183 -1780 233 -2255 242 -2285 46 -145 177 -299 309 -363 158
-77 56 -72 1470 -72 l1265 0 80 23 c119 35 190 76 275 162 76 76 136 172 159
255 6 22 70 612 142 1310 71 699 154 1509 184 1800 30 292 73 708 95 925 22
217 42 410 44 428 l5 32 -2251 0 -2250 0 6 -37z m1225 -482 c52 -26 90 -79
101 -141 6 -30 60 -805 120 -1721 89 -1348 108 -1672 99 -1700 -37 -110 -154
-167 -257 -123 -44 18 -88 58 -109 98 -22 42 -247 3416 -232 3472 14 50 84
118 135 132 47 12 97 6 143 -17z m1097 8 c31 -11 83 -58 102 -93 16 -29 17
-145 17 -1751 l0 -1720 -24 -42 c-14 -24 -43 -55 -65 -70 -34 -23 -52 -28
-107 -28 -56 0 -72 4 -107 29 -26 18 -51 47 -67 79 l-25 51 0 1690 c0 1177 3
1703 11 1730 30 107 154 166 265 125z m1121 -6 c43 -20 89 -74 102 -118 12
-43 -211 -3413 -229 -3460 -26 -68 -109 -124 -184 -125 -88 0 -179 77 -191
163 -3 23 46 803 108 1732 91 1354 117 1696 129 1720 51 97 164 134 265 88z"/>
</g>
</svg>
