<svg width="16" height="17" viewBox="0 0 16 17" fill="none" xmlns="http://www.w3.org/2000/svg">
<g id="uil:image-broken">
<path id="Vector" d="M14.4733 10.3432L12.8067 8.6499C12.7447 8.58741 12.671 8.53782 12.5897 8.50397C12.5085 8.47012 12.4213 8.4527 12.3333 8.4527C12.2453 8.4527 12.1582 8.47012 12.077 8.50397C11.9957 8.53782 11.922 8.58741 11.86 8.6499L10 10.5432L8.14 8.6499C8.07803 8.58741 8.00429 8.53782 7.92305 8.50397C7.84181 8.47012 7.75468 8.4527 7.66667 8.4527C7.57866 8.4527 7.49152 8.47012 7.41028 8.50397C7.32904 8.53782 7.25531 8.58741 7.19333 8.6499L5.66667 10.2099L4.14 8.6499C4.07803 8.58741 4.00429 8.53782 3.92305 8.50397C3.84181 8.47012 3.75468 8.4527 3.66667 8.4527C3.57866 8.4527 3.49152 8.47012 3.41028 8.50397C3.32904 8.53782 3.25531 8.58741 3.19333 8.6499L1.52667 10.3166C1.46597 10.38 1.4184 10.4547 1.38667 10.5366C1.35251 10.6167 1.33439 10.7028 1.33333 10.7899V13.3166C1.33333 13.847 1.54405 14.3557 1.91912 14.7308C2.29419 15.1058 2.8029 15.3166 3.33333 15.3166H12.6667C13.1971 15.3166 13.7058 15.1058 14.0809 14.7308C14.456 14.3557 14.6667 13.847 14.6667 13.3166V10.8166C14.6656 10.7294 14.6475 10.6434 14.6133 10.5632C14.5816 10.4814 14.534 10.4066 14.4733 10.3432ZM13.3333 13.3166C13.3333 13.4934 13.2631 13.6629 13.1381 13.788C13.013 13.913 12.8435 13.9832 12.6667 13.9832H3.33333C3.15652 13.9832 2.98695 13.913 2.86193 13.788C2.73691 13.6629 2.66667 13.4934 2.66667 13.3166V11.0899L3.66667 10.0899L5.19333 11.6232C5.25531 11.6857 5.32904 11.7353 5.41028 11.7692C5.49152 11.803 5.57866 11.8204 5.66667 11.8204C5.75468 11.8204 5.84181 11.803 5.92305 11.7692C6.00429 11.7353 6.07803 11.6857 6.14 11.6232L7.66667 10.0899L9.52667 11.9832C9.58864 12.0457 9.66238 12.0953 9.74362 12.1292C9.82486 12.163 9.91199 12.1804 10 12.1804C10.088 12.1804 10.1751 12.163 10.2564 12.1292C10.3376 12.0953 10.4114 12.0457 10.4733 11.9832L12.3333 10.1166L13.3333 11.1166V13.3166ZM12.6667 1.98323H3.33333C2.8029 1.98323 2.29419 2.19394 1.91912 2.56902C1.54405 2.94409 1.33333 3.4528 1.33333 3.98323V7.4899C1.32639 7.5497 1.32639 7.6101 1.33333 7.6699V7.73656C1.37507 7.84082 1.44247 7.93283 1.52927 8.00408C1.61608 8.07533 1.71947 8.12349 1.82986 8.14411C1.94025 8.16472 2.05405 8.15712 2.16072 8.122C2.26738 8.08688 2.36345 8.02539 2.44 7.94323L3.66667 6.75656L5.19333 8.2899C5.25531 8.35238 5.32904 8.40198 5.41028 8.43582C5.49152 8.46967 5.57866 8.4871 5.66667 8.4871C5.75468 8.4871 5.84181 8.46967 5.92305 8.43582C6.00429 8.40198 6.07803 8.35238 6.14 8.2899L7.66667 6.75656L9.52667 8.6499C9.58864 8.71238 9.66238 8.76198 9.74362 8.79582C9.82486 8.82967 9.91199 8.8471 10 8.8471C10.088 8.8471 10.1751 8.82967 10.2564 8.79582C10.3376 8.76198 10.4114 8.71238 10.4733 8.6499L12.3333 6.78323L13.5133 7.9699C13.5899 8.05206 13.686 8.11355 13.7926 8.14867C13.8993 8.18379 14.0131 8.19139 14.1235 8.17078C14.2339 8.15016 14.3373 8.10199 14.4241 8.03075C14.5109 7.9595 14.5783 7.86748 14.62 7.76323C14.6232 7.74336 14.6232 7.7231 14.62 7.70323C14.6434 7.64361 14.6569 7.58055 14.66 7.51656V3.98323C14.66 3.45395 14.4502 2.94625 14.0766 2.57137C13.7029 2.19649 13.1959 1.98499 12.6667 1.98323ZM13.3333 5.87656L12.8067 5.31656C12.7447 5.25408 12.671 5.20448 12.5897 5.17064C12.5085 5.13679 12.4213 5.11936 12.3333 5.11936C12.2453 5.11936 12.1582 5.13679 12.077 5.17064C11.9957 5.20448 11.922 5.25408 11.86 5.31656L10 7.2099L8.14 5.31656C8.07803 5.25408 8.00429 5.20448 7.92305 5.17064C7.84181 5.13679 7.75468 5.11936 7.66667 5.11936C7.57866 5.11936 7.49152 5.13679 7.41028 5.17064C7.32904 5.20448 7.25531 5.25408 7.19333 5.31656L5.66667 6.87656L4.14 5.31656C4.07803 5.25408 4.00429 5.20448 3.92305 5.17064C3.84181 5.13679 3.75468 5.11936 3.66667 5.11936C3.57866 5.11936 3.49152 5.13679 3.41028 5.17064C3.32904 5.20448 3.25531 5.25408 3.19333 5.31656L2.66667 5.87656V3.98323C2.66667 3.80642 2.73691 3.63685 2.86193 3.51183C2.98695 3.3868 3.15652 3.31656 3.33333 3.31656H12.6667C12.8435 3.31656 13.013 3.3868 13.1381 3.51183C13.2631 3.63685 13.3333 3.80642 13.3333 3.98323V5.87656Z" fill="black" fill-opacity="0.6"/>
</g>
</svg>
