<svg width="17" height="17" viewBox="0 0 17 17" fill="none" xmlns="http://www.w3.org/2000/svg">
  <path fill-rule="evenodd" clip-rule="evenodd" d="M0.175781 8.18518L0.865471 9.16718L1.21823 9.66945L1.90792 10.6515L2.18195 10.459C2.78733 10.0338 3.62275 10.1799 4.04792 10.7853C4.47309 11.3907 4.32701 12.2261 3.72164 12.6512L3.4476 12.8437L4.13729 13.8257L4.49006 14.328L5.17975 15.31L6.16175 14.6203L6.40826 14.4472C6.26982 14.0476 6.16429 13.6309 6.09524 13.2006L5.47206 13.6383L5.03241 13.0123C5.62821 12.1615 5.6614 10.9947 5.02992 10.0956C4.39844 9.19648 3.28964 8.83175 2.28712 9.10348L1.84747 8.47749L10.114 2.67169L10.5536 3.29768C10.1157 3.92302 9.98172 4.71905 10.1922 5.45404C10.5608 5.30325 10.9454 5.18753 11.3425 5.11066C11.1965 4.58051 11.3886 3.99291 11.8644 3.65874L12.1384 3.46628L11.4487 2.48428L11.096 1.982L10.4063 1L9.42427 1.68969L1.15778 7.49549L0.175781 8.18518Z" fill="#808080"/>
  <path d="M9 0.5C8.81061 0.5 8.63748 0.607001 8.55279 0.776393L6.55279 4.77639C6.47529 4.93139 6.48357 5.11546 6.57467 5.26287C6.66578 5.41027 6.82671 5.5 7 5.5H8.19098L6.55279 8.77639C6.44457 8.99282 6.50687 9.25568 6.7007 9.40052C6.89453 9.54537 7.16426 9.53063 7.34116 9.36553L13.3412 3.76553C13.4913 3.6254 13.5405 3.40771 13.4652 3.21665C13.3899 3.02558 13.2054 2.9 13 2.9H11.8498L12.7704 1.24282C12.8564 1.08796 12.8541 0.899125 12.7643 0.746436C12.6744 0.593747 12.5105 0.5 12.3333 0.5H9Z" fill="#808080" stroke="white" stroke-linejoin="round"/>
  <path d="M15.7416 8.16002C15.7338 8.10502 15.6838 8.07458 15.6425 8.07123C15.3381 8.04917 15.0336 8.02728 14.7291 8.00557C14.7291 8.00557 14.1234 7.42562 14.0569 7.36143C13.9904 7.29727 13.8605 7.31679 13.81 7.3311C13.8026 7.33321 13.6777 7.37039 13.4711 7.43206C13.2687 6.87053 12.9116 6.35451 12.2834 6.35451C12.266 6.35451 12.2482 6.35519 12.2303 6.35617C12.0516 6.1283 11.8303 6.0293 11.6391 6.0293C10.1757 6.0293 9.47648 7.79363 9.25727 8.6902C8.68859 8.86014 8.28461 8.98095 8.23301 8.99658C7.91559 9.09261 7.90555 9.10225 7.86387 9.3907C7.8325 9.60908 7.00195 15.8033 7.00195 15.8033L13.4737 16.9727L16.9804 16.2411C16.9804 16.2411 15.7494 8.21502 15.7417 8.16002H15.7416ZM13.1134 7.53875L12.5657 7.7022C12.5659 7.66498 12.5661 7.62837 12.5661 7.58832C12.5661 7.23933 12.5159 6.95834 12.4353 6.73559C12.759 6.77477 12.9746 7.12998 13.1134 7.53875ZM12.0338 6.8048C12.1237 7.02227 12.1823 7.33438 12.1823 7.75554C12.1823 7.77709 12.1821 7.79679 12.1819 7.81672C11.8257 7.92311 11.4387 8.03861 11.0509 8.15448C11.2687 7.34395 11.6769 6.95247 12.0338 6.8048ZM11.5989 6.40786C11.6621 6.40786 11.7257 6.42854 11.7866 6.46896C11.3176 6.6818 10.8149 7.21786 10.6026 8.28837L9.70859 8.55538C9.95727 7.73886 10.5477 6.40786 11.5989 6.40786H11.5989Z" fill="#95BF46"/>
  <path d="M15.6411 8.07151C15.3367 8.04945 15.0322 8.02757 14.7277 8.00585C14.7277 8.00585 14.122 7.4259 14.0555 7.36171C14.0306 7.33783 13.9971 7.32559 13.962 7.32031L13.4727 16.9729L16.979 16.2414C16.979 16.2414 15.748 8.21531 15.7402 8.16031C15.7324 8.10531 15.6824 8.07487 15.6411 8.07151Z" fill="#5E8E3E"/>
  <path d="M12.2821 9.93978L11.8497 11.1801C11.8497 11.1801 11.4709 10.9852 11.0065 10.9852C10.3257 10.9852 10.2914 11.3972 10.2914 11.501C10.2914 12.0675 11.8227 12.2846 11.8227 13.6115C11.8227 14.6555 11.1361 15.3277 10.2103 15.3277C9.09938 15.3277 8.53125 14.6609 8.53125 14.6609L8.82871 13.7131C8.82871 13.7131 9.4127 14.1966 9.90547 14.1966C10.2275 14.1966 10.3584 13.9521 10.3584 13.7735C10.3584 13.0346 9.10219 13.0016 9.10219 11.7873C9.10219 10.7653 9.86281 9.77637 11.3982 9.77637C11.9898 9.77637 12.2821 9.93978 12.2821 9.93978Z" fill="white"/>
</svg>
