<svg style="float:right; margin-top: -8px" width="34" height="35" viewBox="0 0 34 35" fill="none"
                     xmlns="http://www.w3.org/2000/svg">
                  <path
                      d="M11.7931 23.125C11.7059 23.1249 11.6196 23.1066 11.5398 23.0712C11.46 23.0359 11.3884 22.9844 11.3296 22.9199C11.2697 22.856 11.224 22.7801 11.1955 22.6972C11.167 22.6144 11.1563 22.5265 11.1641 22.4392L11.3182 20.7442L18.4375 13.6255L20.6623 15.8503L13.545 22.9684L11.8504 23.1225C11.8314 23.1243 11.8122 23.1251 11.7931 23.125V23.125ZM21.1064 15.4055L18.8822 13.1807L20.2163 11.8462C20.2748 11.7877 20.3441 11.7412 20.4205 11.7096C20.4968 11.6779 20.5787 11.6616 20.6614 11.6616C20.744 11.6616 20.8259 11.6779 20.9022 11.7096C20.9786 11.7412 21.048 11.7877 21.1064 11.8462L22.4405 13.1807C22.499 13.2391 22.5454 13.3085 22.5771 13.3849C22.6087 13.4613 22.625 13.5431 22.625 13.6258C22.625 13.7085 22.6087 13.7904 22.5771 13.8668C22.5454 13.9431 22.499 14.0125 22.4405 14.071L21.107 15.4049L21.1064 15.4055V15.4055Z"
                      fill="#2A2A2A" fill-opacity="0.5"/>
                </svg>
