<svg width="16" height="14" viewBox="0 0 16 14" fill="none" xmlns="http://www.w3.org/2000/svg">
  <path d="M8.11069 6.06812C8.09754 6.05131 8.08073 6.03772 8.06154 6.02837C8.04236 6.01902 8.02129 6.01416 7.99995 6.01416C7.97861 6.01416 7.95754 6.01902 7.93836 6.02837C7.91917 6.03772 7.90236 6.05131 7.88921 6.06812L5.92046 8.55894C5.90423 8.57966 5.89416 8.60454 5.8914 8.63072C5.88864 8.6569 5.8933 8.68332 5.90485 8.70698C5.91641 8.73063 5.93438 8.75056 5.95672 8.76448C5.97907 8.7784 6.00488 8.78575 6.0312 8.78569H7.33022V13.0466C7.33022 13.124 7.39351 13.1873 7.47085 13.1873H8.52554C8.60288 13.1873 8.66616 13.124 8.66616 13.0466V8.78745H9.9687C10.0865 8.78745 10.1515 8.6521 10.0794 8.56069L8.11069 6.06812Z" fill="#808080"/>
  <path d="M13.2629 4.4459C12.4578 2.32246 10.4064 0.8125 8.00352 0.8125C5.60059 0.8125 3.54922 2.3207 2.74414 4.44414C1.2377 4.83965 0.125 6.2125 0.125 7.84375C0.125 9.78613 1.69824 11.3594 3.63887 11.3594H4.34375C4.42109 11.3594 4.48438 11.2961 4.48438 11.2188V10.1641C4.48438 10.0867 4.42109 10.0234 4.34375 10.0234H3.63887C3.04648 10.0234 2.48926 9.78789 2.07441 9.36074C1.66133 8.93535 1.4416 8.3623 1.46094 7.76816C1.47676 7.3041 1.63496 6.86816 1.92148 6.50078C2.21504 6.12637 2.62637 5.85391 3.0834 5.73262L3.74961 5.55859L3.99395 4.91523C4.14512 4.51445 4.35605 4.14004 4.62148 3.80078C4.88352 3.46453 5.19392 3.16894 5.54258 2.92363C6.26504 2.41563 7.11582 2.14668 8.00352 2.14668C8.89121 2.14668 9.74199 2.41563 10.4645 2.92363C10.8143 3.16973 11.1236 3.46504 11.3855 3.80078C11.651 4.14004 11.8619 4.51621 12.0131 4.91523L12.2557 5.55684L12.9201 5.73262C13.8729 5.98926 14.5391 6.85586 14.5391 7.84375C14.5391 8.42559 14.3123 8.97402 13.901 9.38535C13.6993 9.58825 13.4593 9.74912 13.195 9.85865C12.9307 9.96818 12.6472 10.0242 12.3611 10.0234H11.6562C11.5789 10.0234 11.5156 10.0867 11.5156 10.1641V11.2188C11.5156 11.2961 11.5789 11.3594 11.6562 11.3594H12.3611C14.3018 11.3594 15.875 9.78613 15.875 7.84375C15.875 6.21426 14.7658 4.84316 13.2629 4.4459Z" fill="#808080"/>
</svg>
