<svg width="20" height="20" viewBox="0 0 20 20" fill="none" xmlns="http://www.w3.org/2000/svg">
<path d="M10 9.99998C9.08337 9.99998 8.29865 9.67359 7.64587 9.02081C6.9931 8.36803 6.66671 7.58331 6.66671 6.66665C6.66671 5.74998 6.9931 4.96526 7.64587 4.31248C8.29865 3.6597 9.08337 3.33331 10 3.33331C10.9167 3.33331 11.7014 3.6597 12.3542 4.31248C13.007 4.96526 13.3334 5.74998 13.3334 6.66665C13.3334 7.58331 13.007 8.36803 12.3542 9.02081C11.7014 9.67359 10.9167 9.99998 10 9.99998ZM3.33337 16.6666V14.3333C3.33337 13.8611 3.45504 13.4269 3.69837 13.0308C3.94171 12.6347 4.26449 12.3328 4.66671 12.125C5.52782 11.6944 6.40282 11.3714 7.29171 11.1558C8.1806 10.9403 9.08337 10.8328 10 10.8333C10.9167 10.8333 11.8195 10.9411 12.7084 11.1566C13.5973 11.3722 14.4723 11.695 15.3334 12.125C15.7362 12.3333 16.0592 12.6355 16.3025 13.0316C16.5459 13.4278 16.6673 13.8616 16.6667 14.3333V16.6666H3.33337ZM5.00004 15H15V14.3333C15 14.1805 14.9617 14.0416 14.885 13.9166C14.8084 13.7916 14.7078 13.6944 14.5834 13.625C13.8334 13.25 13.0764 12.9689 12.3125 12.7816C11.5487 12.5944 10.7778 12.5005 10 12.5C9.22226 12.5 8.45143 12.5939 7.68754 12.7816C6.92365 12.9694 6.16671 13.2505 5.41671 13.625C5.29171 13.6944 5.19087 13.7916 5.11421 13.9166C5.03754 14.0416 4.99949 14.1805 5.00004 14.3333V15ZM10 8.33331C10.4584 8.33331 10.8509 8.16998 11.1775 7.84331C11.5042 7.51665 11.6673 7.12442 11.6667 6.66665C11.6667 6.20831 11.5034 5.81581 11.1767 5.48915C10.85 5.16248 10.4578 4.99942 10 4.99998C9.54171 4.99998 9.14921 5.16331 8.82254 5.48998C8.49587 5.81665 8.33282 6.20887 8.33337 6.66665C8.33337 7.12498 8.49671 7.51748 8.82337 7.84415C9.15004 8.17081 9.54226 8.33387 10 8.33331Z" fill="black" fill-opacity="0.6"/>
</svg>
