<svg width="28" height="28" viewBox="0 0 28 28" fill="none" xmlns="http://www.w3.org/2000/svg">
<path d="M20.298 15V17.4997C20.298 17.7574 20.0891 17.9663 19.8314 17.9663H3.49804C3.24031 17.9663 3.03138 17.7574 3.03138 17.4997V8.16635C3.03138 7.90861 3.24031 7.69968 3.49804 7.69968H15.5V7.291C15.5 6.95349 15.5273 6.62236 15.5798 6.29968H3.49804C2.46711 6.29968 1.63138 7.13542 1.63138 8.16635V17.4997C1.63138 18.5306 2.46711 19.3663 3.49804 19.3663H19.8314C20.8623 19.3663 21.698 18.5306 21.698 17.4997V15.4313C21.188 15.4023 20.7113 15.2486 20.298 15Z" fill="#ACACAC"/>
<path d="M6.9987 21.4663C6.6121 21.4663 6.2987 21.7797 6.2987 22.1663C6.2987 22.5529 6.6121 22.8663 6.9987 22.8663L16.332 22.8664C16.7186 22.8664 17.032 22.5529 17.032 22.1664C17.032 21.7798 16.7186 21.4664 16.332 21.4664L6.9987 21.4663Z" fill="#ACACAC"/>
<path d="M19.6868 9.91602H17.5687C17.5304 9.91602 17.4993 9.88499 17.4993 9.84671V7.29102C17.4993 4.87477 19.4581 2.91602 21.8743 2.91602V2.91602C24.2906 2.91602 26.2493 4.87477 26.2493 7.29102V9.84671C26.2493 9.88499 26.2183 9.91602 26.18 9.91602H24.0618M19.6868 9.91602V11.2285C19.6868 12.4366 20.6662 13.416 21.8743 13.416V13.416C23.0825 13.416 24.0618 12.4366 24.0618 11.2285V9.91602M19.6868 9.91602H24.0618" stroke="#ACACAC" stroke-width="1.4" stroke-linecap="round"/>
</svg>
