<svg width="26" height="26" viewBox="0 0 26 26" fill="none" xmlns="http://www.w3.org/2000/svg">
<path d="M16.5 21L4.5 21C2.84315 21 1.5 19.6569 1.5 18L1.5 10C1.5 8.34315 2.84315 7 4.5 7L16.5 7C18.1569 7 19.5 8.34315 19.5 10L19.5 18C19.5 19.6569 18.1569 21 16.5 21Z" stroke="#52C41A" stroke-width="1.4" stroke-linecap="round"/>
<path d="M16.0324 13H22.9676C24.5222 13 25.4824 11.3041 24.6826 9.97101L23.5123 8.02043C23.5041 8.00691 23.4984 7.9921 23.4953 7.97663L23.0883 5.94174C22.7462 4.23124 21.2444 3 19.5 3C17.7556 3 16.2538 4.23124 15.9117 5.94174L15.5047 7.97663C15.5016 7.9921 15.4959 8.00691 15.4877 8.02043L14.3174 9.97101C13.5176 11.3041 14.4778 13 16.0324 13Z" fill="white" stroke="#52C41A" stroke-width="1.4" stroke-linecap="round"/>
<path d="M6.5 25H14.5" stroke="#52C41A" stroke-width="1.4" stroke-linecap="round"/>
<path d="M21.5 13.0652V14C21.5 15.1046 20.6046 16 19.5 16C18.3954 16 17.5 15.1046 17.5 14V13.0652C17.5 13.0292 17.5292 13 17.5652 13H21.4348C21.4708 13 21.5 13.0292 21.5 13.0652Z" fill="white" stroke="#52C41A" stroke-width="1.4" stroke-linecap="round"/>
<path d="M19.5 2.5V1.5" stroke="#52C41A" stroke-width="2" stroke-linecap="round"/>
</svg>
