<svg width="25" height="24" viewBox="0 0 25 24" fill="none" xmlns="http://www.w3.org/2000/svg">
<g clip-path="url(#clip0_756_17011)">
<path d="M17.2845 14.2664C17.0157 14.1312 15.6768 13.4891 15.4278 13.4022C15.1787 13.3105 14.9962 13.2671 14.8162 13.5374C14.6338 13.8053 14.116 14.4015 13.9532 14.5825C13.7954 14.7612 13.6351 14.7829 13.3664 14.6501C11.7686 13.8681 10.7206 13.255 9.66772 11.4858C9.38909 11.0151 9.94636 11.0489 10.4666 10.0327C10.5554 9.8541 10.511 9.70204 10.442 9.56687C10.3729 9.43171 9.83046 8.12348 9.60361 7.59005C9.38416 7.0711 9.15731 7.14352 8.9921 7.13386C8.83429 7.12421 8.65429 7.12421 8.47183 7.12421C8.28936 7.12421 7.99593 7.19179 7.74689 7.45488C7.49785 7.72281 6.7951 8.36726 6.7951 9.67549C6.7951 10.9837 7.76908 12.2509 7.90223 12.4295C8.04032 12.6081 9.81814 15.2922 12.5477 16.4483C14.2738 17.1773 14.9494 17.24 15.8124 17.1145C16.3376 17.0373 17.4201 16.4725 17.6445 15.8473C17.8689 15.2246 17.8689 14.6912 17.8023 14.5801C17.7357 14.4619 17.5532 14.3943 17.2845 14.2664Z" fill="#999999"/>
<path d="M1.99091 16.3568C1.07436 14.1354 0.980213 11.6465 1.57495 9.25609C2.21717 6.67481 3.751 4.40355 5.90548 2.84352C8.05996 1.28349 10.6965 0.53508 13.3493 0.730494C16.002 0.925907 18.5004 2.05257 20.4031 3.91146C22.3057 5.77035 23.4901 8.24185 23.7472 10.8894C24.0042 13.5369 23.3173 16.1901 21.8078 18.3803C20.2983 20.5705 18.0634 22.1567 15.4977 22.8588C13.1341 23.5055 10.63 23.3636 8.36265 22.4644C7.89131 22.2775 7.37067 22.1529 6.82419 22.155L2.85639 22.1697C2.85612 22.1697 2.85584 22.1697 2.85556 22.1697C2.73569 22.1695 2.58755 22.1165 2.47177 22.0179C2.35692 21.92 2.33034 21.8294 2.33034 21.7807L2.33034 17.9555C2.33034 17.3839 2.19135 16.8426 1.99091 16.3568Z" stroke="#999999" stroke-width="1.4"/>
</g>
<defs>
<clipPath id="clip0_756_17011">
<rect width="24" height="24" fill="white" transform="translate(0.5)"/>
</clipPath>
</defs>
</svg>
