<svg width="20" height="20" viewBox="0 0 20 20" fill="none" xmlns="http://www.w3.org/2000/svg">
<path fill-rule="evenodd" clip-rule="evenodd" d="M2.29018 17.2878C2.16308 17.5806 2.4131 17.8969 2.72727 17.841L6.47839 17.1724C8.22683 18.0285 10.2276 18.2171 12.1052 17.7028C13.9828 17.1884 15.6082 16.0066 16.6763 14.379C17.7444 12.7514 18.1818 10.79 17.9064 8.86275C17.6311 6.93556 16.6618 5.1751 15.1807 3.91175C13.6995 2.6484 11.8082 1.96901 9.8617 2.00109C7.9152 2.03316 6.0473 2.77449 4.60856 4.08596C3.16982 5.39742 2.25914 7.18886 2.04743 9.12408C1.83571 11.0593 2.33751 13.0053 3.45866 14.5968L2.29018 17.2878ZM7.76621 6.16986C7.46278 6.16986 7.17178 6.2904 6.95722 6.50495C6.74267 6.71951 6.62213 7.01051 6.62213 7.31394V8.20209C6.62213 9.56551 7.16375 10.8731 8.12783 11.8372C9.09191 12.8012 10.3995 13.3429 11.7629 13.3429H12.6511C12.9545 13.3429 13.2455 13.2223 13.46 13.0078C13.6746 12.7932 13.7951 12.5022 13.7951 12.1988C13.7951 11.8954 13.6746 11.6044 13.46 11.3898C13.2455 11.1752 12.9545 11.0547 12.6511 11.0547H11.7629C11.4595 11.0547 11.1685 11.1752 10.9539 11.3898C10.8398 11.5039 10.7523 11.6396 10.6954 11.7873C10.1049 11.6115 9.56135 11.2908 9.11778 10.8472C8.6742 10.4036 8.35353 9.86013 8.17768 9.26961C8.32538 9.21268 8.4611 9.12517 8.57519 9.01108C8.78975 8.79652 8.91029 8.50552 8.91029 8.20209V7.31394C8.91029 7.01051 8.78975 6.71951 8.57519 6.50495C8.36063 6.2904 8.06963 6.16986 7.76621 6.16986Z" fill="#EC615B"/>
</svg>
