<svg width="25" height="24" viewBox="0 0 25 24" fill="none" xmlns="http://www.w3.org/2000/svg">
<path d="M16.8933 14.1C16.6465 13.9759 15.417 13.3863 15.1884 13.3065C14.9597 13.2223 14.7921 13.1824 14.6268 13.4306C14.4593 13.6767 13.9838 14.2241 13.8344 14.3903C13.6895 14.5543 13.5423 14.5743 13.2955 14.4524C11.8283 13.7343 10.866 13.1713 9.89924 11.5467C9.64339 11.1145 10.1551 11.1456 10.6328 10.2125C10.7143 10.0485 10.6736 9.90883 10.6102 9.78472C10.5468 9.6606 10.0487 8.45933 9.84037 7.96951C9.63886 7.49299 9.43056 7.55948 9.27886 7.55061C9.13395 7.54175 8.96866 7.54175 8.80112 7.54175C8.63357 7.54175 8.36413 7.60381 8.13545 7.84539C7.90677 8.09141 7.26147 8.68318 7.26147 9.88445C7.26147 11.0857 8.15582 12.2493 8.27809 12.4133C8.40488 12.5773 10.0374 15.0419 12.5438 16.1036C14.1287 16.7729 14.7491 16.8306 15.5416 16.7153C16.0238 16.6444 17.0178 16.1258 17.2239 15.5517C17.4299 14.9799 17.4299 14.4901 17.3688 14.3881C17.3076 14.2795 17.1401 14.2175 16.8933 14.1Z" fill="#52C41A"/>
<path d="M2.8501 16.0195C2.00848 13.9798 1.92203 11.6944 2.46815 9.49936C3.05787 7.12911 4.46629 5.04354 6.44463 3.61105C8.42298 2.17856 10.8439 1.49134 13.2798 1.67077C15.7158 1.85021 18.0099 2.88476 19.757 4.59168C21.504 6.2986 22.5917 8.56804 22.8277 10.9991C23.0637 13.4302 22.433 15.8665 21.0469 17.8776C19.6608 19.8887 17.6085 21.3453 15.2526 21.9899C13.0823 22.5838 10.7829 22.4535 8.70092 21.6278C8.26811 21.4562 7.79004 21.3418 7.28824 21.3437L3.64482 21.3572C3.64449 21.3572 3.64416 21.3572 3.64382 21.3572C3.53379 21.3569 3.39788 21.3083 3.29164 21.2178C3.18619 21.128 3.16178 21.0448 3.16178 21L3.16178 17.4876C3.16178 16.9627 3.03415 16.4656 2.8501 16.0195Z" stroke="#52C41A" stroke-width="1.28554"/>
</svg>
