<svg width="30" height="30" viewBox="0 0 30 30" fill="none" xmlns="http://www.w3.org/2000/svg">
<path d="M7.5 22.5L8.875 19.3333C7.82305 17.8401 7.35222 16.0142 7.55087 14.1984C7.74952 12.3827 8.60399 10.7018 9.95392 9.47127C11.3039 8.24076 13.0565 7.54518 14.8828 7.51509C16.7092 7.48499 18.4837 8.12244 19.8735 9.30782C21.2632 10.4932 22.1726 12.145 22.431 13.9532C22.6893 15.7615 22.2789 17.6018 21.2768 19.129C20.2746 20.6561 18.7495 21.765 16.9878 22.2476C15.2261 22.7302 13.3489 22.5532 11.7083 21.75L7.5 22.5Z" stroke="#666666" stroke-width="1.4" stroke-linecap="round" stroke-linejoin="round"/>
<path d="M12.5 13.3333C12.5 13.4439 12.5439 13.5498 12.622 13.628C12.7002 13.7061 12.8062 13.75 12.9167 13.75C13.0272 13.75 13.1332 13.7061 13.2113 13.628C13.2894 13.5498 13.3333 13.4439 13.3333 13.3333V12.5C13.3333 12.3895 13.2894 12.2835 13.2113 12.2054C13.1332 12.1272 13.0272 12.0833 12.9167 12.0833C12.8062 12.0833 12.7002 12.1272 12.622 12.2054C12.5439 12.2835 12.5 12.3895 12.5 12.5V13.3333ZM12.5 13.3333C12.5 14.4384 12.939 15.4982 13.7204 16.2796C14.5018 17.061 15.5616 17.5 16.6667 17.5M16.6667 17.5H17.5C17.6105 17.5 17.7165 17.4561 17.7946 17.378C17.8728 17.2998 17.9167 17.1939 17.9167 17.0833C17.9167 16.9728 17.8728 16.8669 17.7946 16.7887C17.7165 16.7106 17.6105 16.6667 17.5 16.6667H16.6667C16.5562 16.6667 16.4502 16.7106 16.372 16.7887C16.2939 16.8669 16.25 16.9728 16.25 17.0833C16.25 17.1939 16.2939 17.2998 16.372 17.378C16.4502 17.4561 16.5562 17.5 16.6667 17.5Z" stroke="#666666" stroke-width="1.4" stroke-linecap="round" stroke-linejoin="round"/>
</svg>
