<svg width="16" height="16" viewBox="0 0 16 16" fill="none" xmlns="http://www.w3.org/2000/svg">
<path d="M6.65415 11.2752L6.15385 13L5.65354 11.2752C5.52423 10.8296 5.28178 10.4239 4.94908 10.0962C4.61638 9.76855 4.20439 9.52977 3.752 9.40242L2 8.90909L3.75138 8.41636C4.20378 8.28901 4.61577 8.05024 4.94847 7.72258C5.28117 7.39492 5.52361 6.98918 5.65292 6.54364L6.15385 4.81818L6.65415 6.54303C6.78346 6.98857 7.02591 7.39431 7.35861 7.72198C7.69131 8.04964 8.1033 8.28841 8.55569 8.41576L10.3077 8.90909L8.55631 9.40182C8.10391 9.52917 7.69193 9.76794 7.35923 10.0956C7.02652 10.4233 6.78346 10.8296 6.65415 11.2752ZM12.8517 5.91818L12.6923 6.54545L12.5329 5.91818C12.4417 5.55854 12.2529 5.23007 11.9868 4.9679C11.7207 4.70572 11.3873 4.51969 11.0222 4.4297L10.3846 4.27273L11.0222 4.11576C11.3873 4.02576 11.7207 3.83973 11.9868 3.57756C12.2529 3.31538 12.4417 2.98692 12.5329 2.62727L12.6923 2L12.8517 2.62727C12.943 2.98699 13.1318 3.31551 13.398 3.57769C13.6643 3.83987 13.9978 4.02586 14.3631 4.11576L15 4.27273L14.3631 4.4297C13.9978 4.5196 13.6643 4.70558 13.398 4.96776C13.1318 5.22995 12.943 5.55846 12.8517 5.91818Z" stroke="black" stroke-opacity="0.85" stroke-width="1.2" stroke-linecap="round" stroke-linejoin="round"/>
</svg>
