<svg width="48" height="48" viewBox="0 0 48 48" fill="none" xmlns="http://www.w3.org/2000/svg">
<path d="M24 1.5C20.2653 1.50401 16.5959 2.47992 13.3526 4.33177C10.1093 6.18362 7.40374 8.84765 5.502 12.0619C3.60026 15.2762 2.56777 18.9301 2.50606 22.6644C2.44434 26.3986 3.35552 30.0846 5.15 33.36L2.5 44.5L13.64 41.85C16.5132 43.4262 19.7088 44.3247 22.9824 44.4768C26.2561 44.629 29.5212 44.0307 32.5282 42.7278C35.5353 41.4249 38.2047 39.4518 40.3325 36.9594C42.4603 34.4669 43.9901 31.521 44.8051 28.3468C45.6201 25.1725 45.6987 21.854 45.0348 18.6448C44.371 15.4355 42.9823 12.4205 40.9748 9.83015C38.9674 7.23976 36.3944 5.14256 33.4523 3.69881C30.5103 2.25506 27.2772 1.50296 24 1.5Z" stroke="#EC615B" stroke-width="2" stroke-linecap="round" stroke-linejoin="round"/>
<path fill-rule="evenodd" clip-rule="evenodd" d="M33.885 27.2379C33.3422 26.9721 30.6807 25.6914 30.1853 25.513C29.6898 25.3364 29.3291 25.249 28.9666 25.7805C28.6059 26.3085 27.5694 27.5036 27.2543 27.8568C26.9373 28.2118 26.6222 28.2546 26.0811 27.9906C25.5401 27.723 23.795 27.1647 21.7274 25.3596C20.1189 23.954 19.0314 22.2184 18.7163 21.6868C18.4011 21.1571 18.6817 20.8699 18.9531 20.6059C19.1972 20.3687 19.4941 19.9869 19.7655 19.6783C20.037 19.368 20.1262 19.1468 20.3066 18.7918C20.4887 18.4386 20.3976 18.1301 20.261 17.8643C20.1262 17.5985 19.0442 14.9889 18.5924 13.9275C18.1534 12.8948 17.7071 13.0357 17.3756 13.0178C17.0586 13.0036 16.6979 13 16.3372 13C15.9765 13 15.39 13.132 14.8945 13.6636C14.3972 14.1933 13 15.4758 13 18.0855C13 20.6933 14.9382 23.2137 15.2096 23.5687C15.4811 23.9219 19.026 29.2767 24.4562 31.5724C25.7496 32.1182 26.757 32.4446 27.5421 32.6872C28.8391 33.0921 30.0195 33.035 30.9522 32.8977C31.9905 32.7461 34.1546 31.6152 34.6064 30.3772C35.0563 29.1393 35.0563 28.078 34.9215 27.8568C34.7867 27.6356 34.426 27.5036 33.8832 27.2379H33.885Z" fill="#EC615B"/>
</svg>
