<svg width="55" height="54" viewBox="0 0 55 54" fill="none" xmlns="http://www.w3.org/2000/svg">
<g clip-path="url(#clip0_312_5026)">
    <path d="M51.9645 54.0002C53.6407 54.0002 55 52.6658 55 51.0199V2.98034C55 1.33418 53.6407 0 51.9645 0H3.03553C1.35867 0 0 1.33418 0 2.98034V51.0199C0 52.6658 1.35867 54.0002 3.03553 54.0002H51.9645" fill="#00E676"/>
    <g clip-path="url(#clip1_312_5026)">
    <path d="M17.4914 42.1842L18.1904 42.533C21.1033 44.2766 24.3655 45.0903 27.6278 45.0903C37.8806 45.0903 46.2693 36.7206 46.2693 26.491C46.2693 21.6087 44.2885 16.8426 40.7934 13.3551C37.2981 9.86771 32.6376 7.8916 27.6278 7.8916C17.375 7.8916 8.98618 16.2613 9.10276 26.6073C9.10276 30.0946 10.1513 33.4658 11.8989 36.3718L12.3649 37.0694L10.5009 43.928L17.4914 42.1842Z" fill="#00E676"/>
    <path d="M42.7753 11.4951C38.814 7.42652 33.3381 5.21777 27.7456 5.21777C15.8618 5.21777 6.30799 14.8662 6.42441 26.607C6.42441 30.3269 7.47299 33.9307 9.22073 37.1854L6.19141 48.2288L17.4928 45.3227C20.6385 47.0665 24.1337 47.8802 27.6292 47.8802C39.3966 47.8802 48.9504 38.2317 48.9504 26.491C48.9504 20.7948 46.7367 15.4474 42.7755 11.4951H42.7753ZM27.7456 44.2766C24.5999 44.2766 21.4541 43.4631 18.7744 41.8356L18.0754 41.4868L11.3179 43.2304L13.0655 36.6045L12.5995 35.9069C7.47299 27.6535 9.91973 16.7261 18.3084 11.6112C26.697 6.49646 37.5324 8.93768 42.6589 17.3074C47.7853 25.6771 45.3385 36.488 36.95 41.6029C34.2701 43.3466 31.0079 44.2765 27.7456 44.2765V44.2766ZM37.9984 31.3734L36.7169 30.7922C36.7169 30.7922 34.8529 29.9784 33.6877 29.3972C33.5711 29.3972 33.4547 29.2809 33.3381 29.2809C32.9885 29.2809 32.7555 29.3972 32.5225 29.5135C32.5225 29.5135 32.4061 29.6296 30.7749 31.4896C30.6584 31.7221 30.4254 31.8384 30.1924 31.8384H30.0758C29.9594 31.8384 29.7264 31.7221 29.6098 31.6059L29.0272 31.3734C27.7456 30.7922 26.5806 30.0946 25.6485 29.1647C25.4155 28.9322 25.0659 28.6998 24.8329 28.4673C24.0173 27.6535 23.2017 26.7235 22.6193 25.6773L22.5027 25.4448C22.3863 25.3285 22.3863 25.2123 22.2697 24.9798C22.2697 24.7474 22.2697 24.5149 22.3863 24.3986C22.3863 24.3986 22.8523 23.8173 23.2017 23.4687C23.4349 23.236 23.5513 22.8874 23.7843 22.6549C24.0173 22.3062 24.1339 21.8412 24.0173 21.4924C23.9009 20.9111 22.5027 17.7725 22.1533 17.0751C21.9201 16.7263 21.6873 16.6101 21.3377 16.4938H20.0561C19.823 16.4938 19.5901 16.6101 19.357 16.6101L19.2404 16.7263C19.0074 16.8426 18.7744 17.0751 18.5414 17.1912C18.3084 17.4239 18.1918 17.6562 17.9588 17.8888C17.1432 18.935 16.6772 20.2137 16.6772 21.4924C16.6772 22.4223 16.9102 23.3524 17.2598 24.1661L17.3764 24.5149C18.425 26.7235 19.823 28.6998 21.6873 30.4434L22.1533 30.9083C22.5027 31.2571 22.8523 31.4896 23.0853 31.8382C25.532 33.9308 28.3282 35.442 31.4739 36.2557C31.8235 36.3719 32.2895 36.3719 32.6391 36.4882H33.8041C34.3867 36.4882 35.0857 36.2557 35.5519 36.0232C35.9013 35.7908 36.1343 35.7908 36.3673 35.5583L36.6004 35.3257C36.8334 35.0932 37.0664 34.977 37.2994 34.7446C37.5324 34.5121 37.7654 34.2796 37.882 34.047C38.115 33.582 38.2314 33.0008 38.348 32.4197V31.6059C38.348 31.6059 38.2314 31.4896 37.9984 31.3734V31.3734Z" fill="white"/>
    </g>
</g>
<defs>
    <clipPath id="clip0_312_5026">
    <rect width="55" height="54" fill="white"/>
    </clipPath>
    <clipPath id="clip1_312_5026">
    <rect width="42.7583" height="43.1617" fill="white" transform="translate(6.19141 5.21777)"/>
    </clipPath>
</defs>
</svg>