<svg width="28" height="28" viewBox="0 0 28 28" fill="none" xmlns="http://www.w3.org/2000/svg">
<g clip-path="url(#clip0_236_1224)">
<path fill-rule="evenodd" clip-rule="evenodd" d="M18.0613 15.7865C17.8378 15.6748 16.742 15.1363 16.538 15.0613C16.334 14.987 16.1855 14.9503 16.0363 15.1738C15.8878 15.3958 15.461 15.8983 15.3312 16.0468C15.2007 16.196 15.071 16.214 14.8482 16.103C14.6255 15.9905 13.907 15.7558 13.0557 14.9968C12.3935 14.4058 11.9457 13.676 11.816 13.4525C11.6862 13.2298 11.8018 13.109 11.9135 12.998C12.014 12.8983 12.1362 12.7378 12.248 12.608C12.3597 12.4775 12.3965 12.3845 12.4708 12.2353C12.5458 12.0868 12.5082 11.957 12.452 11.8453C12.3965 11.7335 11.951 10.6363 11.765 10.19C11.5843 9.75578 11.4005 9.81503 11.264 9.80753C11.1335 9.80153 10.985 9.80003 10.8365 9.80003C10.688 9.80003 10.4465 9.85553 10.2425 10.079C10.0377 10.3018 9.4625 10.841 9.4625 11.9383C9.4625 13.0348 10.2605 14.0945 10.3723 14.2438C10.484 14.3923 11.9435 16.6438 14.1793 17.609C14.7118 17.8385 15.1265 17.9758 15.4497 18.0778C15.9837 18.248 16.4698 18.224 16.8538 18.1663C17.2813 18.1025 18.1723 17.627 18.3583 17.1065C18.5435 16.586 18.5435 16.1398 18.488 16.0468C18.4325 15.9538 18.2848 15.8983 18.0613 15.7865ZM13.9948 21.3388H13.9918C12.6638 21.339 11.3603 20.9821 10.2177 20.3053V20.3053C10.045 20.2026 9.83831 20.1735 9.64394 20.2245L7.14125 20.8813L7.803 18.4648C7.85876 18.2612 7.82656 18.0435 7.71425 17.8648V17.8648C6.97185 16.683 6.57897 15.3154 6.581 13.9198C6.5825 9.83228 9.908 6.50678 13.9977 6.50678C15.9777 6.50678 17.8393 7.27928 19.2388 8.68028C19.929 9.36772 20.4762 10.1852 20.8485 11.0855C21.2208 11.9857 21.4109 12.9508 21.4078 13.925C21.4063 18.0125 18.0807 21.3388 13.9948 21.3388ZM20.3038 7.61603C19.4774 6.78422 18.4942 6.12468 17.4111 5.67563C16.328 5.22658 15.1665 4.99694 13.994 5.00003C9.0785 5.00003 5.0765 9.00128 5.075 13.919C5.07292 15.3448 5.41349 16.7482 6.06537 18.0117C6.18776 18.2489 6.2256 18.5226 6.15512 18.7801L5.45738 21.3291C5.25412 22.0717 5.93101 22.7558 6.67569 22.5604L9.34421 21.8602C9.59072 21.7955 9.85154 21.8297 10.0805 21.9416C11.2967 22.5356 12.634 22.8455 13.991 22.8455H13.9948C18.9102 22.8455 22.9122 18.8443 22.9137 13.9258C22.9174 12.7537 22.6886 11.5926 22.2406 10.5096C21.7926 9.42651 21.1343 8.44303 20.3038 7.61603Z" fill="#389E0D"/>
</g>
<defs>
<clipPath id="clip0_236_1224">
<rect width="18" height="18" fill="white" transform="translate(5 5)"/>
</clipPath>
</defs>
</svg>
