<svg width="50" height="50" viewBox="0 0 50 50" fill="none" xmlns="http://www.w3.org/2000/svg">
<path d="M28.0085 17.2005C27.1751 17.6421 26.8751 18.3713 26.8751 20.388C26.8751 20.388 27.296 19.9838 27.9147 19.7567C28.2961 19.6184 28.6555 19.4254 28.9814 19.1838C29.6855 18.6692 29.7835 18.013 29.7835 16.9005C29.7835 16.9005 28.6314 16.8671 28.0085 17.2005ZM23.1147 17.6775C22.448 18.2734 22.2439 19.2171 22.2439 19.2171L19.998 27.8442L18.146 20.7713C17.9647 20.0317 17.6335 19.088 17.1147 18.465C16.4689 17.6775 15.148 17.6296 15.0001 17.6296C14.8585 17.6296 13.523 17.6775 12.8626 18.4775C12.3501 19.1088 12.0168 20.0421 11.8355 20.7859L9.98346 27.8588L7.76263 19.2192C7.76263 19.2192 7.57096 18.263 6.8918 17.6796C5.78971 16.7109 4.1543 16.915 4.1543 16.915L8.42096 33.09C8.42096 33.09 9.83138 33.1984 10.5355 32.8275C11.4543 32.3609 11.9085 31.9921 12.471 29.7796C12.973 27.8213 14.371 22.063 14.5001 21.6442C14.5605 21.44 14.646 20.9525 15.0022 20.9525C15.3751 20.9525 15.448 21.4296 15.5043 21.6442C15.6376 22.0505 17.023 27.8213 17.5376 29.7796C18.096 31.9775 18.5397 32.3359 19.473 32.8275C20.1772 33.1984 21.5876 33.09 21.5876 33.09L25.8543 16.9255C25.8501 16.9255 24.2105 16.7192 23.1147 17.6775ZM29.7835 19.5525C29.7835 19.5525 29.5147 19.9588 28.9085 20.3171C28.5168 20.5338 28.1439 20.688 27.7376 20.8817C27.0647 21.2025 26.8751 21.5734 26.8751 22.1213V33.0921C26.8751 33.0921 27.9626 33.2234 28.6543 32.8755C29.5626 32.413 29.7647 31.9692 29.7814 29.9505V19.5525H29.7835ZM40.4335 25.0359L45.848 16.963C45.848 16.963 43.5647 16.5692 42.4293 17.6067C41.7001 18.263 40.8918 19.4505 40.8918 19.4505L38.9085 22.338C38.798 22.4817 38.6918 22.6505 38.4918 22.6505C38.2855 22.6505 38.1564 22.4942 38.071 22.338L36.0668 19.4588C36.0668 19.4588 35.2647 18.2755 34.5251 17.6171C33.4001 16.5775 31.1064 16.9713 31.1064 16.9713L36.5293 25.0234L31.1064 33.0609C31.1064 33.0609 33.4939 33.3713 34.623 32.3317C35.3522 31.6755 36.0564 30.588 36.0564 30.588L38.0355 27.7067C38.146 27.565 38.2522 27.4005 38.4522 27.4005C38.6605 27.4005 38.7876 27.5567 38.873 27.7067L40.8564 30.588C40.8564 30.588 41.596 31.6505 42.3147 32.3317C43.4355 33.3713 45.7876 33.0609 45.7876 33.0609L40.4335 25.0359Z" fill="black"/>
</svg>
