<svg width="119" height="24" viewBox="0 0 119 24" fill="none" xmlns="http://www.w3.org/2000/svg">
<g clip-path="url(#clip0_173_6437)">
<path fill-rule="evenodd" clip-rule="evenodd" d="M36.4716 0H3.73314C1.66081 0 -0.0161167 1.68531 0.000116876 3.73062V16.1661C0.000116876 18.2278 1.67751 19.8969 3.74937 19.8969H19.2554L26.3425 23.8239L24.731 19.8969H36.4716C38.5434 19.8969 40.2206 18.228 40.2206 16.1663V3.73062C40.2206 1.66892 38.5432 0 36.4716 0ZM3.04252 2.88C2.58195 2.91231 2.23664 3.07615 2.00658 3.387C1.7763 3.68146 1.69397 4.05785 1.74337 4.48315C2.71367 10.6193 3.61788 14.7591 4.45669 16.9025C4.7853 17.6878 5.16355 18.0642 5.60765 18.0316C6.29827 17.9825 7.12039 17.0333 8.09046 15.1844C8.60019 14.1372 9.3896 12.5665 10.4582 10.4721C11.3464 13.5644 12.563 15.8882 14.0922 17.4425C14.5199 17.8842 14.9637 18.0805 15.3911 18.0478C15.7696 18.0152 16.0655 17.8188 16.2627 17.4588C16.4273 17.148 16.4929 16.7878 16.46 16.3788C16.3615 14.8899 16.5094 12.8118 16.9206 10.1448C17.348 7.39592 17.8742 5.41592 18.5154 4.23785C18.6471 3.99254 18.6963 3.747 18.6801 3.45254C18.6471 3.07615 18.4827 2.76531 18.1703 2.51977C17.8577 2.27446 17.5124 2.15977 17.1342 2.19254C16.6574 2.22531 16.2956 2.45446 16.0488 2.91254C15.0296 4.76146 14.3061 7.75592 13.8786 11.9118C13.2537 10.341 12.7272 8.49231 12.3165 6.31615C12.1356 5.35085 11.6915 4.89254 10.968 4.94169C10.4747 4.97446 10.0635 5.30169 9.73491 5.92338L6.13385 12.7463C5.54179 10.374 4.98266 7.47785 4.47292 4.05785C4.3579 3.207 3.8811 2.81423 3.04252 2.87977V2.88ZM34.7286 4.05785C35.896 4.30338 36.7675 4.92508 37.3595 5.95592C37.8857 6.83977 38.1487 7.90315 38.1487 9.17931C38.1487 10.8646 37.7213 12.4029 36.8663 13.8099C35.8795 15.4461 34.5971 16.2644 33.002 16.2644C32.7226 16.2644 32.4266 16.2316 32.114 16.1661C30.9466 15.9208 30.0751 15.2991 29.483 14.2682C28.9571 13.3682 28.6938 12.2882 28.6938 11.0282C28.6938 9.34315 29.1215 7.80485 29.9763 6.41423C30.9795 4.77808 32.262 3.95977 33.8406 3.95977C34.1203 3.95977 34.4162 3.99254 34.7286 4.05785ZM34.0379 12.9102C34.6465 12.3702 35.0574 11.5682 35.2877 10.4885C35.3535 10.1121 35.4027 9.70292 35.4027 9.27762C35.4027 8.80315 35.3041 8.29592 35.1068 7.78869C34.86 7.15038 34.5312 6.80677 34.1365 6.72485C33.5447 6.61038 32.9691 6.93785 32.4266 7.73954C31.9825 8.36123 31.7031 9.01569 31.5551 9.68654C31.4728 10.0629 31.4399 10.4721 31.4399 10.8812C31.4399 11.3557 31.5384 11.8629 31.7358 12.3702C31.9825 13.0082 32.3114 13.3518 32.7061 13.4338C33.117 13.5155 33.5611 13.3355 34.0379 12.9099V12.9102ZM27.0499 5.95569C26.4578 4.92485 25.5698 4.30315 24.4189 4.05762C24.1062 3.99231 23.8106 3.95954 23.5306 3.95954C21.9523 3.95954 20.6698 4.77762 19.6668 6.414C18.8116 7.80462 18.3844 9.34292 18.3844 11.0282C18.3844 12.2882 18.6474 13.368 19.1733 14.268C19.7654 15.2988 20.6369 15.9205 21.8043 16.1658C22.1167 16.2314 22.4126 16.2642 22.6925 16.2642C24.2874 16.2642 25.5698 15.4461 26.5564 13.8097C27.4116 12.4027 27.8388 10.8644 27.8388 9.17908C27.8388 7.90292 27.5758 6.83931 27.0499 5.95569ZM24.9778 10.488C24.7477 11.568 24.3365 12.3699 23.7282 12.9097C23.2514 13.3352 22.8076 13.5152 22.3964 13.4335C22.0017 13.3516 21.6728 13.008 21.4261 12.3697C21.229 11.8627 21.1302 11.3555 21.1302 10.881C21.1302 10.4718 21.1631 10.0627 21.2454 9.68631C21.3934 9.01546 21.6728 8.361 22.1167 7.73931C22.6594 6.93761 23.235 6.61015 23.8268 6.72485C24.2215 6.80654 24.5504 7.15015 24.7971 7.78846C24.9942 8.29569 25.093 8.80292 25.093 9.27738C25.093 9.70269 25.0601 10.1118 24.9778 10.4882V10.488Z" fill="#7F54B3"/>
<path fill-rule="evenodd" clip-rule="evenodd" d="M44.3806 5.80825C43.2788 6.88825 42.7363 8.26271 42.7363 9.93186C42.7363 11.7152 43.2788 13.1716 44.3641 14.268C45.4494 15.3642 46.8634 15.9203 48.6228 15.9203C49.1326 15.9203 49.7082 15.8386 50.3329 15.6586V13.0078C49.7576 13.1716 49.2641 13.2533 48.8367 13.2533C47.9652 13.2533 47.2745 12.9589 46.7483 12.3861C46.2221 11.7972 45.9589 11.0116 45.9589 10.0138C45.9589 9.08102 46.2221 8.31186 46.7319 7.72294C47.2581 7.1174 47.8993 6.82294 48.6887 6.82294C49.1984 6.82294 49.7409 6.90463 50.3329 7.06825V4.41763C49.7903 4.2704 49.182 4.20486 48.5405 4.20486C46.8634 4.18871 45.4821 4.72871 44.3806 5.80848V5.80825ZM55.792 4.18848C54.2793 4.18848 53.0954 4.69571 52.2404 5.69378C51.3853 6.69209 50.9742 8.09909 50.9742 9.89909C50.9742 11.8463 51.4018 13.3352 52.2404 14.3661C53.079 15.3969 54.3122 15.9206 55.9238 15.9206C57.4857 15.9206 58.686 15.3967 59.5246 14.3661C60.3632 13.3352 60.7908 11.8789 60.7908 10.0138C60.7908 8.14825 60.3632 6.70848 59.5084 5.69378C58.6369 4.69571 57.4036 4.18848 55.792 4.18848ZM57.0912 12.6969C56.795 13.1552 56.3512 13.3844 55.792 13.3844C55.2658 13.3844 54.8714 13.1552 54.5917 12.6969C54.3122 12.2389 54.1807 11.3225 54.1807 9.93186C54.1807 7.78825 54.7234 6.72463 55.825 6.72463C56.9759 6.72463 57.568 7.80463 57.568 9.98078C57.5515 11.3225 57.3871 12.2389 57.0912 12.6969ZM68.9139 4.49932L68.3218 7.00294C68.1738 7.64102 68.0259 8.29548 67.8944 8.96632L67.5655 10.7008C67.2532 8.96632 66.8255 6.90463 66.2831 4.49932H62.4682L61.0373 15.6422H63.8986L64.6713 7.96825L66.6282 15.6422H68.6671L70.5416 7.98463L71.3475 15.6422H74.34L72.8273 4.49932H68.9136H68.9139ZM82.611 4.49932L82.0192 7.00294C81.871 7.64102 81.7231 8.29548 81.5916 8.96632L81.2627 10.7008C80.9503 8.96632 80.5227 6.90463 79.9803 4.49932H76.1654L74.7347 15.6422H77.5958L78.3685 7.96825L80.3254 15.6422H82.3643L84.2226 7.98463L85.0282 15.6422H88.021L86.508 4.49932H82.611ZM91.918 11.2408H94.5981V8.93355H91.918V6.88825H95.0093V4.51594H88.8925V15.6586H95.0258V13.2863H91.918V11.2406V11.2408ZM103.543 9.47355C103.856 8.96632 104.02 8.44271 104.02 7.90294C104.02 6.85571 103.609 6.02125 102.787 5.41571C101.965 4.8104 100.83 4.49955 99.416 4.49955H95.897V15.6422H98.9227V10.5699H98.9721L101.422 15.6422H104.612L102.195 10.6191C102.77 10.3572 103.231 9.98078 103.543 9.47355H103.543ZM98.9063 9.29355V6.64294C99.6298 6.65909 100.14 6.77378 100.452 7.00294C100.764 7.23186 100.912 7.59186 100.912 8.11548C100.912 8.88463 100.238 9.2774 98.9063 9.29355ZM105.796 5.80848C104.694 6.88848 104.152 8.26271 104.152 9.93186C104.152 11.7152 104.694 13.1716 105.78 14.268C106.865 15.3642 108.279 15.9203 110.039 15.9203C110.548 15.9203 111.124 15.8386 111.748 15.6586V13.0078C111.174 13.1716 110.68 13.2533 110.252 13.2533C109.381 13.2533 108.69 12.9589 108.164 12.3861C107.638 11.7972 107.375 11.0116 107.375 10.0138C107.375 9.08102 107.638 8.31186 108.147 7.72294C108.674 7.1174 109.315 6.82294 110.104 6.82294C110.613 6.82294 111.157 6.90463 111.748 7.06825V4.41763C111.206 4.2704 110.598 4.20486 109.957 4.20486C108.295 4.18871 106.898 4.72871 105.796 5.80848ZM115.613 13.2533V11.2244H118.292V8.9174H115.613V6.87209H118.72V4.49932H112.603V15.6422H118.737V13.2697H115.613V13.2536V13.2533Z" fill="black"/>
</g>
<defs>
<clipPath id="clip0_173_6437">
<rect width="118.737" height="24" fill="white"/>
</clipPath>
</defs>
</svg>
