<svg width="92" height="20" viewBox="0 0 92 20" fill="none" xmlns="http://www.w3.org/2000/svg">
    <path d="M3.02322 19L3.91122 13.408L0.28722 1.312H2.92722L5.51922 10.744L11.4472 1.312H14.1832L6.33522 13.408L5.44722 19H3.02322ZM17.0334 19.144C16.0254 19.144 15.1534 18.992 14.4174 18.688C13.6974 18.384 13.1454 17.912 12.7614 17.272C12.3774 16.632 12.1854 15.792 12.1854 14.752C12.1854 14.336 12.2014 13.936 12.2334 13.552C12.2654 13.168 12.3134 12.776 12.3774 12.376C12.5854 11.096 12.8654 10.048 13.2174 9.232C13.5694 8.4 14.0094 7.752 14.5374 7.288C15.0654 6.824 15.6974 6.496 16.4334 6.304C17.1854 6.112 18.0734 6.016 19.0974 6.016C20.3294 6.016 21.2974 6.184 22.0014 6.52C22.7054 6.856 23.1934 7.368 23.4654 8.056C23.7534 8.728 23.8974 9.568 23.8974 10.576C23.8974 10.96 23.8734 11.368 23.8254 11.8C23.7934 12.232 23.7454 12.68 23.6814 13.144C23.4414 14.712 23.0494 15.936 22.5054 16.816C21.9774 17.68 21.2654 18.288 20.3694 18.64C19.4894 18.976 18.3774 19.144 17.0334 19.144ZM17.2974 17.176C17.8894 17.176 18.4014 17.12 18.8334 17.008C19.2654 16.88 19.6334 16.664 19.9374 16.36C20.2414 16.04 20.4974 15.592 20.7054 15.016C20.9294 14.424 21.1214 13.672 21.2814 12.76C21.3454 12.312 21.3934 11.904 21.4254 11.536C21.4734 11.152 21.4974 10.8 21.4974 10.48C21.4974 9.552 21.2814 8.896 20.8494 8.512C20.4334 8.128 19.7294 7.936 18.7374 7.936C18.1294 7.936 17.6094 8.008 17.1774 8.152C16.7454 8.296 16.3774 8.544 16.0734 8.896C15.7694 9.232 15.5134 9.72 15.3054 10.36C15.0974 10.984 14.9134 11.784 14.7534 12.76C14.6894 13.128 14.6414 13.472 14.6094 13.792C14.5934 14.096 14.5854 14.384 14.5854 14.656C14.5854 15.344 14.6974 15.872 14.9214 16.24C15.1454 16.592 15.4574 16.84 15.8574 16.984C16.2734 17.112 16.7534 17.176 17.2974 17.176ZM29.2095 19.144C28.0895 19.144 27.2655 18.88 26.7375 18.352C26.2095 17.808 25.9455 17.072 25.9455 16.144C25.9455 15.856 25.9535 15.6 25.9695 15.376C26.0015 15.136 26.0335 14.92 26.0655 14.728L27.4095 6.16H29.8335L28.5135 14.512C28.4975 14.624 28.4815 14.736 28.4655 14.848C28.4655 14.96 28.4655 15.08 28.4655 15.208C28.4655 15.8 28.6335 16.248 28.9695 16.552C29.3055 16.84 29.8175 16.984 30.5055 16.984C31.2575 16.984 31.9295 16.872 32.5215 16.648C33.1135 16.424 33.7295 16.128 34.3695 15.76L35.8815 6.16H38.3055L36.2655 19H34.1775L34.0815 17.632C33.6015 17.936 33.1215 18.2 32.6415 18.424C32.1615 18.648 31.6415 18.824 31.0815 18.952C30.5375 19.08 29.9135 19.144 29.2095 19.144ZM44.3313 19C43.1953 19 42.3393 18.768 41.7633 18.304C41.1873 17.824 40.8993 17.128 40.8993 16.216C40.8993 15.896 40.9153 15.56 40.9473 15.208C40.9953 14.856 41.0513 14.48 41.1153 14.08L42.1473 8.128H40.1313L40.3713 6.568L42.5073 6.16L43.4433 2.56H45.3393L44.7633 6.16H48.2433L47.9313 8.128H44.4513L43.4913 14.104C43.4593 14.312 43.4193 14.56 43.3713 14.848C43.3393 15.12 43.3233 15.376 43.3233 15.616C43.3233 16.08 43.4433 16.432 43.6833 16.672C43.9393 16.896 44.3233 17.032 44.8353 17.08L46.3473 17.224L46.0593 19H44.3313ZM48.7378 19L51.6418 0.688H54.0418L52.9618 7.552C53.5698 7.12 54.2898 6.752 55.1218 6.448C55.9538 6.144 56.8658 5.992 57.8578 5.992C58.8978 5.992 59.6898 6.248 60.2338 6.76C60.7938 7.272 61.0738 8.064 61.0738 9.136C61.0738 9.52 61.0418 9.96 60.9778 10.456L59.6098 19H57.2098L58.5058 10.768C58.5218 10.624 58.5298 10.496 58.5298 10.384C58.5458 10.256 58.5538 10.128 58.5538 10C58.5538 9.312 58.3698 8.832 58.0018 8.56C57.6498 8.288 57.1618 8.152 56.5378 8.152C55.7858 8.152 55.1138 8.264 54.5218 8.488C53.9298 8.696 53.3138 9.008 52.6738 9.424L51.1378 19H48.7378ZM63.5717 19L65.2757 8.152H63.3797L63.6197 6.592L65.5877 6.16L65.9237 4.216C66.0037 3.72 66.1237 3.256 66.2837 2.824C66.4597 2.376 66.6997 1.984 67.0037 1.648C67.3237 1.296 67.7317 1.024 68.2277 0.831999C68.7237 0.639999 69.3397 0.543999 70.0757 0.543999C70.5877 0.543999 71.0997 0.559999 71.6117 0.592C72.1237 0.623999 72.5637 0.671999 72.9317 0.735999L72.6677 2.488H70.4597C69.9317 2.488 69.5157 2.576 69.2117 2.752C68.9237 2.928 68.6997 3.192 68.5397 3.544C68.3957 3.88 68.2917 4.304 68.2277 4.816L68.0117 6.16H71.6597L71.3477 8.152H67.6997L65.9957 19H63.5717ZM75.522 19.144C74.402 19.144 73.578 18.88 73.05 18.352C72.522 17.808 72.258 17.072 72.258 16.144C72.258 15.856 72.266 15.6 72.282 15.376C72.314 15.136 72.346 14.92 72.378 14.728L73.722 6.16H76.146L74.826 14.512C74.81 14.624 74.794 14.736 74.778 14.848C74.778 14.96 74.778 15.08 74.778 15.208C74.778 15.8 74.946 16.248 75.282 16.552C75.618 16.84 76.13 16.984 76.818 16.984C77.57 16.984 78.242 16.872 78.834 16.648C79.426 16.424 80.042 16.128 80.682 15.76L82.194 6.16H84.618L82.578 19H80.49L80.394 17.632C79.914 17.936 79.434 18.2 78.954 18.424C78.474 18.648 77.954 18.824 77.394 18.952C76.85 19.08 76.226 19.144 75.522 19.144ZM89.4438 19C88.3878 19 87.5798 18.76 87.0198 18.28C86.4598 17.8 86.1798 17.152 86.1798 16.336C86.1798 16.016 86.1958 15.712 86.2278 15.424C86.2598 15.12 86.2998 14.84 86.3478 14.584L88.5558 0.688H90.9558L88.8678 13.84C88.8518 13.984 88.8278 14.168 88.7958 14.392C88.7638 14.6 88.7318 14.816 88.6998 15.04C88.6838 15.264 88.6758 15.48 88.6758 15.688C88.6758 16.2 88.7958 16.56 89.0358 16.768C89.2758 16.96 89.6118 17.08 90.0438 17.128L91.1958 17.272L90.9078 19H89.4438Z" fill="#1A2037"/>
</svg>
