<svg width="39" height="38" viewBox="0 0 39 38" fill="none" xmlns="http://www.w3.org/2000/svg">
<g filter="url(#filter0_d_917_29194)">
<path d="M17.7658 11.4342L16.5184 11.9077C16.4191 11.9447 16.3529 12.0421 16.3529 12.1496C16.3529 12.257 16.4191 12.3544 16.5184 12.3914L17.7658 12.865L18.2324 14.1312C18.2687 14.2319 18.3647 14.2991 18.4706 14.2991C18.5765 14.2991 18.6724 14.2319 18.7088 14.1312L19.1754 12.865L20.4228 12.3914C20.5221 12.3544 20.5882 12.257 20.5882 12.1496C20.5882 12.0421 20.5221 11.9447 20.4228 11.9077L19.1754 11.4342L18.7088 10.1679C18.6724 10.0672 18.5765 10 18.4706 10C18.3647 10 18.2687 10.0672 18.2324 10.1679L17.7658 11.4342ZM10.7312 24.0863C10.1125 24.7144 10.1125 25.7354 10.7312 26.3668L11.8761 27.5289C12.4949 28.157 13.5007 28.157 14.1228 27.5289L26.7393 14.7189C27.3581 14.0909 27.3581 13.0698 26.7393 12.4384L25.5945 11.2797C24.9757 10.6516 23.9699 10.6516 23.3478 11.2797L10.7312 24.0863ZM25.2404 13.5804L21.7662 17.107L20.9952 16.3244L24.4695 12.7978L25.2404 13.5804ZM10.2482 13.9364C10.0993 13.9935 10 14.1379 10 14.2991C10 14.4603 10.0993 14.6047 10.2482 14.6618L12.1176 15.3739L12.8191 17.2715C12.8754 17.4227 13.0176 17.5234 13.1765 17.5234C13.3353 17.5234 13.4776 17.4227 13.5338 17.2715L14.2353 15.3739L16.1048 14.6618C16.2537 14.6047 16.3529 14.4603 16.3529 14.2991C16.3529 14.1379 16.2537 13.9935 16.1048 13.9364L14.2353 13.2243L13.5338 11.3267C13.4776 11.1755 13.3353 11.0748 13.1765 11.0748C13.0176 11.0748 12.8754 11.1755 12.8191 11.3267L12.1176 13.2243L10.2482 13.9364ZM22.8952 20.9224C22.7463 20.9795 22.6471 21.1239 22.6471 21.2852C22.6471 21.4464 22.7463 21.5908 22.8952 21.6479L24.7647 22.3599L25.4662 24.2576C25.5224 24.4087 25.6647 24.5095 25.8235 24.5095C25.9824 24.5095 26.1246 24.4087 26.1809 24.2576L26.8824 22.3599L28.7518 21.6479C28.9007 21.5908 29 21.4464 29 21.2852C29 21.1239 28.9007 20.9795 28.7518 20.9224L26.8824 20.2104L26.1809 18.3127C26.1246 18.1616 25.9824 18.0608 25.8235 18.0608C25.6647 18.0608 25.5224 18.1616 25.4662 18.3127L24.7647 20.2104L22.8952 20.9224Z" fill="#8A8B8C"/>
</g>
<defs>
<filter id="filter0_d_917_29194" x="0" y="0" width="39" height="38" filterUnits="userSpaceOnUse" color-interpolation-filters="sRGB">
<feFlood flood-opacity="0" result="BackgroundImageFix"/>
<feColorMatrix in="SourceAlpha" type="matrix" values="0 0 0 0 0 0 0 0 0 0 0 0 0 0 0 0 0 0 127 0" result="hardAlpha"/>
<feOffset/>
<feGaussianBlur stdDeviation="5"/>
<feComposite in2="hardAlpha" operator="out"/>
<feColorMatrix type="matrix" values="0 0 0 0 1 0 0 0 0 1 0 0 0 0 1 0 0 0 0.6 0"/>
<feBlend mode="normal" in2="BackgroundImageFix" result="effect1_dropShadow_917_29194"/>
<feBlend mode="normal" in="SourceGraphic" in2="effect1_dropShadow_917_29194" result="shape"/>
</filter>
</defs>
</svg>
