<svg width="34" height="34" viewBox="0 0 34 34" fill="none" xmlns="http://www.w3.org/2000/svg">
<mask id="mask0_619_36638" style="mask-type:alpha" maskUnits="userSpaceOnUse" x="9" y="9" width="16" height="16">
<rect x="9" y="9" width="16" height="16" fill="#D9D9D9"/>
</mask>
<g mask="url(#mask0_619_36638)">
<path d="M11.1274 20.5105C10.9234 20.8384 10.4843 20.9246 10.1714 20.6984C9.88734 20.493 9.81103 20.1027 9.9968 19.8054L13.0001 15.0002L15.0001 17.3335L17.6667 13.0002L19.4834 15.7168C19.2279 15.7279 18.9862 15.7585 18.7584 15.8085C18.5306 15.8585 18.3056 15.9279 18.0834 16.0168L17.7167 15.4668L15.1834 19.5835L13.1667 17.2335L11.1274 20.5105ZM23.8575 23.8595C23.5957 24.1213 23.1712 24.1213 22.9094 23.8595L21.3001 22.2502C21.0779 22.4057 20.8306 22.5224 20.5584 22.6002C20.2862 22.6779 20.0056 22.7168 19.7167 22.7168C18.8834 22.7168 18.1751 22.4252 17.5917 21.8418C17.0084 21.2585 16.7167 20.5502 16.7167 19.7168C16.7167 18.8835 17.0084 18.1752 17.5917 17.5918C18.1751 17.0085 18.8834 16.7168 19.7167 16.7168C20.5501 16.7168 21.2584 17.0085 21.8417 17.5918C22.4251 18.1752 22.7167 18.8835 22.7167 19.7168C22.7167 20.0057 22.6779 20.2863 22.6001 20.5585C22.5223 20.8307 22.4056 21.0835 22.2501 21.3168L23.8556 22.9095C24.1192 23.171 24.12 23.5969 23.8575 23.8595ZM19.7167 21.3835C20.1834 21.3835 20.5779 21.2224 20.9001 20.9002C21.2223 20.5779 21.3834 20.1835 21.3834 19.7168C21.3834 19.2502 21.2223 18.8557 20.9001 18.5335C20.5779 18.2113 20.1834 18.0502 19.7167 18.0502C19.2501 18.0502 18.8556 18.2113 18.5334 18.5335C18.2112 18.8557 18.0501 19.2502 18.0501 19.7168C18.0501 20.1835 18.2112 20.5779 18.5334 20.9002C18.8556 21.2224 19.2501 21.3835 19.7167 21.3835ZM21.2001 16.0502C20.989 15.9613 20.7695 15.8891 20.5417 15.8335C20.314 15.7779 20.0779 15.7446 19.8334 15.7335L22.8709 10.9328C23.0764 10.608 23.5133 10.5238 23.8248 10.7491C24.1105 10.9557 24.1859 11.349 23.9969 11.6466L21.2001 16.0502Z" fill="#8A8B8C"/>
</g>
</svg>
