<svg width="31" height="30" viewBox="0 0 31 30" fill="none" xmlns="http://www.w3.org/2000/svg">
<path d="M14.9 15.0619V16C14.9 16.7732 14.2732 17.4 13.5 17.4H9.5C8.7268 17.4 8.1 16.7732 8.1 16V15.0619C8.1 14.3053 8.70111 13.6856 9.45735 13.6625L11.5 13.6003L13.5427 13.6625C14.2989 13.6856 14.9 14.3053 14.9 15.0619Z" stroke="#8A8B8C" stroke-width="1.2"/>
<circle cx="11.5016" cy="9.4" r="1.8" stroke="#8A8B8C" stroke-width="1.2"/>
<path d="M22.9 19V20C22.9 20.7732 22.2732 21.4 21.5 21.4H17.5C16.7268 21.4 16.1 20.7732 16.1 20V19C16.1 18.2268 16.7268 17.6 17.5 17.6H19.5H21.5C22.2732 17.6 22.9 18.2268 22.9 19Z" stroke="#8A8B8C" stroke-width="1.2"/>
<circle cx="19.5016" cy="13.2643" r="1.8" stroke="#8A8B8C" stroke-width="1.2"/>
</svg>
