<svg width="30" height="30" viewBox="0 0 30 30" fill="none" xmlns="http://www.w3.org/2000/svg">
<path d="M22.4375 10.3438L21.1875 7.84375C21.1337 7.74085 21.0529 7.65452 20.9539 7.59397C20.8548 7.53342 20.7411 7.50094 20.625 7.5H9.375C9.25889 7.50094 9.14522 7.53342 9.04614 7.59397C8.94706 7.65452 8.8663 7.74085 8.8125 7.84375L7.5625 10.3438C7.52248 10.4322 7.5012 10.5279 7.5 10.625V21.25C7.5 21.5815 7.6317 21.8995 7.86612 22.1339C8.10054 22.3683 8.41848 22.5 8.75 22.5H21.25C21.5815 22.5 21.8995 22.3683 22.1339 22.1339C22.3683 21.8995 22.5 21.5815 22.5 21.25V10.625C22.4988 10.5279 22.4775 10.4322 22.4375 10.3438ZM9.75781 8.75H20.2422L20.8672 10H9.13281L9.75781 8.75ZM21.25 21.25H8.75V11.25H21.25V21.25Z" fill="#8A8B8C"/>
<path d="M13.368 14.1605L12.7402 16.6879C12.7345 16.7055 12.7374 16.7231 12.7488 16.7407C12.766 16.7524 12.7832 16.7583 12.8004 16.7583H13.9528C13.97 16.7583 13.9843 16.7524 13.9958 16.7407C14.013 16.7231 14.0187 16.7055 14.013 16.6879L13.3852 14.1605C13.3852 14.1546 13.3823 14.1517 13.3766 14.1517C13.3709 14.1517 13.368 14.1546 13.368 14.1605ZM11.0719 19.2857C10.9515 19.2857 10.854 19.2358 10.7795 19.136C10.7107 19.0362 10.6963 18.9276 10.7365 18.8102L12.4736 13.3327C12.5195 13.1918 12.5998 13.0773 12.7144 12.9892C12.8348 12.9012 12.9667 12.8571 13.11 12.8571H13.6776C13.8267 12.8571 13.9614 12.9012 14.0818 12.9892C14.2022 13.0773 14.2825 13.1918 14.3226 13.3327L16.0512 18.8102C16.0913 18.9276 16.0741 19.0362 15.9996 19.136C15.9308 19.2358 15.8362 19.2857 15.7158 19.2857H15.1396C14.9962 19.2857 14.8672 19.2417 14.7526 19.1536C14.6379 19.0597 14.5634 18.9423 14.529 18.8014L14.3226 17.9648C14.3169 17.9178 14.2882 17.8943 14.2366 17.8943H12.5166C12.4708 17.8943 12.4421 17.9178 12.4306 17.9648L12.2242 18.8014C12.1898 18.9423 12.1153 19.0597 12.0006 19.1536C11.886 19.2417 11.757 19.2857 11.6137 19.2857H11.0719Z" fill="#8A8B8C"/>
<path d="M17.4535 19.2857C17.3216 19.2857 17.2069 19.2358 17.1095 19.136C17.0177 19.0362 16.9719 18.9188 16.9719 18.7838V13.3591C16.9719 13.2241 17.0177 13.1067 17.1095 13.0068C17.2069 12.907 17.3216 12.8571 17.4535 12.8571H18.0898C18.2217 12.8571 18.3335 12.907 18.4252 13.0068C18.5227 13.1067 18.5714 13.2241 18.5714 13.3591V18.7838C18.5714 18.9188 18.5227 19.0362 18.4252 19.136C18.3335 19.2358 18.2217 19.2857 18.0898 19.2857H17.4535Z" fill="#8A8B8C"/>
</svg>
