<svg width="31" height="30" viewBox="0 0 31 30" fill="none" xmlns="http://www.w3.org/2000/svg">
<g clip-path="url(#clip0_1_214)">
<path d="M16.8704 11V12.0619M12.5741 15.2475H11.5M13.4971 12.4378L12.7376 11.6869M21.3149 20.1695L20.6149 22.2703C20.311 23.1824 19.0359 23.2589 18.6227 22.3897L15.7159 16.2756C15.3255 15.4545 16.0893 14.5588 16.9739 14.8004L23.7117 16.64C24.6761 16.9033 24.7846 18.2124 23.8765 18.6274L21.8844 19.5378C21.6142 19.6613 21.408 19.89 21.3149 20.1695Z" stroke="#8A8B8C" stroke-width="1.2" stroke-linecap="round"/>
<path d="M20.5 15.7946V9.5C20.5 8.39543 19.6046 7.5 18.5 7.5H10C8.89543 7.5 8 8.39543 8 9.5V17.5C8 18.6046 8.89543 19.5 10 19.5H17.2372" stroke="#8A8B8C" stroke-width="1.2" stroke-linecap="round"/>
</g>
<defs>
<clipPath id="clip0_1_214">
<rect width="20" height="20" fill="white" transform="translate(5.5 5)"/>
</clipPath>
</defs>
</svg>
