<svg width="32" height="32" viewBox="0 0 32 32" fill="none" xmlns="http://www.w3.org/2000/svg">
<mask id="mask0_595_1263" style="mask-type:alpha" maskUnits="userSpaceOnUse" x="9" y="9" width="14" height="14">
<rect x="9" y="9" width="14" height="14" fill="#D9D9D9"/>
</mask>
<g mask="url(#mask0_595_1263)">
<path d="M11.9167 21.25C11.5958 21.25 11.3212 21.1358 11.0927 20.9073C10.8642 20.6788 10.75 20.4042 10.75 20.0833V11.9167C10.75 11.5958 10.8642 11.3212 11.0927 11.0927C11.3212 10.8642 11.5958 10.75 11.9167 10.75H16V11.9167H11.9167V20.0833H20.0833V16H21.25V20.0833C21.25 20.4042 21.1358 20.6788 20.9073 20.9073C20.6788 21.1358 20.4042 21.25 20.0833 21.25H11.9167ZM14.6583 18.1583L13.8417 17.3417L19.2667 11.9167H17.1667V10.75H21.25V14.8333H20.0833V12.7333L14.6583 18.1583Z" fill="black" fill-opacity="0.6"/>
</g>
</svg>
