<svg width="32" height="32" viewBox="0 0 32 32" fill="none" xmlns="http://www.w3.org/2000/svg">
<mask id="mask0_595_1257" style="mask-type:alpha" maskUnits="userSpaceOnUse" x="6" y="6" width="20" height="20">
<rect x="6" y="6" width="20" height="20" fill="#D9D9D9"/>
</mask>
<g mask="url(#mask0_595_1257)">
<path d="M15.9839 21.8346C15.8579 21.8346 15.7326 21.8178 15.6081 21.7842C15.4837 21.7505 15.3696 21.7043 15.266 21.6455C14.6752 21.293 14.0579 21.0277 13.4142 20.8499C12.7705 20.672 12.1047 20.583 11.4166 20.583C10.9081 20.583 10.4086 20.6394 9.91825 20.7521C9.42786 20.8648 8.9551 21.0307 8.49998 21.2497C8.20298 21.3864 7.9204 21.3661 7.65223 21.1888C7.38408 21.0114 7.25 20.7604 7.25 20.4356V11.4036C7.25 11.2241 7.29754 11.0583 7.39263 10.906C7.48771 10.7538 7.61965 10.6429 7.78846 10.5735C8.35256 10.2989 8.94042 10.093 9.55206 9.95569C10.1637 9.8184 10.7852 9.74975 11.4166 9.74975C12.2275 9.74975 13.0171 9.86461 13.7852 10.0943C14.5534 10.324 15.2916 10.6472 16 11.0639V20.6343C16.7029 20.1899 17.4447 19.8619 18.2251 19.6504C19.0056 19.4388 19.7916 19.3331 20.5833 19.3331C21.0619 19.3331 21.5141 19.3667 21.9399 19.434C22.3656 19.5013 22.8055 19.6076 23.2596 19.7529C23.3183 19.769 23.3731 19.7703 23.4238 19.7569C23.4746 19.7436 23.5 19.6995 23.5 19.6247V10.2658C23.6442 10.3085 23.7849 10.3561 23.9222 10.4084C24.0595 10.4608 24.1933 10.5265 24.3236 10.6055C24.4657 10.675 24.5723 10.7765 24.6434 10.91C24.7144 11.0436 24.7499 11.1867 24.7499 11.3395V20.4195C24.7499 20.7443 24.6118 20.9941 24.3357 21.1688C24.0595 21.3434 23.7649 21.3651 23.4519 21.2337C23.0021 21.02 22.536 20.8581 22.0536 20.7481C21.5713 20.6381 21.0812 20.583 20.5833 20.583C19.8899 20.583 19.216 20.672 18.5616 20.8499C17.9073 21.0277 17.2847 21.293 16.6939 21.6455C16.5902 21.7043 16.4775 21.7505 16.3557 21.7842C16.2339 21.8178 16.11 21.8346 15.9839 21.8346ZM18.306 17.9228C18.1778 18.0371 18.0392 18.0601 17.8902 17.9917C17.7411 17.9234 17.6666 17.8042 17.6666 17.6344V11.1584C17.6666 11.1082 17.677 11.0588 17.6979 11.0102C17.7187 10.9616 17.7473 10.9191 17.7836 10.8828L21.1811 7.48534C21.3093 7.35713 21.45 7.32641 21.6033 7.39319C21.7566 7.45997 21.8333 7.58257 21.8333 7.76098V14.5783C21.8333 14.6424 21.8207 14.6974 21.7956 14.7433C21.7705 14.7893 21.7398 14.8304 21.7035 14.8667L18.306 17.9228ZM14.75 20.0302V11.8203C14.2276 11.5617 13.6864 11.3603 13.1266 11.2161C12.5668 11.0719 11.9968 10.9997 11.4166 10.9997C10.9027 10.9997 10.4148 11.047 9.95269 11.1416C9.49062 11.2361 9.05713 11.3672 8.65221 11.535C8.60947 11.551 8.57342 11.5737 8.54404 11.6031C8.51465 11.6325 8.49996 11.6685 8.49996 11.7113V19.6536C8.49996 19.7284 8.52533 19.7724 8.57608 19.7858C8.62683 19.7991 8.68159 19.7951 8.74035 19.7738C9.15167 19.6253 9.57555 19.5147 10.012 19.442C10.4484 19.3694 10.9166 19.3331 11.4166 19.3331C12.0395 19.3331 12.6346 19.3974 13.2019 19.5262C13.7692 19.6549 14.2852 19.8229 14.75 20.0302Z" fill="black" fill-opacity="0.6"/>
</g>
</svg>
