<svg width="31" height="30" viewBox="0 0 31 30" fill="none" xmlns="http://www.w3.org/2000/svg">
<path d="M22.9 14.8902V21C22.9 21.7732 22.2732 22.4 21.5 22.4H19.2143C18.4411 22.4 17.8143 21.7732 17.8143 21V19.0476C17.8143 17.7695 16.7781 16.7333 15.5 16.7333C14.2219 16.7333 13.1857 17.7695 13.1857 19.0476V21C13.1857 21.7732 12.5589 22.4 11.7857 22.4H9.5C8.7268 22.4 8.1 21.7732 8.1 21V14.8902C8.1 14.5209 8.24591 14.1666 8.50595 13.9044L14.506 7.8544C15.0536 7.30218 15.9464 7.30218 16.4941 7.8544L22.4941 13.9044C22.7541 14.1666 22.9 14.5209 22.9 14.8902Z" stroke="#8A8B8C" stroke-width="1.2" stroke-linejoin="round"/>
</svg>
