<svg width="31" height="30" viewBox="0 0 31 30" fill="none" xmlns="http://www.w3.org/2000/svg">
<path d="M21.9 9V19C21.9 19.7732 21.2732 20.4 20.5 20.4C19.7268 20.4 19.1 19.7732 19.1 19V9C19.1 8.2268 19.7268 7.6 20.5 7.6C21.2732 7.6 21.9 8.2268 21.9 9Z" stroke="#8A8B8C" stroke-width="1.2"/>
<path d="M16.9 13V19C16.9 19.7732 16.2732 20.4 15.5 20.4C14.7268 20.4 14.1 19.7732 14.1 19V13C14.1 12.2268 14.7268 11.6 15.5 11.6C16.2732 11.6 16.9 12.2268 16.9 13Z" stroke="#8A8B8C" stroke-width="1.2"/>
<path d="M11.9 18V19C11.9 19.7732 11.2732 20.4 10.5 20.4C9.7268 20.4 9.1 19.7732 9.1 19V18C9.1 17.2268 9.7268 16.6 10.5 16.6C11.2732 16.6 11.9 17.2268 11.9 18Z" stroke="#8A8B8C" stroke-width="1.2"/>
</svg>
